# MagicaVoxel @ Ephtracy

# group
o 

# material
mtllib WeaponTargetting#3.mtl
usemtl palette

# normals
vn -1 0 0
vn 1 0 0
vn 0 0 1
vn 0 0 -1
vn 0 -1 0
vn 0 1 0

# texcoords
vt 0.970703 0.5
vt 0.974609 0.5
vt 0.978516 0.5

# verts
v 0 2.1 -0.1
v 0 2.1 -0.8
v 0 2.2 -0.1
v 0 2.2 -0.8
v 0 2.3 -0.1
v 0 2.3 -0.8
v 0.1 2.2 0
v 0.1 2.2 -0.1
v 0.1 2.2 -0.8
v 0.1 2.2 -0.9
v 0.1 2.3 -0.1
v 0.1 2.3 -0.4
v 0.1 2.3 -0.8
v 0.1 2.4 0
v 0.1 2.4 -0.3
v 0.1 2.4 -0.4
v 0.1 2.4 -0.8
v 0.1 2.4 -0.9
v 0.1 2.5 -0.3
v 0.1 2.5 -0.7
v 0.1 2.5 -0.8
v 0.1 2.6 -0.7
v 0.1 2.6 -0.8
v 0.3 2 -0.4
v 0.3 2 -0.5
v 0.3 2.1 -0.4
v 0.3 2.1 -0.5
v 0.4 2.2 0
v 0.4 2.2 -0.1
v 0.4 2.2 -0.8
v 0.4 2.2 -0.9
v 0.4 2.3 -0.1
v 0.4 2.3 -0.8
v 0.4 2.4 0
v 0.4 2.4 -0.7
v 0.4 2.4 -0.8
v 0.4 2.4 -0.9
v 0.4 2.5 -0.7
v 0.4 2.5 -0.8
v 0.5 2.4 -0.3
v 0.5 2.4 -0.7
v 0.5 2.5 -0.3
v 0.5 2.5 -0.7
v 0.5 2.5 -0.8
v 0.5 2.6 -0.7
v 0.5 2.6 -0.8
v 0.2 2.4 -0.3
v 0.2 2.4 -0.7
v 0.2 2.5 -0.3
v 0.2 2.5 -0.7
v 0.2 2.5 -0.8
v 0.2 2.6 -0.7
v 0.2 2.6 -0.8
v 0.3 2.2 0
v 0.3 2.2 -0.1
v 0.3 2.2 -0.8
v 0.3 2.2 -0.9
v 0.3 2.3 -0.1
v 0.3 2.3 -0.8
v 0.3 2.4 0
v 0.3 2.4 -0.7
v 0.3 2.4 -0.8
v 0.3 2.4 -0.9
v 0.3 2.5 -0.7
v 0.3 2.5 -0.8
v 0.4 2 -0.4
v 0.4 2 -0.5
v 0.4 2.1 -0.4
v 0.4 2.1 -0.5
v 0.6 2.2 0
v 0.6 2.2 -0.1
v 0.6 2.2 -0.8
v 0.6 2.2 -0.9
v 0.6 2.3 -0.1
v 0.6 2.3 -0.5
v 0.6 2.3 -0.8
v 0.6 2.4 0
v 0.6 2.4 -0.3
v 0.6 2.4 -0.5
v 0.6 2.4 -0.8
v 0.6 2.4 -0.9
v 0.6 2.5 -0.3
v 0.6 2.5 -0.7
v 0.6 2.5 -0.8
v 0.6 2.6 -0.7
v 0.6 2.6 -0.8
v 0.7 2.1 -0.1
v 0.7 2.1 -0.8
v 0.7 2.2 -0.1
v 0.7 2.2 -0.8
v 0.7 2.3 -0.1
v 0.7 2.3 -0.8
v 0.1 2.2 0
v 0.1 2.4 0
v 0.3 2.2 0
v 0.3 2.4 0
v 0.4 2.2 0
v 0.4 2.4 0
v 0.6 2.2 0
v 0.6 2.4 0
v 0 2.1 -0.1
v 0 2.2 -0.1
v 0 2.3 -0.1
v 0.1 2.2 -0.1
v 0.1 2.3 -0.1
v 0.3 2.2 -0.1
v 0.3 2.3 -0.1
v 0.4 2.2 -0.1
v 0.4 2.3 -0.1
v 0.6 2.2 -0.1
v 0.6 2.3 -0.1
v 0.7 2.1 -0.1
v 0.7 2.2 -0.1
v 0.7 2.3 -0.1
v 0.1 2.4 -0.3
v 0.1 2.5 -0.3
v 0.2 2.4 -0.3
v 0.2 2.5 -0.3
v 0.5 2.4 -0.3
v 0.5 2.5 -0.3
v 0.6 2.4 -0.3
v 0.6 2.5 -0.3
v 0.3 2 -0.4
v 0.3 2.1 -0.4
v 0.4 2 -0.4
v 0.4 2.1 -0.4
v 0.1 2.5 -0.7
v 0.1 2.6 -0.7
v 0.2 2.4 -0.7
v 0.2 2.5 -0.7
v 0.2 2.6 -0.7
v 0.3 2.4 -0.7
v 0.3 2.5 -0.7
v 0.4 2.4 -0.7
v 0.4 2.5 -0.7
v 0.5 2.4 -0.7
v 0.5 2.5 -0.7
v 0.5 2.6 -0.7
v 0.6 2.5 -0.7
v 0.6 2.6 -0.7
v 0.3 2 -0.5
v 0.3 2.1 -0.5
v 0.4 2 -0.5
v 0.4 2.1 -0.5
v 0 2.1 -0.8
v 0 2.2 -0.8
v 0 2.3 -0.8
v 0.1 2.2 -0.8
v 0.1 2.3 -0.8
v 0.1 2.4 -0.8
v 0.1 2.5 -0.8
v 0.1 2.6 -0.8
v 0.2 2.4 -0.8
v 0.2 2.5 -0.8
v 0.2 2.6 -0.8
v 0.3 2.2 -0.8
v 0.3 2.3 -0.8
v 0.3 2.4 -0.8
v 0.3 2.5 -0.8
v 0.4 2.2 -0.8
v 0.4 2.3 -0.8
v 0.4 2.4 -0.8
v 0.4 2.5 -0.8
v 0.5 2.4 -0.8
v 0.5 2.5 -0.8
v 0.5 2.6 -0.8
v 0.6 2.2 -0.8
v 0.6 2.3 -0.8
v 0.6 2.4 -0.8
v 0.6 2.5 -0.8
v 0.6 2.6 -0.8
v 0.7 2.1 -0.8
v 0.7 2.2 -0.8
v 0.7 2.3 -0.8
v 0.1 2.2 -0.9
v 0.1 2.4 -0.9
v 0.3 2.2 -0.9
v 0.3 2.4 -0.9
v 0.4 2.2 -0.9
v 0.4 2.4 -0.9
v 0.6 2.2 -0.9
v 0.6 2.4 -0.9
v 0.3 2 -0.4
v 0.4 2 -0.4
v 0.3 2 -0.5
v 0.4 2 -0.5
v 0 2.1 -0.1
v 0.7 2.1 -0.1
v 0.3 2.1 -0.4
v 0.4 2.1 -0.4
v 0.3 2.1 -0.5
v 0.4 2.1 -0.5
v 0 2.1 -0.8
v 0.7 2.1 -0.8
v 0.1 2.2 0
v 0.3 2.2 0
v 0.4 2.2 0
v 0.6 2.2 0
v 0.1 2.2 -0.1
v 0.3 2.2 -0.1
v 0.4 2.2 -0.1
v 0.6 2.2 -0.1
v 0.1 2.2 -0.8
v 0.3 2.2 -0.8
v 0.4 2.2 -0.8
v 0.6 2.2 -0.8
v 0.1 2.2 -0.9
v 0.3 2.2 -0.9
v 0.4 2.2 -0.9
v 0.6 2.2 -0.9
v 0 2.3 -0.1
v 0.1 2.3 -0.1
v 0.3 2.3 -0.1
v 0.4 2.3 -0.1
v 0.6 2.3 -0.1
v 0.7 2.3 -0.1
v 0.1 2.3 -0.4
v 0.6 2.3 -0.5
v 0 2.3 -0.8
v 0.1 2.3 -0.8
v 0.3 2.3 -0.8
v 0.4 2.3 -0.8
v 0.6 2.3 -0.8
v 0.7 2.3 -0.8
v 0.1 2.4 0
v 0.3 2.4 0
v 0.4 2.4 0
v 0.6 2.4 0
v 0.1 2.4 -0.3
v 0.2 2.4 -0.3
v 0.5 2.4 -0.3
v 0.6 2.4 -0.3
v 0.2 2.4 -0.7
v 0.3 2.4 -0.7
v 0.4 2.4 -0.7
v 0.5 2.4 -0.7
v 0.1 2.4 -0.8
v 0.2 2.4 -0.8
v 0.3 2.4 -0.8
v 0.4 2.4 -0.8
v 0.5 2.4 -0.8
v 0.6 2.4 -0.8
v 0.1 2.4 -0.9
v 0.3 2.4 -0.9
v 0.4 2.4 -0.9
v 0.6 2.4 -0.9
v 0.1 2.5 -0.3
v 0.2 2.5 -0.3
v 0.5 2.5 -0.3
v 0.6 2.5 -0.3
v 0.1 2.5 -0.7
v 0.2 2.5 -0.7
v 0.3 2.5 -0.7
v 0.4 2.5 -0.7
v 0.5 2.5 -0.7
v 0.6 2.5 -0.7
v 0.2 2.5 -0.8
v 0.3 2.5 -0.8
v 0.4 2.5 -0.8
v 0.5 2.5 -0.8
v 0.1 2.6 -0.7
v 0.2 2.6 -0.7
v 0.5 2.6 -0.7
v 0.6 2.6 -0.7
v 0.1 2.6 -0.8
v 0.2 2.6 -0.8
v 0.5 2.6 -0.8
v 0.6 2.6 -0.8

# faces
f 3/3/1 2/3/1 1/3/1
f 4/3/1 2/3/1 3/3/1
f 5/1/1 4/1/1 3/1/1
f 6/1/1 4/1/1 5/1/1
f 11/2/1 8/2/1 7/2/1
f 13/2/1 10/2/1 9/2/1
f 14/2/1 12/2/1 11/2/1
f 14/2/1 11/2/1 7/2/1
f 15/2/1 12/2/1 14/2/1
f 16/3/1 13/3/1 12/3/1
f 16/2/1 12/2/1 15/2/1
f 17/2/1 10/2/1 13/2/1
f 17/3/1 13/3/1 16/3/1
f 18/2/1 10/2/1 17/2/1
f 19/2/1 16/2/1 15/2/1
f 19/2/1 17/2/1 16/2/1
f 20/2/1 17/2/1 19/2/1
f 21/2/1 17/2/1 20/2/1
f 22/3/1 21/3/1 20/3/1
f 23/3/1 21/3/1 22/3/1
f 26/3/1 25/3/1 24/3/1
f 27/3/1 25/3/1 26/3/1
f 32/2/1 29/2/1 28/2/1
f 33/2/1 31/2/1 30/2/1
f 34/2/1 32/2/1 28/2/1
f 34/2/1 33/2/1 32/2/1
f 35/2/1 33/2/1 34/2/1
f 36/2/1 31/2/1 33/2/1
f 36/2/1 33/2/1 35/2/1
f 37/2/1 31/2/1 36/2/1
f 38/3/1 36/3/1 35/3/1
f 39/3/1 36/3/1 38/3/1
f 42/2/1 41/2/1 40/2/1
f 43/2/1 41/2/1 42/2/1
f 45/3/1 44/3/1 43/3/1
f 46/3/1 44/3/1 45/3/1
f 47/2/2 48/2/2 49/2/2
f 49/2/2 48/2/2 50/2/2
f 50/3/2 51/3/2 52/3/2
f 52/3/2 51/3/2 53/3/2
f 54/2/2 55/2/2 58/2/2
f 56/2/2 57/2/2 59/2/2
f 54/2/2 58/2/2 60/2/2
f 58/2/2 59/2/2 60/2/2
f 60/2/2 59/2/2 61/2/2
f 59/2/2 57/2/2 62/2/2
f 61/2/2 59/2/2 62/2/2
f 62/2/2 57/2/2 63/2/2
f 61/3/2 62/3/2 64/3/2
f 64/3/2 62/3/2 65/3/2
f 66/3/2 67/3/2 68/3/2
f 68/3/2 67/3/2 69/3/2
f 70/2/2 71/2/2 74/2/2
f 72/2/2 73/2/2 76/2/2
f 74/2/2 75/2/2 77/2/2
f 70/2/2 74/2/2 77/2/2
f 77/2/2 75/2/2 78/2/2
f 75/3/2 76/3/2 79/3/2
f 78/2/2 75/2/2 79/2/2
f 76/2/2 73/2/2 80/2/2
f 79/3/2 76/3/2 80/3/2
f 80/2/2 73/2/2 81/2/2
f 78/2/2 79/2/2 82/2/2
f 79/2/2 80/2/2 82/2/2
f 82/2/2 80/2/2 83/2/2
f 83/2/2 80/2/2 84/2/2
f 83/3/2 84/3/2 85/3/2
f 85/3/2 84/3/2 86/3/2
f 87/3/2 88/3/2 89/3/2
f 89/3/2 88/3/2 90/3/2
f 89/1/2 90/1/2 91/1/2
f 91/1/2 90/1/2 92/1/2
f 95/2/3 94/2/3 93/2/3
f 96/2/3 94/2/3 95/2/3
f 99/2/3 98/2/3 97/2/3
f 100/2/3 98/2/3 99/2/3
f 104/3/3 102/3/3 101/3/3
f 104/1/3 103/1/3 102/1/3
f 105/1/3 103/1/3 104/1/3
f 106/3/3 104/3/3 101/3/3
f 108/3/3 106/3/3 101/3/3
f 108/1/3 107/1/3 106/1/3
f 109/1/3 107/1/3 108/1/3
f 110/3/3 108/3/3 101/3/3
f 112/3/3 110/3/3 101/3/3
f 113/1/3 111/1/3 110/1/3
f 113/3/3 110/3/3 112/3/3
f 114/1/3 111/1/3 113/1/3
f 117/2/3 116/2/3 115/2/3
f 118/2/3 116/2/3 117/2/3
f 121/2/3 120/2/3 119/2/3
f 122/2/3 120/2/3 121/2/3
f 125/3/3 124/3/3 123/3/3
f 126/3/3 124/3/3 125/3/3
f 130/3/3 128/3/3 127/3/3
f 131/3/3 128/3/3 130/3/3
f 132/3/3 130/3/3 129/3/3
f 133/3/3 130/3/3 132/3/3
f 136/3/3 135/3/3 134/3/3
f 137/3/3 135/3/3 136/3/3
f 139/3/3 138/3/3 137/3/3
f 140/3/3 138/3/3 139/3/3
f 141/3/4 142/3/4 143/3/4
f 143/3/4 142/3/4 144/3/4
f 145/3/4 146/3/4 148/3/4
f 146/1/4 147/1/4 148/1/4
f 148/1/4 147/1/4 149/1/4
f 150/2/4 151/2/4 153/2/4
f 151/3/4 152/3/4 154/3/4
f 153/2/4 151/2/4 154/2/4
f 154/3/4 152/3/4 155/3/4
f 145/3/4 148/3/4 156/3/4
f 153/3/4 154/3/4 158/3/4
f 158/3/4 154/3/4 159/3/4
f 156/1/4 157/1/4 160/1/4
f 145/3/4 156/3/4 160/3/4
f 160/1/4 157/1/4 161/1/4
f 162/3/4 163/3/4 164/3/4
f 164/3/4 163/3/4 165/3/4
f 145/3/4 160/3/4 167/3/4
f 164/2/4 165/2/4 169/2/4
f 165/3/4 166/3/4 170/3/4
f 169/2/4 165/2/4 170/2/4
f 170/3/4 166/3/4 171/3/4
f 145/3/4 167/3/4 172/3/4
f 167/1/4 168/1/4 173/1/4
f 172/3/4 167/3/4 173/3/4
f 173/1/4 168/1/4 174/1/4
f 175/2/4 176/2/4 177/2/4
f 177/2/4 176/2/4 178/2/4
f 179/2/4 180/2/4 181/2/4
f 181/2/4 180/2/4 182/2/4
f 185/3/5 184/3/5 183/3/5
f 186/3/5 184/3/5 185/3/5
f 189/3/5 188/3/5 187/3/5
f 190/3/5 188/3/5 189/3/5
f 191/3/5 189/3/5 187/3/5
f 192/3/5 188/3/5 190/3/5
f 193/3/5 191/3/5 187/3/5
f 193/3/5 192/3/5 191/3/5
f 194/3/5 188/3/5 192/3/5
f 194/3/5 192/3/5 193/3/5
f 199/2/5 196/2/5 195/2/5
f 200/2/5 196/2/5 199/2/5
f 201/2/5 198/2/5 197/2/5
f 202/2/5 198/2/5 201/2/5
f 207/2/5 204/2/5 203/2/5
f 208/2/5 204/2/5 207/2/5
f 209/2/5 206/2/5 205/2/5
f 210/2/5 206/2/5 209/2/5
f 211/1/6 212/1/6 217/1/6
f 215/1/6 216/1/6 218/1/6
f 211/1/6 217/1/6 219/1/6
f 219/1/6 217/1/6 220/1/6
f 213/1/6 214/1/6 221/1/6
f 221/1/6 214/1/6 222/1/6
f 218/1/6 216/1/6 223/1/6
f 223/1/6 216/1/6 224/1/6
f 225/2/6 226/2/6 229/2/6
f 229/2/6 226/2/6 230/2/6
f 227/2/6 228/2/6 231/2/6
f 231/2/6 228/2/6 232/2/6
f 230/2/6 226/2/6 233/2/6
f 233/2/6 226/2/6 234/2/6
f 227/2/6 231/2/6 235/2/6
f 235/2/6 231/2/6 236/2/6
f 237/2/6 238/2/6 243/2/6
f 238/2/6 239/2/6 243/2/6
f 243/2/6 239/2/6 244/2/6
f 240/2/6 241/2/6 245/2/6
f 241/2/6 242/2/6 245/2/6
f 245/2/6 242/2/6 246/2/6
f 247/2/6 248/2/6 251/2/6
f 251/2/6 248/2/6 252/2/6
f 249/2/6 250/2/6 255/2/6
f 255/2/6 250/2/6 256/2/6
f 252/3/6 253/3/6 257/3/6
f 257/3/6 253/3/6 258/3/6
f 254/3/6 255/3/6 259/3/6
f 259/3/6 255/3/6 260/3/6
f 261/3/6 262/3/6 265/3/6
f 265/3/6 262/3/6 266/3/6
f 263/3/6 264/3/6 267/3/6
f 267/3/6 264/3/6 268/3/6
