# MagicaVoxel @ Ephtracy

# group
o 

# material
mtllib WeaponMagazine#3.mtl
usemtl palette

# normals
vn -1 0 0
vn 1 0 0
vn 0 0 1
vn 0 0 -1
vn 0 -1 0
vn 0 1 0

# texcoords
vt 0.970703 0.5
vt 0.974609 0.5
vt 0.978516 0.5
vt 0.982422 0.5

# verts
v 0 2.4 -0.4
v 0 2.4 -0.5
v 0 2.5 -0.4
v 0 2.5 -0.5
v 0.1 2.1 -0.1
v 0.1 2.1 -0.8
v 0.1 2.3 -0.3
v 0.1 2.3 -0.6
v 0.1 2.4 -0.4
v 0.1 2.4 -0.5
v 0.1 2.5 -0.4
v 0.1 2.5 -0.5
v 0.1 2.6 -0.3
v 0.1 2.6 -0.6
v 0.1 2.8 -0.1
v 0.1 2.8 -0.8
v 0.2 2 0
v 0.2 2 -0.9
v 0.2 2.1 -0.1
v 0.2 2.1 -0.8
v 0.2 2.8 -0.1
v 0.2 2.8 -0.8
v 0.2 2.9 0
v 0.2 2.9 -0.9
v 0.5 2 0
v 0.5 2 -0.3
v 0.5 2 -0.6
v 0.5 2 -0.9
v 0.5 2.1 -0.1
v 0.5 2.1 -0.3
v 0.5 2.1 -0.6
v 0.5 2.1 -0.8
v 0.5 2.2 0
v 0.5 2.2 -0.1
v 0.5 2.2 -0.8
v 0.5 2.2 -0.9
v 0.5 2.7 0
v 0.5 2.7 -0.1
v 0.5 2.7 -0.8
v 0.5 2.7 -0.9
v 0.5 2.8 -0.1
v 0.5 2.8 -0.3
v 0.5 2.8 -0.6
v 0.5 2.8 -0.8
v 0.5 2.9 0
v 0.5 2.9 -0.3
v 0.5 2.9 -0.6
v 0.5 2.9 -0.9
v 1 2 0
v 1 2 -0.3
v 1 2 -0.6
v 1 2 -0.9
v 1 2.1 -0.1
v 1 2.1 -0.2
v 1 2.1 -0.3
v 1 2.1 -0.6
v 1 2.1 -0.7
v 1 2.1 -0.8
v 1 2.2 0
v 1 2.2 -0.1
v 1 2.2 -0.2
v 1 2.2 -0.3
v 1 2.2 -0.6
v 1 2.2 -0.7
v 1 2.2 -0.8
v 1 2.2 -0.9
v 1 2.7 0
v 1 2.7 -0.1
v 1 2.7 -0.2
v 1 2.7 -0.3
v 1 2.7 -0.6
v 1 2.7 -0.7
v 1 2.7 -0.8
v 1 2.7 -0.9
v 1 2.8 -0.1
v 1 2.8 -0.2
v 1 2.8 -0.3
v 1 2.8 -0.6
v 1 2.8 -0.7
v 1 2.8 -0.8
v 1 2.9 0
v 1 2.9 -0.3
v 1 2.9 -0.6
v 1 2.9 -0.9
v 1.2 2.1 -0.3
v 1.2 2.1 -0.6
v 1.2 2.2 -0.1
v 1.2 2.2 -0.2
v 1.2 2.2 -0.3
v 1.2 2.2 -0.6
v 1.2 2.2 -0.7
v 1.2 2.2 -0.8
v 1.2 2.7 -0.1
v 1.2 2.7 -0.2
v 1.2 2.7 -0.3
v 1.2 2.7 -0.6
v 1.2 2.7 -0.7
v 1.2 2.7 -0.8
v 1.2 2.8 -0.3
v 1.2 2.8 -0.6
v 1.3 2 0
v 1.3 2 -0.3
v 1.3 2 -0.6
v 1.3 2 -0.9
v 1.3 2.1 -0.1
v 1.3 2.1 -0.3
v 1.3 2.1 -0.6
v 1.3 2.1 -0.8
v 1.3 2.8 -0.1
v 1.3 2.8 -0.3
v 1.3 2.8 -0.6
v 1.3 2.8 -0.8
v 1.3 2.9 0
v 1.3 2.9 -0.3
v 1.3 2.9 -0.6
v 1.3 2.9 -0.9
v 0.4 2 0
v 0.4 2 -0.3
v 0.4 2 -0.6
v 0.4 2 -0.9
v 0.4 2.1 -0.1
v 0.4 2.1 -0.3
v 0.4 2.1 -0.6
v 0.4 2.1 -0.8
v 0.4 2.8 -0.1
v 0.4 2.8 -0.3
v 0.4 2.8 -0.6
v 0.4 2.8 -0.8
v 0.4 2.9 0
v 0.4 2.9 -0.3
v 0.4 2.9 -0.6
v 0.4 2.9 -0.9
v 0.5 2.1 -0.3
v 0.5 2.1 -0.6
v 0.5 2.2 -0.1
v 0.5 2.2 -0.2
v 0.5 2.2 -0.3
v 0.5 2.2 -0.6
v 0.5 2.2 -0.7
v 0.5 2.2 -0.8
v 0.5 2.7 -0.1
v 0.5 2.7 -0.2
v 0.5 2.7 -0.3
v 0.5 2.7 -0.6
v 0.5 2.7 -0.7
v 0.5 2.7 -0.8
v 0.5 2.8 -0.3
v 0.5 2.8 -0.6
v 0.7 2 0
v 0.7 2 -0.3
v 0.7 2 -0.6
v 0.7 2 -0.9
v 0.7 2.1 -0.1
v 0.7 2.1 -0.2
v 0.7 2.1 -0.3
v 0.7 2.1 -0.6
v 0.7 2.1 -0.7
v 0.7 2.1 -0.8
v 0.7 2.2 0
v 0.7 2.2 -0.1
v 0.7 2.2 -0.2
v 0.7 2.2 -0.3
v 0.7 2.2 -0.6
v 0.7 2.2 -0.7
v 0.7 2.2 -0.8
v 0.7 2.2 -0.9
v 0.7 2.7 0
v 0.7 2.7 -0.1
v 0.7 2.7 -0.2
v 0.7 2.7 -0.3
v 0.7 2.7 -0.6
v 0.7 2.7 -0.7
v 0.7 2.7 -0.8
v 0.7 2.7 -0.9
v 0.7 2.8 -0.1
v 0.7 2.8 -0.2
v 0.7 2.8 -0.3
v 0.7 2.8 -0.6
v 0.7 2.8 -0.7
v 0.7 2.8 -0.8
v 0.7 2.9 0
v 0.7 2.9 -0.3
v 0.7 2.9 -0.6
v 0.7 2.9 -0.9
v 1.2 2 0
v 1.2 2 -0.3
v 1.2 2 -0.6
v 1.2 2 -0.9
v 1.2 2.1 -0.1
v 1.2 2.1 -0.3
v 1.2 2.1 -0.6
v 1.2 2.1 -0.8
v 1.2 2.2 0
v 1.2 2.2 -0.1
v 1.2 2.2 -0.8
v 1.2 2.2 -0.9
v 1.2 2.7 0
v 1.2 2.7 -0.1
v 1.2 2.7 -0.8
v 1.2 2.7 -0.9
v 1.2 2.8 -0.1
v 1.2 2.8 -0.3
v 1.2 2.8 -0.6
v 1.2 2.8 -0.8
v 1.2 2.9 0
v 1.2 2.9 -0.3
v 1.2 2.9 -0.6
v 1.2 2.9 -0.9
v 1.4 2.2 -0.2
v 1.4 2.2 -0.7
v 1.4 2.7 -0.2
v 1.4 2.7 -0.7
v 1.5 2 0
v 1.5 2 -0.9
v 1.5 2.2 -0.2
v 1.5 2.2 -0.7
v 1.5 2.7 -0.2
v 1.5 2.7 -0.7
v 1.5 2.9 0
v 1.5 2.9 -0.9
v 0.2 2 0
v 0.2 2.9 0
v 0.4 2 0
v 0.4 2.9 0
v 0.5 2 0
v 0.5 2.2 0
v 0.5 2.7 0
v 0.5 2.9 0
v 0.7 2 0
v 0.7 2.2 0
v 0.7 2.7 0
v 0.7 2.9 0
v 1 2 0
v 1 2.2 0
v 1 2.7 0
v 1 2.9 0
v 1.2 2 0
v 1.2 2.2 0
v 1.2 2.7 0
v 1.2 2.9 0
v 1.3 2 0
v 1.3 2.9 0
v 1.5 2 0
v 1.5 2.9 0
v 0.1 2.1 -0.1
v 0.1 2.8 -0.1
v 0.2 2.1 -0.1
v 0.2 2.8 -0.1
v 0.4 2.1 -0.1
v 0.4 2.8 -0.1
v 0.5 2.1 -0.1
v 0.5 2.2 -0.1
v 0.5 2.7 -0.1
v 0.5 2.8 -0.1
v 0.7 2.1 -0.1
v 0.7 2.2 -0.1
v 0.7 2.7 -0.1
v 0.7 2.8 -0.1
v 1 2.1 -0.1
v 1 2.2 -0.1
v 1 2.7 -0.1
v 1 2.8 -0.1
v 1.2 2.1 -0.1
v 1.2 2.2 -0.1
v 1.2 2.7 -0.1
v 1.2 2.8 -0.1
v 1.3 2.1 -0.1
v 1.3 2.8 -0.1
v 0.5 2.2 -0.2
v 0.5 2.7 -0.2
v 1.2 2.2 -0.2
v 1.2 2.7 -0.2
v 0.4 2 -0.3
v 0.4 2.1 -0.3
v 0.4 2.8 -0.3
v 0.4 2.9 -0.3
v 0.5 2 -0.3
v 0.5 2.1 -0.3
v 0.5 2.8 -0.3
v 0.5 2.9 -0.3
v 0.7 2 -0.3
v 0.7 2.1 -0.3
v 0.7 2.8 -0.3
v 0.7 2.9 -0.3
v 1 2 -0.3
v 1 2.1 -0.3
v 1 2.8 -0.3
v 1 2.9 -0.3
v 1.2 2 -0.3
v 1.2 2.1 -0.3
v 1.2 2.8 -0.3
v 1.2 2.9 -0.3
v 1.3 2 -0.3
v 1.3 2.1 -0.3
v 1.3 2.8 -0.3
v 1.3 2.9 -0.3
v 0 2.4 -0.4
v 0 2.5 -0.4
v 0.1 2.4 -0.4
v 0.1 2.5 -0.4
v 0.5 2.1 -0.6
v 0.5 2.2 -0.6
v 0.5 2.7 -0.6
v 0.5 2.8 -0.6
v 0.7 2.1 -0.6
v 0.7 2.2 -0.6
v 0.7 2.7 -0.6
v 0.7 2.8 -0.6
v 1 2.1 -0.6
v 1 2.2 -0.6
v 1 2.7 -0.6
v 1 2.8 -0.6
v 1.2 2.1 -0.6
v 1.2 2.2 -0.6
v 1.2 2.7 -0.6
v 1.2 2.8 -0.6
v 0.7 2.1 -0.7
v 0.7 2.2 -0.7
v 0.7 2.7 -0.7
v 0.7 2.8 -0.7
v 1 2.1 -0.7
v 1 2.2 -0.7
v 1 2.7 -0.7
v 1 2.8 -0.7
v 1.4 2.2 -0.7
v 1.4 2.7 -0.7
v 1.5 2.2 -0.7
v 1.5 2.7 -0.7
v 0.7 2.1 -0.2
v 0.7 2.2 -0.2
v 0.7 2.7 -0.2
v 0.7 2.8 -0.2
v 1 2.1 -0.2
v 1 2.2 -0.2
v 1 2.7 -0.2
v 1 2.8 -0.2
v 1.4 2.2 -0.2
v 1.4 2.7 -0.2
v 1.5 2.2 -0.2
v 1.5 2.7 -0.2
v 0.5 2.1 -0.3
v 0.5 2.2 -0.3
v 0.5 2.7 -0.3
v 0.5 2.8 -0.3
v 0.7 2.1 -0.3
v 0.7 2.2 -0.3
v 0.7 2.7 -0.3
v 0.7 2.8 -0.3
v 1 2.1 -0.3
v 1 2.2 -0.3
v 1 2.7 -0.3
v 1 2.8 -0.3
v 1.2 2.1 -0.3
v 1.2 2.2 -0.3
v 1.2 2.7 -0.3
v 1.2 2.8 -0.3
v 0 2.4 -0.5
v 0 2.5 -0.5
v 0.1 2.4 -0.5
v 0.1 2.5 -0.5
v 0.4 2 -0.6
v 0.4 2.1 -0.6
v 0.4 2.8 -0.6
v 0.4 2.9 -0.6
v 0.5 2 -0.6
v 0.5 2.1 -0.6
v 0.5 2.8 -0.6
v 0.5 2.9 -0.6
v 0.7 2 -0.6
v 0.7 2.1 -0.6
v 0.7 2.8 -0.6
v 0.7 2.9 -0.6
v 1 2 -0.6
v 1 2.1 -0.6
v 1 2.8 -0.6
v 1 2.9 -0.6
v 1.2 2 -0.6
v 1.2 2.1 -0.6
v 1.2 2.8 -0.6
v 1.2 2.9 -0.6
v 1.3 2 -0.6
v 1.3 2.1 -0.6
v 1.3 2.8 -0.6
v 1.3 2.9 -0.6
v 0.5 2.2 -0.7
v 0.5 2.7 -0.7
v 1.2 2.2 -0.7
v 1.2 2.7 -0.7
v 0.1 2.1 -0.8
v 0.1 2.8 -0.8
v 0.2 2.1 -0.8
v 0.2 2.8 -0.8
v 0.4 2.1 -0.8
v 0.4 2.8 -0.8
v 0.5 2.1 -0.8
v 0.5 2.2 -0.8
v 0.5 2.7 -0.8
v 0.5 2.8 -0.8
v 0.7 2.1 -0.8
v 0.7 2.2 -0.8
v 0.7 2.7 -0.8
v 0.7 2.8 -0.8
v 1 2.1 -0.8
v 1 2.2 -0.8
v 1 2.7 -0.8
v 1 2.8 -0.8
v 1.2 2.1 -0.8
v 1.2 2.2 -0.8
v 1.2 2.7 -0.8
v 1.2 2.8 -0.8
v 1.3 2.1 -0.8
v 1.3 2.8 -0.8
v 0.2 2 -0.9
v 0.2 2.9 -0.9
v 0.4 2 -0.9
v 0.4 2.9 -0.9
v 0.5 2 -0.9
v 0.5 2.2 -0.9
v 0.5 2.7 -0.9
v 0.5 2.9 -0.9
v 0.7 2 -0.9
v 0.7 2.2 -0.9
v 0.7 2.7 -0.9
v 0.7 2.9 -0.9
v 1 2 -0.9
v 1 2.2 -0.9
v 1 2.7 -0.9
v 1 2.9 -0.9
v 1.2 2 -0.9
v 1.2 2.2 -0.9
v 1.2 2.7 -0.9
v 1.2 2.9 -0.9
v 1.3 2 -0.9
v 1.3 2.9 -0.9
v 1.5 2 -0.9
v 1.5 2.9 -0.9
v 0.2 2 0
v 0.4 2 0
v 0.5 2 0
v 0.7 2 0
v 1 2 0
v 1.2 2 0
v 1.3 2 0
v 1.5 2 0
v 0.4 2 -0.3
v 0.5 2 -0.3
v 0.7 2 -0.3
v 1 2 -0.3
v 1.2 2 -0.3
v 1.3 2 -0.3
v 0.4 2 -0.6
v 0.5 2 -0.6
v 0.7 2 -0.6
v 1 2 -0.6
v 1.2 2 -0.6
v 1.3 2 -0.6
v 0.2 2 -0.9
v 0.4 2 -0.9
v 0.5 2 -0.9
v 0.7 2 -0.9
v 1 2 -0.9
v 1.2 2 -0.9
v 1.3 2 -0.9
v 1.5 2 -0.9
v 0.1 2.1 -0.1
v 0.2 2.1 -0.1
v 0.4 2.1 -0.1
v 0.5 2.1 -0.1
v 0.7 2.1 -0.1
v 1 2.1 -0.1
v 1.2 2.1 -0.1
v 1.3 2.1 -0.1
v 0.7 2.1 -0.2
v 1 2.1 -0.2
v 0.4 2.1 -0.3
v 0.5 2.1 -0.3
v 1.2 2.1 -0.3
v 1.3 2.1 -0.3
v 0.4 2.1 -0.6
v 0.5 2.1 -0.6
v 1.2 2.1 -0.6
v 1.3 2.1 -0.6
v 0.7 2.1 -0.7
v 1 2.1 -0.7
v 0.1 2.1 -0.8
v 0.2 2.1 -0.8
v 0.4 2.1 -0.8
v 0.5 2.1 -0.8
v 0.7 2.1 -0.8
v 1 2.1 -0.8
v 1.2 2.1 -0.8
v 1.3 2.1 -0.8
v 0.7 2.2 -0.2
v 1 2.2 -0.2
v 0.5 2.2 -0.3
v 0.7 2.2 -0.3
v 1 2.2 -0.3
v 1.2 2.2 -0.3
v 0.5 2.2 -0.6
v 0.7 2.2 -0.6
v 1 2.2 -0.6
v 1.2 2.2 -0.6
v 0.7 2.2 -0.7
v 1 2.2 -0.7
v 0 2.4 -0.4
v 0.1 2.4 -0.4
v 0 2.4 -0.5
v 0.1 2.4 -0.5
v 0.5 2.7 0
v 0.7 2.7 0
v 1 2.7 0
v 1.2 2.7 0
v 0.5 2.7 -0.1
v 0.7 2.7 -0.1
v 1 2.7 -0.1
v 1.2 2.7 -0.1
v 0.5 2.7 -0.2
v 1.2 2.7 -0.2
v 1.4 2.7 -0.2
v 1.5 2.7 -0.2
v 0.5 2.7 -0.7
v 1.2 2.7 -0.7
v 1.4 2.7 -0.7
v 1.5 2.7 -0.7
v 0.5 2.7 -0.8
v 0.7 2.7 -0.8
v 1 2.7 -0.8
v 1.2 2.7 -0.8
v 0.5 2.7 -0.9
v 0.7 2.7 -0.9
v 1 2.7 -0.9
v 1.2 2.7 -0.9
v 0.5 2.8 -0.3
v 0.7 2.8 -0.3
v 1 2.8 -0.3
v 1.2 2.8 -0.3
v 0.5 2.8 -0.6
v 0.7 2.8 -0.6
v 1 2.8 -0.6
v 1.2 2.8 -0.6
v 0.5 2.1 -0.3
v 0.7 2.1 -0.3
v 1 2.1 -0.3
v 1.2 2.1 -0.3
v 0.5 2.1 -0.6
v 0.7 2.1 -0.6
v 1 2.1 -0.6
v 1.2 2.1 -0.6
v 0.5 2.2 0
v 0.7 2.2 0
v 1 2.2 0
v 1.2 2.2 0
v 0.5 2.2 -0.1
v 0.7 2.2 -0.1
v 1 2.2 -0.1
v 1.2 2.2 -0.1
v 0.5 2.2 -0.2
v 1.2 2.2 -0.2
v 1.4 2.2 -0.2
v 1.5 2.2 -0.2
v 0.5 2.2 -0.7
v 1.2 2.2 -0.7
v 1.4 2.2 -0.7
v 1.5 2.2 -0.7
v 0.5 2.2 -0.8
v 0.7 2.2 -0.8
v 1 2.2 -0.8
v 1.2 2.2 -0.8
v 0.5 2.2 -0.9
v 0.7 2.2 -0.9
v 1 2.2 -0.9
v 1.2 2.2 -0.9
v 0 2.5 -0.4
v 0.1 2.5 -0.4
v 0 2.5 -0.5
v 0.1 2.5 -0.5
v 0.7 2.7 -0.2
v 1 2.7 -0.2
v 0.5 2.7 -0.3
v 0.7 2.7 -0.3
v 1 2.7 -0.3
v 1.2 2.7 -0.3
v 0.5 2.7 -0.6
v 0.7 2.7 -0.6
v 1 2.7 -0.6
v 1.2 2.7 -0.6
v 0.7 2.7 -0.7
v 1 2.7 -0.7
v 0.1 2.8 -0.1
v 0.2 2.8 -0.1
v 0.4 2.8 -0.1
v 0.5 2.8 -0.1
v 0.7 2.8 -0.1
v 1 2.8 -0.1
v 1.2 2.8 -0.1
v 1.3 2.8 -0.1
v 0.7 2.8 -0.2
v 1 2.8 -0.2
v 0.4 2.8 -0.3
v 0.5 2.8 -0.3
v 1.2 2.8 -0.3
v 1.3 2.8 -0.3
v 0.4 2.8 -0.6
v 0.5 2.8 -0.6
v 1.2 2.8 -0.6
v 1.3 2.8 -0.6
v 0.7 2.8 -0.7
v 1 2.8 -0.7
v 0.1 2.8 -0.8
v 0.2 2.8 -0.8
v 0.4 2.8 -0.8
v 0.5 2.8 -0.8
v 0.7 2.8 -0.8
v 1 2.8 -0.8
v 1.2 2.8 -0.8
v 1.3 2.8 -0.8
v 0.2 2.9 0
v 0.4 2.9 0
v 0.5 2.9 0
v 0.7 2.9 0
v 1 2.9 0
v 1.2 2.9 0
v 1.3 2.9 0
v 1.5 2.9 0
v 0.4 2.9 -0.3
v 0.5 2.9 -0.3
v 0.7 2.9 -0.3
v 1 2.9 -0.3
v 1.2 2.9 -0.3
v 1.3 2.9 -0.3
v 0.4 2.9 -0.6
v 0.5 2.9 -0.6
v 0.7 2.9 -0.6
v 1 2.9 -0.6
v 1.2 2.9 -0.6
v 1.3 2.9 -0.6
v 0.2 2.9 -0.9
v 0.4 2.9 -0.9
v 0.5 2.9 -0.9
v 0.7 2.9 -0.9
v 1 2.9 -0.9
v 1.2 2.9 -0.9
v 1.3 2.9 -0.9
v 1.5 2.9 -0.9

# faces
f 3/2/1 2/2/1 1/2/1
f 4/2/1 2/2/1 3/2/1
f 7/3/1 6/3/1 5/3/1
f 8/3/1 6/3/1 7/3/1
f 9/2/1 8/2/1 7/2/1
f 10/2/1 8/2/1 9/2/1
f 11/2/1 9/2/1 7/2/1
f 12/2/1 8/2/1 10/2/1
f 13/3/1 7/3/1 5/3/1
f 13/2/1 12/2/1 11/2/1
f 13/2/1 11/2/1 7/2/1
f 14/2/1 8/2/1 12/2/1
f 14/2/1 12/2/1 13/2/1
f 14/3/1 6/3/1 8/3/1
f 15/3/1 13/3/1 5/3/1
f 15/3/1 14/3/1 13/3/1
f 16/3/1 6/3/1 14/3/1
f 16/3/1 14/3/1 15/3/1
f 19/2/1 18/2/1 17/2/1
f 20/2/1 18/2/1 19/2/1
f 21/2/1 19/2/1 17/2/1
f 22/2/1 18/2/1 20/2/1
f 23/2/1 21/2/1 17/2/1
f 23/2/1 22/2/1 21/2/1
f 24/2/1 18/2/1 22/2/1
f 24/2/1 22/2/1 23/2/1
f 29/2/1 26/2/1 25/2/1
f 30/2/1 26/2/1 29/2/1
f 31/2/1 28/2/1 27/2/1
f 32/2/1 28/2/1 31/2/1
f 33/2/1 29/2/1 25/2/1
f 34/2/1 29/2/1 33/2/1
f 35/2/1 28/2/1 32/2/1
f 36/2/1 28/2/1 35/2/1
f 41/2/1 38/2/1 37/2/1
f 44/2/1 40/2/1 39/2/1
f 45/2/1 42/2/1 41/2/1
f 45/2/1 41/2/1 37/2/1
f 46/2/1 42/2/1 45/2/1
f 47/2/1 44/2/1 43/2/1
f 48/2/1 40/2/1 44/2/1
f 48/2/1 44/2/1 47/2/1
f 53/2/1 50/2/1 49/2/1
f 54/2/1 50/2/1 53/2/1
f 55/2/1 50/2/1 54/2/1
f 56/2/1 52/2/1 51/2/1
f 57/2/1 52/2/1 56/2/1
f 58/2/1 52/2/1 57/2/1
f 59/2/1 53/2/1 49/2/1
f 60/2/1 53/2/1 59/2/1
f 61/2/1 55/2/1 54/2/1
f 62/2/1 55/2/1 61/2/1
f 63/2/1 57/2/1 56/2/1
f 64/2/1 57/2/1 63/2/1
f 65/2/1 52/2/1 58/2/1
f 66/2/1 52/2/1 65/2/1
f 75/2/1 68/2/1 67/2/1
f 76/2/1 70/2/1 69/2/1
f 77/2/1 70/2/1 76/2/1
f 78/2/1 72/2/1 71/2/1
f 79/2/1 72/2/1 78/2/1
f 80/2/1 74/2/1 73/2/1
f 81/2/1 75/2/1 67/2/1
f 81/2/1 77/2/1 76/2/1
f 81/2/1 76/2/1 75/2/1
f 82/2/1 77/2/1 81/2/1
f 83/2/1 79/2/1 78/2/1
f 83/2/1 80/2/1 79/2/1
f 84/2/1 74/2/1 80/2/1
f 84/2/1 80/2/1 83/2/1
f 89/1/1 86/1/1 85/1/1
f 90/1/1 86/1/1 89/1/1
f 93/1/1 88/1/1 87/1/1
f 94/1/1 88/1/1 93/1/1
f 97/1/1 92/1/1 91/1/1
f 98/1/1 92/1/1 97/1/1
f 99/1/1 96/1/1 95/1/1
f 100/1/1 96/1/1 99/1/1
f 105/2/1 102/2/1 101/2/1
f 106/2/1 102/2/1 105/2/1
f 107/2/1 104/2/1 103/2/1
f 108/2/1 104/2/1 107/2/1
f 109/2/1 105/2/1 101/2/1
f 112/2/1 104/2/1 108/2/1
f 113/2/1 110/2/1 109/2/1
f 113/2/1 109/2/1 101/2/1
f 114/2/1 110/2/1 113/2/1
f 115/2/1 112/2/1 111/2/1
f 116/2/1 104/2/1 112/2/1
f 116/2/1 112/2/1 115/2/1
f 117/2/2 118/2/2 121/2/2
f 121/2/2 118/2/2 122/2/2
f 119/2/2 120/2/2 123/2/2
f 123/2/2 120/2/2 124/2/2
f 117/2/2 121/2/2 125/2/2
f 124/2/2 120/2/2 128/2/2
f 125/2/2 126/2/2 129/2/2
f 117/2/2 125/2/2 129/2/2
f 129/2/2 126/2/2 130/2/2
f 127/2/2 128/2/2 131/2/2
f 128/2/2 120/2/2 132/2/2
f 131/2/2 128/2/2 132/2/2
f 133/1/2 134/1/2 137/1/2
f 137/1/2 134/1/2 138/1/2
f 135/1/2 136/1/2 141/1/2
f 141/1/2 136/1/2 142/1/2
f 139/1/2 140/1/2 145/1/2
f 145/1/2 140/1/2 146/1/2
f 143/1/2 144/1/2 147/1/2
f 147/1/2 144/1/2 148/1/2
f 149/2/2 150/2/2 153/2/2
f 153/2/2 150/2/2 154/2/2
f 154/2/2 150/2/2 155/2/2
f 151/2/2 152/2/2 156/2/2
f 156/2/2 152/2/2 157/2/2
f 157/2/2 152/2/2 158/2/2
f 149/2/2 153/2/2 159/2/2
f 159/2/2 153/2/2 160/2/2
f 154/2/2 155/2/2 161/2/2
f 161/2/2 155/2/2 162/2/2
f 156/2/2 157/2/2 163/2/2
f 163/2/2 157/2/2 164/2/2
f 158/2/2 152/2/2 165/2/2
f 165/2/2 152/2/2 166/2/2
f 167/2/2 168/2/2 175/2/2
f 169/2/2 170/2/2 176/2/2
f 176/2/2 170/2/2 177/2/2
f 171/2/2 172/2/2 178/2/2
f 178/2/2 172/2/2 179/2/2
f 173/2/2 174/2/2 180/2/2
f 167/2/2 175/2/2 181/2/2
f 176/2/2 177/2/2 181/2/2
f 175/2/2 176/2/2 181/2/2
f 181/2/2 177/2/2 182/2/2
f 178/2/2 179/2/2 183/2/2
f 179/2/2 180/2/2 183/2/2
f 180/2/2 174/2/2 184/2/2
f 183/2/2 180/2/2 184/2/2
f 185/2/2 186/2/2 189/2/2
f 189/2/2 186/2/2 190/2/2
f 187/2/2 188/2/2 191/2/2
f 191/2/2 188/2/2 192/2/2
f 185/2/2 189/2/2 193/2/2
f 193/2/2 189/2/2 194/2/2
f 192/2/2 188/2/2 195/2/2
f 195/2/2 188/2/2 196/2/2
f 197/2/2 198/2/2 201/2/2
f 199/2/2 200/2/2 204/2/2
f 201/2/2 202/2/2 205/2/2
f 197/2/2 201/2/2 205/2/2
f 205/2/2 202/2/2 206/2/2
f 203/2/2 204/2/2 207/2/2
f 204/2/2 200/2/2 208/2/2
f 207/2/2 204/2/2 208/2/2
f 209/4/2 210/4/2 211/4/2
f 211/4/2 210/4/2 212/4/2
f 213/2/2 214/2/2 215/2/2
f 215/2/2 214/2/2 216/2/2
f 213/2/2 215/2/2 217/2/2
f 216/2/2 214/2/2 218/2/2
f 213/2/2 217/2/2 219/2/2
f 217/2/2 218/2/2 219/2/2
f 218/2/2 214/2/2 220/2/2
f 219/2/2 218/2/2 220/2/2
f 223/2/3 222/2/3 221/2/3
f 224/2/3 222/2/3 223/2/3
f 229/2/3 226/2/3 225/2/3
f 230/2/3 226/2/3 229/2/3
f 231/2/3 228/2/3 227/2/3
f 232/2/3 228/2/3 231/2/3
f 237/2/3 234/2/3 233/2/3
f 238/2/3 234/2/3 237/2/3
f 239/2/3 236/2/3 235/2/3
f 240/2/3 236/2/3 239/2/3
f 243/2/3 242/2/3 241/2/3
f 244/2/3 242/2/3 243/2/3
f 247/3/3 246/3/3 245/3/3
f 248/3/3 246/3/3 247/3/3
f 251/1/3 250/1/3 249/1/3
f 252/1/3 250/1/3 251/1/3
f 253/1/3 250/1/3 252/1/3
f 254/1/3 250/1/3 253/1/3
f 259/1/3 256/1/3 255/1/3
f 260/1/3 256/1/3 259/1/3
f 261/1/3 258/1/3 257/1/3
f 262/1/3 258/1/3 261/1/3
f 267/1/3 264/1/3 263/1/3
f 267/1/3 266/1/3 265/1/3
f 267/1/3 265/1/3 264/1/3
f 268/1/3 266/1/3 267/1/3
f 271/4/3 270/4/3 269/4/3
f 272/4/3 270/4/3 271/4/3
f 277/2/3 274/2/3 273/2/3
f 278/2/3 274/2/3 277/2/3
f 279/2/3 276/2/3 275/2/3
f 280/2/3 276/2/3 279/2/3
f 285/2/3 282/2/3 281/2/3
f 286/2/3 282/2/3 285/2/3
f 287/2/3 284/2/3 283/2/3
f 288/2/3 284/2/3 287/2/3
f 293/2/3 290/2/3 289/2/3
f 294/2/3 290/2/3 293/2/3
f 295/2/3 292/2/3 291/2/3
f 296/2/3 292/2/3 295/2/3
f 299/2/3 298/2/3 297/2/3
f 300/2/3 298/2/3 299/2/3
f 305/2/3 302/2/3 301/2/3
f 306/2/3 302/2/3 305/2/3
f 307/2/3 304/2/3 303/2/3
f 308/2/3 304/2/3 307/2/3
f 313/2/3 310/2/3 309/2/3
f 314/2/3 310/2/3 313/2/3
f 315/2/3 312/2/3 311/2/3
f 316/2/3 312/2/3 315/2/3
f 321/1/3 318/1/3 317/1/3
f 322/1/3 318/1/3 321/1/3
f 323/1/3 320/1/3 319/1/3
f 324/1/3 320/1/3 323/1/3
f 327/2/3 326/2/3 325/2/3
f 328/2/3 326/2/3 327/2/3
f 329/1/4 330/1/4 333/1/4
f 333/1/4 330/1/4 334/1/4
f 331/1/4 332/1/4 335/1/4
f 335/1/4 332/1/4 336/1/4
f 337/2/4 338/2/4 339/2/4
f 339/2/4 338/2/4 340/2/4
f 341/2/4 342/2/4 345/2/4
f 345/2/4 342/2/4 346/2/4
f 343/2/4 344/2/4 347/2/4
f 347/2/4 344/2/4 348/2/4
f 349/2/4 350/2/4 353/2/4
f 353/2/4 350/2/4 354/2/4
f 351/2/4 352/2/4 355/2/4
f 355/2/4 352/2/4 356/2/4
f 357/2/4 358/2/4 359/2/4
f 359/2/4 358/2/4 360/2/4
f 361/2/4 362/2/4 365/2/4
f 365/2/4 362/2/4 366/2/4
f 363/2/4 364/2/4 367/2/4
f 367/2/4 364/2/4 368/2/4
f 369/2/4 370/2/4 373/2/4
f 373/2/4 370/2/4 374/2/4
f 371/2/4 372/2/4 375/2/4
f 375/2/4 372/2/4 376/2/4
f 377/2/4 378/2/4 381/2/4
f 381/2/4 378/2/4 382/2/4
f 379/2/4 380/2/4 383/2/4
f 383/2/4 380/2/4 384/2/4
f 385/4/4 386/4/4 387/4/4
f 387/4/4 386/4/4 388/4/4
f 389/3/4 390/3/4 391/3/4
f 391/3/4 390/3/4 392/3/4
f 393/1/4 394/1/4 395/1/4
f 395/1/4 394/1/4 396/1/4
f 396/1/4 394/1/4 397/1/4
f 397/1/4 394/1/4 398/1/4
f 399/1/4 400/1/4 403/1/4
f 403/1/4 400/1/4 404/1/4
f 401/1/4 402/1/4 405/1/4
f 405/1/4 402/1/4 406/1/4
f 407/1/4 408/1/4 411/1/4
f 409/1/4 410/1/4 411/1/4
f 408/1/4 409/1/4 411/1/4
f 411/1/4 410/1/4 412/1/4
f 413/2/4 414/2/4 415/2/4
f 415/2/4 414/2/4 416/2/4
f 417/2/4 418/2/4 421/2/4
f 421/2/4 418/2/4 422/2/4
f 419/2/4 420/2/4 423/2/4
f 423/2/4 420/2/4 424/2/4
f 425/2/4 426/2/4 429/2/4
f 429/2/4 426/2/4 430/2/4
f 427/2/4 428/2/4 431/2/4
f 431/2/4 428/2/4 432/2/4
f 433/2/4 434/2/4 435/2/4
f 435/2/4 434/2/4 436/2/4
f 445/2/5 438/2/5 437/2/5
f 446/2/5 440/2/5 439/2/5
f 447/2/5 440/2/5 446/2/5
f 448/2/5 442/2/5 441/2/5
f 449/2/5 442/2/5 448/2/5
f 450/2/5 444/2/5 443/2/5
f 451/2/5 449/2/5 448/2/5
f 451/2/5 450/2/5 449/2/5
f 451/2/5 445/2/5 437/2/5
f 451/2/5 447/2/5 446/2/5
f 451/2/5 448/2/5 447/2/5
f 451/2/5 446/2/5 445/2/5
f 452/2/5 450/2/5 451/2/5
f 453/2/5 450/2/5 452/2/5
f 454/2/5 450/2/5 453/2/5
f 455/2/5 450/2/5 454/2/5
f 456/2/5 444/2/5 450/2/5
f 456/2/5 450/2/5 455/2/5
f 457/2/5 451/2/5 437/2/5
f 458/2/5 451/2/5 457/2/5
f 459/2/5 453/2/5 452/2/5
f 460/2/5 453/2/5 459/2/5
f 461/2/5 455/2/5 454/2/5
f 462/2/5 455/2/5 461/2/5
f 463/2/5 444/2/5 456/2/5
f 464/2/5 444/2/5 463/2/5
f 473/1/5 470/1/5 469/1/5
f 474/1/5 470/1/5 473/1/5
f 475/1/5 468/1/5 467/1/5
f 476/1/5 468/1/5 475/1/5
f 477/1/5 472/1/5 471/1/5
f 478/1/5 472/1/5 477/1/5
f 485/3/5 466/3/5 465/3/5
f 486/3/5 466/3/5 485/3/5
f 487/1/5 480/1/5 479/1/5
f 488/1/5 480/1/5 487/1/5
f 489/1/5 484/1/5 483/1/5
f 490/1/5 484/1/5 489/1/5
f 491/1/5 482/1/5 481/1/5
f 492/1/5 482/1/5 491/1/5
f 496/4/5 494/4/5 493/4/5
f 497/4/5 494/4/5 496/4/5
f 499/4/5 496/4/5 495/4/5
f 499/4/5 498/4/5 497/4/5
f 499/4/5 497/4/5 496/4/5
f 500/4/5 498/4/5 499/4/5
f 501/4/5 498/4/5 500/4/5
f 502/4/5 498/4/5 501/4/5
f 503/4/5 501/4/5 500/4/5
f 504/4/5 501/4/5 503/4/5
f 507/2/5 506/2/5 505/2/5
f 508/2/5 506/2/5 507/2/5
f 513/2/5 510/2/5 509/2/5
f 514/2/5 510/2/5 513/2/5
f 515/2/5 512/2/5 511/2/5
f 516/2/5 512/2/5 515/2/5
f 517/1/5 514/1/5 513/1/5
f 517/1/5 515/1/5 514/1/5
f 517/1/5 516/1/5 515/1/5
f 518/1/5 516/1/5 517/1/5
f 523/2/5 520/2/5 519/2/5
f 524/2/5 520/2/5 523/2/5
f 525/1/5 522/1/5 521/1/5
f 526/1/5 522/1/5 525/1/5
f 527/1/5 522/1/5 526/1/5
f 528/1/5 522/1/5 527/1/5
f 529/2/5 526/2/5 525/2/5
f 530/2/5 526/2/5 529/2/5
f 531/2/5 528/2/5 527/2/5
f 532/2/5 528/2/5 531/2/5
f 537/2/5 534/2/5 533/2/5
f 537/2/5 536/2/5 535/2/5
f 537/2/5 535/2/5 534/2/5
f 538/2/5 536/2/5 537/2/5
f 539/2/5 536/2/5 538/2/5
f 540/2/5 536/2/5 539/2/5
f 541/2/6 542/2/6 545/2/6
f 543/2/6 544/2/6 545/2/6
f 542/2/6 543/2/6 545/2/6
f 545/2/6 544/2/6 546/2/6
f 546/2/6 544/2/6 547/2/6
f 547/2/6 544/2/6 548/2/6
f 549/2/6 550/2/6 553/2/6
f 553/2/6 550/2/6 554/2/6
f 551/2/6 552/2/6 555/2/6
f 555/2/6 552/2/6 556/2/6
f 553/1/6 554/1/6 557/1/6
f 554/1/6 555/1/6 557/1/6
f 555/1/6 556/1/6 557/1/6
f 557/1/6 556/1/6 558/1/6
f 559/2/6 560/2/6 563/2/6
f 563/2/6 560/2/6 564/2/6
f 561/1/6 562/1/6 565/1/6
f 565/1/6 562/1/6 566/1/6
f 566/1/6 562/1/6 567/1/6
f 567/1/6 562/1/6 568/1/6
f 565/2/6 566/2/6 569/2/6
f 569/2/6 566/2/6 570/2/6
f 567/2/6 568/2/6 571/2/6
f 571/2/6 568/2/6 572/2/6
f 573/2/6 574/2/6 575/2/6
f 575/2/6 574/2/6 576/2/6
f 577/4/6 578/4/6 580/4/6
f 580/4/6 578/4/6 581/4/6
f 579/4/6 580/4/6 583/4/6
f 581/4/6 582/4/6 583/4/6
f 580/4/6 581/4/6 583/4/6
f 583/4/6 582/4/6 584/4/6
f 584/4/6 582/4/6 585/4/6
f 585/4/6 582/4/6 586/4/6
f 584/4/6 585/4/6 587/4/6
f 587/4/6 585/4/6 588/4/6
f 593/1/6 594/1/6 597/1/6
f 597/1/6 594/1/6 598/1/6
f 591/1/6 592/1/6 599/1/6
f 599/1/6 592/1/6 600/1/6
f 595/1/6 596/1/6 601/1/6
f 601/1/6 596/1/6 602/1/6
f 589/3/6 590/3/6 609/3/6
f 609/3/6 590/3/6 610/3/6
f 603/1/6 604/1/6 611/1/6
f 611/1/6 604/1/6 612/1/6
f 607/1/6 608/1/6 613/1/6
f 613/1/6 608/1/6 614/1/6
f 605/1/6 606/1/6 615/1/6
f 615/1/6 606/1/6 616/1/6
f 617/2/6 618/2/6 625/2/6
f 619/2/6 620/2/6 626/2/6
f 626/2/6 620/2/6 627/2/6
f 621/2/6 622/2/6 628/2/6
f 628/2/6 622/2/6 629/2/6
f 623/2/6 624/2/6 630/2/6
f 628/2/6 629/2/6 631/2/6
f 629/2/6 630/2/6 631/2/6
f 617/2/6 625/2/6 631/2/6
f 626/2/6 627/2/6 631/2/6
f 627/2/6 628/2/6 631/2/6
f 625/2/6 626/2/6 631/2/6
f 631/2/6 630/2/6 632/2/6
f 632/2/6 630/2/6 633/2/6
f 633/2/6 630/2/6 634/2/6
f 634/2/6 630/2/6 635/2/6
f 630/2/6 624/2/6 636/2/6
f 635/2/6 630/2/6 636/2/6
f 617/2/6 631/2/6 637/2/6
f 637/2/6 631/2/6 638/2/6
f 632/2/6 633/2/6 639/2/6
f 639/2/6 633/2/6 640/2/6
f 634/2/6 635/2/6 641/2/6
f 641/2/6 635/2/6 642/2/6
f 636/2/6 624/2/6 643/2/6
f 643/2/6 624/2/6 644/2/6
