# MagicaVoxel @ Ephtracy

# group
o 

# material
mtllib WeaponMagazine#1.mtl
usemtl palette

# normals
vn -1 0 0
vn 1 0 0
vn 0 0 1
vn 0 0 -1
vn 0 -1 0
vn 0 1 0

# texcoords
vt 0.970703 0.5
vt 0.974609 0.5
vt 0.978516 0.5
vt 0.982422 0.5

# verts
v 0.1 3.7 -0.9
v 0.1 3.7 -1
v 0.1 3.8 -0.9
v 0.1 3.8 -1
v 0.2 3.4 -0.6
v 0.2 3.4 -1.3
v 0.2 3.6 -0.8
v 0.2 3.6 -1.1
v 0.2 3.7 -0.9
v 0.2 3.7 -1
v 0.2 3.8 -0.9
v 0.2 3.8 -1
v 0.2 3.9 -0.8
v 0.2 3.9 -1.1
v 0.2 4.1 -0.6
v 0.2 4.1 -1.3
v 0.3 2.8 -0.8
v 0.3 2.8 -1.1
v 0.3 3.3 -0.5
v 0.3 3.3 -0.8
v 0.3 3.3 -1.1
v 0.3 3.3 -1.4
v 0.3 3.4 -0.6
v 0.3 3.4 -0.8
v 0.3 3.4 -1.1
v 0.3 3.4 -1.3
v 0.3 4 -0.5
v 0.3 4 -0.6
v 0.3 4 -1.3
v 0.3 4 -1.4
v 0.3 4.1 -0.8
v 0.3 4.1 -1.1
v 0.3 4.2 -0.8
v 0.3 4.2 -1.1
v 0.4 2.9 -0.6
v 0.4 2.9 -0.8
v 0.4 2.9 -1.1
v 0.4 2.9 -1.3
v 0.4 3.3 -0.6
v 0.4 3.3 -0.8
v 0.4 3.3 -1.1
v 0.4 3.3 -1.3
v 0.8 3.3 -0.5
v 0.8 3.3 -0.6
v 0.8 3.3 -1.3
v 0.8 3.3 -1.4
v 0.8 3.5 -0.5
v 0.8 3.5 -0.6
v 0.8 3.5 -1.3
v 0.8 3.5 -1.4
v 0.4 3.3 -0.5
v 0.4 3.3 -0.6
v 0.4 3.3 -1.3
v 0.4 3.3 -1.4
v 0.4 3.5 -0.5
v 0.4 3.5 -0.6
v 0.4 3.5 -1.3
v 0.4 3.5 -1.4
v 0.8 2.9 -0.6
v 0.8 2.9 -0.8
v 0.8 2.9 -1.1
v 0.8 2.9 -1.3
v 0.8 3.3 -0.6
v 0.8 3.3 -1.3
v 0.8 3.5 -0.6
v 0.8 3.5 -0.8
v 0.8 3.5 -1.1
v 0.8 3.5 -1.3
v 0.9 2.8 -0.8
v 0.9 2.8 -1.1
v 0.9 3.3 -0.5
v 0.9 3.3 -0.6
v 0.9 3.3 -0.8
v 0.9 3.3 -1.1
v 0.9 3.3 -1.3
v 0.9 3.3 -1.4
v 0.9 3.5 -0.6
v 0.9 3.5 -0.8
v 0.9 3.5 -1.1
v 0.9 3.5 -1.3
v 0.9 4 -0.5
v 0.9 4 -0.6
v 0.9 4 -1.3
v 0.9 4 -1.4
v 0.9 4.1 -0.6
v 0.9 4.1 -0.8
v 0.9 4.1 -1.1
v 0.9 4.1 -1.3
v 1 3.3 -0.8
v 1 3.3 -1.1
v 1 4.2 -0.8
v 1 4.2 -1.1
v 0.3 3.3 -0.5
v 0.3 4 -0.5
v 0.4 3.3 -0.5
v 0.4 3.5 -0.5
v 0.8 3.3 -0.5
v 0.8 3.5 -0.5
v 0.9 3.3 -0.5
v 0.9 4 -0.5
v 0.2 3.4 -0.6
v 0.2 4.1 -0.6
v 0.3 3.4 -0.6
v 0.3 4 -0.6
v 0.3 4.1 -0.6
v 0.4 2.9 -0.6
v 0.4 3.3 -0.6
v 0.4 3.5 -0.6
v 0.8 2.9 -0.6
v 0.8 3.3 -0.6
v 0.8 3.5 -0.6
v 0.9 4 -0.6
v 0.9 4.1 -0.6
v 0.3 2.8 -0.8
v 0.3 3.3 -0.8
v 0.3 4.1 -0.8
v 0.3 4.2 -0.8
v 0.4 2.9 -0.8
v 0.4 3.3 -0.8
v 0.8 2.9 -0.8
v 0.8 3.5 -0.8
v 0.9 2.8 -0.8
v 0.9 3.3 -0.8
v 0.9 3.5 -0.8
v 0.9 4.1 -0.8
v 1 3.3 -0.8
v 1 4.2 -0.8
v 0.1 3.7 -0.9
v 0.1 3.8 -0.9
v 0.2 3.7 -0.9
v 0.2 3.8 -0.9
v 0.8 3.3 -1.3
v 0.8 3.5 -1.3
v 0.9 3.3 -1.3
v 0.9 3.5 -1.3
v 0.8 3.3 -0.6
v 0.8 3.5 -0.6
v 0.9 3.3 -0.6
v 0.9 3.5 -0.6
v 0.1 3.7 -1
v 0.1 3.8 -1
v 0.2 3.7 -1
v 0.2 3.8 -1
v 0.3 2.8 -1.1
v 0.3 3.3 -1.1
v 0.3 4.1 -1.1
v 0.3 4.2 -1.1
v 0.4 2.9 -1.1
v 0.4 3.3 -1.1
v 0.8 2.9 -1.1
v 0.8 3.5 -1.1
v 0.9 2.8 -1.1
v 0.9 3.3 -1.1
v 0.9 3.5 -1.1
v 0.9 4.1 -1.1
v 1 3.3 -1.1
v 1 4.2 -1.1
v 0.2 3.4 -1.3
v 0.2 4.1 -1.3
v 0.3 3.4 -1.3
v 0.3 4 -1.3
v 0.3 4.1 -1.3
v 0.4 2.9 -1.3
v 0.4 3.3 -1.3
v 0.4 3.5 -1.3
v 0.8 2.9 -1.3
v 0.8 3.3 -1.3
v 0.8 3.5 -1.3
v 0.9 4 -1.3
v 0.9 4.1 -1.3
v 0.3 3.3 -1.4
v 0.3 4 -1.4
v 0.4 3.3 -1.4
v 0.4 3.5 -1.4
v 0.8 3.3 -1.4
v 0.8 3.5 -1.4
v 0.9 3.3 -1.4
v 0.9 4 -1.4
v 0.3 2.8 -0.8
v 0.9 2.8 -0.8
v 0.3 2.8 -1.1
v 0.9 2.8 -1.1
v 0.4 2.9 -0.6
v 0.8 2.9 -0.6
v 0.4 2.9 -0.8
v 0.8 2.9 -0.8
v 0.4 2.9 -1.1
v 0.8 2.9 -1.1
v 0.4 2.9 -1.3
v 0.8 2.9 -1.3
v 0.3 3.3 -0.5
v 0.4 3.3 -0.5
v 0.8 3.3 -0.5
v 0.9 3.3 -0.5
v 0.4 3.3 -0.6
v 0.8 3.3 -0.6
v 0.9 3.3 -0.6
v 0.3 3.3 -0.8
v 0.4 3.3 -0.8
v 0.9 3.3 -0.8
v 1 3.3 -0.8
v 0.3 3.3 -1.1
v 0.4 3.3 -1.1
v 0.9 3.3 -1.1
v 1 3.3 -1.1
v 0.4 3.3 -1.3
v 0.8 3.3 -1.3
v 0.9 3.3 -1.3
v 0.3 3.3 -1.4
v 0.4 3.3 -1.4
v 0.8 3.3 -1.4
v 0.9 3.3 -1.4
v 0.2 3.4 -0.6
v 0.3 3.4 -0.6
v 0.3 3.4 -0.8
v 0.3 3.4 -1.1
v 0.2 3.4 -1.3
v 0.3 3.4 -1.3
v 0.4 3.5 -0.5
v 0.8 3.5 -0.5
v 0.4 3.5 -0.6
v 0.8 3.5 -0.6
v 0.9 3.5 -0.6
v 0.8 3.5 -0.8
v 0.9 3.5 -0.8
v 0.8 3.5 -1.1
v 0.9 3.5 -1.1
v 0.4 3.5 -1.3
v 0.8 3.5 -1.3
v 0.9 3.5 -1.3
v 0.4 3.5 -1.4
v 0.8 3.5 -1.4
v 0.1 3.7 -0.9
v 0.2 3.7 -0.9
v 0.1 3.7 -1
v 0.2 3.7 -1
v 0.1 3.8 -0.9
v 0.2 3.8 -0.9
v 0.1 3.8 -1
v 0.2 3.8 -1
v 0.3 4 -0.5
v 0.9 4 -0.5
v 0.3 4 -0.6
v 0.9 4 -0.6
v 0.3 4 -1.3
v 0.9 4 -1.3
v 0.3 4 -1.4
v 0.9 4 -1.4
v 0.2 4.1 -0.6
v 0.3 4.1 -0.6
v 0.9 4.1 -0.6
v 0.3 4.1 -0.8
v 0.9 4.1 -0.8
v 0.3 4.1 -1.1
v 0.9 4.1 -1.1
v 0.2 4.1 -1.3
v 0.3 4.1 -1.3
v 0.9 4.1 -1.3
v 0.3 4.2 -0.8
v 1 4.2 -0.8
v 0.3 4.2 -1.1
v 1 4.2 -1.1

# faces
f 3/2/1 2/2/1 1/2/1
f 4/2/1 2/2/1 3/2/1
f 7/3/1 6/3/1 5/3/1
f 8/3/1 6/3/1 7/3/1
f 9/2/1 8/2/1 7/2/1
f 10/2/1 8/2/1 9/2/1
f 11/2/1 9/2/1 7/2/1
f 12/2/1 8/2/1 10/2/1
f 13/3/1 7/3/1 5/3/1
f 13/2/1 12/2/1 11/2/1
f 13/2/1 11/2/1 7/2/1
f 14/2/1 8/2/1 12/2/1
f 14/2/1 12/2/1 13/2/1
f 14/3/1 6/3/1 8/3/1
f 15/3/1 13/3/1 5/3/1
f 15/3/1 14/3/1 13/3/1
f 16/3/1 6/3/1 14/3/1
f 16/3/1 14/3/1 15/3/1
f 20/1/1 18/1/1 17/1/1
f 21/1/1 18/1/1 20/1/1
f 23/2/1 20/2/1 19/2/1
f 24/1/1 21/1/1 20/1/1
f 24/2/1 20/2/1 23/2/1
f 25/2/1 22/2/1 21/2/1
f 25/1/1 21/1/1 24/1/1
f 26/2/1 22/2/1 25/2/1
f 27/2/1 23/2/1 19/2/1
f 28/2/1 23/2/1 27/2/1
f 29/2/1 22/2/1 26/2/1
f 30/2/1 22/2/1 29/2/1
f 33/1/1 32/1/1 31/1/1
f 34/1/1 32/1/1 33/1/1
f 39/4/1 36/4/1 35/4/1
f 40/4/1 36/4/1 39/4/1
f 41/4/1 38/4/1 37/4/1
f 42/4/1 38/4/1 41/4/1
f 47/2/1 44/2/1 43/2/1
f 48/2/1 44/2/1 47/2/1
f 49/2/1 46/2/1 45/2/1
f 50/2/1 46/2/1 49/2/1
f 51/2/2 52/2/2 55/2/2
f 55/2/2 52/2/2 56/2/2
f 53/2/2 54/2/2 57/2/2
f 57/2/2 54/2/2 58/2/2
f 59/4/2 60/4/2 63/4/2
f 61/4/2 62/4/2 64/4/2
f 63/4/2 60/4/2 65/4/2
f 65/4/2 60/4/2 66/4/2
f 61/4/2 64/4/2 67/4/2
f 67/4/2 64/4/2 68/4/2
f 69/1/2 70/1/2 73/1/2
f 73/1/2 70/1/2 74/1/2
f 71/2/2 72/2/2 77/2/2
f 75/2/2 76/2/2 80/2/2
f 77/2/2 78/2/2 81/2/2
f 71/2/2 77/2/2 81/2/2
f 81/2/2 78/2/2 82/2/2
f 79/2/2 80/2/2 83/2/2
f 80/2/2 76/2/2 83/2/2
f 83/2/2 76/2/2 84/2/2
f 82/2/2 78/2/2 85/2/2
f 85/2/2 78/2/2 86/2/2
f 79/2/2 83/2/2 87/2/2
f 87/2/2 83/2/2 88/2/2
f 89/1/2 90/1/2 91/1/2
f 91/1/2 90/1/2 92/1/2
f 95/2/3 94/2/3 93/2/3
f 96/2/3 94/2/3 95/2/3
f 98/2/3 94/2/3 96/2/3
f 99/2/3 98/2/3 97/2/3
f 100/2/3 94/2/3 98/2/3
f 100/2/3 98/2/3 99/2/3
f 103/3/3 102/3/3 101/3/3
f 104/3/3 102/3/3 103/3/3
f 105/3/3 102/3/3 104/3/3
f 109/4/3 107/4/3 106/4/3
f 109/4/3 108/4/3 107/4/3
f 110/4/3 108/4/3 109/4/3
f 111/4/3 108/4/3 110/4/3
f 112/2/3 105/2/3 104/2/3
f 113/2/3 105/2/3 112/2/3
f 118/1/3 115/1/3 114/1/3
f 119/1/3 115/1/3 118/1/3
f 120/1/3 118/1/3 114/1/3
f 122/1/3 120/1/3 114/1/3
f 122/1/3 121/1/3 120/1/3
f 123/1/3 121/1/3 122/1/3
f 124/1/3 121/1/3 123/1/3
f 125/1/3 117/1/3 116/1/3
f 126/1/3 124/1/3 123/1/3
f 126/1/3 125/1/3 124/1/3
f 127/1/3 117/1/3 125/1/3
f 127/1/3 125/1/3 126/1/3
f 130/2/3 129/2/3 128/2/3
f 131/2/3 129/2/3 130/2/3
f 134/2/3 133/2/3 132/2/3
f 135/2/3 133/2/3 134/2/3
f 136/2/4 137/2/4 138/2/4
f 138/2/4 137/2/4 139/2/4
f 140/2/4 141/2/4 142/2/4
f 142/2/4 141/2/4 143/2/4
f 144/1/4 145/1/4 148/1/4
f 148/1/4 145/1/4 149/1/4
f 144/1/4 148/1/4 150/1/4
f 144/1/4 150/1/4 152/1/4
f 150/1/4 151/1/4 152/1/4
f 152/1/4 151/1/4 153/1/4
f 153/1/4 151/1/4 154/1/4
f 146/1/4 147/1/4 155/1/4
f 153/1/4 154/1/4 156/1/4
f 154/1/4 155/1/4 156/1/4
f 155/1/4 147/1/4 157/1/4
f 156/1/4 155/1/4 157/1/4
f 158/3/4 159/3/4 160/3/4
f 160/3/4 159/3/4 161/3/4
f 161/3/4 159/3/4 162/3/4
f 163/4/4 164/4/4 166/4/4
f 164/4/4 165/4/4 166/4/4
f 166/4/4 165/4/4 167/4/4
f 167/4/4 165/4/4 168/4/4
f 161/2/4 162/2/4 169/2/4
f 169/2/4 162/2/4 170/2/4
f 171/2/4 172/2/4 173/2/4
f 173/2/4 172/2/4 174/2/4
f 174/2/4 172/2/4 176/2/4
f 175/2/4 176/2/4 177/2/4
f 176/2/4 172/2/4 178/2/4
f 177/2/4 176/2/4 178/2/4
f 181/1/5 180/1/5 179/1/5
f 182/1/5 180/1/5 181/1/5
f 185/4/5 184/4/5 183/4/5
f 186/4/5 184/4/5 185/4/5
f 189/4/5 188/4/5 187/4/5
f 190/4/5 188/4/5 189/4/5
f 195/2/5 192/2/5 191/2/5
f 196/2/5 194/2/5 193/2/5
f 197/2/5 194/2/5 196/2/5
f 198/2/5 195/2/5 191/2/5
f 199/2/5 195/2/5 198/2/5
f 204/1/5 201/1/5 200/1/5
f 205/1/5 201/1/5 204/1/5
f 206/2/5 203/2/5 202/2/5
f 209/2/5 206/2/5 202/2/5
f 210/2/5 206/2/5 209/2/5
f 211/2/5 208/2/5 207/2/5
f 212/2/5 208/2/5 211/2/5
f 215/3/5 214/3/5 213/3/5
f 216/3/5 215/3/5 213/3/5
f 217/3/5 216/3/5 213/3/5
f 218/3/5 216/3/5 217/3/5
f 221/2/5 220/2/5 219/2/5
f 222/2/5 220/2/5 221/2/5
f 224/2/5 223/2/5 222/2/5
f 225/2/5 223/2/5 224/2/5
f 229/2/5 227/2/5 226/2/5
f 230/2/5 227/2/5 229/2/5
f 231/2/5 229/2/5 228/2/5
f 232/2/5 229/2/5 231/2/5
f 235/2/5 234/2/5 233/2/5
f 236/2/5 234/2/5 235/2/5
f 237/2/6 238/2/6 239/2/6
f 239/2/6 238/2/6 240/2/6
f 241/2/6 242/2/6 243/2/6
f 243/2/6 242/2/6 244/2/6
f 245/2/6 246/2/6 247/2/6
f 247/2/6 246/2/6 248/2/6
f 249/3/6 250/3/6 252/3/6
f 250/2/6 251/2/6 252/2/6
f 252/2/6 251/2/6 253/2/6
f 249/3/6 252/3/6 254/3/6
f 249/3/6 254/3/6 256/3/6
f 254/2/6 255/2/6 257/2/6
f 256/3/6 254/3/6 257/3/6
f 257/2/6 255/2/6 258/2/6
f 259/1/6 260/1/6 261/1/6
f 261/1/6 260/1/6 262/1/6
