# MagicaVoxel @ Ephtracy

# group
o 

# material
mtllib WeaponTargetting#1.mtl
usemtl palette

# normals
vn -1 0 0
vn 1 0 0
vn 0 0 1
vn 0 0 -1
vn 0 -1 0
vn 0 1 0

# texcoords
vt 0.970703 0.5
vt 0.974609 0.5
vt 0.978516 0.5

# verts
v 0 2.1 0
v 0 2.1 -0.7
v 0 2.2 0
v 0 2.2 -0.1
v 0 2.2 -0.3
v 0 2.2 -0.4
v 0 2.2 -0.6
v 0 2.2 -0.7
v 0 2.3 0
v 0 2.3 -0.1
v 0 2.3 -0.3
v 0 2.3 -0.4
v 0 2.3 -0.6
v 0 2.3 -0.7
v 0 2.4 -0.1
v 0 2.4 -0.3
v 0 2.4 -0.4
v 0 2.4 -0.6
v 0.1 2.3 0
v 0.1 2.3 -0.1
v 0.1 2.3 -0.3
v 0.1 2.3 -0.4
v 0.1 2.3 -0.6
v 0.1 2.3 -0.7
v 0.1 2.4 -0.1
v 0.1 2.4 -0.3
v 0.1 2.4 -0.4
v 0.1 2.4 -0.6
v 0.1 2.5 0
v 0.1 2.5 -0.7
v 0.3 2 -0.3
v 0.3 2 -0.4
v 0.3 2.1 -0.3
v 0.3 2.1 -0.4
v 0.4 2.4 0
v 0.4 2.4 -0.7
v 0.4 2.5 0
v 0.4 2.5 -0.7
v 0.3 2.4 0
v 0.3 2.4 -0.7
v 0.3 2.5 0
v 0.3 2.5 -0.7
v 0.4 2 -0.3
v 0.4 2 -0.4
v 0.4 2.1 -0.3
v 0.4 2.1 -0.4
v 0.6 2.3 0
v 0.6 2.3 -0.1
v 0.6 2.3 -0.3
v 0.6 2.3 -0.4
v 0.6 2.3 -0.6
v 0.6 2.3 -0.7
v 0.6 2.4 -0.1
v 0.6 2.4 -0.3
v 0.6 2.4 -0.4
v 0.6 2.4 -0.6
v 0.6 2.5 0
v 0.6 2.5 -0.7
v 0.7 2.1 0
v 0.7 2.1 -0.7
v 0.7 2.2 0
v 0.7 2.2 -0.1
v 0.7 2.2 -0.3
v 0.7 2.2 -0.4
v 0.7 2.2 -0.6
v 0.7 2.2 -0.7
v 0.7 2.3 0
v 0.7 2.3 -0.1
v 0.7 2.3 -0.3
v 0.7 2.3 -0.4
v 0.7 2.3 -0.6
v 0.7 2.3 -0.7
v 0.7 2.4 -0.1
v 0.7 2.4 -0.3
v 0.7 2.4 -0.4
v 0.7 2.4 -0.6
v 0 2.1 0
v 0 2.2 0
v 0 2.3 0
v 0.1 2.3 0
v 0.1 2.5 0
v 0.3 2.2 0
v 0.3 2.4 0
v 0.3 2.5 0
v 0.4 2.2 0
v 0.4 2.4 0
v 0.4 2.5 0
v 0.6 2.3 0
v 0.6 2.5 0
v 0.7 2.1 0
v 0.7 2.2 0
v 0.7 2.3 0
v 0 2.3 -0.1
v 0 2.4 -0.1
v 0.1 2.3 -0.1
v 0.1 2.4 -0.1
v 0.6 2.3 -0.1
v 0.6 2.4 -0.1
v 0.7 2.3 -0.1
v 0.7 2.4 -0.1
v 0.3 2 -0.3
v 0.3 2.1 -0.3
v 0.4 2 -0.3
v 0.4 2.1 -0.3
v 0 2.3 -0.4
v 0 2.4 -0.4
v 0.1 2.3 -0.4
v 0.1 2.4 -0.4
v 0.6 2.3 -0.4
v 0.6 2.4 -0.4
v 0.7 2.3 -0.4
v 0.7 2.4 -0.4
v 0 2.3 -0.3
v 0 2.4 -0.3
v 0.1 2.3 -0.3
v 0.1 2.4 -0.3
v 0.6 2.3 -0.3
v 0.6 2.4 -0.3
v 0.7 2.3 -0.3
v 0.7 2.4 -0.3
v 0.3 2 -0.4
v 0.3 2.1 -0.4
v 0.4 2 -0.4
v 0.4 2.1 -0.4
v 0 2.3 -0.6
v 0 2.4 -0.6
v 0.1 2.3 -0.6
v 0.1 2.4 -0.6
v 0.6 2.3 -0.6
v 0.6 2.4 -0.6
v 0.7 2.3 -0.6
v 0.7 2.4 -0.6
v 0 2.1 -0.7
v 0 2.2 -0.7
v 0 2.3 -0.7
v 0.1 2.3 -0.7
v 0.1 2.5 -0.7
v 0.3 2.2 -0.7
v 0.3 2.4 -0.7
v 0.3 2.5 -0.7
v 0.4 2.2 -0.7
v 0.4 2.4 -0.7
v 0.4 2.5 -0.7
v 0.6 2.3 -0.7
v 0.6 2.5 -0.7
v 0.7 2.1 -0.7
v 0.7 2.2 -0.7
v 0.7 2.3 -0.7
v 0.3 2 -0.3
v 0.4 2 -0.3
v 0.3 2 -0.4
v 0.4 2 -0.4
v 0 2.1 0
v 0.7 2.1 0
v 0.3 2.1 -0.3
v 0.4 2.1 -0.3
v 0.3 2.1 -0.4
v 0.4 2.1 -0.4
v 0 2.1 -0.7
v 0.7 2.1 -0.7
v 0 2.3 0
v 0.1 2.3 0
v 0.6 2.3 0
v 0.7 2.3 0
v 0 2.3 -0.1
v 0.1 2.3 -0.1
v 0.6 2.3 -0.1
v 0.7 2.3 -0.1
v 0 2.3 -0.3
v 0.1 2.3 -0.3
v 0.6 2.3 -0.3
v 0.7 2.3 -0.3
v 0 2.3 -0.4
v 0.1 2.3 -0.4
v 0.6 2.3 -0.4
v 0.7 2.3 -0.4
v 0 2.3 -0.6
v 0.1 2.3 -0.6
v 0.6 2.3 -0.6
v 0.7 2.3 -0.6
v 0 2.3 -0.7
v 0.1 2.3 -0.7
v 0.6 2.3 -0.7
v 0.7 2.3 -0.7
v 0.3 2.4 0
v 0.4 2.4 0
v 0 2.4 -0.1
v 0.1 2.4 -0.1
v 0.6 2.4 -0.1
v 0.7 2.4 -0.1
v 0 2.4 -0.3
v 0.1 2.4 -0.3
v 0.6 2.4 -0.3
v 0.7 2.4 -0.3
v 0 2.4 -0.4
v 0.1 2.4 -0.4
v 0.6 2.4 -0.4
v 0.7 2.4 -0.4
v 0 2.4 -0.6
v 0.1 2.4 -0.6
v 0.6 2.4 -0.6
v 0.7 2.4 -0.6
v 0.3 2.4 -0.7
v 0.4 2.4 -0.7
v 0.1 2.5 0
v 0.3 2.5 0
v 0.4 2.5 0
v 0.6 2.5 0
v 0.1 2.5 -0.7
v 0.3 2.5 -0.7
v 0.4 2.5 -0.7
v 0.6 2.5 -0.7

# faces
f 3/3/1 2/3/1 1/3/1
f 4/3/1 2/3/1 3/3/1
f 5/3/1 2/3/1 4/3/1
f 6/3/1 2/3/1 5/3/1
f 7/3/1 2/3/1 6/3/1
f 8/3/1 2/3/1 7/3/1
f 9/2/1 4/2/1 3/2/1
f 10/1/1 5/1/1 4/1/1
f 10/2/1 4/2/1 9/2/1
f 11/2/1 6/2/1 5/2/1
f 11/1/1 5/1/1 10/1/1
f 12/1/1 7/1/1 6/1/1
f 12/2/1 6/2/1 11/2/1
f 13/2/1 8/2/1 7/2/1
f 13/1/1 7/1/1 12/1/1
f 14/2/1 8/2/1 13/2/1
f 15/1/1 11/1/1 10/1/1
f 16/1/1 11/1/1 15/1/1
f 17/1/1 13/1/1 12/1/1
f 18/1/1 13/1/1 17/1/1
f 25/2/1 20/2/1 19/2/1
f 26/2/1 22/2/1 21/2/1
f 27/2/1 22/2/1 26/2/1
f 28/2/1 24/2/1 23/2/1
f 29/2/1 27/2/1 26/2/1
f 29/2/1 28/2/1 27/2/1
f 29/2/1 25/2/1 19/2/1
f 29/2/1 26/2/1 25/2/1
f 30/2/1 24/2/1 28/2/1
f 30/2/1 28/2/1 29/2/1
f 33/3/1 32/3/1 31/3/1
f 34/3/1 32/3/1 33/3/1
f 37/2/1 36/2/1 35/2/1
f 38/2/1 36/2/1 37/2/1
f 39/2/2 40/2/2 41/2/2
f 41/2/2 40/2/2 42/2/2
f 43/3/2 44/3/2 45/3/2
f 45/3/2 44/3/2 46/3/2
f 47/2/2 48/2/2 53/2/2
f 49/2/2 50/2/2 54/2/2
f 54/2/2 50/2/2 55/2/2
f 51/2/2 52/2/2 56/2/2
f 54/2/2 55/2/2 57/2/2
f 55/2/2 56/2/2 57/2/2
f 47/2/2 53/2/2 57/2/2
f 53/2/2 54/2/2 57/2/2
f 56/2/2 52/2/2 58/2/2
f 57/2/2 56/2/2 58/2/2
f 59/3/2 60/3/2 61/3/2
f 61/3/2 60/3/2 62/3/2
f 62/3/2 60/3/2 63/3/2
f 63/3/2 60/3/2 64/3/2
f 64/3/2 60/3/2 65/3/2
f 65/3/2 60/3/2 66/3/2
f 61/2/2 62/2/2 67/2/2
f 62/1/2 63/1/2 68/1/2
f 67/2/2 62/2/2 68/2/2
f 63/2/2 64/2/2 69/2/2
f 68/1/2 63/1/2 69/1/2
f 64/1/2 65/1/2 70/1/2
f 69/2/2 64/2/2 70/2/2
f 65/2/2 66/2/2 71/2/2
f 70/1/2 65/1/2 71/1/2
f 71/2/2 66/2/2 72/2/2
f 68/1/2 69/1/2 73/1/2
f 73/1/2 69/1/2 74/1/2
f 70/1/2 71/1/2 75/1/2
f 75/1/2 71/1/2 76/1/2
f 80/2/3 79/2/3 78/2/3
f 82/3/3 78/3/3 77/3/3
f 82/2/3 81/2/3 80/2/3
f 82/2/3 80/2/3 78/2/3
f 83/2/3 81/2/3 82/2/3
f 84/2/3 81/2/3 83/2/3
f 85/3/3 82/3/3 77/3/3
f 85/1/3 83/1/3 82/1/3
f 86/1/3 83/1/3 85/1/3
f 88/2/3 86/2/3 85/2/3
f 88/2/3 87/2/3 86/2/3
f 89/2/3 87/2/3 88/2/3
f 90/3/3 85/3/3 77/3/3
f 91/2/3 88/2/3 85/2/3
f 91/3/3 85/3/3 90/3/3
f 92/2/3 88/2/3 91/2/3
f 95/1/3 94/1/3 93/1/3
f 96/1/3 94/1/3 95/1/3
f 99/1/3 98/1/3 97/1/3
f 100/1/3 98/1/3 99/1/3
f 103/3/3 102/3/3 101/3/3
f 104/3/3 102/3/3 103/3/3
f 107/1/3 106/1/3 105/1/3
f 108/1/3 106/1/3 107/1/3
f 111/1/3 110/1/3 109/1/3
f 112/1/3 110/1/3 111/1/3
f 113/1/4 114/1/4 115/1/4
f 115/1/4 114/1/4 116/1/4
f 117/1/4 118/1/4 119/1/4
f 119/1/4 118/1/4 120/1/4
f 121/3/4 122/3/4 123/3/4
f 123/3/4 122/3/4 124/3/4
f 125/1/4 126/1/4 127/1/4
f 127/1/4 126/1/4 128/1/4
f 129/1/4 130/1/4 131/1/4
f 131/1/4 130/1/4 132/1/4
f 134/2/4 135/2/4 136/2/4
f 133/3/4 134/3/4 138/3/4
f 136/2/4 137/2/4 138/2/4
f 134/2/4 136/2/4 138/2/4
f 138/2/4 137/2/4 139/2/4
f 139/2/4 137/2/4 140/2/4
f 133/3/4 138/3/4 141/3/4
f 138/1/4 139/1/4 141/1/4
f 141/1/4 139/1/4 142/1/4
f 141/2/4 142/2/4 144/2/4
f 142/2/4 143/2/4 144/2/4
f 144/2/4 143/2/4 145/2/4
f 133/3/4 141/3/4 146/3/4
f 141/2/4 144/2/4 147/2/4
f 146/3/4 141/3/4 147/3/4
f 147/2/4 144/2/4 148/2/4
f 151/3/5 150/3/5 149/3/5
f 152/3/5 150/3/5 151/3/5
f 155/3/5 154/3/5 153/3/5
f 156/3/5 154/3/5 155/3/5
f 157/3/5 155/3/5 153/3/5
f 158/3/5 154/3/5 156/3/5
f 159/3/5 157/3/5 153/3/5
f 159/3/5 158/3/5 157/3/5
f 160/3/5 154/3/5 158/3/5
f 160/3/5 158/3/5 159/3/5
f 161/2/6 162/2/6 165/2/6
f 165/2/6 162/2/6 166/2/6
f 163/2/6 164/2/6 167/2/6
f 167/2/6 164/2/6 168/2/6
f 169/2/6 170/2/6 173/2/6
f 173/2/6 170/2/6 174/2/6
f 171/2/6 172/2/6 175/2/6
f 175/2/6 172/2/6 176/2/6
f 177/2/6 178/2/6 181/2/6
f 181/2/6 178/2/6 182/2/6
f 179/2/6 180/2/6 183/2/6
f 183/2/6 180/2/6 184/2/6
f 187/1/6 188/1/6 191/1/6
f 191/1/6 188/1/6 192/1/6
f 189/1/6 190/1/6 193/1/6
f 193/1/6 190/1/6 194/1/6
f 195/1/6 196/1/6 199/1/6
f 199/1/6 196/1/6 200/1/6
f 197/1/6 198/1/6 201/1/6
f 201/1/6 198/1/6 202/1/6
f 185/1/6 186/1/6 203/1/6
f 203/1/6 186/1/6 204/1/6
f 205/2/6 206/2/6 209/2/6
f 209/2/6 206/2/6 210/2/6
f 207/2/6 208/2/6 211/2/6
f 211/2/6 208/2/6 212/2/6
