# MagicaVoxel @ Ephtracy

# group
o 

# material
mtllib WeaponBattery#3.mtl
usemtl palette

# normals
vn -1 0 0
vn 1 0 0
vn 0 0 1
vn 0 0 -1
vn 0 -1 0
vn 0 1 0

# texcoords
vt 0.970703 0.5
vt 0.974609 0.5
vt 0.978516 0.5
vt 0.982422 0.5

# verts
v 0 2.4 0
v 0 2.4 -0.1
v 0 2.4 -0.8
v 0 2.4 -0.9
v 0 2.7 -0.1
v 0 2.7 -0.8
v 0 2.8 0
v 0 2.8 -0.1
v 0 2.8 -0.8
v 0 2.8 -0.9
v 0 2.9 -0.1
v 0 2.9 -0.8
v 0.1 2.2 0
v 0.1 2.2 -0.1
v 0.1 2.2 -0.8
v 0.1 2.2 -0.9
v 0.1 2.4 0
v 0.1 2.4 -0.1
v 0.1 2.4 -0.2
v 0.1 2.4 -0.7
v 0.1 2.4 -0.8
v 0.1 2.4 -0.9
v 0.1 2.7 -0.1
v 0.1 2.7 -0.2
v 0.1 2.7 -0.7
v 0.1 2.7 -0.8
v 0.2 2 -0.1
v 0.2 2 -0.8
v 0.2 2.1 -0.1
v 0.2 2.1 -0.2
v 0.2 2.1 -0.3
v 0.2 2.1 -0.4
v 0.2 2.1 -0.5
v 0.2 2.1 -0.6
v 0.2 2.1 -0.7
v 0.2 2.1 -0.8
v 0.2 2.3 -0.1
v 0.2 2.3 -0.2
v 0.2 2.3 -0.7
v 0.2 2.3 -0.8
v 0.2 2.4 -0.1
v 0.2 2.4 -0.2
v 0.2 2.4 -0.7
v 0.2 2.4 -0.8
v 0.2 2.5 -0.2
v 0.2 2.5 -0.3
v 0.2 2.5 -0.4
v 0.2 2.5 -0.5
v 0.2 2.5 -0.6
v 0.2 2.5 -0.7
v 0.3 2.1 0
v 0.3 2.1 -0.1
v 0.3 2.1 -0.2
v 0.3 2.1 -0.3
v 0.3 2.1 -0.4
v 0.3 2.1 -0.5
v 0.3 2.1 -0.6
v 0.3 2.1 -0.7
v 0.3 2.1 -0.8
v 0.3 2.1 -0.9
v 0.3 2.2 0
v 0.3 2.2 -0.1
v 0.3 2.2 -0.8
v 0.3 2.2 -0.9
v 0.3 2.3 -0.1
v 0.3 2.3 -0.2
v 0.3 2.3 -0.7
v 0.3 2.3 -0.8
v 0.3 2.5 -0.2
v 0.3 2.5 -0.3
v 0.3 2.5 -0.4
v 0.3 2.5 -0.5
v 0.3 2.5 -0.6
v 0.3 2.5 -0.7
v 0.3 2.7 -0.2
v 0.3 2.7 -0.7
v 0.6 2 -0.1
v 0.6 2 -0.8
v 0.6 2.1 0
v 0.6 2.1 -0.1
v 0.6 2.1 -0.8
v 0.6 2.1 -0.9
v 0.6 2.8 0
v 0.6 2.8 -0.1
v 0.6 2.8 -0.8
v 0.6 2.8 -0.9
v 0.6 2.9 -0.1
v 0.6 2.9 -0.8
v 0.7 2.1 -0.1
v 0.7 2.1 -0.8
v 0.7 2.4 -0.4
v 0.7 2.4 -0.5
v 0.7 2.5 -0.4
v 0.7 2.5 -0.5
v 0.7 2.8 -0.1
v 0.7 2.8 -0.8
v 0.8 2.4 -0.4
v 0.8 2.4 -0.5
v 0.8 2.5 -0.4
v 0.8 2.5 -0.5
v 0 2.4 0
v 0 2.8 0
v 0.1 2.2 0
v 0.1 2.4 0
v 0.3 2.1 0
v 0.3 2.2 0
v 0.6 2.1 0
v 0.6 2.8 0
v 0 2.8 -0.1
v 0 2.9 -0.1
v 0.2 2 -0.1
v 0.2 2.1 -0.1
v 0.3 2.1 -0.1
v 0.6 2 -0.1
v 0.6 2.1 -0.1
v 0.6 2.8 -0.1
v 0.6 2.9 -0.1
v 0.7 2.1 -0.1
v 0.7 2.8 -0.1
v 0.2 2.1 -0.2
v 0.2 2.3 -0.2
v 0.3 2.1 -0.2
v 0.3 2.3 -0.2
v 0.2 2.1 -0.4
v 0.2 2.5 -0.4
v 0.3 2.1 -0.4
v 0.3 2.5 -0.4
v 0.7 2.4 -0.4
v 0.7 2.5 -0.4
v 0.8 2.4 -0.4
v 0.8 2.5 -0.4
v 0.2 2.1 -0.6
v 0.2 2.5 -0.6
v 0.3 2.1 -0.6
v 0.3 2.5 -0.6
v 0.1 2.4 -0.7
v 0.1 2.7 -0.7
v 0.2 2.4 -0.7
v 0.2 2.5 -0.7
v 0.3 2.5 -0.7
v 0.3 2.7 -0.7
v 0 2.4 -0.8
v 0 2.7 -0.8
v 0.1 2.2 -0.8
v 0.1 2.4 -0.8
v 0.1 2.7 -0.8
v 0.2 2.3 -0.8
v 0.2 2.4 -0.8
v 0.3 2.2 -0.8
v 0.3 2.3 -0.8
v 0 2.4 -0.1
v 0 2.7 -0.1
v 0.1 2.2 -0.1
v 0.1 2.4 -0.1
v 0.1 2.7 -0.1
v 0.2 2.3 -0.1
v 0.2 2.4 -0.1
v 0.3 2.2 -0.1
v 0.3 2.3 -0.1
v 0.1 2.4 -0.2
v 0.1 2.7 -0.2
v 0.2 2.4 -0.2
v 0.2 2.5 -0.2
v 0.3 2.5 -0.2
v 0.3 2.7 -0.2
v 0.2 2.1 -0.3
v 0.2 2.5 -0.3
v 0.3 2.1 -0.3
v 0.3 2.5 -0.3
v 0.2 2.1 -0.5
v 0.2 2.5 -0.5
v 0.3 2.1 -0.5
v 0.3 2.5 -0.5
v 0.7 2.4 -0.5
v 0.7 2.5 -0.5
v 0.8 2.4 -0.5
v 0.8 2.5 -0.5
v 0.2 2.1 -0.7
v 0.2 2.3 -0.7
v 0.3 2.1 -0.7
v 0.3 2.3 -0.7
v 0 2.8 -0.8
v 0 2.9 -0.8
v 0.2 2 -0.8
v 0.2 2.1 -0.8
v 0.3 2.1 -0.8
v 0.6 2 -0.8
v 0.6 2.1 -0.8
v 0.6 2.8 -0.8
v 0.6 2.9 -0.8
v 0.7 2.1 -0.8
v 0.7 2.8 -0.8
v 0 2.4 -0.9
v 0 2.8 -0.9
v 0.1 2.2 -0.9
v 0.1 2.4 -0.9
v 0.3 2.1 -0.9
v 0.3 2.2 -0.9
v 0.6 2.1 -0.9
v 0.6 2.8 -0.9
v 0.2 2 -0.1
v 0.6 2 -0.1
v 0.2 2 -0.8
v 0.6 2 -0.8
v 0.3 2.1 0
v 0.6 2.1 0
v 0.3 2.1 -0.1
v 0.6 2.1 -0.1
v 0.7 2.1 -0.1
v 0.3 2.1 -0.8
v 0.6 2.1 -0.8
v 0.7 2.1 -0.8
v 0.3 2.1 -0.9
v 0.6 2.1 -0.9
v 0.1 2.2 0
v 0.3 2.2 0
v 0.1 2.2 -0.1
v 0.3 2.2 -0.1
v 0.1 2.2 -0.8
v 0.3 2.2 -0.8
v 0.1 2.2 -0.9
v 0.3 2.2 -0.9
v 0.2 2.3 -0.1
v 0.3 2.3 -0.1
v 0.2 2.3 -0.2
v 0.3 2.3 -0.2
v 0.2 2.3 -0.7
v 0.3 2.3 -0.7
v 0.2 2.3 -0.8
v 0.3 2.3 -0.8
v 0 2.4 0
v 0.1 2.4 0
v 0 2.4 -0.1
v 0.1 2.4 -0.1
v 0.2 2.4 -0.1
v 0.1 2.4 -0.2
v 0.2 2.4 -0.2
v 0.7 2.4 -0.4
v 0.8 2.4 -0.4
v 0.7 2.4 -0.5
v 0.8 2.4 -0.5
v 0.1 2.4 -0.7
v 0.2 2.4 -0.7
v 0 2.4 -0.8
v 0.1 2.4 -0.8
v 0.2 2.4 -0.8
v 0 2.4 -0.9
v 0.1 2.4 -0.9
v 0 2.7 -0.1
v 0.1 2.7 -0.1
v 0.1 2.7 -0.2
v 0.3 2.7 -0.2
v 0.1 2.7 -0.7
v 0.3 2.7 -0.7
v 0 2.7 -0.8
v 0.1 2.7 -0.8
v 0.2 2.1 -0.1
v 0.3 2.1 -0.1
v 0.2 2.1 -0.2
v 0.3 2.1 -0.2
v 0.2 2.1 -0.3
v 0.3 2.1 -0.3
v 0.2 2.1 -0.4
v 0.3 2.1 -0.4
v 0.2 2.1 -0.5
v 0.3 2.1 -0.5
v 0.2 2.1 -0.6
v 0.3 2.1 -0.6
v 0.2 2.1 -0.7
v 0.3 2.1 -0.7
v 0.2 2.1 -0.8
v 0.3 2.1 -0.8
v 0.2 2.5 -0.2
v 0.3 2.5 -0.2
v 0.2 2.5 -0.3
v 0.3 2.5 -0.3
v 0.2 2.5 -0.4
v 0.3 2.5 -0.4
v 0.7 2.5 -0.4
v 0.8 2.5 -0.4
v 0.2 2.5 -0.5
v 0.3 2.5 -0.5
v 0.7 2.5 -0.5
v 0.8 2.5 -0.5
v 0.2 2.5 -0.6
v 0.3 2.5 -0.6
v 0.2 2.5 -0.7
v 0.3 2.5 -0.7
v 0 2.8 0
v 0.6 2.8 0
v 0 2.8 -0.1
v 0.6 2.8 -0.1
v 0.7 2.8 -0.1
v 0 2.8 -0.8
v 0.6 2.8 -0.8
v 0.7 2.8 -0.8
v 0 2.8 -0.9
v 0.6 2.8 -0.9
v 0 2.9 -0.1
v 0.6 2.9 -0.1
v 0 2.9 -0.8
v 0.6 2.9 -0.8

# faces
f 5/2/1 2/2/1 1/2/1
f 6/2/1 4/2/1 3/2/1
f 7/2/1 5/2/1 1/2/1
f 8/1/1 6/1/1 5/1/1
f 8/2/1 5/2/1 7/2/1
f 9/2/1 4/2/1 6/2/1
f 9/1/1 6/1/1 8/1/1
f 10/2/1 4/2/1 9/2/1
f 11/2/1 9/2/1 8/2/1
f 12/2/1 9/2/1 11/2/1
f 17/2/1 14/2/1 13/2/1
f 18/2/1 14/2/1 17/2/1
f 21/2/1 16/2/1 15/2/1
f 22/2/1 16/2/1 21/2/1
f 23/1/1 19/1/1 18/1/1
f 24/1/1 19/1/1 23/1/1
f 25/1/1 21/1/1 20/1/1
f 26/1/1 21/1/1 25/1/1
f 29/2/1 28/2/1 27/2/1
f 30/2/1 28/2/1 29/2/1
f 31/2/1 28/2/1 30/2/1
f 32/2/1 28/2/1 31/2/1
f 33/2/1 28/2/1 32/2/1
f 34/2/1 28/2/1 33/2/1
f 35/2/1 28/2/1 34/2/1
f 36/2/1 28/2/1 35/2/1
f 38/2/1 31/2/1 30/2/1
f 39/2/1 35/2/1 34/2/1
f 41/1/1 38/1/1 37/1/1
f 42/2/1 31/2/1 38/2/1
f 42/1/1 38/1/1 41/1/1
f 43/1/1 40/1/1 39/1/1
f 43/2/1 39/2/1 34/2/1
f 44/1/1 40/1/1 43/1/1
f 45/2/1 31/2/1 42/2/1
f 46/2/1 31/2/1 45/2/1
f 47/2/1 33/2/1 32/2/1
f 48/2/1 33/2/1 47/2/1
f 49/2/1 43/2/1 34/2/1
f 50/2/1 43/2/1 49/2/1
f 61/2/1 52/2/1 51/2/1
f 62/1/1 53/1/1 52/1/1
f 62/2/1 52/2/1 61/2/1
f 63/2/1 60/2/1 59/2/1
f 63/1/1 59/1/1 58/1/1
f 64/2/1 60/2/1 63/2/1
f 65/1/1 53/1/1 62/1/1
f 66/1/1 53/1/1 65/1/1
f 67/1/1 63/1/1 58/1/1
f 68/1/1 63/1/1 67/1/1
f 70/4/1 55/4/1 54/4/1
f 71/4/1 55/4/1 70/4/1
f 72/4/1 57/4/1 56/4/1
f 73/4/1 57/4/1 72/4/1
f 75/4/1 71/4/1 70/4/1
f 75/4/1 74/4/1 73/4/1
f 75/4/1 73/4/1 72/4/1
f 75/4/1 72/4/1 71/4/1
f 75/4/1 70/4/1 69/4/1
f 76/4/1 74/4/1 75/4/1
f 77/2/2 78/2/2 80/2/2
f 80/2/2 78/2/2 81/2/2
f 79/2/2 80/2/2 83/2/2
f 83/2/2 80/2/2 84/2/2
f 81/2/2 82/2/2 85/2/2
f 85/2/2 82/2/2 86/2/2
f 84/2/2 85/2/2 87/2/2
f 87/2/2 85/2/2 88/2/2
f 89/3/2 90/3/2 91/3/2
f 91/3/2 90/3/2 92/3/2
f 89/3/2 91/3/2 93/3/2
f 92/3/2 90/3/2 94/3/2
f 89/3/2 93/3/2 95/3/2
f 93/3/2 94/3/2 95/3/2
f 94/3/2 90/3/2 96/3/2
f 95/3/2 94/3/2 96/3/2
f 97/3/2 98/3/2 99/3/2
f 99/3/2 98/3/2 100/3/2
f 104/2/3 102/2/3 101/2/3
f 106/2/3 104/2/3 103/2/3
f 107/2/3 106/2/3 105/2/3
f 108/2/3 102/2/3 104/2/3
f 108/2/3 106/2/3 107/2/3
f 108/2/3 104/2/3 106/2/3
f 113/2/3 112/2/3 111/2/3
f 114/2/3 113/2/3 111/2/3
f 115/2/3 113/2/3 114/2/3
f 116/2/3 110/2/3 109/2/3
f 117/2/3 110/2/3 116/2/3
f 118/3/3 116/3/3 115/3/3
f 119/3/3 116/3/3 118/3/3
f 122/2/3 121/2/3 120/2/3
f 123/2/3 121/2/3 122/2/3
f 126/2/3 125/2/3 124/2/3
f 127/2/3 125/2/3 126/2/3
f 130/3/3 129/3/3 128/3/3
f 131/3/3 129/3/3 130/3/3
f 134/2/3 133/2/3 132/2/3
f 135/2/3 133/2/3 134/2/3
f 138/1/3 137/1/3 136/1/3
f 139/1/3 137/1/3 138/1/3
f 140/1/3 137/1/3 139/1/3
f 141/1/3 137/1/3 140/1/3
f 145/2/3 143/2/3 142/2/3
f 146/2/3 143/2/3 145/2/3
f 147/2/3 145/2/3 144/2/3
f 148/2/3 145/2/3 147/2/3
f 149/2/3 147/2/3 144/2/3
f 150/2/3 147/2/3 149/2/3
f 151/2/4 152/2/4 154/2/4
f 154/2/4 152/2/4 155/2/4
f 153/2/4 154/2/4 156/2/4
f 156/2/4 154/2/4 157/2/4
f 153/2/4 156/2/4 158/2/4
f 158/2/4 156/2/4 159/2/4
f 160/1/4 161/1/4 162/1/4
f 162/1/4 161/1/4 163/1/4
f 163/1/4 161/1/4 164/1/4
f 164/1/4 161/1/4 165/1/4
f 166/2/4 167/2/4 168/2/4
f 168/2/4 167/2/4 169/2/4
f 170/2/4 171/2/4 172/2/4
f 172/2/4 171/2/4 173/2/4
f 174/3/4 175/3/4 176/3/4
f 176/3/4 175/3/4 177/3/4
f 178/2/4 179/2/4 180/2/4
f 180/2/4 179/2/4 181/2/4
f 184/2/4 185/2/4 186/2/4
f 184/2/4 186/2/4 187/2/4
f 187/2/4 186/2/4 188/2/4
f 182/2/4 183/2/4 189/2/4
f 189/2/4 183/2/4 190/2/4
f 188/3/4 189/3/4 191/3/4
f 191/3/4 189/3/4 192/3/4
f 193/2/4 194/2/4 196/2/4
f 195/2/4 196/2/4 198/2/4
f 197/2/4 198/2/4 199/2/4
f 196/2/4 194/2/4 200/2/4
f 199/2/4 198/2/4 200/2/4
f 198/2/4 196/2/4 200/2/4
f 203/2/5 202/2/5 201/2/5
f 204/2/5 202/2/5 203/2/5
f 207/2/5 206/2/5 205/2/5
f 208/2/5 206/2/5 207/2/5
f 211/3/5 209/3/5 208/3/5
f 212/3/5 209/3/5 211/3/5
f 213/2/5 211/2/5 210/2/5
f 214/2/5 211/2/5 213/2/5
f 217/2/5 216/2/5 215/2/5
f 218/2/5 216/2/5 217/2/5
f 221/2/5 220/2/5 219/2/5
f 222/2/5 220/2/5 221/2/5
f 225/1/5 224/1/5 223/1/5
f 226/1/5 224/1/5 225/1/5
f 229/1/5 228/1/5 227/1/5
f 230/1/5 228/1/5 229/1/5
f 233/2/5 232/2/5 231/2/5
f 234/2/5 232/2/5 233/2/5
f 236/1/5 235/1/5 234/1/5
f 237/1/5 235/1/5 236/1/5
f 240/3/5 239/3/5 238/3/5
f 241/3/5 239/3/5 240/3/5
f 245/1/5 243/1/5 242/1/5
f 246/1/5 243/1/5 245/1/5
f 247/2/5 245/2/5 244/2/5
f 248/2/5 245/2/5 247/2/5
f 251/1/5 250/1/5 249/1/5
f 253/1/5 251/1/5 249/1/5
f 253/1/5 252/1/5 251/1/5
f 254/1/5 252/1/5 253/1/5
f 255/1/5 253/1/5 249/1/5
f 256/1/5 253/1/5 255/1/5
f 257/2/6 258/2/6 259/2/6
f 259/2/6 258/2/6 260/2/6
f 261/2/6 262/2/6 263/2/6
f 263/2/6 262/2/6 264/2/6
f 265/2/6 266/2/6 267/2/6
f 267/2/6 266/2/6 268/2/6
f 269/2/6 270/2/6 271/2/6
f 271/2/6 270/2/6 272/2/6
f 273/2/6 274/2/6 275/2/6
f 275/2/6 274/2/6 276/2/6
f 277/2/6 278/2/6 281/2/6
f 281/2/6 278/2/6 282/2/6
f 279/3/6 280/3/6 283/3/6
f 283/3/6 280/3/6 284/3/6
f 285/2/6 286/2/6 287/2/6
f 287/2/6 286/2/6 288/2/6
f 289/2/6 290/2/6 291/2/6
f 291/2/6 290/2/6 292/2/6
f 292/3/6 293/3/6 295/3/6
f 295/3/6 293/3/6 296/3/6
f 294/2/6 295/2/6 297/2/6
f 297/2/6 295/2/6 298/2/6
f 299/2/6 300/2/6 301/2/6
f 301/2/6 300/2/6 302/2/6
