# MagicaVoxel @ Ephtracy

# group
o 

# material
mtllib Engine1.mtl
usemtl palette

# normals
vn -1 0 0
vn 1 0 0
vn 0 0 1
vn 0 0 -1
vn 0 -1 0
vn 0 1 0

# texcoords
vt 0.970703 0.5
vt 0.974609 0.5
vt 0.978516 0.5
vt 0.982422 0.5
vt 0.986328 0.5

# verts
v 0 2.1 -0.2
v 0 2.1 -1.2
v 0 2.2 -0.1
v 0 2.2 -0.2
v 0 2.2 -1.2
v 0 2.2 -1.3
v 0 2.9 -0.1
v 0 2.9 -0.2
v 0 2.9 -1.2
v 0 2.9 -1.3
v 0 3 -0.2
v 0 3 -1.2
v 0.1 2.2 -0.2
v 0.1 2.2 -1.2
v 0.1 2.9 -0.2
v 0.1 2.9 -1.2
v 0.2 2.1 -0.1
v 0.2 2.1 -0.2
v 0.2 2.1 -1.2
v 0.2 2.1 -1.3
v 0.2 2.2 -0.1
v 0.2 2.2 -0.2
v 0.2 2.2 -1.2
v 0.2 2.2 -1.3
v 0.2 2.9 -0.1
v 0.2 2.9 -0.2
v 0.2 2.9 -1.2
v 0.2 2.9 -1.3
v 0.2 3 -0.1
v 0.2 3 -0.2
v 0.2 3 -1.2
v 0.2 3 -1.3
v 0.4 2 -0.1
v 0.4 2 -0.5
v 0.4 2 -0.9
v 0.4 2 -1.3
v 0.4 2.1 0
v 0.4 2.1 -0.1
v 0.4 2.1 -0.5
v 0.4 2.1 -0.9
v 0.4 2.1 -1.3
v 0.4 2.1 -1.4
v 0.4 2.4 0
v 0.4 2.4 -0.1
v 0.4 2.4 -1.3
v 0.4 2.4 -1.4
v 0.4 2.7 0
v 0.4 2.7 -0.1
v 0.4 2.7 -1.3
v 0.4 2.7 -1.4
v 0.4 3 0
v 0.4 3 -0.1
v 0.4 3 -0.5
v 0.4 3 -0.9
v 0.4 3 -1.3
v 0.4 3 -1.4
v 0.4 3.1 -0.1
v 0.4 3.1 -0.5
v 0.4 3.1 -0.9
v 0.4 3.1 -1.3
v 0.5 2.2 -1.2
v 0.5 2.2 -1.3
v 0.5 2.4 -1.3
v 0.5 2.6 -0.1
v 0.5 2.6 -0.2
v 0.5 2.7 -0.1
v 0.5 2.7 -1.1
v 0.5 2.7 -1.2
v 0.5 2.7 -1.3
v 0.5 2.9 -0.1
v 0.5 2.9 -0.2
v 0.5 2.9 -1.1
v 0.5 2.9 -1.2
v 0.5 2.9 -1.3
v 0.6 2.8 -0.5
v 0.6 2.8 -0.7
v 0.6 2.9 -0.7
v 0.6 2.9 -1.3
v 0.6 3 -0.5
v 0.6 3 -1.2
v 0.6 3 -1.3
v 0.7 2.1 -0.1
v 0.7 2.1 -0.2
v 0.7 2.2 -0.1
v 0.7 2.2 -0.2
v 0.7 2.2 -0.4
v 0.7 2.6 -0.1
v 0.7 2.6 -0.4
v 0.4 2.2 -0.1
v 0.4 2.2 -0.2
v 0.4 2.2 -1.2
v 0.4 2.2 -1.3
v 0.4 2.4 -0.1
v 0.4 2.4 -0.2
v 0.4 2.4 -1.2
v 0.4 2.4 -1.3
v 0.4 2.7 -0.1
v 0.4 2.7 -0.2
v 0.4 2.7 -1.1
v 0.4 2.7 -1.2
v 0.4 2.7 -1.3
v 0.4 2.9 -0.1
v 0.4 2.9 -0.2
v 0.4 2.9 -1.1
v 0.4 2.9 -1.2
v 0.4 2.9 -1.3
v 0.4 3 -1.1
v 0.4 3 -1.2
v 0.5 2.1 -0.1
v 0.5 2.1 -0.2
v 0.5 2.2 -0.1
v 0.5 2.2 -0.2
v 0.5 2.8 -0.5
v 0.5 2.8 -0.7
v 0.5 2.9 -0.7
v 0.5 2.9 -1.1
v 0.5 2.9 -1.2
v 0.5 2.9 -1.3
v 0.5 3 -0.5
v 0.5 3 -1.1
v 0.5 3 -1.2
v 0.5 3 -1.3
v 0.6 2.2 -0.2
v 0.6 2.2 -0.4
v 0.6 2.6 -0.2
v 0.6 2.6 -0.4
v 0.9 2 -0.1
v 0.9 2 -1.3
v 0.9 2.1 0
v 0.9 2.1 -0.1
v 0.9 2.1 -1.3
v 0.9 2.1 -1.4
v 0.9 3 0
v 0.9 3 -0.1
v 0.9 3 -1.3
v 0.9 3 -1.4
v 0.9 3.1 -0.1
v 0.9 3.1 -1.3
v 1.1 2.1 -0.1
v 1.1 2.1 -1.3
v 1.1 2.2 -0.2
v 1.1 2.2 -0.3
v 1.1 2.2 -0.5
v 1.1 2.2 -0.9
v 1.1 2.2 -1.1
v 1.1 2.2 -1.2
v 1.1 2.4 -0.3
v 1.1 2.4 -0.4
v 1.1 2.4 -0.5
v 1.1 2.4 -0.6
v 1.1 2.4 -0.8
v 1.1 2.4 -0.9
v 1.1 2.4 -1
v 1.1 2.4 -1.1
v 1.1 2.5 -0.4
v 1.1 2.5 -0.6
v 1.1 2.5 -0.8
v 1.1 2.5 -1
v 1.1 2.6 -0.4
v 1.1 2.6 -0.6
v 1.1 2.6 -0.8
v 1.1 2.6 -1
v 1.1 2.7 -0.3
v 1.1 2.7 -0.4
v 1.1 2.7 -0.5
v 1.1 2.7 -0.6
v 1.1 2.7 -0.8
v 1.1 2.7 -0.9
v 1.1 2.7 -1
v 1.1 2.7 -1.1
v 1.1 2.9 -0.2
v 1.1 2.9 -0.3
v 1.1 2.9 -0.5
v 1.1 2.9 -0.9
v 1.1 2.9 -1.1
v 1.1 2.9 -1.2
v 1.1 3 -0.1
v 1.1 3 -1.3
v 1.2 2.2 -0.3
v 1.2 2.2 -0.5
v 1.2 2.2 -0.9
v 1.2 2.2 -1.1
v 1.2 2.4 -0.3
v 1.2 2.4 -0.5
v 1.2 2.4 -0.9
v 1.2 2.4 -1.1
v 1.2 2.7 -0.3
v 1.2 2.7 -0.5
v 1.2 2.7 -0.9
v 1.2 2.7 -1.1
v 1.2 2.9 -0.3
v 1.2 2.9 -0.5
v 1.2 2.9 -0.9
v 1.2 2.9 -1.1
v 1.5 2.4 -0.6
v 1.5 2.4 -0.8
v 1.5 2.5 -0.6
v 1.5 2.5 -0.8
v 1.5 2.6 -0.6
v 1.5 2.6 -0.8
v 1.5 2.7 -0.6
v 1.5 2.7 -0.8
v 0.4 2.1 0
v 0.4 2.4 0
v 0.4 2.7 0
v 0.4 3 0
v 0.5 2.2 0
v 0.5 2.4 0
v 0.5 2.7 0
v 0.5 2.9 0
v 0.7 2.1 0
v 0.7 2.2 0
v 0.7 2.9 0
v 0.7 3 0
v 0.9 2.1 0
v 0.9 3 0
v 0 2.2 -0.1
v 0 2.9 -0.1
v 0.1 2.4 -0.1
v 0.1 2.7 -0.1
v 0.2 2.1 -0.1
v 0.2 2.2 -0.1
v 0.2 2.9 -0.1
v 0.2 3 -0.1
v 0.4 2 -0.1
v 0.4 2.1 -0.1
v 0.4 2.4 -0.1
v 0.4 2.7 -0.1
v 0.4 3 -0.1
v 0.4 3.1 -0.1
v 0.7 2 -0.1
v 0.7 2.1 -0.1
v 0.7 3 -0.1
v 0.7 3.1 -0.1
v 0.9 2 -0.1
v 0.9 2.1 -0.1
v 0.9 3 -0.1
v 0.9 3.1 -0.1
v 1 2.1 -0.1
v 1 3 -0.1
v 1.1 2.1 -0.1
v 1.1 3 -0.1
v 0 2.1 -0.2
v 0 2.2 -0.2
v 0 2.9 -0.2
v 0 3 -0.2
v 0.2 2.1 -0.2
v 0.2 2.2 -0.2
v 0.2 2.9 -0.2
v 0.2 3 -0.2
v 0.4 2.2 -0.2
v 0.4 2.4 -0.2
v 0.4 2.7 -0.2
v 0.4 2.9 -0.2
v 0.5 2.1 -0.2
v 0.5 2.2 -0.2
v 0.5 2.6 -0.2
v 0.5 2.9 -0.2
v 0.6 2.2 -0.2
v 0.6 2.6 -0.2
v 0.7 2.1 -0.2
v 0.7 2.2 -0.2
v 1.1 2.2 -0.3
v 1.1 2.4 -0.3
v 1.1 2.7 -0.3
v 1.1 2.9 -0.3
v 1.2 2.2 -0.3
v 1.2 2.4 -0.3
v 1.2 2.7 -0.3
v 1.2 2.9 -0.3
v 0.6 2.2 -0.4
v 0.6 2.6 -0.4
v 0.7 2.2 -0.4
v 0.7 2.6 -0.4
v 1.1 2.4 -0.6
v 1.1 2.5 -0.6
v 1.1 2.6 -0.6
v 1.1 2.7 -0.6
v 1.5 2.4 -0.6
v 1.5 2.5 -0.6
v 1.5 2.6 -0.6
v 1.5 2.7 -0.6
v 0.5 2.8 -0.7
v 0.5 2.9 -0.7
v 0.6 2.8 -0.7
v 0.6 2.9 -0.7
v 1.1 2.2 -0.9
v 1.1 2.4 -0.9
v 1.1 2.7 -0.9
v 1.1 2.9 -0.9
v 1.2 2.2 -0.9
v 1.2 2.4 -0.9
v 1.2 2.7 -0.9
v 1.2 2.9 -0.9
v 0 2.2 -1.2
v 0 2.9 -1.2
v 0.1 2.2 -1.2
v 0.1 2.9 -1.2
v 0.4 2.9 -1.2
v 0.4 3 -1.2
v 0.5 2.9 -1.2
v 0.5 3 -1.2
v 0.4 2.2 -1.3
v 0.4 2.4 -1.3
v 0.4 2.7 -1.3
v 0.4 2.9 -1.3
v 0.5 2.2 -1.3
v 0.5 2.4 -1.3
v 0.5 2.7 -1.3
v 0.5 2.9 -1.3
v 0.5 3 -1.3
v 0.6 2.9 -1.3
v 0.6 3 -1.3
v 0.4 2.2 -0.1
v 0.4 2.4 -0.1
v 0.4 2.7 -0.1
v 0.4 2.9 -0.1
v 0.5 2.1 -0.1
v 0.5 2.2 -0.1
v 0.5 2.4 -0.1
v 0.5 2.6 -0.1
v 0.5 2.7 -0.1
v 0.5 2.9 -0.1
v 0.7 2.1 -0.1
v 0.7 2.2 -0.1
v 0.7 2.6 -0.1
v 0 2.2 -0.2
v 0 2.9 -0.2
v 0.1 2.2 -0.2
v 0.1 2.9 -0.2
v 0.5 2.8 -0.5
v 0.5 3 -0.5
v 0.6 2.8 -0.5
v 0.6 3 -0.5
v 1.1 2.2 -0.5
v 1.1 2.4 -0.5
v 1.1 2.7 -0.5
v 1.1 2.9 -0.5
v 1.2 2.2 -0.5
v 1.2 2.4 -0.5
v 1.2 2.7 -0.5
v 1.2 2.9 -0.5
v 1.1 2.4 -0.8
v 1.1 2.5 -0.8
v 1.1 2.6 -0.8
v 1.1 2.7 -0.8
v 1.5 2.4 -0.8
v 1.5 2.5 -0.8
v 1.5 2.6 -0.8
v 1.5 2.7 -0.8
v 0.4 2.7 -1.1
v 0.4 2.9 -1.1
v 0.4 3 -1.1
v 0.5 2.7 -1.1
v 0.5 2.9 -1.1
v 0.5 3 -1.1
v 1.1 2.2 -1.1
v 1.1 2.4 -1.1
v 1.1 2.7 -1.1
v 1.1 2.9 -1.1
v 1.2 2.2 -1.1
v 1.2 2.4 -1.1
v 1.2 2.7 -1.1
v 1.2 2.9 -1.1
v 0 2.1 -1.2
v 0 2.2 -1.2
v 0 2.9 -1.2
v 0 3 -1.2
v 0.2 2.1 -1.2
v 0.2 2.2 -1.2
v 0.2 2.9 -1.2
v 0.2 3 -1.2
v 0.4 2.2 -1.2
v 0.4 2.4 -1.2
v 0.4 2.7 -1.2
v 0.5 2.2 -1.2
v 0.5 2.7 -1.2
v 0 2.2 -1.3
v 0 2.9 -1.3
v 0.1 2.4 -1.3
v 0.1 2.7 -1.3
v 0.2 2.1 -1.3
v 0.2 2.2 -1.3
v 0.2 2.9 -1.3
v 0.2 3 -1.3
v 0.4 2 -1.3
v 0.4 2.1 -1.3
v 0.4 2.4 -1.3
v 0.4 2.7 -1.3
v 0.4 3 -1.3
v 0.4 3.1 -1.3
v 0.7 2 -1.3
v 0.7 2.1 -1.3
v 0.7 3 -1.3
v 0.7 3.1 -1.3
v 0.9 2 -1.3
v 0.9 2.1 -1.3
v 0.9 3 -1.3
v 0.9 3.1 -1.3
v 1 2.1 -1.3
v 1 3 -1.3
v 1.1 2.1 -1.3
v 1.1 3 -1.3
v 0.4 2.1 -1.4
v 0.4 2.4 -1.4
v 0.4 2.7 -1.4
v 0.4 3 -1.4
v 0.5 2.2 -1.4
v 0.5 2.4 -1.4
v 0.5 2.7 -1.4
v 0.5 2.9 -1.4
v 0.7 2.1 -1.4
v 0.7 2.2 -1.4
v 0.7 2.9 -1.4
v 0.7 3 -1.4
v 0.9 2.1 -1.4
v 0.9 3 -1.4
v 0.4 2 -0.1
v 0.7 2 -0.1
v 0.9 2 -0.1
v 0.4 2 -0.5
v 0.7 2 -0.5
v 0.4 2 -0.9
v 0.7 2 -0.9
v 0.4 2 -1.3
v 0.7 2 -1.3
v 0.9 2 -1.3
v 0.4 2.1 0
v 0.7 2.1 0
v 0.9 2.1 0
v 0.2 2.1 -0.1
v 0.4 2.1 -0.1
v 0.7 2.1 -0.1
v 0.9 2.1 -0.1
v 1 2.1 -0.1
v 1.1 2.1 -0.1
v 0 2.1 -0.2
v 0.2 2.1 -0.2
v 0.1 2.1 -0.5
v 0.4 2.1 -0.5
v 0.1 2.1 -0.9
v 0.4 2.1 -0.9
v 0 2.1 -1.2
v 0.2 2.1 -1.2
v 0.2 2.1 -1.3
v 0.4 2.1 -1.3
v 0.7 2.1 -1.3
v 0.9 2.1 -1.3
v 1 2.1 -1.3
v 1.1 2.1 -1.3
v 0.4 2.1 -1.4
v 0.7 2.1 -1.4
v 0.9 2.1 -1.4
v 0 2.2 -0.1
v 0.2 2.2 -0.1
v 0 2.2 -0.2
v 0.2 2.2 -0.2
v 1.1 2.2 -0.3
v 1.2 2.2 -0.3
v 1.1 2.2 -0.5
v 1.2 2.2 -0.5
v 1.1 2.2 -0.9
v 1.2 2.2 -0.9
v 1.1 2.2 -1.1
v 1.2 2.2 -1.1
v 0 2.2 -1.2
v 0.2 2.2 -1.2
v 0 2.2 -1.3
v 0.2 2.2 -1.3
v 1.1 2.4 -0.6
v 1.5 2.4 -0.6
v 1.1 2.4 -0.8
v 1.5 2.4 -0.8
v 0.5 2.6 -0.1
v 0.7 2.6 -0.1
v 0.5 2.6 -0.2
v 0.6 2.6 -0.2
v 0.6 2.6 -0.4
v 0.7 2.6 -0.4
v 1.1 2.6 -0.6
v 1.5 2.6 -0.6
v 1.1 2.6 -0.8
v 1.5 2.6 -0.8
v 1.1 2.7 -0.3
v 1.2 2.7 -0.3
v 1.1 2.7 -0.4
v 1.1 2.7 -0.5
v 1.2 2.7 -0.5
v 1.1 2.7 -0.9
v 1.2 2.7 -0.9
v 1.1 2.7 -1
v 1.1 2.7 -1.1
v 1.2 2.7 -1.1
v 0.4 2.9 -0.1
v 0.5 2.9 -0.1
v 0 2.9 -0.2
v 0.1 2.9 -0.2
v 0.4 2.9 -0.2
v 0.5 2.9 -0.2
v 0 2.9 -1.2
v 0.1 2.9 -1.2
v 0.4 2.9 -1.2
v 0.5 2.9 -1.2
v 0.4 2.9 -1.3
v 0.5 2.9 -1.3
v 0.5 3 -0.5
v 0.6 3 -0.5
v 0.4 3 -1.1
v 0.5 3 -1.1
v 0.4 3 -1.2
v 0.5 3 -1.2
v 0.6 3 -1.2
v 0.5 3 -1.3
v 0.6 3 -1.3
v 0.5 2.1 -0.1
v 0.7 2.1 -0.1
v 0.5 2.1 -0.2
v 0.7 2.1 -0.2
v 0.4 2.2 -0.1
v 0.5 2.2 -0.1
v 0 2.2 -0.2
v 0.1 2.2 -0.2
v 0.4 2.2 -0.2
v 0.5 2.2 -0.2
v 0.6 2.2 -0.2
v 0.7 2.2 -0.2
v 0.6 2.2 -0.4
v 0.7 2.2 -0.4
v 0 2.2 -1.2
v 0.1 2.2 -1.2
v 0.4 2.2 -1.2
v 0.5 2.2 -1.2
v 0.4 2.2 -1.3
v 0.5 2.2 -1.3
v 1.1 2.4 -0.3
v 1.2 2.4 -0.3
v 1.1 2.4 -0.4
v 1.1 2.4 -0.5
v 1.2 2.4 -0.5
v 1.1 2.4 -0.9
v 1.2 2.4 -0.9
v 1.1 2.4 -1
v 1.1 2.4 -1.1
v 1.2 2.4 -1.1
v 1.1 2.5 -0.6
v 1.5 2.5 -0.6
v 1.1 2.5 -0.8
v 1.5 2.5 -0.8
v 1.1 2.7 -0.6
v 1.5 2.7 -0.6
v 1.1 2.7 -0.8
v 1.5 2.7 -0.8
v 0.4 2.7 -1.1
v 0.5 2.7 -1.1
v 0.4 2.7 -1.2
v 0.5 2.7 -1.2
v 0.5 2.8 -0.5
v 0.6 2.8 -0.5
v 0.5 2.8 -0.7
v 0.6 2.8 -0.7
v 0 2.9 -0.1
v 0.2 2.9 -0.1
v 0 2.9 -0.2
v 0.2 2.9 -0.2
v 1.1 2.9 -0.3
v 1.2 2.9 -0.3
v 1.1 2.9 -0.5
v 1.2 2.9 -0.5
v 0.5 2.9 -0.7
v 0.6 2.9 -0.7
v 1.1 2.9 -0.9
v 1.2 2.9 -0.9
v 0.5 2.9 -1.1
v 1.1 2.9 -1.1
v 1.2 2.9 -1.1
v 0 2.9 -1.2
v 0.2 2.9 -1.2
v 0.5 2.9 -1.2
v 0 2.9 -1.3
v 0.2 2.9 -1.3
v 0.5 2.9 -1.3
v 0.6 2.9 -1.3
v 0.4 3 0
v 0.7 3 0
v 0.9 3 0
v 0.2 3 -0.1
v 0.4 3 -0.1
v 0.7 3 -0.1
v 0.9 3 -0.1
v 1 3 -0.1
v 1.1 3 -0.1
v 0 3 -0.2
v 0.2 3 -0.2
v 0.1 3 -0.5
v 0.4 3 -0.5
v 0.1 3 -0.9
v 0.4 3 -0.9
v 0 3 -1.2
v 0.2 3 -1.2
v 0.2 3 -1.3
v 0.4 3 -1.3
v 0.7 3 -1.3
v 0.9 3 -1.3
v 1 3 -1.3
v 1.1 3 -1.3
v 0.4 3 -1.4
v 0.7 3 -1.4
v 0.9 3 -1.4
v 0.4 3.1 -0.1
v 0.7 3.1 -0.1
v 0.9 3.1 -0.1
v 0.5 3.1 -0.2
v 0.7 3.1 -0.2
v 0.4 3.1 -0.5
v 0.5 3.1 -0.5
v 0.4 3.1 -0.9
v 0.5 3.1 -0.9
v 0.5 3.1 -1.2
v 0.7 3.1 -1.2
v 0.4 3.1 -1.3
v 0.7 3.1 -1.3
v 0.9 3.1 -1.3

# faces
f 4/1/1 2/1/1 1/1/1
f 5/1/1 2/1/1 4/1/1
f 7/1/1 4/1/1 3/1/1
f 8/1/1 4/1/1 7/1/1
f 9/1/1 6/1/1 5/1/1
f 10/1/1 6/1/1 9/1/1
f 11/1/1 9/1/1 8/1/1
f 12/1/1 9/1/1 11/1/1
f 15/5/1 14/5/1 13/5/1
f 16/5/1 14/5/1 15/5/1
f 21/1/1 18/1/1 17/1/1
f 22/1/1 18/1/1 21/1/1
f 23/1/1 20/1/1 19/1/1
f 24/1/1 20/1/1 23/1/1
f 29/1/1 26/1/1 25/1/1
f 30/1/1 26/1/1 29/1/1
f 31/1/1 28/1/1 27/1/1
f 32/1/1 28/1/1 31/1/1
f 38/1/1 34/1/1 33/1/1
f 39/2/1 35/2/1 34/2/1
f 39/1/1 34/1/1 38/1/1
f 40/1/1 36/1/1 35/1/1
f 40/2/1 35/2/1 39/2/1
f 41/1/1 36/1/1 40/1/1
f 43/1/1 38/1/1 37/1/1
f 44/1/1 38/1/1 43/1/1
f 45/1/1 42/1/1 41/1/1
f 46/1/1 42/1/1 45/1/1
f 47/2/1 44/2/1 43/2/1
f 48/2/1 44/2/1 47/2/1
f 49/2/1 46/2/1 45/2/1
f 50/2/1 46/2/1 49/2/1
f 51/1/1 48/1/1 47/1/1
f 52/1/1 48/1/1 51/1/1
f 55/1/1 50/1/1 49/1/1
f 56/1/1 50/1/1 55/1/1
f 57/1/1 53/1/1 52/1/1
f 58/2/1 54/2/1 53/2/1
f 58/1/1 53/1/1 57/1/1
f 59/1/1 55/1/1 54/1/1
f 59/2/1 54/2/1 58/2/1
f 60/1/1 55/1/1 59/1/1
f 63/3/1 62/3/1 61/3/1
f 66/3/1 65/3/1 64/3/1
f 68/3/1 63/3/1 61/3/1
f 69/3/1 63/3/1 68/3/1
f 70/3/1 65/3/1 66/3/1
f 71/3/1 65/3/1 70/3/1
f 72/3/1 68/3/1 67/3/1
f 72/3/1 69/3/1 68/3/1
f 73/3/1 69/3/1 72/3/1
f 74/3/1 69/3/1 73/3/1
f 77/3/1 76/3/1 75/3/1
f 79/3/1 77/3/1 75/3/1
f 79/3/1 78/3/1 77/3/1
f 80/3/1 78/3/1 79/3/1
f 81/3/1 78/3/1 80/3/1
f 84/1/1 83/1/1 82/1/1
f 85/1/1 83/1/1 84/1/1
f 87/1/1 85/1/1 84/1/1
f 87/1/1 86/1/1 85/1/1
f 88/1/1 86/1/1 87/1/1
f 89/1/2 90/1/2 93/1/2
f 93/1/2 90/1/2 94/1/2
f 91/1/2 92/1/2 95/1/2
f 95/1/2 92/1/2 96/1/2
f 93/2/2 94/2/2 97/2/2
f 97/2/2 94/2/2 98/2/2
f 95/2/2 96/2/2 100/2/2
f 100/2/2 96/2/2 101/2/2
f 97/1/2 98/1/2 102/1/2
f 102/1/2 98/1/2 103/1/2
f 99/3/2 100/3/2 104/3/2
f 100/1/2 101/1/2 105/1/2
f 104/3/2 100/3/2 105/3/2
f 105/1/2 101/1/2 106/1/2
f 104/1/2 105/1/2 107/1/2
f 107/1/2 105/1/2 108/1/2
f 109/1/2 110/1/2 111/1/2
f 111/1/2 110/1/2 112/1/2
f 113/3/2 114/3/2 115/3/2
f 113/3/2 115/3/2 119/3/2
f 115/3/2 116/3/2 119/3/2
f 119/3/2 116/3/2 120/3/2
f 117/1/2 118/1/2 121/1/2
f 121/1/2 118/1/2 122/1/2
f 123/3/2 124/3/2 125/3/2
f 125/3/2 124/3/2 126/3/2
f 127/3/2 128/3/2 130/3/2
f 130/3/2 128/3/2 131/3/2
f 129/3/2 130/3/2 133/3/2
f 133/3/2 130/3/2 134/3/2
f 131/3/2 132/3/2 135/3/2
f 135/3/2 132/3/2 136/3/2
f 134/3/2 135/3/2 137/3/2
f 137/3/2 135/3/2 138/3/2
f 139/3/2 140/3/2 141/3/2
f 141/3/2 140/3/2 142/3/2
f 142/3/2 140/3/2 143/3/2
f 143/3/2 140/3/2 144/3/2
f 144/3/2 140/3/2 145/3/2
f 145/3/2 140/3/2 146/3/2
f 141/1/2 142/1/2 147/1/2
f 143/1/2 144/1/2 149/1/2
f 149/1/2 144/1/2 150/1/2
f 150/1/2 144/1/2 151/1/2
f 151/1/2 144/1/2 152/1/2
f 145/1/2 146/1/2 154/1/2
f 147/2/2 148/2/2 155/2/2
f 148/1/2 149/1/2 155/1/2
f 149/1/2 150/1/2 155/1/2
f 155/1/2 150/1/2 156/1/2
f 152/1/2 153/1/2 157/1/2
f 151/1/2 152/1/2 157/1/2
f 153/2/2 154/2/2 158/2/2
f 157/1/2 153/1/2 158/1/2
f 155/2/2 156/2/2 159/2/2
f 156/2/2 157/2/2 159/2/2
f 157/2/2 158/2/2 159/2/2
f 147/2/2 155/2/2 159/2/2
f 159/2/2 158/2/2 160/2/2
f 160/2/2 158/2/2 161/2/2
f 158/2/2 154/2/2 162/2/2
f 161/2/2 158/2/2 162/2/2
f 141/1/2 147/1/2 163/1/2
f 147/2/2 159/2/2 163/2/2
f 159/1/2 160/1/2 164/1/2
f 163/2/2 159/2/2 164/2/2
f 164/1/2 160/1/2 165/1/2
f 165/1/2 160/1/2 166/1/2
f 161/1/2 162/1/2 167/1/2
f 167/1/2 162/1/2 168/1/2
f 162/2/2 154/2/2 169/2/2
f 168/1/2 162/1/2 169/1/2
f 154/1/2 146/1/2 170/1/2
f 169/2/2 154/2/2 170/2/2
f 139/3/2 141/3/2 171/3/2
f 141/1/2 163/1/2 171/1/2
f 171/1/2 163/1/2 172/1/2
f 167/1/2 168/1/2 173/1/2
f 165/1/2 166/1/2 173/1/2
f 166/1/2 167/1/2 173/1/2
f 173/1/2 168/1/2 174/1/2
f 170/1/2 146/1/2 175/1/2
f 146/3/2 140/3/2 176/3/2
f 175/1/2 146/1/2 176/1/2
f 173/3/2 174/3/2 177/3/2
f 174/3/2 175/3/2 177/3/2
f 175/3/2 176/3/2 177/3/2
f 171/3/2 172/3/2 177/3/2
f 172/3/2 173/3/2 177/3/2
f 139/3/2 171/3/2 177/3/2
f 176/3/2 140/3/2 178/3/2
f 177/3/2 176/3/2 178/3/2
f 179/4/2 180/4/2 183/4/2
f 183/4/2 180/4/2 184/4/2
f 181/4/2 182/4/2 185/4/2
f 185/4/2 182/4/2 186/4/2
f 187/4/2 188/4/2 191/4/2
f 191/4/2 188/4/2 192/4/2
f 189/4/2 190/4/2 193/4/2
f 193/4/2 190/4/2 194/4/2
f 195/4/2 196/4/2 197/4/2
f 197/4/2 196/4/2 198/4/2
f 199/4/2 200/4/2 201/4/2
f 201/4/2 200/4/2 202/4/2
f 207/1/3 204/1/3 203/1/3
f 208/2/3 205/2/3 204/2/3
f 208/1/3 204/1/3 207/1/3
f 209/1/3 206/1/3 205/1/3
f 209/2/3 205/2/3 208/2/3
f 210/1/3 206/1/3 209/1/3
f 211/1/3 207/1/3 203/1/3
f 212/2/3 208/2/3 207/2/3
f 212/1/3 207/1/3 211/1/3
f 212/2/3 209/2/3 208/2/3
f 212/2/3 210/2/3 209/2/3
f 213/1/3 206/1/3 210/1/3
f 213/2/3 210/2/3 212/2/3
f 214/1/3 206/1/3 213/1/3
f 215/3/3 212/3/3 211/3/3
f 215/3/3 213/3/3 212/3/3
f 215/3/3 214/3/3 213/3/3
f 216/3/3 214/3/3 215/3/3
f 219/1/3 218/1/3 217/1/3
f 220/1/3 218/1/3 219/1/3
f 222/1/3 219/1/3 217/1/3
f 223/1/3 218/1/3 220/1/3
f 226/1/3 222/1/3 221/1/3
f 227/2/3 220/2/3 219/2/3
f 227/1/3 219/1/3 222/1/3
f 227/1/3 222/1/3 226/1/3
f 228/1/3 224/1/3 223/1/3
f 228/2/3 220/2/3 227/2/3
f 228/1/3 223/1/3 220/1/3
f 229/1/3 224/1/3 228/1/3
f 231/1/3 226/1/3 225/1/3
f 232/1/3 226/1/3 231/1/3
f 233/1/3 230/1/3 229/1/3
f 234/1/3 230/1/3 233/1/3
f 235/3/3 232/3/3 231/3/3
f 236/3/3 232/3/3 235/3/3
f 237/3/3 234/3/3 233/3/3
f 238/3/3 234/3/3 237/3/3
f 239/2/3 237/2/3 236/2/3
f 240/2/3 237/2/3 239/2/3
f 241/3/3 240/3/3 239/3/3
f 242/3/3 240/3/3 241/3/3
f 247/1/3 244/1/3 243/1/3
f 248/1/3 244/1/3 247/1/3
f 249/1/3 246/1/3 245/1/3
f 250/1/3 246/1/3 249/1/3
f 256/3/3 252/3/3 251/3/3
f 256/3/3 254/3/3 253/3/3
f 256/3/3 253/3/3 252/3/3
f 257/3/3 254/3/3 256/3/3
f 258/3/3 254/3/3 257/3/3
f 259/3/3 256/3/3 255/3/3
f 259/3/3 257/3/3 256/3/3
f 260/3/3 257/3/3 259/3/3
f 261/3/3 259/3/3 255/3/3
f 262/3/3 259/3/3 261/3/3
f 267/4/3 264/4/3 263/4/3
f 268/4/3 264/4/3 267/4/3
f 269/4/3 266/4/3 265/4/3
f 270/4/3 266/4/3 269/4/3
f 273/3/3 272/3/3 271/3/3
f 274/3/3 272/3/3 273/3/3
f 279/4/3 276/4/3 275/4/3
f 280/4/3 276/4/3 279/4/3
f 281/4/3 278/4/3 277/4/3
f 282/4/3 278/4/3 281/4/3
f 285/3/3 284/3/3 283/3/3
f 286/3/3 284/3/3 285/3/3
f 291/4/3 288/4/3 287/4/3
f 292/4/3 288/4/3 291/4/3
f 293/4/3 290/4/3 289/4/3
f 294/4/3 290/4/3 293/4/3
f 297/1/3 296/1/3 295/1/3
f 298/1/3 296/1/3 297/1/3
f 301/1/3 300/1/3 299/1/3
f 302/1/3 300/1/3 301/1/3
f 307/1/3 304/1/3 303/1/3
f 308/2/3 305/2/3 304/2/3
f 308/1/3 304/1/3 307/1/3
f 309/1/3 306/1/3 305/1/3
f 309/2/3 305/2/3 308/2/3
f 310/1/3 306/1/3 309/1/3
f 312/1/3 311/1/3 310/1/3
f 313/1/3 311/1/3 312/1/3
f 314/1/4 315/1/4 319/1/4
f 315/2/4 316/2/4 320/2/4
f 319/1/4 315/1/4 320/1/4
f 320/2/4 316/2/4 321/2/4
f 316/1/4 317/1/4 322/1/4
f 321/2/4 316/2/4 322/2/4
f 322/1/4 317/1/4 323/1/4
f 318/1/4 319/1/4 324/1/4
f 320/2/4 321/2/4 325/2/4
f 324/1/4 319/1/4 325/1/4
f 319/2/4 320/2/4 325/2/4
f 325/2/4 321/2/4 326/2/4
f 327/1/4 328/1/4 329/1/4
f 329/1/4 328/1/4 330/1/4
f 331/3/4 332/3/4 333/3/4
f 333/3/4 332/3/4 334/3/4
f 335/4/4 336/4/4 339/4/4
f 339/4/4 336/4/4 340/4/4
f 337/4/4 338/4/4 341/4/4
f 341/4/4 338/4/4 342/4/4
f 343/4/4 344/4/4 347/4/4
f 347/4/4 344/4/4 348/4/4
f 345/4/4 346/4/4 349/4/4
f 349/4/4 346/4/4 350/4/4
f 351/3/4 352/3/4 354/3/4
f 352/3/4 353/3/4 354/3/4
f 354/3/4 353/3/4 355/3/4
f 355/3/4 353/3/4 356/3/4
f 357/4/4 358/4/4 361/4/4
f 361/4/4 358/4/4 362/4/4
f 359/4/4 360/4/4 363/4/4
f 363/4/4 360/4/4 364/4/4
f 365/1/4 366/1/4 369/1/4
f 369/1/4 366/1/4 370/1/4
f 367/1/4 368/1/4 371/1/4
f 371/1/4 368/1/4 372/1/4
f 373/3/4 374/3/4 376/3/4
f 374/3/4 375/3/4 376/3/4
f 376/3/4 375/3/4 377/3/4
f 378/1/4 379/1/4 380/1/4
f 380/1/4 379/1/4 381/1/4
f 378/1/4 380/1/4 383/1/4
f 381/1/4 379/1/4 384/1/4
f 382/1/4 383/1/4 387/1/4
f 380/2/4 381/2/4 388/2/4
f 383/1/4 380/1/4 388/1/4
f 387/1/4 383/1/4 388/1/4
f 384/1/4 385/1/4 389/1/4
f 388/2/4 381/2/4 389/2/4
f 381/1/4 384/1/4 389/1/4
f 389/1/4 385/1/4 390/1/4
f 386/1/4 387/1/4 392/1/4
f 392/1/4 387/1/4 393/1/4
f 390/1/4 391/1/4 394/1/4
f 394/1/4 391/1/4 395/1/4
f 392/3/4 393/3/4 396/3/4
f 396/3/4 393/3/4 397/3/4
f 394/3/4 395/3/4 398/3/4
f 398/3/4 395/3/4 399/3/4
f 397/2/4 398/2/4 400/2/4
f 400/2/4 398/2/4 401/2/4
f 400/3/4 401/3/4 402/3/4
f 402/3/4 401/3/4 403/3/4
f 404/1/4 405/1/4 408/1/4
f 405/2/4 406/2/4 409/2/4
f 408/1/4 405/1/4 409/1/4
f 406/1/4 407/1/4 410/1/4
f 409/2/4 406/2/4 410/2/4
f 410/1/4 407/1/4 411/1/4
f 404/1/4 408/1/4 412/1/4
f 408/2/4 409/2/4 413/2/4
f 412/1/4 408/1/4 413/1/4
f 409/2/4 410/2/4 413/2/4
f 410/2/4 411/2/4 413/2/4
f 411/1/4 407/1/4 414/1/4
f 413/2/4 411/2/4 414/2/4
f 414/1/4 407/1/4 415/1/4
f 412/3/4 413/3/4 416/3/4
f 413/3/4 414/3/4 416/3/4
f 414/3/4 415/3/4 416/3/4
f 416/3/4 415/3/4 417/3/4
f 421/1/5 419/1/5 418/1/5
f 422/3/5 420/3/5 419/3/5
f 422/1/5 419/1/5 421/1/5
f 423/2/5 422/2/5 421/2/5
f 424/3/5 420/3/5 422/3/5
f 424/2/5 422/2/5 423/2/5
f 425/1/5 424/1/5 423/1/5
f 426/3/5 420/3/5 424/3/5
f 426/1/5 424/1/5 425/1/5
f 427/3/5 420/3/5 426/3/5
f 432/1/5 429/1/5 428/1/5
f 433/3/5 430/3/5 429/3/5
f 433/1/5 429/1/5 432/1/5
f 434/3/5 430/3/5 433/3/5
f 438/1/5 432/1/5 431/1/5
f 439/1/5 438/1/5 437/1/5
f 440/1/5 432/1/5 438/1/5
f 440/1/5 438/1/5 439/1/5
f 441/1/5 439/1/5 437/1/5
f 441/2/5 440/2/5 439/2/5
f 442/2/5 440/2/5 441/2/5
f 443/1/5 441/1/5 437/1/5
f 443/1/5 442/1/5 441/1/5
f 444/1/5 442/1/5 443/1/5
f 445/1/5 442/1/5 444/1/5
f 446/1/5 442/1/5 445/1/5
f 448/2/5 435/2/5 434/2/5
f 449/3/5 436/3/5 435/3/5
f 449/2/5 435/2/5 448/2/5
f 450/3/5 436/3/5 449/3/5
f 451/1/5 447/1/5 446/1/5
f 452/3/5 448/3/5 447/3/5
f 452/1/5 447/1/5 451/1/5
f 453/3/5 448/3/5 452/3/5
f 456/1/5 455/1/5 454/1/5
f 457/1/5 455/1/5 456/1/5
f 460/4/5 459/4/5 458/4/5
f 461/4/5 459/4/5 460/4/5
f 464/4/5 463/4/5 462/4/5
f 465/4/5 463/4/5 464/4/5
f 468/1/5 467/1/5 466/1/5
f 469/1/5 467/1/5 468/1/5
f 472/4/5 471/4/5 470/4/5
f 473/4/5 471/4/5 472/4/5
f 476/3/5 475/3/5 474/3/5
f 477/3/5 475/3/5 476/3/5
f 478/3/5 475/3/5 477/3/5
f 479/3/5 475/3/5 478/3/5
f 482/4/5 481/4/5 480/4/5
f 483/4/5 481/4/5 482/4/5
f 486/4/5 485/4/5 484/4/5
f 487/4/5 485/4/5 486/4/5
f 488/4/5 485/4/5 487/4/5
f 491/4/5 490/4/5 489/4/5
f 492/4/5 490/4/5 491/4/5
f 493/4/5 490/4/5 492/4/5
f 498/1/5 495/1/5 494/1/5
f 499/1/5 495/1/5 498/1/5
f 500/1/5 497/1/5 496/1/5
f 501/1/5 497/1/5 500/1/5
f 504/1/5 503/1/5 502/1/5
f 505/1/5 503/1/5 504/1/5
f 509/2/5 507/2/5 506/2/5
f 510/1/5 509/1/5 508/1/5
f 511/2/5 507/2/5 509/2/5
f 511/1/5 509/1/5 510/1/5
f 512/2/5 507/2/5 511/2/5
f 513/1/5 512/1/5 511/1/5
f 514/1/5 512/1/5 513/1/5
f 515/1/6 516/1/6 517/1/6
f 517/1/6 516/1/6 518/1/6
f 519/1/6 520/1/6 523/1/6
f 523/1/6 520/1/6 524/1/6
f 525/3/6 526/3/6 527/3/6
f 527/3/6 526/3/6 528/3/6
f 521/1/6 522/1/6 529/1/6
f 529/1/6 522/1/6 530/1/6
f 531/1/6 532/1/6 533/1/6
f 533/1/6 532/1/6 534/1/6
f 535/4/6 536/4/6 537/4/6
f 537/4/6 536/4/6 538/4/6
f 538/4/6 536/4/6 539/4/6
f 540/4/6 541/4/6 542/4/6
f 542/4/6 541/4/6 543/4/6
f 543/4/6 541/4/6 544/4/6
f 545/4/6 546/4/6 547/4/6
f 547/4/6 546/4/6 548/4/6
f 549/4/6 550/4/6 551/4/6
f 551/4/6 550/4/6 552/4/6
f 553/3/6 554/3/6 555/3/6
f 555/3/6 554/3/6 556/3/6
f 557/3/6 558/3/6 559/3/6
f 559/3/6 558/3/6 560/3/6
f 561/1/6 562/1/6 563/1/6
f 563/1/6 562/1/6 564/1/6
f 565/4/6 566/4/6 567/4/6
f 567/4/6 566/4/6 568/4/6
f 569/3/6 570/3/6 573/3/6
f 571/4/6 572/4/6 574/4/6
f 574/4/6 572/4/6 575/4/6
f 573/3/6 570/3/6 578/3/6
f 576/1/6 577/1/6 579/1/6
f 579/1/6 577/1/6 580/1/6
f 578/3/6 570/3/6 581/3/6
f 581/3/6 570/3/6 582/3/6
f 583/1/6 584/1/6 587/1/6
f 584/3/6 585/3/6 588/3/6
f 587/1/6 584/1/6 588/1/6
f 588/3/6 585/3/6 589/3/6
f 586/1/6 587/1/6 593/1/6
f 592/1/6 593/1/6 594/1/6
f 593/1/6 587/1/6 595/1/6
f 594/1/6 593/1/6 595/1/6
f 592/1/6 594/1/6 596/1/6
f 594/2/6 595/2/6 596/2/6
f 596/2/6 595/2/6 597/2/6
f 592/1/6 596/1/6 598/1/6
f 596/1/6 597/1/6 598/1/6
f 598/1/6 597/1/6 599/1/6
f 599/1/6 597/1/6 600/1/6
f 600/1/6 597/1/6 601/1/6
f 589/2/6 590/2/6 603/2/6
f 590/3/6 591/3/6 604/3/6
f 603/2/6 590/2/6 604/2/6
f 604/3/6 591/3/6 605/3/6
f 601/1/6 602/1/6 606/1/6
f 602/3/6 603/3/6 607/3/6
f 606/1/6 602/1/6 607/1/6
f 607/3/6 603/3/6 608/3/6
f 609/1/6 610/1/6 612/1/6
f 610/3/6 611/3/6 613/3/6
f 612/1/6 610/1/6 613/1/6
f 609/1/6 612/1/6 614/1/6
f 612/2/6 613/2/6 615/2/6
f 614/1/6 612/1/6 615/1/6
f 614/2/6 615/2/6 616/2/6
f 615/2/6 613/2/6 617/2/6
f 616/2/6 615/2/6 617/2/6
f 616/1/6 617/1/6 618/1/6
f 617/2/6 613/2/6 618/2/6
f 613/3/6 611/3/6 619/3/6
f 618/2/6 613/2/6 619/2/6
f 616/1/6 618/1/6 620/1/6
f 618/1/6 619/1/6 620/1/6
f 619/3/6 611/3/6 621/3/6
f 620/1/6 619/1/6 621/1/6
f 621/3/6 611/3/6 622/3/6
