# MagicaVoxel @ Ephtracy

# group
o 

# material
mtllib WeaponTargetting#3.mtl
usemtl palette

# normals
vn -1 0 0
vn 1 0 0
vn 0 0 1
vn 0 0 -1
vn 0 -1 0
vn 0 1 0

# texcoords
vt 0.970703 0.5
vt 0.974609 0.5
vt 0.978516 0.5

# verts
v 0 2.1 0
v 0 2.1 -0.7
v 0 2.2 0
v 0 2.2 -0.7
v 0 2.3 0
v 0 2.3 -0.1
v 0 2.3 -0.2
v 0 2.3 -0.3
v 0 2.3 -0.4
v 0 2.3 -0.5
v 0 2.3 -0.6
v 0 2.3 -0.7
v 0 2.5 -0.3
v 0 2.5 -0.4
v 0 2.6 -0.1
v 0 2.6 -0.2
v 0 2.6 -0.5
v 0 2.6 -0.6
v 0.1 2.3 -0.2
v 0.1 2.3 -0.3
v 0.1 2.3 -0.4
v 0.1 2.3 -0.5
v 0.1 2.5 -0.2
v 0.1 2.5 -0.3
v 0.1 2.5 -0.4
v 0.1 2.5 -0.5
v 0.3 2 -0.3
v 0.3 2 -0.4
v 0.3 2.1 -0.3
v 0.3 2.1 -0.4
v 0.3 2.4 -0.3
v 0.3 2.4 -0.4
v 0.3 2.5 -0.3
v 0.3 2.5 -0.4
v 0.4 2 -0.3
v 0.4 2 -0.4
v 0.4 2.1 -0.3
v 0.4 2.1 -0.4
v 0.5 2.2 -0.3
v 0.5 2.2 -0.4
v 0.5 2.4 -0.3
v 0.5 2.4 -0.4
v 0.6 2.2 -0.2
v 0.6 2.2 -0.3
v 0.6 2.2 -0.4
v 0.6 2.2 -0.5
v 0.6 2.5 -0.2
v 0.6 2.5 -0.3
v 0.6 2.5 -0.4
v 0.6 2.5 -0.5
v 0.7 2.1 0
v 0.7 2.1 -0.7
v 0.7 2.2 0
v 0.7 2.2 -0.2
v 0.7 2.2 -0.5
v 0.7 2.2 -0.7
v 0.7 2.3 0
v 0.7 2.3 -0.1
v 0.7 2.3 -0.6
v 0.7 2.3 -0.7
v 0.7 2.6 -0.1
v 0.7 2.6 -0.2
v 0.7 2.6 -0.5
v 0.7 2.6 -0.6
v 0 2.1 0
v 0 2.2 0
v 0 2.3 0
v 0.7 2.1 0
v 0.7 2.2 0
v 0.7 2.3 0
v 0 2.3 -0.1
v 0 2.6 -0.1
v 0.1 2.3 -0.1
v 0.1 2.5 -0.1
v 0.6 2.3 -0.1
v 0.6 2.5 -0.1
v 0.7 2.3 -0.1
v 0.7 2.6 -0.1
v 0 2.3 -0.3
v 0 2.5 -0.3
v 0.1 2.3 -0.3
v 0.1 2.5 -0.3
v 0.3 2 -0.3
v 0.3 2.1 -0.3
v 0.4 2 -0.3
v 0.4 2.1 -0.3
v 0.3 2.4 -0.4
v 0.3 2.5 -0.4
v 0.5 2.2 -0.4
v 0.5 2.4 -0.4
v 0.6 2.2 -0.4
v 0.6 2.5 -0.4
v 0 2.3 -0.5
v 0 2.6 -0.5
v 0.1 2.3 -0.5
v 0.1 2.5 -0.5
v 0.6 2.2 -0.5
v 0.6 2.5 -0.5
v 0.7 2.2 -0.5
v 0.7 2.6 -0.5
v 0 2.3 -0.2
v 0 2.6 -0.2
v 0.1 2.3 -0.2
v 0.1 2.5 -0.2
v 0.6 2.2 -0.2
v 0.6 2.5 -0.2
v 0.7 2.2 -0.2
v 0.7 2.6 -0.2
v 0.3 2.4 -0.3
v 0.3 2.5 -0.3
v 0.5 2.2 -0.3
v 0.5 2.4 -0.3
v 0.6 2.2 -0.3
v 0.6 2.5 -0.3
v 0 2.3 -0.4
v 0 2.5 -0.4
v 0.1 2.3 -0.4
v 0.1 2.5 -0.4
v 0.3 2 -0.4
v 0.3 2.1 -0.4
v 0.4 2 -0.4
v 0.4 2.1 -0.4
v 0 2.3 -0.6
v 0 2.6 -0.6
v 0.1 2.3 -0.6
v 0.1 2.5 -0.6
v 0.6 2.3 -0.6
v 0.6 2.5 -0.6
v 0.7 2.3 -0.6
v 0.7 2.6 -0.6
v 0 2.1 -0.7
v 0 2.2 -0.7
v 0 2.3 -0.7
v 0.7 2.1 -0.7
v 0.7 2.2 -0.7
v 0.7 2.3 -0.7
v 0.3 2 -0.3
v 0.4 2 -0.3
v 0.3 2 -0.4
v 0.4 2 -0.4
v 0 2.1 0
v 0.7 2.1 0
v 0.3 2.1 -0.3
v 0.4 2.1 -0.3
v 0.3 2.1 -0.4
v 0.4 2.1 -0.4
v 0 2.1 -0.7
v 0.7 2.1 -0.7
v 0.6 2.2 -0.2
v 0.7 2.2 -0.2
v 0.5 2.2 -0.3
v 0.6 2.2 -0.3
v 0.5 2.2 -0.4
v 0.6 2.2 -0.4
v 0.6 2.2 -0.5
v 0.7 2.2 -0.5
v 0 2.3 0
v 0.7 2.3 0
v 0 2.3 -0.1
v 0.1 2.3 -0.1
v 0.6 2.3 -0.1
v 0.7 2.3 -0.1
v 0 2.3 -0.2
v 0.1 2.3 -0.2
v 0 2.3 -0.3
v 0.1 2.3 -0.3
v 0 2.3 -0.4
v 0.1 2.3 -0.4
v 0 2.3 -0.5
v 0.1 2.3 -0.5
v 0 2.3 -0.6
v 0.1 2.3 -0.6
v 0.6 2.3 -0.6
v 0.7 2.3 -0.6
v 0 2.3 -0.7
v 0.7 2.3 -0.7
v 0.3 2.4 -0.3
v 0.5 2.4 -0.3
v 0.3 2.4 -0.4
v 0.5 2.4 -0.4
v 0.1 2.5 -0.2
v 0.6 2.5 -0.2
v 0 2.5 -0.3
v 0.1 2.5 -0.3
v 0.3 2.5 -0.3
v 0.6 2.5 -0.3
v 0 2.5 -0.4
v 0.1 2.5 -0.4
v 0.3 2.5 -0.4
v 0.6 2.5 -0.4
v 0.1 2.5 -0.5
v 0.6 2.5 -0.5
v 0 2.6 -0.1
v 0.7 2.6 -0.1
v 0 2.6 -0.2
v 0.7 2.6 -0.2
v 0 2.6 -0.5
v 0.7 2.6 -0.5
v 0 2.6 -0.6
v 0.7 2.6 -0.6

# faces
f 3/3/1 2/3/1 1/3/1
f 4/3/1 2/3/1 3/3/1
f 5/2/1 4/2/1 3/2/1
f 6/2/1 4/2/1 5/2/1
f 7/2/1 4/2/1 6/2/1
f 8/2/1 4/2/1 7/2/1
f 9/2/1 4/2/1 8/2/1
f 10/2/1 4/2/1 9/2/1
f 11/2/1 4/2/1 10/2/1
f 12/2/1 4/2/1 11/2/1
f 13/2/1 9/2/1 8/2/1
f 14/2/1 9/2/1 13/2/1
f 15/2/1 7/2/1 6/2/1
f 16/2/1 7/2/1 15/2/1
f 17/2/1 11/2/1 10/2/1
f 18/2/1 11/2/1 17/2/1
f 23/1/1 20/1/1 19/1/1
f 24/1/1 20/1/1 23/1/1
f 25/1/1 22/1/1 21/1/1
f 26/1/1 22/1/1 25/1/1
f 29/3/1 28/3/1 27/3/1
f 30/3/1 28/3/1 29/3/1
f 31/1/2 32/1/2 33/1/2
f 33/1/2 32/1/2 34/1/2
f 35/3/2 36/3/2 37/3/2
f 37/3/2 36/3/2 38/3/2
f 39/1/2 40/1/2 41/1/2
f 41/1/2 40/1/2 42/1/2
f 43/1/2 44/1/2 47/1/2
f 47/1/2 44/1/2 48/1/2
f 45/1/2 46/1/2 49/1/2
f 49/1/2 46/1/2 50/1/2
f 51/3/2 52/3/2 53/3/2
f 53/3/2 52/3/2 54/3/2
f 54/3/2 52/3/2 55/3/2
f 55/3/2 52/3/2 56/3/2
f 53/2/2 54/2/2 57/2/2
f 57/2/2 54/2/2 58/2/2
f 55/2/2 56/2/2 59/2/2
f 59/2/2 56/2/2 60/2/2
f 58/2/2 54/2/2 61/2/2
f 61/2/2 54/2/2 62/2/2
f 55/2/2 59/2/2 63/2/2
f 63/2/2 59/2/2 64/2/2
f 68/3/3 66/3/3 65/3/3
f 69/2/3 67/2/3 66/2/3
f 69/3/3 66/3/3 68/3/3
f 70/2/3 67/2/3 69/2/3
f 73/2/3 72/2/3 71/2/3
f 74/2/3 72/2/3 73/2/3
f 75/1/3 74/1/3 73/1/3
f 76/2/3 72/2/3 74/2/3
f 76/1/3 74/1/3 75/1/3
f 77/2/3 76/2/3 75/2/3
f 78/2/3 72/2/3 76/2/3
f 78/2/3 76/2/3 77/2/3
f 81/2/3 80/2/3 79/2/3
f 82/2/3 80/2/3 81/2/3
f 85/3/3 84/3/3 83/3/3
f 86/3/3 84/3/3 85/3/3
f 90/1/3 88/1/3 87/1/3
f 91/1/3 90/1/3 89/1/3
f 92/1/3 88/1/3 90/1/3
f 92/1/3 90/1/3 91/1/3
f 95/2/3 94/2/3 93/2/3
f 96/2/3 94/2/3 95/2/3
f 98/2/3 94/2/3 96/2/3
f 99/2/3 98/2/3 97/2/3
f 100/2/3 94/2/3 98/2/3
f 100/2/3 98/2/3 99/2/3
f 101/2/4 102/2/4 103/2/4
f 103/2/4 102/2/4 104/2/4
f 104/2/4 102/2/4 106/2/4
f 105/2/4 106/2/4 107/2/4
f 106/2/4 102/2/4 108/2/4
f 107/2/4 106/2/4 108/2/4
f 109/1/4 110/1/4 112/1/4
f 111/1/4 112/1/4 113/1/4
f 112/1/4 110/1/4 114/1/4
f 113/1/4 112/1/4 114/1/4
f 115/2/4 116/2/4 117/2/4
f 117/2/4 116/2/4 118/2/4
f 119/3/4 120/3/4 121/3/4
f 121/3/4 120/3/4 122/3/4
f 123/2/4 124/2/4 125/2/4
f 125/2/4 124/2/4 126/2/4
f 125/1/4 126/1/4 127/1/4
f 126/2/4 124/2/4 128/2/4
f 127/1/4 126/1/4 128/1/4
f 127/2/4 128/2/4 129/2/4
f 128/2/4 124/2/4 130/2/4
f 129/2/4 128/2/4 130/2/4
f 131/3/4 132/3/4 134/3/4
f 132/2/4 133/2/4 135/2/4
f 134/3/4 132/3/4 135/3/4
f 135/2/4 133/2/4 136/2/4
f 139/3/5 138/3/5 137/3/5
f 140/3/5 138/3/5 139/3/5
f 143/3/5 142/3/5 141/3/5
f 144/3/5 142/3/5 143/3/5
f 145/3/5 143/3/5 141/3/5
f 146/3/5 142/3/5 144/3/5
f 147/3/5 145/3/5 141/3/5
f 147/3/5 146/3/5 145/3/5
f 148/3/5 142/3/5 146/3/5
f 148/3/5 146/3/5 147/3/5
f 149/3/6 150/3/6 152/3/6
f 151/3/6 152/3/6 153/3/6
f 152/3/6 150/3/6 154/3/6
f 153/3/6 152/3/6 154/3/6
f 154/3/6 150/3/6 155/3/6
f 155/3/6 150/3/6 156/3/6
f 157/2/6 158/2/6 159/2/6
f 159/2/6 158/2/6 160/2/6
f 160/2/6 158/2/6 161/2/6
f 161/2/6 158/2/6 162/2/6
f 163/2/6 164/2/6 165/2/6
f 165/2/6 164/2/6 166/2/6
f 167/2/6 168/2/6 169/2/6
f 169/2/6 168/2/6 170/2/6
f 171/2/6 172/2/6 175/2/6
f 173/2/6 174/2/6 175/2/6
f 172/2/6 173/2/6 175/2/6
f 175/2/6 174/2/6 176/2/6
f 177/1/6 178/1/6 179/1/6
f 179/1/6 178/1/6 180/1/6
f 181/1/6 182/1/6 184/1/6
f 184/1/6 182/1/6 185/1/6
f 185/1/6 182/1/6 186/1/6
f 183/2/6 184/2/6 187/2/6
f 184/1/6 185/1/6 188/1/6
f 187/2/6 184/2/6 188/2/6
f 188/1/6 185/1/6 189/1/6
f 189/1/6 190/1/6 191/1/6
f 188/1/6 189/1/6 191/1/6
f 191/1/6 190/1/6 192/1/6
f 193/2/6 194/2/6 195/2/6
f 195/2/6 194/2/6 196/2/6
f 197/2/6 198/2/6 199/2/6
f 199/2/6 198/2/6 200/2/6
