# MagicaVoxel @ Ephtracy

# group
o 

# material
mtllib WeaponBattery#1.mtl
usemtl palette

# normals
vn -1 0 0
vn 1 0 0
vn 0 0 1
vn 0 0 -1
vn 0 -1 0
vn 0 1 0

# texcoords
vt 0.970703 0.5
vt 0.974609 0.5
vt 0.982422 0.5
vt 0.994141 0.5

# verts
v 0 2 -0.2
v 0 2 -0.4
v 0 2 -0.5
v 0 2 -0.7
v 0 2.5 0
v 0 2.5 -0.2
v 0 2.5 -0.4
v 0 2.5 -0.5
v 0 2.5 -0.7
v 0 2.5 -0.9
v 0 2.7 0
v 0 2.7 -0.9
v 0 3.1 0
v 0 3.1 -0.9
v 0.1 2.1 -0.1
v 0.1 2.1 -0.2
v 0.1 2.1 -0.4
v 0.1 2.1 -0.5
v 0.1 2.1 -0.7
v 0.1 2.1 -0.8
v 0.1 2.5 -0.1
v 0.1 2.5 -0.2
v 0.1 2.5 -0.4
v 0.1 2.5 -0.5
v 0.1 2.5 -0.7
v 0.1 2.5 -0.8
v 0.5 2.2 0
v 0.5 2.2 -0.1
v 0.5 2.2 -0.8
v 0.5 2.2 -0.9
v 0.5 2.5 0
v 0.5 2.5 -0.1
v 0.5 2.5 -0.8
v 0.5 2.5 -0.9
v 0.5 2.1 -0.1
v 0.5 2.1 -0.2
v 0.5 2.1 -0.4
v 0.5 2.1 -0.5
v 0.5 2.1 -0.7
v 0.5 2.1 -0.8
v 0.5 2.2 -0.1
v 0.5 2.2 -0.2
v 0.5 2.2 -0.4
v 0.5 2.2 -0.5
v 0.5 2.2 -0.7
v 0.5 2.2 -0.8
v 0.6 2 -0.2
v 0.6 2 -0.4
v 0.6 2 -0.5
v 0.6 2 -0.7
v 0.6 2.2 0
v 0.6 2.2 -0.2
v 0.6 2.2 -0.4
v 0.6 2.2 -0.5
v 0.6 2.2 -0.7
v 0.6 2.2 -0.9
v 0.6 2.3 -0.1
v 0.6 2.3 -0.8
v 0.6 3 -0.1
v 0.6 3 -0.8
v 0.6 3.1 0
v 0.6 3.1 -0.9
v 0.7 2.3 -0.1
v 0.7 2.3 -0.8
v 0.7 2.6 -0.4
v 0.7 2.6 -0.5
v 0.7 2.7 -0.4
v 0.7 2.7 -0.5
v 0.7 3 -0.1
v 0.7 3 -0.8
v 0.8 2.6 -0.4
v 0.8 2.6 -0.5
v 0.8 2.7 -0.4
v 0.8 2.7 -0.5
v 0 2.5 0
v 0 2.7 0
v 0 3.1 0
v 0.5 2.2 0
v 0.5 2.5 0
v 0.5 2.7 0
v 0.5 3.1 0
v 0.6 2.2 0
v 0.6 3.1 0
v 0.1 2.1 -0.1
v 0.1 2.5 -0.1
v 0.5 2.1 -0.1
v 0.5 2.2 -0.1
v 0.5 2.5 -0.1
v 0.6 2.3 -0.1
v 0.6 3 -0.1
v 0.7 2.3 -0.1
v 0.7 3 -0.1
v 0 2 -0.2
v 0 2.5 -0.2
v 0.1 2.1 -0.2
v 0.1 2.5 -0.2
v 0.5 2.1 -0.2
v 0.5 2.2 -0.2
v 0.6 2 -0.2
v 0.6 2.2 -0.2
v 0.7 2.6 -0.4
v 0.7 2.7 -0.4
v 0.8 2.6 -0.4
v 0.8 2.7 -0.4
v 0 2 -0.5
v 0 2.5 -0.5
v 0.1 2.1 -0.5
v 0.1 2.5 -0.5
v 0.5 2.1 -0.5
v 0.5 2.2 -0.5
v 0.6 2 -0.5
v 0.6 2.2 -0.5
v 0 2 -0.4
v 0 2.5 -0.4
v 0.1 2.1 -0.4
v 0.1 2.5 -0.4
v 0.5 2.1 -0.4
v 0.5 2.2 -0.4
v 0.6 2 -0.4
v 0.6 2.2 -0.4
v 0.7 2.6 -0.5
v 0.7 2.7 -0.5
v 0.8 2.6 -0.5
v 0.8 2.7 -0.5
v 0 2 -0.7
v 0 2.5 -0.7
v 0.1 2.1 -0.7
v 0.1 2.5 -0.7
v 0.5 2.1 -0.7
v 0.5 2.2 -0.7
v 0.6 2 -0.7
v 0.6 2.2 -0.7
v 0.1 2.1 -0.8
v 0.1 2.5 -0.8
v 0.5 2.1 -0.8
v 0.5 2.2 -0.8
v 0.5 2.5 -0.8
v 0.6 2.3 -0.8
v 0.6 3 -0.8
v 0.7 2.3 -0.8
v 0.7 3 -0.8
v 0 2.5 -0.9
v 0 2.7 -0.9
v 0 3.1 -0.9
v 0.5 2.2 -0.9
v 0.5 2.5 -0.9
v 0.5 2.7 -0.9
v 0.5 3.1 -0.9
v 0.6 2.2 -0.9
v 0.6 3.1 -0.9
v 0 2 -0.2
v 0.6 2 -0.2
v 0 2 -0.4
v 0.6 2 -0.4
v 0 2 -0.5
v 0.6 2 -0.5
v 0 2 -0.7
v 0.6 2 -0.7
v 0.1 2.1 -0.1
v 0.5 2.1 -0.1
v 0.1 2.1 -0.2
v 0.5 2.1 -0.2
v 0.1 2.1 -0.4
v 0.5 2.1 -0.4
v 0.1 2.1 -0.5
v 0.5 2.1 -0.5
v 0.1 2.1 -0.7
v 0.5 2.1 -0.7
v 0.1 2.1 -0.8
v 0.5 2.1 -0.8
v 0.5 2.2 0
v 0.6 2.2 0
v 0.5 2.2 -0.1
v 0.5 2.2 -0.2
v 0.6 2.2 -0.2
v 0.5 2.2 -0.4
v 0.6 2.2 -0.4
v 0.5 2.2 -0.5
v 0.6 2.2 -0.5
v 0.5 2.2 -0.7
v 0.6 2.2 -0.7
v 0.5 2.2 -0.8
v 0.5 2.2 -0.9
v 0.6 2.2 -0.9
v 0.6 2.3 -0.1
v 0.7 2.3 -0.1
v 0.6 2.3 -0.8
v 0.7 2.3 -0.8
v 0 2.5 0
v 0.5 2.5 0
v 0.1 2.5 -0.1
v 0.5 2.5 -0.1
v 0 2.5 -0.2
v 0.1 2.5 -0.2
v 0 2.5 -0.4
v 0.1 2.5 -0.4
v 0 2.5 -0.5
v 0.1 2.5 -0.5
v 0 2.5 -0.7
v 0.1 2.5 -0.7
v 0.1 2.5 -0.8
v 0.5 2.5 -0.8
v 0 2.5 -0.9
v 0.5 2.5 -0.9
v 0.7 2.6 -0.4
v 0.8 2.6 -0.4
v 0.7 2.6 -0.5
v 0.8 2.6 -0.5
v 0.7 2.7 -0.4
v 0.8 2.7 -0.4
v 0.7 2.7 -0.5
v 0.8 2.7 -0.5
v 0.6 3 -0.1
v 0.7 3 -0.1
v 0.6 3 -0.8
v 0.7 3 -0.8
v 0 3.1 0
v 0.5 3.1 0
v 0.6 3.1 0
v 0 3.1 -0.9
v 0.5 3.1 -0.9
v 0.6 3.1 -0.9

# faces
f 6/3/1 2/3/1 1/3/1
f 7/3/1 2/3/1 6/3/1
f 8/3/1 4/3/1 3/3/1
f 9/3/1 4/3/1 8/3/1
f 11/2/1 7/2/1 6/2/1
f 11/2/1 10/2/1 9/2/1
f 11/2/1 9/2/1 8/2/1
f 11/2/1 8/2/1 7/2/1
f 11/2/1 6/2/1 5/2/1
f 12/2/1 10/2/1 11/2/1
f 13/3/1 12/3/1 11/3/1
f 14/3/1 12/3/1 13/3/1
f 21/4/1 16/4/1 15/4/1
f 22/4/1 16/4/1 21/4/1
f 23/4/1 18/4/1 17/4/1
f 24/4/1 18/4/1 23/4/1
f 25/4/1 20/4/1 19/4/1
f 26/4/1 20/4/1 25/4/1
f 31/2/1 28/2/1 27/2/1
f 32/2/1 28/2/1 31/2/1
f 33/2/1 30/2/1 29/2/1
f 34/2/1 30/2/1 33/2/1
f 35/4/2 36/4/2 41/4/2
f 41/4/2 36/4/2 42/4/2
f 37/4/2 38/4/2 43/4/2
f 43/4/2 38/4/2 44/4/2
f 39/4/2 40/4/2 45/4/2
f 45/4/2 40/4/2 46/4/2
f 47/3/2 48/3/2 52/3/2
f 52/3/2 48/3/2 53/3/2
f 49/3/2 50/3/2 54/3/2
f 54/3/2 50/3/2 55/3/2
f 52/2/2 53/2/2 57/2/2
f 55/2/2 56/2/2 57/2/2
f 54/2/2 55/2/2 57/2/2
f 53/2/2 54/2/2 57/2/2
f 51/2/2 52/2/2 57/2/2
f 57/2/2 56/2/2 58/2/2
f 51/2/2 57/2/2 59/2/2
f 58/2/2 56/2/2 60/2/2
f 51/2/2 59/2/2 61/2/2
f 59/2/2 60/2/2 61/2/2
f 60/2/2 56/2/2 62/2/2
f 61/2/2 60/2/2 62/2/2
f 63/1/2 64/1/2 65/1/2
f 65/1/2 64/1/2 66/1/2
f 63/1/2 65/1/2 67/1/2
f 66/1/2 64/1/2 68/1/2
f 63/1/2 67/1/2 69/1/2
f 67/1/2 68/1/2 69/1/2
f 68/1/2 64/1/2 70/1/2
f 69/1/2 68/1/2 70/1/2
f 71/1/2 72/1/2 73/1/2
f 73/1/2 72/1/2 74/1/2
f 79/2/3 76/2/3 75/2/3
f 80/3/3 77/3/3 76/3/3
f 80/2/3 76/2/3 79/2/3
f 81/3/3 77/3/3 80/3/3
f 82/2/3 79/2/3 78/2/3
f 82/2/3 80/2/3 79/2/3
f 82/2/3 81/2/3 80/2/3
f 83/2/3 81/2/3 82/2/3
f 86/4/3 85/4/3 84/4/3
f 87/4/3 85/4/3 86/4/3
f 88/4/3 85/4/3 87/4/3
f 91/1/3 90/1/3 89/1/3
f 92/1/3 90/1/3 91/1/3
f 95/3/3 94/3/3 93/3/3
f 96/3/3 94/3/3 95/3/3
f 97/3/3 95/3/3 93/3/3
f 99/3/3 97/3/3 93/3/3
f 99/3/3 98/3/3 97/3/3
f 100/3/3 98/3/3 99/3/3
f 103/1/3 102/1/3 101/1/3
f 104/1/3 102/1/3 103/1/3
f 107/3/3 106/3/3 105/3/3
f 108/3/3 106/3/3 107/3/3
f 109/3/3 107/3/3 105/3/3
f 111/3/3 109/3/3 105/3/3
f 111/3/3 110/3/3 109/3/3
f 112/3/3 110/3/3 111/3/3
f 113/3/4 114/3/4 115/3/4
f 115/3/4 114/3/4 116/3/4
f 113/3/4 115/3/4 117/3/4
f 113/3/4 117/3/4 119/3/4
f 117/3/4 118/3/4 119/3/4
f 119/3/4 118/3/4 120/3/4
f 121/1/4 122/1/4 123/1/4
f 123/1/4 122/1/4 124/1/4
f 125/3/4 126/3/4 127/3/4
f 127/3/4 126/3/4 128/3/4
f 125/3/4 127/3/4 129/3/4
f 125/3/4 129/3/4 131/3/4
f 129/3/4 130/3/4 131/3/4
f 131/3/4 130/3/4 132/3/4
f 133/4/4 134/4/4 135/4/4
f 135/4/4 134/4/4 136/4/4
f 136/4/4 134/4/4 137/4/4
f 138/1/4 139/1/4 140/1/4
f 140/1/4 139/1/4 141/1/4
f 142/2/4 143/2/4 146/2/4
f 143/3/4 144/3/4 147/3/4
f 146/2/4 143/2/4 147/2/4
f 147/3/4 144/3/4 148/3/4
f 145/2/4 146/2/4 149/2/4
f 146/2/4 147/2/4 149/2/4
f 147/2/4 148/2/4 149/2/4
f 149/2/4 148/2/4 150/2/4
f 153/3/5 152/3/5 151/3/5
f 154/3/5 152/3/5 153/3/5
f 157/3/5 156/3/5 155/3/5
f 158/3/5 156/3/5 157/3/5
f 161/4/5 160/4/5 159/4/5
f 162/4/5 160/4/5 161/4/5
f 165/4/5 164/4/5 163/4/5
f 166/4/5 164/4/5 165/4/5
f 169/4/5 168/4/5 167/4/5
f 170/4/5 168/4/5 169/4/5
f 173/2/5 172/2/5 171/2/5
f 174/2/5 172/2/5 173/2/5
f 175/2/5 172/2/5 174/2/5
f 178/2/5 177/2/5 176/2/5
f 179/2/5 177/2/5 178/2/5
f 182/2/5 181/2/5 180/2/5
f 183/2/5 181/2/5 182/2/5
f 184/2/5 181/2/5 183/2/5
f 187/1/5 186/1/5 185/1/5
f 188/1/5 186/1/5 187/1/5
f 191/2/5 190/2/5 189/2/5
f 192/2/5 190/2/5 191/2/5
f 193/2/5 191/2/5 189/2/5
f 194/2/5 191/2/5 193/2/5
f 197/2/5 196/2/5 195/2/5
f 198/2/5 196/2/5 197/2/5
f 201/2/5 200/2/5 199/2/5
f 203/2/5 201/2/5 199/2/5
f 203/2/5 202/2/5 201/2/5
f 204/2/5 202/2/5 203/2/5
f 207/1/5 206/1/5 205/1/5
f 208/1/5 206/1/5 207/1/5
f 209/1/6 210/1/6 211/1/6
f 211/1/6 210/1/6 212/1/6
f 213/1/6 214/1/6 215/1/6
f 215/1/6 214/1/6 216/1/6
f 217/3/6 218/3/6 220/3/6
f 218/2/6 219/2/6 221/2/6
f 220/3/6 218/3/6 221/3/6
f 221/2/6 219/2/6 222/2/6
