# MagicaVoxel @ Ephtracy

# group
o 

# material
mtllib WeaponBattery#2.mtl
usemtl palette

# normals
vn -1 0 0
vn 1 0 0
vn 0 0 1
vn 0 0 -1
vn 0 -1 0
vn 0 1 0

# texcoords
vt 0.970703 0.5
vt 0.974609 0.5
vt 0.978516 0.5
vt 0.982422 0.5

# verts
v 0.4 2.5 -0.5
v 0.4 2.5 -1.4
v 0.4 2.6 -0.5
v 0.4 2.6 -1.4
v 0.4 2.8 -0.5
v 0.4 2.8 -1.4
v 0.4 3 -0.5
v 0.4 3 -0.9
v 0.4 3 -1
v 0.4 3 -1.4
v 0.4 3.4 -0.9
v 0.4 3.4 -1
v 0.5 2.6 -0.6
v 0.5 2.6 -1.3
v 0.5 2.8 -0.6
v 0.5 2.8 -1.3
v 0.5 3 -0.6
v 0.5 3 -0.9
v 0.5 3 -1
v 0.5 3 -1.3
v 0.5 3.1 -0.6
v 0.5 3.1 -0.7
v 0.5 3.1 -1.2
v 0.5 3.1 -1.3
v 0.5 3.2 -0.7
v 0.5 3.2 -0.8
v 0.5 3.2 -1.1
v 0.5 3.2 -1.2
v 0.5 3.3 -0.8
v 0.5 3.3 -0.9
v 0.5 3.3 -1
v 0.5 3.3 -1.1
v 1 2.4 -0.5
v 1 2.4 -1.4
v 1 2.5 -0.5
v 1 2.5 -1.4
v 1 2.6 -0.5
v 1 2.6 -0.6
v 1 2.6 -1.3
v 1 2.6 -1.4
v 1 2.8 -0.4
v 1 2.8 -0.5
v 1 2.8 -0.6
v 1 2.8 -1.3
v 1 2.8 -1.4
v 1 2.8 -1.5
v 1 3 -0.4
v 1 3 -0.5
v 1 3 -0.6
v 1 3 -1.3
v 1 3 -1.4
v 1 3 -1.5
v 1 3.1 -0.6
v 1 3.1 -0.7
v 1 3.1 -1.2
v 1 3.1 -1.3
v 1 3.2 -0.5
v 1 3.2 -0.6
v 1 3.2 -0.7
v 1 3.2 -0.8
v 1 3.2 -1.1
v 1 3.2 -1.2
v 1 3.2 -1.3
v 1 3.2 -1.4
v 1 3.3 -0.6
v 1 3.3 -0.7
v 1 3.3 -0.8
v 1 3.3 -0.9
v 1 3.3 -1
v 1 3.3 -1.1
v 1 3.3 -1.2
v 1 3.3 -1.3
v 1 3.4 -0.7
v 1 3.4 -0.8
v 1 3.4 -0.9
v 1 3.4 -1
v 1 3.4 -1.1
v 1 3.4 -1.2
v 1.2 3.2 -0.5
v 1.2 3.2 -0.6
v 1.2 3.2 -1.3
v 1.2 3.2 -1.4
v 1.2 3.3 -0.5
v 1.2 3.3 -0.6
v 1.2 3.3 -0.7
v 1.2 3.3 -1.2
v 1.2 3.3 -1.3
v 1.2 3.3 -1.4
v 1.2 3.4 -0.6
v 1.2 3.4 -0.7
v 1.2 3.4 -1.2
v 1.2 3.4 -1.3
v 1.2 2.4 -0.5
v 1.2 2.4 -1.4
v 1.2 2.5 -0.6
v 1.2 2.5 -1.3
v 1.2 2.6 -0.5
v 1.2 2.6 -0.6
v 1.2 2.6 -1.3
v 1.2 2.6 -1.4
v 1.3 2.5 -0.6
v 1.3 2.5 -1.3
v 1.3 2.6 -0.5
v 1.3 2.6 -0.6
v 1.3 2.6 -1.3
v 1.3 2.6 -1.4
v 1.3 2.8 -0.4
v 1.3 2.8 -0.5
v 1.3 2.8 -1.4
v 1.3 2.8 -1.5
v 1.3 3 -0.4
v 1.3 3 -0.5
v 1.3 3 -1.4
v 1.3 3 -1.5
v 1.3 3.3 -0.5
v 1.3 3.3 -0.6
v 1.3 3.3 -1.3
v 1.3 3.3 -1.4
v 1.3 3.4 -0.6
v 1.3 3.4 -1.3
v 1.4 2.6 -0.6
v 1.4 2.6 -1.3
v 1.4 2.9 -0.9
v 1.4 2.9 -1
v 1.4 3 -0.9
v 1.4 3 -1
v 1.4 3.3 -0.6
v 1.4 3.3 -1.3
v 1.5 2.9 -0.9
v 1.5 2.9 -1
v 1.5 3 -0.9
v 1.5 3 -1
v 1 2.8 -0.4
v 1 3 -0.4
v 1.3 2.8 -0.4
v 1.3 3 -0.4
v 0.4 2.5 -0.5
v 0.4 2.6 -0.5
v 0.4 2.8 -0.5
v 0.4 3 -0.5
v 1 2.4 -0.5
v 1 2.5 -0.5
v 1 2.6 -0.5
v 1 2.8 -0.5
v 1 3 -0.5
v 1 3.2 -0.5
v 1.2 2.4 -0.5
v 1.2 2.6 -0.5
v 1.2 2.8 -0.5
v 1.2 3 -0.5
v 1.2 3.2 -0.5
v 1.2 3.3 -0.5
v 1.3 2.6 -0.5
v 1.3 2.8 -0.5
v 1.3 3 -0.5
v 1.3 3.3 -0.5
v 0.5 2.6 -0.6
v 0.5 2.8 -0.6
v 0.5 3 -0.6
v 0.5 3.1 -0.6
v 1 2.6 -0.6
v 1 2.8 -0.6
v 1 3 -0.6
v 1 3.1 -0.6
v 1 3.2 -0.6
v 1 3.3 -0.6
v 1.2 2.5 -0.6
v 1.2 2.6 -0.6
v 1.2 3.2 -0.6
v 1.2 3.3 -0.6
v 1.2 3.4 -0.6
v 1.3 2.5 -0.6
v 1.3 2.6 -0.6
v 1.3 3.3 -0.6
v 1.3 3.4 -0.6
v 1.4 2.6 -0.6
v 1.4 3.3 -0.6
v 0.5 3.1 -0.7
v 0.5 3.2 -0.7
v 1 3.1 -0.7
v 1 3.2 -0.7
v 1 3.3 -0.7
v 1 3.4 -0.7
v 1.2 3.3 -0.7
v 1.2 3.4 -0.7
v 0.5 3.2 -0.8
v 0.5 3.3 -0.8
v 1 3.2 -0.8
v 1 3.3 -0.8
v 0.4 3 -0.9
v 0.4 3.4 -0.9
v 0.5 3 -0.9
v 0.5 3.3 -0.9
v 1 3.3 -0.9
v 1 3.4 -0.9
v 1.4 2.9 -0.9
v 1.4 3 -0.9
v 1.5 2.9 -0.9
v 1.5 3 -0.9
v 0.4 3 -1
v 0.4 3.4 -1
v 0.5 3 -1
v 0.5 3.3 -1
v 1 3.3 -1
v 1 3.4 -1
v 1.4 2.9 -1
v 1.4 3 -1
v 1.5 2.9 -1
v 1.5 3 -1
v 0.5 3.2 -1.1
v 0.5 3.3 -1.1
v 1 3.2 -1.1
v 1 3.3 -1.1
v 0.5 3.1 -1.2
v 0.5 3.2 -1.2
v 1 3.1 -1.2
v 1 3.2 -1.2
v 1 3.3 -1.2
v 1 3.4 -1.2
v 1.2 3.3 -1.2
v 1.2 3.4 -1.2
v 0.5 2.6 -1.3
v 0.5 2.8 -1.3
v 0.5 3 -1.3
v 0.5 3.1 -1.3
v 1 2.6 -1.3
v 1 2.8 -1.3
v 1 3 -1.3
v 1 3.1 -1.3
v 1 3.2 -1.3
v 1 3.3 -1.3
v 1.2 2.5 -1.3
v 1.2 2.6 -1.3
v 1.2 3.2 -1.3
v 1.2 3.3 -1.3
v 1.2 3.4 -1.3
v 1.3 2.5 -1.3
v 1.3 2.6 -1.3
v 1.3 3.3 -1.3
v 1.3 3.4 -1.3
v 1.4 2.6 -1.3
v 1.4 3.3 -1.3
v 0.4 2.5 -1.4
v 0.4 2.6 -1.4
v 0.4 2.8 -1.4
v 0.4 3 -1.4
v 1 2.4 -1.4
v 1 2.5 -1.4
v 1 2.6 -1.4
v 1 2.8 -1.4
v 1 3 -1.4
v 1 3.2 -1.4
v 1.2 2.4 -1.4
v 1.2 2.6 -1.4
v 1.2 2.8 -1.4
v 1.2 3 -1.4
v 1.2 3.2 -1.4
v 1.2 3.3 -1.4
v 1.3 2.6 -1.4
v 1.3 2.8 -1.4
v 1.3 3 -1.4
v 1.3 3.3 -1.4
v 1 2.8 -1.5
v 1 3 -1.5
v 1.3 2.8 -1.5
v 1.3 3 -1.5
v 1 2.4 -0.5
v 1.2 2.4 -0.5
v 1 2.4 -1.4
v 1.2 2.4 -1.4
v 0.4 2.5 -0.5
v 1 2.5 -0.5
v 1.2 2.5 -0.6
v 1.3 2.5 -0.6
v 1.2 2.5 -1.3
v 1.3 2.5 -1.3
v 0.4 2.5 -1.4
v 1 2.5 -1.4
v 1.2 2.6 -0.5
v 1.3 2.6 -0.5
v 1.2 2.6 -0.6
v 1.3 2.6 -0.6
v 1.4 2.6 -0.6
v 1.2 2.6 -1.3
v 1.3 2.6 -1.3
v 1.4 2.6 -1.3
v 1.2 2.6 -1.4
v 1.3 2.6 -1.4
v 1 2.8 -0.4
v 1.3 2.8 -0.4
v 0.4 2.8 -0.5
v 1 2.8 -0.5
v 1.2 2.8 -0.5
v 1.3 2.8 -0.5
v 0.5 2.8 -0.6
v 1 2.8 -0.6
v 0.5 2.8 -1.3
v 1 2.8 -1.3
v 0.4 2.8 -1.4
v 1 2.8 -1.4
v 1.2 2.8 -1.4
v 1.3 2.8 -1.4
v 1 2.8 -1.5
v 1.3 2.8 -1.5
v 1.4 2.9 -0.9
v 1.5 2.9 -0.9
v 1.4 2.9 -1
v 1.5 2.9 -1
v 0.4 2.6 -0.5
v 1 2.6 -0.5
v 0.5 2.6 -0.6
v 1 2.6 -0.6
v 0.5 2.6 -1.3
v 1 2.6 -1.3
v 0.4 2.6 -1.4
v 1 2.6 -1.4
v 1 3 -0.4
v 1.3 3 -0.4
v 0.4 3 -0.5
v 1 3 -0.5
v 1.2 3 -0.5
v 1.3 3 -0.5
v 0.5 3 -0.6
v 1 3 -0.6
v 0.4 3 -0.9
v 0.5 3 -0.9
v 1.4 3 -0.9
v 1.5 3 -0.9
v 0.4 3 -1
v 0.5 3 -1
v 1.4 3 -1
v 1.5 3 -1
v 0.5 3 -1.3
v 1 3 -1.3
v 0.4 3 -1.4
v 1 3 -1.4
v 1.2 3 -1.4
v 1.3 3 -1.4
v 1 3 -1.5
v 1.3 3 -1.5
v 0.5 3.1 -0.6
v 1 3.1 -0.6
v 0.5 3.1 -0.7
v 1 3.1 -0.7
v 0.5 3.1 -1.2
v 1 3.1 -1.2
v 0.5 3.1 -1.3
v 1 3.1 -1.3
v 1 3.2 -0.5
v 1.2 3.2 -0.5
v 1 3.2 -0.6
v 1.2 3.2 -0.6
v 0.5 3.2 -0.7
v 1 3.2 -0.7
v 0.5 3.2 -0.8
v 1 3.2 -0.8
v 0.5 3.2 -1.1
v 1 3.2 -1.1
v 0.5 3.2 -1.2
v 1 3.2 -1.2
v 1 3.2 -1.3
v 1.2 3.2 -1.3
v 1 3.2 -1.4
v 1.2 3.2 -1.4
v 1.2 3.3 -0.5
v 1.3 3.3 -0.5
v 1 3.3 -0.6
v 1.2 3.3 -0.6
v 1.3 3.3 -0.6
v 1.4 3.3 -0.6
v 1 3.3 -0.7
v 1.2 3.3 -0.7
v 0.5 3.3 -0.8
v 1 3.3 -0.8
v 0.5 3.3 -0.9
v 1 3.3 -0.9
v 0.5 3.3 -1
v 1 3.3 -1
v 0.5 3.3 -1.1
v 1 3.3 -1.1
v 1 3.3 -1.2
v 1.2 3.3 -1.2
v 1 3.3 -1.3
v 1.2 3.3 -1.3
v 1.3 3.3 -1.3
v 1.4 3.3 -1.3
v 1.2 3.3 -1.4
v 1.3 3.3 -1.4
v 1.2 3.4 -0.6
v 1.3 3.4 -0.6
v 1 3.4 -0.7
v 1.2 3.4 -0.7
v 1 3.4 -0.8
v 1.2 3.4 -0.8
v 0.4 3.4 -0.9
v 1 3.4 -0.9
v 0.4 3.4 -1
v 1 3.4 -1
v 1 3.4 -1.1
v 1.2 3.4 -1.1
v 1 3.4 -1.2
v 1.2 3.4 -1.2
v 1.2 3.4 -1.3
v 1.3 3.4 -1.3

# faces
f 3/2/1 2/2/1 1/2/1
f 4/2/1 2/2/1 3/2/1
f 7/2/1 6/2/1 5/2/1
f 8/2/1 6/2/1 7/2/1
f 9/2/1 6/2/1 8/2/1
f 10/2/1 6/2/1 9/2/1
f 11/2/1 9/2/1 8/2/1
f 12/2/1 9/2/1 11/2/1
f 15/4/1 14/4/1 13/4/1
f 16/4/1 14/4/1 15/4/1
f 21/4/1 18/4/1 17/4/1
f 22/4/1 18/4/1 21/4/1
f 23/4/1 20/4/1 19/4/1
f 24/4/1 20/4/1 23/4/1
f 25/4/1 18/4/1 22/4/1
f 26/4/1 18/4/1 25/4/1
f 27/4/1 23/4/1 19/4/1
f 28/4/1 23/4/1 27/4/1
f 29/4/1 18/4/1 26/4/1
f 30/4/1 18/4/1 29/4/1
f 31/4/1 27/4/1 19/4/1
f 32/4/1 27/4/1 31/4/1
f 35/1/1 34/1/1 33/1/1
f 36/1/1 34/1/1 35/1/1
f 42/1/1 38/1/1 37/1/1
f 43/1/1 38/1/1 42/1/1
f 44/1/1 40/1/1 39/1/1
f 45/1/1 40/1/1 44/1/1
f 47/2/1 42/2/1 41/2/1
f 48/2/1 42/2/1 47/2/1
f 51/2/1 46/2/1 45/2/1
f 52/2/1 46/2/1 51/2/1
f 53/1/1 49/1/1 48/1/1
f 56/1/1 51/1/1 50/1/1
f 57/1/1 54/1/1 53/1/1
f 57/1/1 53/1/1 48/1/1
f 58/1/1 54/1/1 57/1/1
f 59/1/1 54/1/1 58/1/1
f 62/1/1 56/1/1 55/1/1
f 63/1/1 51/1/1 56/1/1
f 63/1/1 56/1/1 62/1/1
f 64/1/1 51/1/1 63/1/1
f 65/1/1 60/1/1 59/1/1
f 65/1/1 59/1/1 58/1/1
f 66/1/1 60/1/1 65/1/1
f 67/1/1 60/1/1 66/1/1
f 70/1/1 62/1/1 61/1/1
f 70/1/1 63/1/1 62/1/1
f 71/1/1 63/1/1 70/1/1
f 72/1/1 63/1/1 71/1/1
f 73/1/1 67/1/1 66/1/1
f 74/2/1 68/2/1 67/2/1
f 74/1/1 67/1/1 73/1/1
f 75/2/1 68/2/1 74/2/1
f 76/2/1 70/2/1 69/2/1
f 77/1/1 71/1/1 70/1/1
f 77/2/1 70/2/1 76/2/1
f 78/1/1 71/1/1 77/1/1
f 83/2/1 80/2/1 79/2/1
f 84/2/1 80/2/1 83/2/1
f 87/2/1 82/2/1 81/2/1
f 88/2/1 82/2/1 87/2/1
f 89/2/1 85/2/1 84/2/1
f 90/2/1 85/2/1 89/2/1
f 91/2/1 87/2/1 86/2/1
f 92/2/1 87/2/1 91/2/1
f 93/1/2 94/1/2 95/1/2
f 95/1/2 94/1/2 96/1/2
f 93/1/2 95/1/2 97/1/2
f 97/1/2 95/1/2 98/1/2
f 96/1/2 94/1/2 99/1/2
f 99/1/2 94/1/2 100/1/2
f 101/2/2 102/2/2 104/2/2
f 104/2/2 102/2/2 105/2/2
f 103/2/2 104/2/2 108/2/2
f 105/2/2 106/2/2 109/2/2
f 107/2/2 108/2/2 111/2/2
f 108/2/2 104/2/2 112/2/2
f 111/2/2 108/2/2 112/2/2
f 109/2/2 110/2/2 113/2/2
f 105/2/2 109/2/2 113/2/2
f 113/2/2 110/2/2 114/2/2
f 112/2/2 104/2/2 115/2/2
f 115/2/2 104/2/2 116/2/2
f 105/2/2 113/2/2 117/2/2
f 117/2/2 113/2/2 118/2/2
f 116/2/2 117/2/2 119/2/2
f 119/2/2 117/2/2 120/2/2
f 121/3/2 122/3/2 123/3/2
f 123/3/2 122/3/2 124/3/2
f 121/3/2 123/3/2 125/3/2
f 124/3/2 122/3/2 126/3/2
f 121/3/2 125/3/2 127/3/2
f 125/3/2 126/3/2 127/3/2
f 126/3/2 122/3/2 128/3/2
f 127/3/2 126/3/2 128/3/2
f 129/3/2 130/3/2 131/3/2
f 131/3/2 130/3/2 132/3/2
f 135/2/3 134/2/3 133/2/3
f 136/2/3 134/2/3 135/2/3
f 142/2/3 138/2/3 137/2/3
f 143/2/3 138/2/3 142/2/3
f 144/2/3 140/2/3 139/2/3
f 145/2/3 140/2/3 144/2/3
f 147/1/3 143/1/3 142/1/3
f 147/1/3 142/1/3 141/1/3
f 147/1/3 144/1/3 143/1/3
f 148/1/3 144/1/3 147/1/3
f 149/1/3 144/1/3 148/1/3
f 150/1/3 146/1/3 145/1/3
f 151/1/3 146/1/3 150/1/3
f 153/2/3 149/2/3 148/2/3
f 154/2/3 149/2/3 153/2/3
f 155/2/3 152/2/3 151/2/3
f 155/2/3 151/2/3 150/2/3
f 156/2/3 152/2/3 155/2/3
f 161/4/3 158/4/3 157/4/3
f 162/4/3 158/4/3 161/4/3
f 163/4/3 160/4/3 159/4/3
f 164/4/3 160/4/3 163/4/3
f 169/1/3 166/1/3 165/1/3
f 170/1/3 166/1/3 169/1/3
f 172/2/3 168/2/3 167/2/3
f 173/2/3 168/2/3 172/2/3
f 174/2/3 171/2/3 170/2/3
f 175/2/3 171/2/3 174/2/3
f 176/3/3 174/3/3 173/3/3
f 177/3/3 174/3/3 176/3/3
f 180/4/3 179/4/3 178/4/3
f 181/4/3 179/4/3 180/4/3
f 184/1/3 183/1/3 182/1/3
f 185/1/3 183/1/3 184/1/3
f 188/4/3 187/4/3 186/4/3
f 189/4/3 187/4/3 188/4/3
f 192/2/3 191/2/3 190/2/3
f 193/2/3 191/2/3 192/2/3
f 194/2/3 191/2/3 193/2/3
f 195/2/3 191/2/3 194/2/3
f 198/3/3 197/3/3 196/3/3
f 199/3/3 197/3/3 198/3/3
f 200/2/4 201/2/4 202/2/4
f 202/2/4 201/2/4 203/2/4
f 203/2/4 201/2/4 204/2/4
f 204/2/4 201/2/4 205/2/4
f 206/3/4 207/3/4 208/3/4
f 208/3/4 207/3/4 209/3/4
f 210/4/4 211/4/4 212/4/4
f 212/4/4 211/4/4 213/4/4
f 214/4/4 215/4/4 216/4/4
f 216/4/4 215/4/4 217/4/4
f 218/1/4 219/1/4 220/1/4
f 220/1/4 219/1/4 221/1/4
f 222/4/4 223/4/4 226/4/4
f 226/4/4 223/4/4 227/4/4
f 224/4/4 225/4/4 228/4/4
f 228/4/4 225/4/4 229/4/4
f 230/1/4 231/1/4 234/1/4
f 234/1/4 231/1/4 235/1/4
f 232/2/4 233/2/4 237/2/4
f 237/2/4 233/2/4 238/2/4
f 235/2/4 236/2/4 239/2/4
f 239/2/4 236/2/4 240/2/4
f 238/3/4 239/3/4 241/3/4
f 241/3/4 239/3/4 242/3/4
f 243/2/4 244/2/4 248/2/4
f 248/2/4 244/2/4 249/2/4
f 245/2/4 246/2/4 250/2/4
f 250/2/4 246/2/4 251/2/4
f 248/1/4 249/1/4 253/1/4
f 247/1/4 248/1/4 253/1/4
f 249/1/4 250/1/4 253/1/4
f 253/1/4 250/1/4 254/1/4
f 254/1/4 250/1/4 255/1/4
f 251/1/4 252/1/4 256/1/4
f 256/1/4 252/1/4 257/1/4
f 254/2/4 255/2/4 259/2/4
f 259/2/4 255/2/4 260/2/4
f 257/2/4 258/2/4 261/2/4
f 256/2/4 257/2/4 261/2/4
f 261/2/4 258/2/4 262/2/4
f 263/2/4 264/2/4 265/2/4
f 265/2/4 264/2/4 266/2/4
f 269/1/5 268/1/5 267/1/5
f 270/1/5 268/1/5 269/1/5
f 275/2/5 274/2/5 273/2/5
f 276/2/5 274/2/5 275/2/5
f 277/2/5 272/2/5 271/2/5
f 278/2/5 272/2/5 277/2/5
f 281/2/5 280/2/5 279/2/5
f 282/2/5 280/2/5 281/2/5
f 285/3/5 283/3/5 282/3/5
f 286/3/5 283/3/5 285/3/5
f 287/2/5 285/2/5 284/2/5
f 288/2/5 285/2/5 287/2/5
f 292/2/5 290/2/5 289/2/5
f 293/2/5 290/2/5 292/2/5
f 294/2/5 290/2/5 293/2/5
f 295/2/5 292/2/5 291/2/5
f 296/2/5 292/2/5 295/2/5
f 297/2/5 295/2/5 291/2/5
f 299/2/5 297/2/5 291/2/5
f 299/2/5 298/2/5 297/2/5
f 300/2/5 298/2/5 299/2/5
f 303/2/5 302/2/5 301/2/5
f 303/2/5 301/2/5 300/2/5
f 304/2/5 302/2/5 303/2/5
f 307/3/5 306/3/5 305/3/5
f 308/3/5 306/3/5 307/3/5
f 309/2/6 310/2/6 311/2/6
f 311/2/6 310/2/6 312/2/6
f 309/2/6 311/2/6 313/2/6
f 309/2/6 313/2/6 315/2/6
f 313/2/6 314/2/6 315/2/6
f 315/2/6 314/2/6 316/2/6
f 317/2/6 318/2/6 320/2/6
f 320/2/6 318/2/6 321/2/6
f 321/2/6 318/2/6 322/2/6
f 319/2/6 320/2/6 323/2/6
f 323/2/6 320/2/6 324/2/6
f 319/2/6 323/2/6 325/2/6
f 325/2/6 323/2/6 326/2/6
f 327/3/6 328/3/6 331/3/6
f 331/3/6 328/3/6 332/3/6
f 329/2/6 330/2/6 333/2/6
f 329/2/6 333/2/6 335/2/6
f 333/2/6 334/2/6 335/2/6
f 335/2/6 334/2/6 336/2/6
f 337/2/6 338/2/6 339/2/6
f 336/2/6 337/2/6 339/2/6
f 339/2/6 338/2/6 340/2/6
f 341/4/6 342/4/6 343/4/6
f 343/4/6 342/4/6 344/4/6
f 345/4/6 346/4/6 347/4/6
f 347/4/6 346/4/6 348/4/6
f 349/1/6 350/1/6 351/1/6
f 351/1/6 350/1/6 352/1/6
f 353/4/6 354/4/6 355/4/6
f 355/4/6 354/4/6 356/4/6
f 357/4/6 358/4/6 359/4/6
f 359/4/6 358/4/6 360/4/6
f 361/1/6 362/1/6 363/1/6
f 363/1/6 362/1/6 364/1/6
f 365/2/6 366/2/6 368/2/6
f 368/2/6 366/2/6 369/2/6
f 367/1/6 368/1/6 371/1/6
f 371/1/6 368/1/6 372/1/6
f 373/4/6 374/4/6 375/4/6
f 375/4/6 374/4/6 376/4/6
f 377/4/6 378/4/6 379/4/6
f 379/4/6 378/4/6 380/4/6
f 381/1/6 382/1/6 383/1/6
f 383/1/6 382/1/6 384/1/6
f 369/3/6 370/3/6 385/3/6
f 385/3/6 370/3/6 386/3/6
f 384/2/6 385/2/6 387/2/6
f 387/2/6 385/2/6 388/2/6
f 389/2/6 390/2/6 392/2/6
f 391/1/6 392/1/6 393/1/6
f 392/2/6 390/2/6 394/2/6
f 393/1/6 392/1/6 394/1/6
f 393/2/6 394/2/6 396/2/6
f 395/2/6 396/2/6 397/2/6
f 396/2/6 394/2/6 398/2/6
f 397/2/6 396/2/6 398/2/6
f 398/2/6 394/2/6 399/2/6
f 394/2/6 390/2/6 400/2/6
f 399/2/6 394/2/6 400/2/6
f 399/1/6 400/1/6 401/1/6
f 400/2/6 390/2/6 402/2/6
f 401/1/6 400/1/6 402/1/6
f 402/2/6 390/2/6 403/2/6
f 403/2/6 390/2/6 404/2/6
