# MagicaVoxel @ Ephtracy

# group
o 

# material
mtllib WeaponBarrel#2.mtl
usemtl palette

# normals
vn -1 0 0
vn 1 0 0
vn 0 0 1
vn 0 0 -1
vn 0 -1 0
vn 0 1 0

# texcoords
vt 0.970703 0.5
vt 0.986328 0.5
vt 0.990234 0.5

# verts
v 0 2.2 -0.2
v 0 2.2 -0.3
v 0 2.3 -0.2
v 0 2.3 -0.3
v 0.1 2 -0.2
v 0.1 2 -0.3
v 0.1 2.1 -0.1
v 0.1 2.1 -0.2
v 0.1 2.1 -0.3
v 0.1 2.1 -0.4
v 0.1 2.2 0
v 0.1 2.2 -0.1
v 0.1 2.2 -0.2
v 0.1 2.2 -0.3
v 0.1 2.2 -0.4
v 0.1 2.2 -0.5
v 0.1 2.3 0
v 0.1 2.3 -0.1
v 0.1 2.3 -0.2
v 0.1 2.3 -0.3
v 0.1 2.3 -0.4
v 0.1 2.3 -0.5
v 0.1 2.4 -0.1
v 0.1 2.4 -0.2
v 0.1 2.4 -0.3
v 0.1 2.4 -0.4
v 0.1 2.5 -0.2
v 0.1 2.5 -0.3
v 0.6 2 -0.2
v 0.6 2 -0.3
v 0.6 2.1 -0.2
v 0.6 2.1 -0.3
v 0.7 2.2 0
v 0.7 2.2 -0.1
v 0.7 2.2 -0.4
v 0.7 2.2 -0.5
v 0.7 2.3 0
v 0.7 2.3 -0.1
v 0.7 2.3 -0.4
v 0.7 2.3 -0.5
v 1 2.4 -0.2
v 1 2.4 -0.3
v 1 2.5 -0.2
v 1 2.5 -0.3
v 1.4 2.2 -0.2
v 1.4 2.2 -0.3
v 1.4 2.3 -0.2
v 1.4 2.3 -0.3
v 1.5 2.1 -0.1
v 1.5 2.1 -0.4
v 1.5 2.2 -0.2
v 1.5 2.2 -0.3
v 1.5 2.3 -0.2
v 1.5 2.3 -0.3
v 1.5 2.4 -0.1
v 1.5 2.4 -0.4
v 0.1 2.2 0
v 0.1 2.3 0
v 0.7 2.2 0
v 0.7 2.3 0
v 0.1 2.1 -0.1
v 0.1 2.2 -0.1
v 0.1 2.3 -0.1
v 0.1 2.4 -0.1
v 0.7 2.2 -0.1
v 0.7 2.3 -0.1
v 1.5 2.1 -0.1
v 1.5 2.4 -0.1
v 0 2.2 -0.2
v 0 2.3 -0.2
v 0.1 2 -0.2
v 0.1 2.1 -0.2
v 0.1 2.2 -0.2
v 0.1 2.3 -0.2
v 0.1 2.4 -0.2
v 0.1 2.5 -0.2
v 0.6 2 -0.2
v 0.6 2.1 -0.2
v 1 2.4 -0.2
v 1 2.5 -0.2
v 1.4 2.2 -0.3
v 1.4 2.3 -0.3
v 1.5 2.2 -0.3
v 1.5 2.3 -0.3
v 1.4 2.2 -0.2
v 1.4 2.3 -0.2
v 1.5 2.2 -0.2
v 1.5 2.3 -0.2
v 0 2.2 -0.3
v 0 2.3 -0.3
v 0.1 2 -0.3
v 0.1 2.1 -0.3
v 0.1 2.2 -0.3
v 0.1 2.3 -0.3
v 0.1 2.4 -0.3
v 0.1 2.5 -0.3
v 0.6 2 -0.3
v 0.6 2.1 -0.3
v 1 2.4 -0.3
v 1 2.5 -0.3
v 0.1 2.1 -0.4
v 0.1 2.2 -0.4
v 0.1 2.3 -0.4
v 0.1 2.4 -0.4
v 0.7 2.2 -0.4
v 0.7 2.3 -0.4
v 1.5 2.1 -0.4
v 1.5 2.4 -0.4
v 0.1 2.2 -0.5
v 0.1 2.3 -0.5
v 0.7 2.2 -0.5
v 0.7 2.3 -0.5
v 0.1 2 -0.2
v 0.6 2 -0.2
v 0.1 2 -0.3
v 0.6 2 -0.3
v 0.1 2.1 -0.1
v 1.5 2.1 -0.1
v 0.1 2.1 -0.2
v 0.6 2.1 -0.2
v 0.1 2.1 -0.3
v 0.6 2.1 -0.3
v 0.1 2.1 -0.4
v 1.5 2.1 -0.4
v 0.1 2.2 0
v 0.7 2.2 0
v 0.1 2.2 -0.1
v 0.7 2.2 -0.1
v 0 2.2 -0.2
v 0.1 2.2 -0.2
v 0 2.2 -0.3
v 0.1 2.2 -0.3
v 0.1 2.2 -0.4
v 0.7 2.2 -0.4
v 0.1 2.2 -0.5
v 0.7 2.2 -0.5
v 1.4 2.3 -0.2
v 1.5 2.3 -0.2
v 1.4 2.3 -0.3
v 1.5 2.3 -0.3
v 1.4 2.2 -0.2
v 1.5 2.2 -0.2
v 1.4 2.2 -0.3
v 1.5 2.2 -0.3
v 0.1 2.3 0
v 0.7 2.3 0
v 0.1 2.3 -0.1
v 0.7 2.3 -0.1
v 0 2.3 -0.2
v 0.1 2.3 -0.2
v 0 2.3 -0.3
v 0.1 2.3 -0.3
v 0.1 2.3 -0.4
v 0.7 2.3 -0.4
v 0.1 2.3 -0.5
v 0.7 2.3 -0.5
v 0.1 2.4 -0.1
v 1.5 2.4 -0.1
v 0.1 2.4 -0.2
v 1 2.4 -0.2
v 0.1 2.4 -0.3
v 1 2.4 -0.3
v 0.1 2.4 -0.4
v 1.5 2.4 -0.4
v 0.1 2.5 -0.2
v 1 2.5 -0.2
v 0.1 2.5 -0.3
v 1 2.5 -0.3

# faces
f 3/3/1 2/3/1 1/3/1
f 4/3/1 2/3/1 3/3/1
f 8/1/1 6/1/1 5/1/1
f 9/1/1 6/1/1 8/1/1
f 12/2/1 8/2/1 7/2/1
f 12/2/1 10/2/1 9/2/1
f 12/2/1 9/2/1 8/2/1
f 13/2/1 10/2/1 12/2/1
f 14/2/1 10/2/1 13/2/1
f 15/2/1 10/2/1 14/2/1
f 17/1/1 12/1/1 11/1/1
f 18/2/1 13/2/1 12/2/1
f 18/1/1 12/1/1 17/1/1
f 19/2/1 13/2/1 18/2/1
f 20/2/1 15/2/1 14/2/1
f 21/1/1 16/1/1 15/1/1
f 21/2/1 15/2/1 20/2/1
f 22/1/1 16/1/1 21/1/1
f 23/2/1 20/2/1 19/2/1
f 23/2/1 19/2/1 18/2/1
f 23/2/1 21/2/1 20/2/1
f 24/2/1 21/2/1 23/2/1
f 25/2/1 21/2/1 24/2/1
f 26/2/1 21/2/1 25/2/1
f 27/1/1 25/1/1 24/1/1
f 28/1/1 25/1/1 27/1/1
f 29/1/2 30/1/2 31/1/2
f 31/1/2 30/1/2 32/1/2
f 33/1/2 34/1/2 37/1/2
f 37/1/2 34/1/2 38/1/2
f 35/1/2 36/1/2 39/1/2
f 39/1/2 36/1/2 40/1/2
f 41/1/2 42/1/2 43/1/2
f 43/1/2 42/1/2 44/1/2
f 45/2/2 46/2/2 47/2/2
f 47/2/2 46/2/2 48/2/2
f 49/2/2 50/2/2 51/2/2
f 51/2/2 50/2/2 52/2/2
f 49/2/2 51/2/2 53/2/2
f 52/2/2 50/2/2 54/2/2
f 49/2/2 53/2/2 55/2/2
f 53/2/2 54/2/2 55/2/2
f 54/2/2 50/2/2 56/2/2
f 55/2/2 54/2/2 56/2/2
f 59/1/3 58/1/3 57/1/3
f 60/1/3 58/1/3 59/1/3
f 65/2/3 62/2/3 61/2/3
f 66/2/3 64/2/3 63/2/3
f 67/2/3 65/2/3 61/2/3
f 67/2/3 66/2/3 65/2/3
f 68/2/3 64/2/3 66/2/3
f 68/2/3 66/2/3 67/2/3
f 73/3/3 70/3/3 69/3/3
f 74/3/3 70/3/3 73/3/3
f 77/1/3 72/1/3 71/1/3
f 78/1/3 72/1/3 77/1/3
f 79/1/3 76/1/3 75/1/3
f 80/1/3 76/1/3 79/1/3
f 83/2/3 82/2/3 81/2/3
f 84/2/3 82/2/3 83/2/3
f 85/2/4 86/2/4 87/2/4
f 87/2/4 86/2/4 88/2/4
f 89/3/4 90/3/4 93/3/4
f 93/3/4 90/3/4 94/3/4
f 91/1/4 92/1/4 97/1/4
f 97/1/4 92/1/4 98/1/4
f 95/1/4 96/1/4 99/1/4
f 99/1/4 96/1/4 100/1/4
f 101/2/4 102/2/4 105/2/4
f 103/2/4 104/2/4 106/2/4
f 101/2/4 105/2/4 107/2/4
f 105/2/4 106/2/4 107/2/4
f 106/2/4 104/2/4 108/2/4
f 107/2/4 106/2/4 108/2/4
f 109/1/4 110/1/4 111/1/4
f 111/1/4 110/1/4 112/1/4
f 115/1/5 114/1/5 113/1/5
f 116/1/5 114/1/5 115/1/5
f 119/2/5 118/2/5 117/2/5
f 120/2/5 118/2/5 119/2/5
f 122/2/5 118/2/5 120/2/5
f 123/2/5 122/2/5 121/2/5
f 124/2/5 118/2/5 122/2/5
f 124/2/5 122/2/5 123/2/5
f 127/1/5 126/1/5 125/1/5
f 128/1/5 126/1/5 127/1/5
f 131/3/5 130/3/5 129/3/5
f 132/3/5 130/3/5 131/3/5
f 135/1/5 134/1/5 133/1/5
f 136/1/5 134/1/5 135/1/5
f 139/2/5 138/2/5 137/2/5
f 140/2/5 138/2/5 139/2/5
f 141/2/6 142/2/6 143/2/6
f 143/2/6 142/2/6 144/2/6
f 145/1/6 146/1/6 147/1/6
f 147/1/6 146/1/6 148/1/6
f 149/3/6 150/3/6 151/3/6
f 151/3/6 150/3/6 152/3/6
f 153/1/6 154/1/6 155/1/6
f 155/1/6 154/1/6 156/1/6
f 157/2/6 158/2/6 159/2/6
f 159/2/6 158/2/6 160/2/6
f 160/2/6 158/2/6 162/2/6
f 161/2/6 162/2/6 163/2/6
f 162/2/6 158/2/6 164/2/6
f 163/2/6 162/2/6 164/2/6
f 165/1/6 166/1/6 167/1/6
f 167/1/6 166/1/6 168/1/6
