# MagicaVoxel @ Ephtracy

# group
o 

# material
mtllib WeaponMagazine#1.mtl
usemtl palette

# normals
vn -1 0 0
vn 1 0 0
vn 0 0 1
vn 0 0 -1
vn 0 -1 0
vn 0 1 0

# texcoords
vt 0.974609 0.5
vt 0.978516 0.5
vt 0.982422 0.5
vt 0.990234 0.5
vt 0.994141 0.5

# verts
v 0 2.7 -0.4
v 0 2.7 -0.5
v 0 2.8 -0.4
v 0 2.8 -0.5
v 0.1 2.4 -0.1
v 0.1 2.4 -0.8
v 0.1 2.6 -0.3
v 0.1 2.6 -0.6
v 0.1 2.7 -0.4
v 0.1 2.7 -0.5
v 0.1 2.8 -0.4
v 0.1 2.8 -0.5
v 0.1 2.9 -0.3
v 0.1 2.9 -0.6
v 0.1 3.1 -0.1
v 0.1 3.1 -0.8
v 0.2 2.4 0
v 0.2 2.4 -0.1
v 0.2 2.4 -0.8
v 0.2 2.4 -0.9
v 0.2 2.6 0
v 0.2 2.6 -0.1
v 0.2 2.6 -0.8
v 0.2 2.6 -0.9
v 0.2 3.1 0
v 0.2 3.1 -0.1
v 0.2 3.1 -0.3
v 0.2 3.1 -0.6
v 0.2 3.1 -0.8
v 0.2 3.1 -0.9
v 0.2 3.3 -0.3
v 0.2 3.3 -0.6
v 0.3 2.1 -0.1
v 0.3 2.1 -0.8
v 0.3 2.4 -0.1
v 0.3 2.4 -0.8
v 0.6 2.6 0
v 0.6 2.6 -0.1
v 0.6 2.6 -0.8
v 0.6 2.6 -0.9
v 0.6 2.9 0
v 0.6 2.9 -0.1
v 0.6 2.9 -0.8
v 0.6 2.9 -0.9
v 0.3 2.6 0
v 0.3 2.6 -0.1
v 0.3 2.6 -0.8
v 0.3 2.6 -0.9
v 0.3 2.9 0
v 0.3 2.9 -0.1
v 0.3 2.9 -0.8
v 0.3 2.9 -0.9
v 0.7 2.1 -0.1
v 0.7 2.1 -0.8
v 0.7 2.4 -0.1
v 0.7 2.4 -0.3
v 0.7 2.4 -0.6
v 0.7 2.4 -0.8
v 0.7 2.6 -0.2
v 0.7 2.6 -0.3
v 0.7 2.6 -0.6
v 0.7 2.6 -0.7
v 0.7 2.8 -0.3
v 0.7 2.8 -0.6
v 0.7 2.9 -0.2
v 0.7 2.9 -0.3
v 0.7 2.9 -0.6
v 0.7 2.9 -0.7
v 0.8 2.4 0
v 0.8 2.4 -0.3
v 0.8 2.4 -0.6
v 0.8 2.4 -0.9
v 0.8 2.6 0
v 0.8 2.6 -0.1
v 0.8 2.6 -0.2
v 0.8 2.6 -0.3
v 0.8 2.6 -0.6
v 0.8 2.6 -0.7
v 0.8 2.6 -0.8
v 0.8 2.6 -0.9
v 0.8 2.8 -0.3
v 0.8 2.8 -0.6
v 0.8 2.9 -0.1
v 0.8 2.9 -0.2
v 0.8 2.9 -0.3
v 0.8 2.9 -0.6
v 0.8 2.9 -0.7
v 0.8 2.9 -0.8
v 0.8 3.1 0
v 0.8 3.1 -0.3
v 0.8 3.1 -0.6
v 0.8 3.1 -0.9
v 0.8 3.3 -0.3
v 0.8 3.3 -0.6
v 0.2 2.4 0
v 0.2 2.6 0
v 0.2 3.1 0
v 0.3 2.6 0
v 0.3 2.9 0
v 0.6 2.6 0
v 0.6 2.9 0
v 0.7 2.6 0
v 0.7 2.9 0
v 0.8 2.4 0
v 0.8 2.6 0
v 0.8 3.1 0
v 0.1 2.4 -0.1
v 0.1 3.1 -0.1
v 0.2 2.4 -0.1
v 0.2 2.6 -0.1
v 0.2 3.1 -0.1
v 0.3 2.1 -0.1
v 0.3 2.4 -0.1
v 0.3 2.6 -0.1
v 0.3 2.9 -0.1
v 0.6 2.6 -0.1
v 0.6 2.9 -0.1
v 0.7 2.1 -0.1
v 0.7 2.4 -0.1
v 0.2 3.1 -0.3
v 0.2 3.3 -0.3
v 0.3 3.1 -0.3
v 0.3 3.2 -0.3
v 0.7 2.8 -0.3
v 0.7 2.9 -0.3
v 0.7 3.1 -0.3
v 0.7 3.2 -0.3
v 0.8 2.8 -0.3
v 0.8 2.9 -0.3
v 0.8 3.1 -0.3
v 0.8 3.3 -0.3
v 0 2.7 -0.4
v 0 2.8 -0.4
v 0.1 2.7 -0.4
v 0.1 2.8 -0.4
v 0.7 2.6 -0.7
v 0.7 2.9 -0.7
v 0.8 2.6 -0.7
v 0.8 2.9 -0.7
v 0.7 2.6 -0.2
v 0.7 2.9 -0.2
v 0.8 2.6 -0.2
v 0.8 2.9 -0.2
v 0 2.7 -0.5
v 0 2.8 -0.5
v 0.1 2.7 -0.5
v 0.1 2.8 -0.5
v 0.2 3.1 -0.6
v 0.2 3.3 -0.6
v 0.3 3.1 -0.6
v 0.3 3.2 -0.6
v 0.7 2.8 -0.6
v 0.7 2.9 -0.6
v 0.7 3.1 -0.6
v 0.7 3.2 -0.6
v 0.8 2.8 -0.6
v 0.8 2.9 -0.6
v 0.8 3.1 -0.6
v 0.8 3.3 -0.6
v 0.1 2.4 -0.8
v 0.1 3.1 -0.8
v 0.2 2.4 -0.8
v 0.2 2.6 -0.8
v 0.2 3.1 -0.8
v 0.3 2.1 -0.8
v 0.3 2.4 -0.8
v 0.3 2.6 -0.8
v 0.3 2.9 -0.8
v 0.6 2.6 -0.8
v 0.6 2.9 -0.8
v 0.7 2.1 -0.8
v 0.7 2.4 -0.8
v 0.2 2.4 -0.9
v 0.2 2.6 -0.9
v 0.2 3.1 -0.9
v 0.3 2.6 -0.9
v 0.3 2.9 -0.9
v 0.6 2.6 -0.9
v 0.6 2.9 -0.9
v 0.7 2.6 -0.9
v 0.7 2.9 -0.9
v 0.8 2.4 -0.9
v 0.8 2.6 -0.9
v 0.8 3.1 -0.9
v 0.3 2.1 -0.1
v 0.7 2.1 -0.1
v 0.3 2.1 -0.8
v 0.7 2.1 -0.8
v 0.2 2.4 0
v 0.8 2.4 0
v 0.1 2.4 -0.1
v 0.2 2.4 -0.1
v 0.3 2.4 -0.1
v 0.7 2.4 -0.1
v 0.7 2.4 -0.3
v 0.8 2.4 -0.3
v 0.7 2.4 -0.6
v 0.8 2.4 -0.6
v 0.1 2.4 -0.8
v 0.2 2.4 -0.8
v 0.3 2.4 -0.8
v 0.7 2.4 -0.8
v 0.2 2.4 -0.9
v 0.8 2.4 -0.9
v 0 2.7 -0.4
v 0.1 2.7 -0.4
v 0 2.7 -0.5
v 0.1 2.7 -0.5
v 0.7 2.8 -0.3
v 0.8 2.8 -0.3
v 0.7 2.8 -0.6
v 0.8 2.8 -0.6
v 0.3 2.9 0
v 0.6 2.9 0
v 0.3 2.9 -0.1
v 0.6 2.9 -0.1
v 0.7 2.9 -0.2
v 0.8 2.9 -0.2
v 0.7 2.9 -0.3
v 0.8 2.9 -0.3
v 0.7 2.9 -0.6
v 0.8 2.9 -0.6
v 0.7 2.9 -0.7
v 0.8 2.9 -0.7
v 0.3 2.9 -0.8
v 0.6 2.9 -0.8
v 0.3 2.9 -0.9
v 0.6 2.9 -0.9
v 0.3 2.6 0
v 0.6 2.6 0
v 0.3 2.6 -0.1
v 0.6 2.6 -0.1
v 0.7 2.6 -0.2
v 0.8 2.6 -0.2
v 0.7 2.6 -0.3
v 0.8 2.6 -0.3
v 0.7 2.6 -0.6
v 0.8 2.6 -0.6
v 0.7 2.6 -0.7
v 0.8 2.6 -0.7
v 0.3 2.6 -0.8
v 0.6 2.6 -0.8
v 0.3 2.6 -0.9
v 0.6 2.6 -0.9
v 0 2.8 -0.4
v 0.1 2.8 -0.4
v 0 2.8 -0.5
v 0.1 2.8 -0.5
v 0.2 3.1 0
v 0.8 3.1 0
v 0.1 3.1 -0.1
v 0.2 3.1 -0.1
v 0.3 3.1 -0.1
v 0.7 3.1 -0.1
v 0.2 3.1 -0.3
v 0.3 3.1 -0.3
v 0.7 3.1 -0.3
v 0.8 3.1 -0.3
v 0.2 3.1 -0.6
v 0.3 3.1 -0.6
v 0.7 3.1 -0.6
v 0.8 3.1 -0.6
v 0.1 3.1 -0.8
v 0.2 3.1 -0.8
v 0.3 3.1 -0.8
v 0.7 3.1 -0.8
v 0.2 3.1 -0.9
v 0.8 3.1 -0.9
v 0.2 3.3 -0.3
v 0.8 3.3 -0.3
v 0.2 3.3 -0.6
v 0.8 3.3 -0.6

# faces
f 3/4/1 2/4/1 1/4/1
f 4/4/1 2/4/1 3/4/1
f 7/1/1 6/1/1 5/1/1
f 8/1/1 6/1/1 7/1/1
f 9/4/1 8/4/1 7/4/1
f 10/4/1 8/4/1 9/4/1
f 11/4/1 9/4/1 7/4/1
f 12/4/1 8/4/1 10/4/1
f 13/1/1 7/1/1 5/1/1
f 13/4/1 12/4/1 11/4/1
f 13/4/1 11/4/1 7/4/1
f 14/4/1 8/4/1 12/4/1
f 14/4/1 12/4/1 13/4/1
f 14/1/1 6/1/1 8/1/1
f 15/1/1 13/1/1 5/1/1
f 15/1/1 14/1/1 13/1/1
f 16/1/1 6/1/1 14/1/1
f 16/1/1 14/1/1 15/1/1
f 21/3/1 18/3/1 17/3/1
f 22/3/1 18/3/1 21/3/1
f 23/3/1 20/3/1 19/3/1
f 24/3/1 20/3/1 23/3/1
f 25/2/1 22/2/1 21/2/1
f 26/2/1 22/2/1 25/2/1
f 29/2/1 24/2/1 23/2/1
f 30/2/1 24/2/1 29/2/1
f 31/2/1 28/2/1 27/2/1
f 32/2/1 28/2/1 31/2/1
f 35/5/1 34/5/1 33/5/1
f 36/5/1 34/5/1 35/5/1
f 41/3/1 38/3/1 37/3/1
f 42/3/1 38/3/1 41/3/1
f 43/3/1 40/3/1 39/3/1
f 44/3/1 40/3/1 43/3/1
f 45/2/2 46/2/2 49/2/2
f 49/2/2 46/2/2 50/2/2
f 47/2/2 48/2/2 51/2/2
f 51/2/2 48/2/2 52/2/2
f 53/5/2 54/5/2 55/5/2
f 55/5/2 54/5/2 56/5/2
f 56/5/2 54/5/2 57/5/2
f 57/5/2 54/5/2 58/5/2
f 59/5/2 60/5/2 63/5/2
f 61/5/2 62/5/2 63/5/2
f 60/5/2 61/5/2 63/5/2
f 63/5/2 62/5/2 64/5/2
f 59/5/2 63/5/2 65/5/2
f 65/5/2 63/5/2 66/5/2
f 64/5/2 62/5/2 67/5/2
f 67/5/2 62/5/2 68/5/2
f 69/3/2 70/3/2 73/3/2
f 73/3/2 70/3/2 74/3/2
f 74/3/2 70/3/2 75/3/2
f 70/2/2 71/2/2 76/2/2
f 75/3/2 70/3/2 76/3/2
f 71/3/2 72/3/2 77/3/2
f 76/2/2 71/2/2 77/2/2
f 77/3/2 72/3/2 78/3/2
f 78/3/2 72/3/2 79/3/2
f 79/3/2 72/3/2 80/3/2
f 74/3/2 75/3/2 83/3/2
f 73/2/2 74/2/2 83/2/2
f 83/3/2 75/3/2 84/3/2
f 81/2/2 82/2/2 85/2/2
f 85/2/2 82/2/2 86/2/2
f 78/3/2 79/3/2 87/3/2
f 79/2/2 80/2/2 88/2/2
f 87/3/2 79/3/2 88/3/2
f 83/2/2 84/2/2 89/2/2
f 85/2/2 86/2/2 89/2/2
f 87/2/2 88/2/2 89/2/2
f 86/2/2 87/2/2 89/2/2
f 84/2/2 85/2/2 89/2/2
f 73/2/2 83/2/2 89/2/2
f 89/2/2 88/2/2 90/2/2
f 90/2/2 88/2/2 91/2/2
f 88/2/2 80/2/2 92/2/2
f 91/2/2 88/2/2 92/2/2
f 90/2/2 91/2/2 93/2/2
f 93/2/2 91/2/2 94/2/2
f 98/3/3 96/3/3 95/3/3
f 98/2/3 97/2/3 96/2/3
f 99/2/3 97/2/3 98/2/3
f 100/3/3 98/3/3 95/3/3
f 101/2/3 97/2/3 99/2/3
f 102/3/3 100/3/3 95/3/3
f 102/3/3 101/3/3 100/3/3
f 103/2/3 97/2/3 101/2/3
f 103/3/3 101/3/3 102/3/3
f 104/3/3 102/3/3 95/3/3
f 105/2/3 103/2/3 102/2/3
f 105/3/3 102/3/3 104/3/3
f 106/2/3 97/2/3 103/2/3
f 106/2/3 103/2/3 105/2/3
f 109/1/3 108/1/3 107/1/3
f 110/1/3 108/1/3 109/1/3
f 111/1/3 108/1/3 110/1/3
f 116/5/3 115/5/3 114/5/3
f 117/5/3 115/5/3 116/5/3
f 118/5/3 113/5/3 112/5/3
f 119/5/3 113/5/3 118/5/3
f 122/2/3 121/2/3 120/2/3
f 123/2/3 121/2/3 122/2/3
f 126/5/3 123/5/3 122/5/3
f 127/2/3 121/2/3 123/2/3
f 127/5/3 123/5/3 126/5/3
f 128/2/3 125/2/3 124/2/3
f 129/2/3 125/2/3 128/2/3
f 130/2/3 127/2/3 126/2/3
f 131/2/3 121/2/3 127/2/3
f 131/2/3 127/2/3 130/2/3
f 134/4/3 133/4/3 132/4/3
f 135/4/3 133/4/3 134/4/3
f 138/3/3 137/3/3 136/3/3
f 139/3/3 137/3/3 138/3/3
f 140/3/4 141/3/4 142/3/4
f 142/3/4 141/3/4 143/3/4
f 144/4/4 145/4/4 146/4/4
f 146/4/4 145/4/4 147/4/4
f 148/2/4 149/2/4 150/2/4
f 150/2/4 149/2/4 151/2/4
f 150/5/4 151/5/4 154/5/4
f 151/2/4 149/2/4 155/2/4
f 154/5/4 151/5/4 155/5/4
f 152/2/4 153/2/4 156/2/4
f 156/2/4 153/2/4 157/2/4
f 154/2/4 155/2/4 158/2/4
f 155/2/4 149/2/4 159/2/4
f 158/2/4 155/2/4 159/2/4
f 160/1/4 161/1/4 162/1/4
f 162/1/4 161/1/4 163/1/4
f 163/1/4 161/1/4 164/1/4
f 167/5/4 168/5/4 169/5/4
f 169/5/4 168/5/4 170/5/4
f 165/5/4 166/5/4 171/5/4
f 171/5/4 166/5/4 172/5/4
f 173/3/4 174/3/4 176/3/4
f 174/2/4 175/2/4 176/2/4
f 176/2/4 175/2/4 177/2/4
f 173/3/4 176/3/4 178/3/4
f 177/2/4 175/2/4 179/2/4
f 173/3/4 178/3/4 180/3/4
f 178/3/4 179/3/4 180/3/4
f 179/2/4 175/2/4 181/2/4
f 180/3/4 179/3/4 181/3/4
f 173/3/4 180/3/4 182/3/4
f 180/2/4 181/2/4 183/2/4
f 182/3/4 180/3/4 183/3/4
f 181/2/4 175/2/4 184/2/4
f 183/2/4 181/2/4 184/2/4
f 187/5/5 186/5/5 185/5/5
f 188/5/5 186/5/5 187/5/5
f 192/3/5 190/3/5 189/3/5
f 193/3/5 190/3/5 192/3/5
f 194/3/5 190/3/5 193/3/5
f 195/3/5 190/3/5 194/3/5
f 196/3/5 190/3/5 195/3/5
f 197/2/5 196/2/5 195/2/5
f 198/2/5 196/2/5 197/2/5
f 199/1/5 192/1/5 191/1/5
f 200/3/5 193/3/5 192/3/5
f 200/1/5 192/1/5 199/1/5
f 201/3/5 193/3/5 200/3/5
f 202/3/5 198/3/5 197/3/5
f 203/3/5 201/3/5 200/3/5
f 203/3/5 202/3/5 201/3/5
f 204/3/5 198/3/5 202/3/5
f 204/3/5 202/3/5 203/3/5
f 207/4/5 206/4/5 205/4/5
f 208/4/5 206/4/5 207/4/5
f 211/2/5 210/2/5 209/2/5
f 212/2/5 210/2/5 211/2/5
f 215/2/5 214/2/5 213/2/5
f 216/2/5 214/2/5 215/2/5
f 219/2/5 218/2/5 217/2/5
f 220/2/5 218/2/5 219/2/5
f 223/2/5 222/2/5 221/2/5
f 224/2/5 222/2/5 223/2/5
f 227/2/5 226/2/5 225/2/5
f 228/2/5 226/2/5 227/2/5
f 229/3/6 230/3/6 231/3/6
f 231/3/6 230/3/6 232/3/6
f 233/3/6 234/3/6 235/3/6
f 235/3/6 234/3/6 236/3/6
f 235/2/6 236/2/6 237/2/6
f 237/2/6 236/2/6 238/2/6
f 237/3/6 238/3/6 239/3/6
f 239/3/6 238/3/6 240/3/6
f 241/3/6 242/3/6 243/3/6
f 243/3/6 242/3/6 244/3/6
f 245/4/6 246/4/6 247/4/6
f 247/4/6 246/4/6 248/4/6
f 249/2/6 250/2/6 252/2/6
f 252/2/6 250/2/6 253/2/6
f 253/2/6 250/2/6 254/2/6
f 251/1/6 252/1/6 255/1/6
f 252/2/6 253/2/6 255/2/6
f 253/5/6 254/5/6 256/5/6
f 255/2/6 253/2/6 256/2/6
f 254/2/6 250/2/6 257/2/6
f 256/5/6 254/5/6 257/5/6
f 257/2/6 250/2/6 258/2/6
f 251/1/6 255/1/6 259/1/6
f 251/1/6 259/1/6 263/1/6
f 259/2/6 260/2/6 264/2/6
f 263/1/6 259/1/6 264/1/6
f 260/5/6 261/5/6 265/5/6
f 264/2/6 260/2/6 265/2/6
f 261/2/6 262/2/6 266/2/6
f 265/5/6 261/5/6 266/5/6
f 264/2/6 265/2/6 267/2/6
f 265/2/6 266/2/6 267/2/6
f 266/2/6 262/2/6 268/2/6
f 267/2/6 266/2/6 268/2/6
f 269/2/6 270/2/6 271/2/6
f 271/2/6 270/2/6 272/2/6
