# MagicaVoxel @ Ephtracy

# group
o 

# material
mtllib WeaponMagazine#3.mtl
usemtl palette

# normals
vn -1 0 0
vn 1 0 0
vn 0 0 1
vn 0 0 -1
vn 0 -1 0
vn 0 1 0

# texcoords
vt 0.974609 0.5
vt 0.982422 0.5
vt 0.986328 0.5
vt 0.990234 0.5
vt 0.994141 0.5

# verts
v 0 2.6 -0.4
v 0 2.6 -0.5
v 0 2.7 -0.4
v 0 2.7 -0.5
v 0.1 2.3 -0.1
v 0.1 2.3 -0.8
v 0.1 2.5 -0.3
v 0.1 2.5 -0.6
v 0.1 2.6 -0.4
v 0.1 2.6 -0.5
v 0.1 2.7 -0.4
v 0.1 2.7 -0.5
v 0.1 2.8 -0.3
v 0.1 2.8 -0.6
v 0.1 3 -0.1
v 0.1 3 -0.8
v 0.2 2 -0.3
v 0.2 2 -0.6
v 0.2 2.2 0
v 0.2 2.2 -0.3
v 0.2 2.2 -0.6
v 0.2 2.2 -0.9
v 0.2 2.3 -0.1
v 0.2 2.3 -0.8
v 0.2 3 -0.1
v 0.2 3 -0.8
v 0.2 3.1 0
v 0.2 3.1 -0.3
v 0.2 3.1 -0.6
v 0.2 3.1 -0.9
v 0.2 3.3 -0.3
v 0.2 3.3 -0.6
v 0.3 2.1 -0.1
v 0.3 2.1 -0.3
v 0.3 2.1 -0.6
v 0.3 2.1 -0.8
v 0.3 2.2 -0.1
v 0.3 2.2 -0.3
v 0.3 2.2 -0.6
v 0.3 2.2 -0.8
v 0.3 3.1 -0.1
v 0.3 3.1 -0.3
v 0.3 3.1 -0.6
v 0.3 3.1 -0.8
v 0.3 3.2 -0.1
v 0.3 3.2 -0.3
v 0.3 3.2 -0.6
v 0.3 3.2 -0.8
v 0.3 2.4 0
v 0.3 2.4 -0.1
v 0.3 2.4 -0.8
v 0.3 2.4 -0.9
v 0.3 2.9 0
v 0.3 2.9 -0.1
v 0.3 2.9 -0.8
v 0.3 2.9 -0.9
v 0.7 2.1 -0.1
v 0.7 2.1 -0.3
v 0.7 2.1 -0.6
v 0.7 2.1 -0.8
v 0.7 2.2 -0.1
v 0.7 2.2 -0.3
v 0.7 2.2 -0.6
v 0.7 2.2 -0.8
v 0.7 2.4 -0.1
v 0.7 2.4 -0.3
v 0.7 2.4 -0.6
v 0.7 2.4 -0.8
v 0.7 2.9 -0.1
v 0.7 2.9 -0.3
v 0.7 2.9 -0.6
v 0.7 2.9 -0.8
v 0.7 3.1 -0.1
v 0.7 3.1 -0.3
v 0.7 3.1 -0.6
v 0.7 3.1 -0.8
v 0.7 3.2 -0.1
v 0.7 3.2 -0.3
v 0.7 3.2 -0.6
v 0.7 3.2 -0.8
v 0.8 2 -0.3
v 0.8 2 -0.6
v 0.8 2.2 0
v 0.8 2.2 -0.3
v 0.8 2.2 -0.6
v 0.8 2.2 -0.9
v 0.8 2.4 0
v 0.8 2.4 -0.3
v 0.8 2.4 -0.6
v 0.8 2.4 -0.9
v 0.8 2.9 0
v 0.8 2.9 -0.3
v 0.8 2.9 -0.6
v 0.8 2.9 -0.9
v 0.8 3.1 0
v 0.8 3.1 -0.3
v 0.8 3.1 -0.6
v 0.8 3.1 -0.9
v 0.8 3.3 -0.3
v 0.8 3.3 -0.6
v 0.2 2.2 0
v 0.2 3.1 0
v 0.3 2.4 0
v 0.3 2.9 0
v 0.8 2.2 0
v 0.8 2.4 0
v 0.8 2.9 0
v 0.8 3.1 0
v 0.1 2.3 -0.1
v 0.1 3 -0.1
v 0.2 2.3 -0.1
v 0.2 3 -0.1
v 0.3 2.1 -0.1
v 0.3 2.2 -0.1
v 0.3 2.4 -0.1
v 0.3 2.9 -0.1
v 0.3 3.1 -0.1
v 0.3 3.2 -0.1
v 0.7 2.1 -0.1
v 0.7 2.2 -0.1
v 0.7 2.4 -0.1
v 0.7 2.9 -0.1
v 0.7 3.1 -0.1
v 0.7 3.2 -0.1
v 0.2 2 -0.3
v 0.2 2.2 -0.3
v 0.2 3.1 -0.3
v 0.2 3.3 -0.3
v 0.3 2.1 -0.3
v 0.3 2.2 -0.3
v 0.3 3.1 -0.3
v 0.3 3.2 -0.3
v 0.7 2.1 -0.3
v 0.7 2.2 -0.3
v 0.7 2.4 -0.3
v 0.7 2.9 -0.3
v 0.7 3.1 -0.3
v 0.7 3.2 -0.3
v 0.8 2 -0.3
v 0.8 2.2 -0.3
v 0.8 2.4 -0.3
v 0.8 2.9 -0.3
v 0.8 3.1 -0.3
v 0.8 3.3 -0.3
v 0 2.6 -0.4
v 0 2.7 -0.4
v 0.1 2.6 -0.4
v 0.1 2.7 -0.4
v 0 2.6 -0.5
v 0 2.7 -0.5
v 0.1 2.6 -0.5
v 0.1 2.7 -0.5
v 0.2 2 -0.6
v 0.2 2.2 -0.6
v 0.2 3.1 -0.6
v 0.2 3.3 -0.6
v 0.3 2.1 -0.6
v 0.3 2.2 -0.6
v 0.3 3.1 -0.6
v 0.3 3.2 -0.6
v 0.7 2.1 -0.6
v 0.7 2.2 -0.6
v 0.7 2.4 -0.6
v 0.7 2.9 -0.6
v 0.7 3.1 -0.6
v 0.7 3.2 -0.6
v 0.8 2 -0.6
v 0.8 2.2 -0.6
v 0.8 2.4 -0.6
v 0.8 2.9 -0.6
v 0.8 3.1 -0.6
v 0.8 3.3 -0.6
v 0.1 2.3 -0.8
v 0.1 3 -0.8
v 0.2 2.3 -0.8
v 0.2 3 -0.8
v 0.3 2.1 -0.8
v 0.3 2.2 -0.8
v 0.3 2.4 -0.8
v 0.3 2.9 -0.8
v 0.3 3.1 -0.8
v 0.3 3.2 -0.8
v 0.7 2.1 -0.8
v 0.7 2.2 -0.8
v 0.7 2.4 -0.8
v 0.7 2.9 -0.8
v 0.7 3.1 -0.8
v 0.7 3.2 -0.8
v 0.2 2.2 -0.9
v 0.2 3.1 -0.9
v 0.3 2.4 -0.9
v 0.3 2.9 -0.9
v 0.8 2.2 -0.9
v 0.8 2.4 -0.9
v 0.8 2.9 -0.9
v 0.8 3.1 -0.9
v 0.2 2 -0.3
v 0.8 2 -0.3
v 0.2 2 -0.6
v 0.8 2 -0.6
v 0.3 2.1 -0.1
v 0.7 2.1 -0.1
v 0.3 2.1 -0.3
v 0.7 2.1 -0.3
v 0.3 2.1 -0.6
v 0.7 2.1 -0.6
v 0.3 2.1 -0.8
v 0.7 2.1 -0.8
v 0.2 2.2 0
v 0.8 2.2 0
v 0.3 2.2 -0.1
v 0.7 2.2 -0.1
v 0.2 2.2 -0.3
v 0.3 2.2 -0.3
v 0.7 2.2 -0.3
v 0.8 2.2 -0.3
v 0.2 2.2 -0.6
v 0.3 2.2 -0.6
v 0.7 2.2 -0.6
v 0.8 2.2 -0.6
v 0.3 2.2 -0.8
v 0.7 2.2 -0.8
v 0.2 2.2 -0.9
v 0.8 2.2 -0.9
v 0.1 2.3 -0.1
v 0.2 2.3 -0.1
v 0.1 2.3 -0.8
v 0.2 2.3 -0.8
v 0 2.6 -0.4
v 0.1 2.6 -0.4
v 0 2.6 -0.5
v 0.1 2.6 -0.5
v 0.3 2.9 0
v 0.8 2.9 0
v 0.3 2.9 -0.1
v 0.7 2.9 -0.1
v 0.7 2.9 -0.3
v 0.8 2.9 -0.3
v 0.7 2.9 -0.6
v 0.8 2.9 -0.6
v 0.3 2.9 -0.8
v 0.7 2.9 -0.8
v 0.3 2.9 -0.9
v 0.8 2.9 -0.9
v 0.3 2.4 0
v 0.8 2.4 0
v 0.3 2.4 -0.1
v 0.7 2.4 -0.1
v 0.7 2.4 -0.3
v 0.8 2.4 -0.3
v 0.7 2.4 -0.6
v 0.8 2.4 -0.6
v 0.3 2.4 -0.8
v 0.7 2.4 -0.8
v 0.3 2.4 -0.9
v 0.8 2.4 -0.9
v 0 2.7 -0.4
v 0.1 2.7 -0.4
v 0 2.7 -0.5
v 0.1 2.7 -0.5
v 0.1 3 -0.1
v 0.2 3 -0.1
v 0.1 3 -0.8
v 0.2 3 -0.8
v 0.2 3.1 0
v 0.8 3.1 0
v 0.3 3.1 -0.1
v 0.7 3.1 -0.1
v 0.2 3.1 -0.3
v 0.3 3.1 -0.3
v 0.7 3.1 -0.3
v 0.8 3.1 -0.3
v 0.2 3.1 -0.6
v 0.3 3.1 -0.6
v 0.7 3.1 -0.6
v 0.8 3.1 -0.6
v 0.3 3.1 -0.8
v 0.7 3.1 -0.8
v 0.2 3.1 -0.9
v 0.8 3.1 -0.9
v 0.3 3.2 -0.1
v 0.7 3.2 -0.1
v 0.3 3.2 -0.3
v 0.7 3.2 -0.3
v 0.3 3.2 -0.6
v 0.7 3.2 -0.6
v 0.3 3.2 -0.8
v 0.7 3.2 -0.8
v 0.2 3.3 -0.3
v 0.8 3.3 -0.3
v 0.2 3.3 -0.6
v 0.8 3.3 -0.6

# faces
f 3/4/1 2/4/1 1/4/1
f 4/4/1 2/4/1 3/4/1
f 7/1/1 6/1/1 5/1/1
f 8/1/1 6/1/1 7/1/1
f 9/4/1 8/4/1 7/4/1
f 10/4/1 8/4/1 9/4/1
f 11/4/1 9/4/1 7/4/1
f 12/4/1 8/4/1 10/4/1
f 13/1/1 7/1/1 5/1/1
f 13/4/1 12/4/1 11/4/1
f 13/4/1 11/4/1 7/4/1
f 14/4/1 8/4/1 12/4/1
f 14/4/1 12/4/1 13/4/1
f 14/1/1 6/1/1 8/1/1
f 15/1/1 13/1/1 5/1/1
f 15/1/1 14/1/1 13/1/1
f 16/1/1 6/1/1 14/1/1
f 16/1/1 14/1/1 15/1/1
f 20/3/1 18/3/1 17/3/1
f 21/3/1 18/3/1 20/3/1
f 23/2/1 20/2/1 19/2/1
f 23/2/1 22/2/1 21/2/1
f 23/2/1 21/2/1 20/2/1
f 24/2/1 22/2/1 23/2/1
f 25/2/1 23/2/1 19/2/1
f 26/2/1 22/2/1 24/2/1
f 27/2/1 25/2/1 19/2/1
f 27/2/1 26/2/1 25/2/1
f 28/2/1 26/2/1 27/2/1
f 29/2/1 26/2/1 28/2/1
f 30/2/1 22/2/1 26/2/1
f 30/2/1 26/2/1 29/2/1
f 31/3/1 29/3/1 28/3/1
f 32/3/1 29/3/1 31/3/1
f 37/5/1 34/5/1 33/5/1
f 38/5/1 34/5/1 37/5/1
f 39/5/1 36/5/1 35/5/1
f 40/5/1 36/5/1 39/5/1
f 45/5/1 42/5/1 41/5/1
f 46/5/1 42/5/1 45/5/1
f 47/5/1 44/5/1 43/5/1
f 48/5/1 44/5/1 47/5/1
f 49/2/2 50/2/2 53/2/2
f 53/2/2 50/2/2 54/2/2
f 51/2/2 52/2/2 55/2/2
f 55/2/2 52/2/2 56/2/2
f 57/5/2 58/5/2 61/5/2
f 61/5/2 58/5/2 62/5/2
f 59/5/2 60/5/2 63/5/2
f 63/5/2 60/5/2 64/5/2
f 65/5/2 66/5/2 69/5/2
f 69/5/2 66/5/2 70/5/2
f 67/5/2 68/5/2 71/5/2
f 71/5/2 68/5/2 72/5/2
f 73/5/2 74/5/2 77/5/2
f 77/5/2 74/5/2 78/5/2
f 75/5/2 76/5/2 79/5/2
f 79/5/2 76/5/2 80/5/2
f 81/3/2 82/3/2 84/3/2
f 84/3/2 82/3/2 85/3/2
f 83/2/2 84/2/2 87/2/2
f 85/2/2 86/2/2 87/2/2
f 84/2/2 85/2/2 87/2/2
f 87/2/2 86/2/2 88/2/2
f 88/2/2 86/2/2 89/2/2
f 89/2/2 86/2/2 90/2/2
f 88/3/2 89/3/2 92/3/2
f 92/3/2 89/3/2 93/3/2
f 91/2/2 92/2/2 95/2/2
f 93/2/2 94/2/2 95/2/2
f 92/2/2 93/2/2 95/2/2
f 95/2/2 94/2/2 96/2/2
f 96/2/2 94/2/2 97/2/2
f 97/2/2 94/2/2 98/2/2
f 96/3/2 97/3/2 99/3/2
f 99/3/2 97/3/2 100/3/2
f 103/2/3 102/2/3 101/2/3
f 104/2/3 102/2/3 103/2/3
f 105/2/3 103/2/3 101/2/3
f 106/2/3 103/2/3 105/2/3
f 107/2/3 102/2/3 104/2/3
f 108/2/3 102/2/3 107/2/3
f 111/1/3 110/1/3 109/1/3
f 112/1/3 110/1/3 111/1/3
f 119/5/3 114/5/3 113/5/3
f 120/5/3 114/5/3 119/5/3
f 121/5/3 116/5/3 115/5/3
f 122/5/3 116/5/3 121/5/3
f 123/5/3 118/5/3 117/5/3
f 124/5/3 118/5/3 123/5/3
f 129/3/3 126/3/3 125/3/3
f 130/3/3 126/3/3 129/3/3
f 131/3/3 128/3/3 127/3/3
f 132/3/3 128/3/3 131/3/3
f 133/3/3 129/3/3 125/3/3
f 138/3/3 128/3/3 132/3/3
f 139/3/3 133/3/3 125/3/3
f 139/3/3 134/3/3 133/3/3
f 140/3/3 134/3/3 139/3/3
f 141/3/3 136/3/3 135/3/3
f 142/3/3 136/3/3 141/3/3
f 143/3/3 138/3/3 137/3/3
f 144/3/3 128/3/3 138/3/3
f 144/3/3 138/3/3 143/3/3
f 147/4/3 146/4/3 145/4/3
f 148/4/3 146/4/3 147/4/3
f 149/4/4 150/4/4 151/4/4
f 151/4/4 150/4/4 152/4/4
f 153/3/4 154/3/4 157/3/4
f 157/3/4 154/3/4 158/3/4
f 155/3/4 156/3/4 159/3/4
f 159/3/4 156/3/4 160/3/4
f 153/3/4 157/3/4 161/3/4
f 160/3/4 156/3/4 166/3/4
f 153/3/4 161/3/4 167/3/4
f 161/3/4 162/3/4 167/3/4
f 167/3/4 162/3/4 168/3/4
f 163/3/4 164/3/4 169/3/4
f 169/3/4 164/3/4 170/3/4
f 165/3/4 166/3/4 171/3/4
f 166/3/4 156/3/4 172/3/4
f 171/3/4 166/3/4 172/3/4
f 173/1/4 174/1/4 175/1/4
f 175/1/4 174/1/4 176/1/4
f 177/5/4 178/5/4 183/5/4
f 183/5/4 178/5/4 184/5/4
f 179/5/4 180/5/4 185/5/4
f 185/5/4 180/5/4 186/5/4
f 181/5/4 182/5/4 187/5/4
f 187/5/4 182/5/4 188/5/4
f 189/2/4 190/2/4 191/2/4
f 191/2/4 190/2/4 192/2/4
f 189/2/4 191/2/4 193/2/4
f 193/2/4 191/2/4 194/2/4
f 192/2/4 190/2/4 195/2/4
f 195/2/4 190/2/4 196/2/4
f 199/3/5 198/3/5 197/3/5
f 200/3/5 198/3/5 199/3/5
f 203/5/5 202/5/5 201/5/5
f 204/5/5 202/5/5 203/5/5
f 207/5/5 206/5/5 205/5/5
f 208/5/5 206/5/5 207/5/5
f 211/2/5 210/2/5 209/2/5
f 212/2/5 210/2/5 211/2/5
f 213/2/5 211/2/5 209/2/5
f 214/2/5 211/2/5 213/2/5
f 215/2/5 210/2/5 212/2/5
f 216/2/5 210/2/5 215/2/5
f 221/2/5 218/2/5 217/2/5
f 222/2/5 220/2/5 219/2/5
f 223/2/5 221/2/5 217/2/5
f 223/2/5 222/2/5 221/2/5
f 224/2/5 220/2/5 222/2/5
f 224/2/5 222/2/5 223/2/5
f 227/1/5 226/1/5 225/1/5
f 228/1/5 226/1/5 227/1/5
f 231/4/5 230/4/5 229/4/5
f 232/4/5 230/4/5 231/4/5
f 235/2/5 234/2/5 233/2/5
f 236/2/5 234/2/5 235/2/5
f 237/2/5 234/2/5 236/2/5
f 238/2/5 234/2/5 237/2/5
f 242/2/5 240/2/5 239/2/5
f 243/2/5 242/2/5 241/2/5
f 244/2/5 240/2/5 242/2/5
f 244/2/5 242/2/5 243/2/5
f 245/2/6 246/2/6 247/2/6
f 247/2/6 246/2/6 248/2/6
f 248/2/6 246/2/6 249/2/6
f 249/2/6 246/2/6 250/2/6
f 251/2/6 252/2/6 254/2/6
f 253/2/6 254/2/6 255/2/6
f 254/2/6 252/2/6 256/2/6
f 255/2/6 254/2/6 256/2/6
f 257/4/6 258/4/6 259/4/6
f 259/4/6 258/4/6 260/4/6
f 261/1/6 262/1/6 263/1/6
f 263/1/6 262/1/6 264/1/6
f 265/2/6 266/2/6 267/2/6
f 267/2/6 266/2/6 268/2/6
f 265/2/6 267/2/6 269/2/6
f 269/2/6 267/2/6 270/2/6
f 268/2/6 266/2/6 271/2/6
f 271/2/6 266/2/6 272/2/6
f 273/2/6 274/2/6 277/2/6
f 275/2/6 276/2/6 278/2/6
f 273/2/6 277/2/6 279/2/6
f 277/2/6 278/2/6 279/2/6
f 278/2/6 276/2/6 280/2/6
f 279/2/6 278/2/6 280/2/6
f 281/5/6 282/5/6 283/5/6
f 283/5/6 282/5/6 284/5/6
f 285/5/6 286/5/6 287/5/6
f 287/5/6 286/5/6 288/5/6
f 289/3/6 290/3/6 291/3/6
f 291/3/6 290/3/6 292/3/6
