# MagicaVoxel @ Ephtracy

# group
o 

# material
mtllib WeaponBarrel#2.mtl
usemtl palette

# normals
vn -1 0 0
vn 1 0 0
vn 0 0 1
vn 0 0 -1
vn 0 -1 0
vn 0 1 0

# texcoords
vt 0.970703 0.5
vt 0.974609 0.5
vt 0.978516 0.5
vt 0.986328 0.5

# verts
v 0.2 2.5 -0.5
v 0.2 2.5 -0.6
v 0.2 2.6 -0.5
v 0.2 2.6 -0.6
v 0.3 2.2 -0.4
v 0.3 2.2 -0.7
v 0.3 2.3 -0.3
v 0.3 2.3 -0.4
v 0.3 2.3 -0.7
v 0.3 2.3 -0.8
v 0.3 2.4 -0.4
v 0.3 2.4 -0.7
v 0.3 2.5 -0.5
v 0.3 2.5 -0.6
v 0.3 2.6 -0.5
v 0.3 2.6 -0.6
v 0.3 2.7 -0.4
v 0.3 2.7 -0.7
v 0.3 2.8 -0.3
v 0.3 2.8 -0.8
v 0.7 2.2 -0.3
v 0.7 2.2 -0.4
v 0.7 2.2 -0.7
v 0.7 2.2 -0.8
v 0.7 2.3 -0.3
v 0.7 2.3 -0.4
v 0.7 2.3 -0.7
v 0.7 2.3 -0.8
v 1.5 2.4 -0.3
v 1.5 2.4 -0.4
v 1.5 2.4 -0.7
v 1.5 2.4 -0.8
v 1.5 2.6 -0.3
v 1.5 2.6 -0.4
v 1.5 2.6 -0.7
v 1.5 2.6 -0.8
v 1.6 2.7 -0.4
v 1.6 2.7 -0.7
v 1.6 2.8 -0.4
v 1.6 2.8 -0.7
v 0.7 2.4 -0.3
v 0.7 2.4 -0.4
v 0.7 2.4 -0.7
v 0.7 2.4 -0.8
v 0.7 2.6 -0.3
v 0.7 2.6 -0.4
v 0.7 2.6 -0.7
v 0.7 2.6 -0.8
v 0.7 2.7 -0.4
v 0.7 2.7 -0.7
v 0.7 2.8 -0.4
v 0.7 2.8 -0.7
v 1.1 2.2 -0.3
v 1.1 2.2 -0.5
v 1.1 2.2 -0.6
v 1.1 2.2 -0.8
v 1.1 2.3 -0.4
v 1.1 2.3 -0.5
v 1.1 2.3 -0.6
v 1.1 2.3 -0.7
v 1.1 2.4 -0.3
v 1.1 2.4 -0.4
v 1.1 2.4 -0.7
v 1.1 2.4 -0.8
v 1.7 2.6 -0.3
v 1.7 2.6 -0.4
v 1.7 2.6 -0.7
v 1.7 2.6 -0.8
v 1.7 2.7 -0.4
v 1.7 2.7 -0.7
v 1.7 2.8 -0.3
v 1.7 2.8 -0.8
v 2.1 2.4 -0.3
v 2.1 2.4 -0.4
v 2.1 2.4 -0.7
v 2.1 2.4 -0.8
v 2.1 2.6 -0.3
v 2.1 2.6 -0.4
v 2.1 2.6 -0.7
v 2.1 2.6 -0.8
v 2.2 2.2 -0.5
v 2.2 2.2 -0.6
v 2.2 2.3 -0.5
v 2.2 2.3 -0.6
v 2.2 2.5 -0.5
v 2.2 2.5 -0.6
v 2.2 2.6 -0.5
v 2.2 2.6 -0.6
v 2.3 2.3 -0.4
v 2.3 2.3 -0.7
v 2.3 2.5 -0.5
v 2.3 2.5 -0.6
v 2.3 2.6 -0.5
v 2.3 2.6 -0.6
v 2.3 2.7 -0.4
v 2.3 2.7 -0.7
v 0.3 2.3 -0.3
v 0.3 2.8 -0.3
v 0.7 2.2 -0.3
v 0.7 2.3 -0.3
v 0.7 2.4 -0.3
v 0.7 2.6 -0.3
v 1.1 2.2 -0.3
v 1.1 2.4 -0.3
v 1.5 2.4 -0.3
v 1.5 2.6 -0.3
v 1.7 2.4 -0.3
v 1.7 2.6 -0.3
v 1.7 2.8 -0.3
v 2.1 2.4 -0.3
v 2.1 2.6 -0.3
v 0.3 2.2 -0.4
v 0.3 2.3 -0.4
v 0.7 2.2 -0.4
v 0.7 2.3 -0.4
v 0.7 2.4 -0.4
v 0.7 2.6 -0.4
v 1.1 2.3 -0.4
v 1.1 2.4 -0.4
v 1.5 2.4 -0.4
v 1.5 2.6 -0.4
v 1.7 2.4 -0.4
v 1.7 2.6 -0.4
v 1.7 2.7 -0.4
v 2.1 2.4 -0.4
v 2.1 2.6 -0.4
v 2.3 2.3 -0.4
v 2.3 2.7 -0.4
v 0.2 2.5 -0.5
v 0.2 2.6 -0.5
v 0.3 2.5 -0.5
v 0.3 2.6 -0.5
v 1.1 2.2 -0.5
v 1.1 2.3 -0.5
v 2.2 2.2 -0.5
v 2.2 2.3 -0.5
v 2.2 2.5 -0.6
v 2.2 2.6 -0.6
v 2.3 2.5 -0.6
v 2.3 2.6 -0.6
v 0.7 2.7 -0.7
v 0.7 2.8 -0.7
v 1.6 2.7 -0.7
v 1.6 2.8 -0.7
v 0.7 2.7 -0.4
v 0.7 2.8 -0.4
v 1.6 2.7 -0.4
v 1.6 2.8 -0.4
v 2.2 2.5 -0.5
v 2.2 2.6 -0.5
v 2.3 2.5 -0.5
v 2.3 2.6 -0.5
v 0.2 2.5 -0.6
v 0.2 2.6 -0.6
v 0.3 2.5 -0.6
v 0.3 2.6 -0.6
v 1.1 2.2 -0.6
v 1.1 2.3 -0.6
v 2.2 2.2 -0.6
v 2.2 2.3 -0.6
v 0.3 2.2 -0.7
v 0.3 2.3 -0.7
v 0.7 2.2 -0.7
v 0.7 2.3 -0.7
v 0.7 2.4 -0.7
v 0.7 2.6 -0.7
v 1.1 2.3 -0.7
v 1.1 2.4 -0.7
v 1.5 2.4 -0.7
v 1.5 2.6 -0.7
v 1.7 2.4 -0.7
v 1.7 2.6 -0.7
v 1.7 2.7 -0.7
v 2.1 2.4 -0.7
v 2.1 2.6 -0.7
v 2.3 2.3 -0.7
v 2.3 2.7 -0.7
v 0.3 2.3 -0.8
v 0.3 2.8 -0.8
v 0.7 2.2 -0.8
v 0.7 2.3 -0.8
v 0.7 2.4 -0.8
v 0.7 2.6 -0.8
v 1.1 2.2 -0.8
v 1.1 2.4 -0.8
v 1.5 2.4 -0.8
v 1.5 2.6 -0.8
v 1.7 2.4 -0.8
v 1.7 2.6 -0.8
v 1.7 2.8 -0.8
v 2.1 2.4 -0.8
v 2.1 2.6 -0.8
v 0.7 2.2 -0.3
v 1.1 2.2 -0.3
v 0.3 2.2 -0.4
v 0.7 2.2 -0.4
v 1.1 2.2 -0.5
v 2.2 2.2 -0.5
v 1.1 2.2 -0.6
v 2.2 2.2 -0.6
v 0.3 2.2 -0.7
v 0.7 2.2 -0.7
v 0.7 2.2 -0.8
v 1.1 2.2 -0.8
v 0.3 2.3 -0.3
v 0.7 2.3 -0.3
v 0.3 2.3 -0.4
v 0.7 2.3 -0.4
v 1.1 2.3 -0.4
v 2.3 2.3 -0.4
v 1.1 2.3 -0.5
v 2.2 2.3 -0.5
v 1.1 2.3 -0.6
v 2.2 2.3 -0.6
v 0.3 2.3 -0.7
v 0.7 2.3 -0.7
v 1.1 2.3 -0.7
v 2.3 2.3 -0.7
v 0.3 2.3 -0.8
v 0.7 2.3 -0.8
v 1.5 2.4 -0.3
v 1.7 2.4 -0.3
v 2.1 2.4 -0.3
v 1.5 2.4 -0.4
v 1.7 2.4 -0.4
v 2.1 2.4 -0.4
v 1.5 2.4 -0.7
v 1.7 2.4 -0.7
v 2.1 2.4 -0.7
v 1.5 2.4 -0.8
v 1.7 2.4 -0.8
v 2.1 2.4 -0.8
v 0.2 2.5 -0.5
v 0.3 2.5 -0.5
v 0.2 2.5 -0.6
v 0.3 2.5 -0.6
v 0.7 2.6 -0.3
v 1.5 2.6 -0.3
v 0.7 2.6 -0.4
v 1.5 2.6 -0.4
v 2.2 2.6 -0.5
v 2.3 2.6 -0.5
v 2.2 2.6 -0.6
v 2.3 2.6 -0.6
v 0.7 2.6 -0.7
v 1.5 2.6 -0.7
v 0.7 2.6 -0.8
v 1.5 2.6 -0.8
v 0.7 2.4 -0.3
v 1.1 2.4 -0.3
v 0.7 2.4 -0.4
v 1.1 2.4 -0.4
v 0.7 2.4 -0.7
v 1.1 2.4 -0.7
v 0.7 2.4 -0.8
v 1.1 2.4 -0.8
v 2.2 2.5 -0.5
v 2.3 2.5 -0.5
v 2.2 2.5 -0.6
v 2.3 2.5 -0.6
v 1.7 2.6 -0.3
v 2.1 2.6 -0.3
v 1.7 2.6 -0.4
v 2.1 2.6 -0.4
v 0.2 2.6 -0.5
v 0.3 2.6 -0.5
v 0.2 2.6 -0.6
v 0.3 2.6 -0.6
v 1.7 2.6 -0.7
v 2.1 2.6 -0.7
v 1.7 2.6 -0.8
v 2.1 2.6 -0.8
v 0.7 2.7 -0.4
v 1.6 2.7 -0.4
v 1.7 2.7 -0.4
v 2.3 2.7 -0.4
v 0.7 2.7 -0.7
v 1.6 2.7 -0.7
v 1.7 2.7 -0.7
v 2.3 2.7 -0.7
v 0.3 2.8 -0.3
v 1.7 2.8 -0.3
v 0.7 2.8 -0.4
v 1.6 2.8 -0.4
v 0.7 2.8 -0.7
v 1.6 2.8 -0.7
v 0.3 2.8 -0.8
v 1.7 2.8 -0.8

# faces
f 3/3/1 2/3/1 1/3/1
f 4/3/1 2/3/1 3/3/1
f 8/1/1 6/1/1 5/1/1
f 9/1/1 6/1/1 8/1/1
f 11/2/1 8/2/1 7/2/1
f 11/2/1 10/2/1 9/2/1
f 11/2/1 9/2/1 8/2/1
f 12/2/1 10/2/1 11/2/1
f 13/3/1 12/3/1 11/3/1
f 14/3/1 12/3/1 13/3/1
f 15/3/1 13/3/1 11/3/1
f 16/3/1 12/3/1 14/3/1
f 17/2/1 11/2/1 7/2/1
f 17/3/1 16/3/1 15/3/1
f 17/3/1 15/3/1 11/3/1
f 18/3/1 12/3/1 16/3/1
f 18/3/1 16/3/1 17/3/1
f 18/2/1 10/2/1 12/2/1
f 19/2/1 17/2/1 7/2/1
f 19/2/1 18/2/1 17/2/1
f 20/2/1 10/2/1 18/2/1
f 20/2/1 18/2/1 19/2/1
f 25/2/1 22/2/1 21/2/1
f 26/2/1 22/2/1 25/2/1
f 27/2/1 24/2/1 23/2/1
f 28/2/1 24/2/1 27/2/1
f 33/2/1 30/2/1 29/2/1
f 34/2/1 30/2/1 33/2/1
f 35/2/1 32/2/1 31/2/1
f 36/2/1 32/2/1 35/2/1
f 39/2/1 38/2/1 37/2/1
f 40/2/1 38/2/1 39/2/1
f 41/2/2 42/2/2 45/2/2
f 45/2/2 42/2/2 46/2/2
f 43/2/2 44/2/2 47/2/2
f 47/2/2 44/2/2 48/2/2
f 49/2/2 50/2/2 51/2/2
f 51/2/2 50/2/2 52/2/2
f 53/2/2 54/2/2 57/2/2
f 57/2/2 54/2/2 58/2/2
f 55/2/2 56/2/2 59/2/2
f 59/2/2 56/2/2 60/2/2
f 53/2/2 57/2/2 61/2/2
f 61/2/2 57/2/2 62/2/2
f 60/2/2 56/2/2 63/2/2
f 63/2/2 56/2/2 64/2/2
f 65/2/2 66/2/2 69/2/2
f 67/2/2 68/2/2 70/2/2
f 65/2/2 69/2/2 71/2/2
f 69/2/2 70/2/2 71/2/2
f 70/2/2 68/2/2 72/2/2
f 71/2/2 70/2/2 72/2/2
f 73/1/2 74/1/2 77/1/2
f 77/1/2 74/1/2 78/1/2
f 75/1/2 76/1/2 79/1/2
f 79/1/2 76/1/2 80/1/2
f 81/1/2 82/1/2 83/1/2
f 83/1/2 82/1/2 84/1/2
f 85/1/2 86/1/2 87/1/2
f 87/1/2 86/1/2 88/1/2
f 89/1/2 90/1/2 91/1/2
f 91/1/2 90/1/2 92/1/2
f 89/1/2 91/1/2 93/1/2
f 92/1/2 90/1/2 94/1/2
f 89/1/2 93/1/2 95/1/2
f 93/1/2 94/1/2 95/1/2
f 94/1/2 90/1/2 96/1/2
f 95/1/2 94/1/2 96/1/2
f 100/2/3 98/2/3 97/2/3
f 101/2/3 98/2/3 100/2/3
f 102/2/3 98/2/3 101/2/3
f 103/2/3 100/2/3 99/2/3
f 103/2/3 101/2/3 100/2/3
f 104/2/3 101/2/3 103/2/3
f 106/2/3 98/2/3 102/2/3
f 107/2/3 106/2/3 105/2/3
f 108/2/3 98/2/3 106/2/3
f 108/2/3 106/2/3 107/2/3
f 109/2/3 98/2/3 108/2/3
f 110/1/3 108/1/3 107/1/3
f 111/1/3 108/1/3 110/1/3
f 114/1/3 113/1/3 112/1/3
f 115/1/3 113/1/3 114/1/3
f 119/1/3 117/1/3 116/1/3
f 120/1/3 117/1/3 119/1/3
f 120/1/3 119/1/3 118/1/3
f 121/1/3 117/1/3 120/1/3
f 122/1/3 120/1/3 118/1/3
f 125/1/3 122/1/3 118/1/3
f 126/1/3 124/1/3 123/1/3
f 127/1/3 125/1/3 118/1/3
f 127/1/3 126/1/3 125/1/3
f 128/1/3 124/1/3 126/1/3
f 128/1/3 126/1/3 127/1/3
f 131/3/3 130/3/3 129/3/3
f 132/3/3 130/3/3 131/3/3
f 135/1/3 134/1/3 133/1/3
f 136/1/3 134/1/3 135/1/3
f 139/1/3 138/1/3 137/1/3
f 140/1/3 138/1/3 139/1/3
f 143/2/3 142/2/3 141/2/3
f 144/2/3 142/2/3 143/2/3
f 145/2/4 146/2/4 147/2/4
f 147/2/4 146/2/4 148/2/4
f 149/1/4 150/1/4 151/1/4
f 151/1/4 150/1/4 152/1/4
f 153/3/4 154/3/4 155/3/4
f 155/3/4 154/3/4 156/3/4
f 157/1/4 158/1/4 159/1/4
f 159/1/4 158/1/4 160/1/4
f 161/1/4 162/1/4 163/1/4
f 163/1/4 162/1/4 164/1/4
f 165/1/4 166/1/4 168/1/4
f 168/1/4 166/1/4 169/1/4
f 167/1/4 168/1/4 169/1/4
f 169/1/4 166/1/4 170/1/4
f 167/1/4 169/1/4 171/1/4
f 167/1/4 171/1/4 174/1/4
f 172/1/4 173/1/4 175/1/4
f 167/1/4 174/1/4 176/1/4
f 174/1/4 175/1/4 176/1/4
f 175/1/4 173/1/4 177/1/4
f 176/1/4 175/1/4 177/1/4
f 178/2/4 179/2/4 181/2/4
f 181/2/4 179/2/4 182/2/4
f 182/2/4 179/2/4 183/2/4
f 180/2/4 181/2/4 184/2/4
f 181/2/4 182/2/4 184/2/4
f 184/2/4 182/2/4 185/2/4
f 183/2/4 179/2/4 187/2/4
f 186/2/4 187/2/4 188/2/4
f 187/2/4 179/2/4 189/2/4
f 188/2/4 187/2/4 189/2/4
f 189/2/4 179/2/4 190/2/4
f 188/1/4 189/1/4 191/1/4
f 191/1/4 189/1/4 192/1/4
f 196/2/5 194/2/5 193/2/5
f 197/2/5 194/2/5 196/2/5
f 199/2/5 197/2/5 196/2/5
f 199/1/5 198/1/5 197/1/5
f 200/1/5 198/1/5 199/1/5
f 201/1/5 196/1/5 195/1/5
f 202/2/5 199/2/5 196/2/5
f 202/1/5 196/1/5 201/1/5
f 203/2/5 199/2/5 202/2/5
f 204/2/5 199/2/5 203/2/5
f 207/2/5 206/2/5 205/2/5
f 208/2/5 206/2/5 207/2/5
f 211/1/5 210/1/5 209/1/5
f 212/1/5 210/1/5 211/1/5
f 214/1/5 210/1/5 212/1/5
f 217/1/5 214/1/5 213/1/5
f 218/1/5 210/1/5 214/1/5
f 218/1/5 214/1/5 217/1/5
f 219/2/5 216/2/5 215/2/5
f 220/2/5 216/2/5 219/2/5
f 224/2/5 222/2/5 221/2/5
f 225/1/5 223/1/5 222/1/5
f 225/2/5 222/2/5 224/2/5
f 226/1/5 223/1/5 225/1/5
f 230/2/5 228/2/5 227/2/5
f 231/1/5 229/1/5 228/1/5
f 231/2/5 228/2/5 230/2/5
f 232/1/5 229/1/5 231/1/5
f 235/3/5 234/3/5 233/3/5
f 236/3/5 234/3/5 235/3/5
f 239/2/5 238/2/5 237/2/5
f 240/2/5 238/2/5 239/2/5
f 243/1/5 242/1/5 241/1/5
f 244/1/5 242/1/5 243/1/5
f 247/2/5 246/2/5 245/2/5
f 248/2/5 246/2/5 247/2/5
f 249/2/6 250/2/6 251/2/6
f 251/2/6 250/2/6 252/2/6
f 253/2/6 254/2/6 255/2/6
f 255/2/6 254/2/6 256/2/6
f 257/1/6 258/1/6 259/1/6
f 259/1/6 258/1/6 260/1/6
f 261/1/6 262/1/6 263/1/6
f 263/1/6 262/1/6 264/1/6
f 265/3/6 266/3/6 267/3/6
f 267/3/6 266/3/6 268/3/6
f 269/1/6 270/1/6 271/1/6
f 271/1/6 270/1/6 272/1/6
f 273/1/6 274/1/6 277/1/6
f 277/1/6 274/1/6 278/1/6
f 275/1/6 276/1/6 279/1/6
f 279/1/6 276/1/6 280/1/6
f 281/2/6 282/2/6 283/2/6
f 283/2/6 282/2/6 284/2/6
f 281/2/6 283/2/6 285/2/6
f 284/2/6 282/2/6 286/2/6
f 281/2/6 285/2/6 287/2/6
f 285/2/6 286/2/6 287/2/6
f 286/2/6 282/2/6 288/2/6
f 287/2/6 286/2/6 288/2/6
