# MagicaVoxel @ Ephtracy

# group
o 

# material
mtllib WeaponTargetting#1.mtl
usemtl palette

# normals
vn -1 0 0
vn 1 0 0
vn 0 0 1
vn 0 0 -1
vn 0 -1 0
vn 0 1 0

# texcoords
vt 0.974609 0.5
vt 0.978516 0.5
vt 0.982422 0.5

# verts
v 0 2.1 0
v 0 2.1 -0.7
v 0 2.2 0
v 0 2.2 -0.7
v 0 2.3 0
v 0 2.3 -0.7
v 0.1 2.3 -0.3
v 0.1 2.3 -0.4
v 0.1 2.5 -0.3
v 0.1 2.5 -0.4
v 0.2 2.2 -0.2
v 0.2 2.2 -0.3
v 0.2 2.2 -0.4
v 0.2 2.2 -0.5
v 0.2 2.4 -0.2
v 0.2 2.4 -0.3
v 0.2 2.4 -0.4
v 0.2 2.4 -0.5
v 0.3 2 -0.3
v 0.3 2 -0.4
v 0.3 2.1 -0.3
v 0.3 2.1 -0.4
v 0.3 2.2 -0.1
v 0.3 2.2 -0.2
v 0.3 2.2 -0.5
v 0.3 2.2 -0.6
v 0.3 2.3 -0.1
v 0.3 2.3 -0.6
v 0.3 2.4 -0.2
v 0.3 2.4 -0.3
v 0.3 2.4 -0.4
v 0.3 2.4 -0.5
v 0.3 2.5 -0.1
v 0.3 2.5 -0.3
v 0.3 2.5 -0.4
v 0.3 2.5 -0.6
v 0.5 2.2 -0.1
v 0.5 2.2 -0.2
v 0.5 2.2 -0.5
v 0.5 2.2 -0.6
v 0.5 2.3 -0.1
v 0.5 2.3 -0.6
v 0.5 2.4 -0.2
v 0.5 2.4 -0.3
v 0.5 2.4 -0.4
v 0.5 2.4 -0.5
v 0.5 2.5 -0.1
v 0.5 2.5 -0.3
v 0.5 2.5 -0.4
v 0.5 2.5 -0.6
v 0.1 2.2 -0.1
v 0.1 2.2 -0.3
v 0.1 2.2 -0.4
v 0.1 2.2 -0.6
v 0.1 2.3 -0.1
v 0.1 2.3 -0.3
v 0.1 2.3 -0.4
v 0.1 2.3 -0.6
v 0.4 2 -0.3
v 0.4 2 -0.4
v 0.4 2.1 -0.3
v 0.4 2.1 -0.4
v 0.4 2.2 -0.1
v 0.4 2.2 -0.2
v 0.4 2.2 -0.3
v 0.4 2.2 -0.4
v 0.4 2.2 -0.5
v 0.4 2.2 -0.6
v 0.4 2.3 -0.1
v 0.4 2.3 -0.3
v 0.4 2.3 -0.4
v 0.4 2.3 -0.6
v 0.4 2.4 -0.2
v 0.4 2.4 -0.3
v 0.4 2.4 -0.4
v 0.4 2.4 -0.5
v 0.4 2.5 -0.1
v 0.4 2.5 -0.3
v 0.4 2.5 -0.4
v 0.4 2.5 -0.6
v 0.6 2.2 -0.1
v 0.6 2.2 -0.2
v 0.6 2.2 -0.5
v 0.6 2.2 -0.6
v 0.6 2.3 -0.1
v 0.6 2.3 -0.6
v 0.6 2.4 -0.2
v 0.6 2.4 -0.5
v 0.6 2.5 -0.1
v 0.6 2.5 -0.6
v 0.7 2.1 0
v 0.7 2.1 -0.2
v 0.7 2.1 -0.5
v 0.7 2.1 -0.7
v 0.7 2.2 0
v 0.7 2.2 -0.1
v 0.7 2.2 -0.2
v 0.7 2.2 -0.3
v 0.7 2.2 -0.4
v 0.7 2.2 -0.5
v 0.7 2.2 -0.6
v 0.7 2.2 -0.7
v 0.7 2.3 0
v 0.7 2.3 -0.1
v 0.7 2.3 -0.3
v 0.7 2.3 -0.4
v 0.7 2.3 -0.6
v 0.7 2.3 -0.7
v 0.7 2.4 -0.2
v 0.7 2.4 -0.5
v 0 2.1 0
v 0 2.2 0
v 0 2.3 0
v 0.7 2.1 0
v 0.7 2.2 0
v 0.7 2.3 0
v 0.3 2.3 -0.1
v 0.3 2.5 -0.1
v 0.4 2.3 -0.1
v 0.4 2.5 -0.1
v 0.5 2.3 -0.1
v 0.5 2.5 -0.1
v 0.6 2.3 -0.1
v 0.6 2.5 -0.1
v 0.2 2.2 -0.2
v 0.2 2.4 -0.2
v 0.3 2.2 -0.2
v 0.3 2.4 -0.2
v 0.4 2.2 -0.2
v 0.4 2.4 -0.2
v 0.5 2.2 -0.2
v 0.5 2.4 -0.2
v 0.6 2.2 -0.2
v 0.6 2.4 -0.2
v 0.7 2.2 -0.2
v 0.7 2.4 -0.2
v 0.1 2.2 -0.3
v 0.1 2.3 -0.3
v 0.1 2.5 -0.3
v 0.2 2.2 -0.3
v 0.2 2.4 -0.3
v 0.3 2 -0.3
v 0.3 2.1 -0.3
v 0.3 2.4 -0.3
v 0.3 2.5 -0.3
v 0.4 2 -0.3
v 0.4 2.1 -0.3
v 0.4 2.4 -0.3
v 0.4 2.5 -0.3
v 0.5 2.4 -0.3
v 0.5 2.5 -0.3
v 0.4 2.2 -0.4
v 0.4 2.3 -0.4
v 0.7 2.2 -0.4
v 0.7 2.3 -0.4
v 0.1 2.2 -0.6
v 0.1 2.3 -0.6
v 0.3 2.2 -0.6
v 0.3 2.3 -0.6
v 0.4 2.2 -0.6
v 0.4 2.3 -0.6
v 0.5 2.2 -0.6
v 0.5 2.3 -0.6
v 0.6 2.2 -0.6
v 0.6 2.3 -0.6
v 0.7 2.2 -0.6
v 0.7 2.3 -0.6
v 0.1 2.2 -0.1
v 0.1 2.3 -0.1
v 0.3 2.2 -0.1
v 0.3 2.3 -0.1
v 0.4 2.2 -0.1
v 0.4 2.3 -0.1
v 0.5 2.2 -0.1
v 0.5 2.3 -0.1
v 0.6 2.2 -0.1
v 0.6 2.3 -0.1
v 0.7 2.2 -0.1
v 0.7 2.3 -0.1
v 0.4 2.2 -0.3
v 0.4 2.3 -0.3
v 0.7 2.2 -0.3
v 0.7 2.3 -0.3
v 0.1 2.2 -0.4
v 0.1 2.3 -0.4
v 0.1 2.5 -0.4
v 0.2 2.2 -0.4
v 0.2 2.4 -0.4
v 0.3 2 -0.4
v 0.3 2.1 -0.4
v 0.3 2.4 -0.4
v 0.3 2.5 -0.4
v 0.4 2 -0.4
v 0.4 2.1 -0.4
v 0.4 2.4 -0.4
v 0.4 2.5 -0.4
v 0.5 2.4 -0.4
v 0.5 2.5 -0.4
v 0.2 2.2 -0.5
v 0.2 2.4 -0.5
v 0.3 2.2 -0.5
v 0.3 2.4 -0.5
v 0.4 2.2 -0.5
v 0.4 2.4 -0.5
v 0.5 2.2 -0.5
v 0.5 2.4 -0.5
v 0.6 2.2 -0.5
v 0.6 2.4 -0.5
v 0.7 2.2 -0.5
v 0.7 2.4 -0.5
v 0.3 2.3 -0.6
v 0.3 2.5 -0.6
v 0.4 2.3 -0.6
v 0.4 2.5 -0.6
v 0.5 2.3 -0.6
v 0.5 2.5 -0.6
v 0.6 2.3 -0.6
v 0.6 2.5 -0.6
v 0 2.1 -0.7
v 0 2.2 -0.7
v 0 2.3 -0.7
v 0.7 2.1 -0.7
v 0.7 2.2 -0.7
v 0.7 2.3 -0.7
v 0.3 2 -0.3
v 0.4 2 -0.3
v 0.3 2 -0.4
v 0.4 2 -0.4
v 0 2.1 0
v 0.7 2.1 0
v 0.6 2.1 -0.2
v 0.7 2.1 -0.2
v 0.3 2.1 -0.3
v 0.4 2.1 -0.3
v 0.6 2.1 -0.3
v 0.3 2.1 -0.4
v 0.4 2.1 -0.4
v 0.6 2.1 -0.4
v 0.6 2.1 -0.5
v 0.7 2.1 -0.5
v 0 2.1 -0.7
v 0.7 2.1 -0.7
v 0.4 2.3 -0.3
v 0.7 2.3 -0.3
v 0.4 2.3 -0.4
v 0.7 2.3 -0.4
v 0.1 2.2 -0.1
v 0.3 2.2 -0.1
v 0.4 2.2 -0.1
v 0.5 2.2 -0.1
v 0.6 2.2 -0.1
v 0.7 2.2 -0.1
v 0.2 2.2 -0.2
v 0.3 2.2 -0.2
v 0.4 2.2 -0.2
v 0.5 2.2 -0.2
v 0.6 2.2 -0.2
v 0.7 2.2 -0.2
v 0.1 2.2 -0.3
v 0.2 2.2 -0.3
v 0.4 2.2 -0.3
v 0.7 2.2 -0.3
v 0.1 2.2 -0.4
v 0.2 2.2 -0.4
v 0.4 2.2 -0.4
v 0.7 2.2 -0.4
v 0.2 2.2 -0.5
v 0.3 2.2 -0.5
v 0.4 2.2 -0.5
v 0.5 2.2 -0.5
v 0.6 2.2 -0.5
v 0.7 2.2 -0.5
v 0.1 2.2 -0.6
v 0.3 2.2 -0.6
v 0.4 2.2 -0.6
v 0.5 2.2 -0.6
v 0.6 2.2 -0.6
v 0.7 2.2 -0.6
v 0 2.3 0
v 0.7 2.3 0
v 0.1 2.3 -0.1
v 0.3 2.3 -0.1
v 0.4 2.3 -0.1
v 0.5 2.3 -0.1
v 0.6 2.3 -0.1
v 0.7 2.3 -0.1
v 0.1 2.3 -0.3
v 0.1 2.3 -0.4
v 0.1 2.3 -0.6
v 0.3 2.3 -0.6
v 0.4 2.3 -0.6
v 0.5 2.3 -0.6
v 0.6 2.3 -0.6
v 0.7 2.3 -0.6
v 0 2.3 -0.7
v 0.7 2.3 -0.7
v 0.2 2.4 -0.2
v 0.3 2.4 -0.2
v 0.4 2.4 -0.2
v 0.5 2.4 -0.2
v 0.6 2.4 -0.2
v 0.7 2.4 -0.2
v 0.2 2.4 -0.3
v 0.3 2.4 -0.3
v 0.4 2.4 -0.3
v 0.5 2.4 -0.3
v 0.2 2.4 -0.4
v 0.3 2.4 -0.4
v 0.4 2.4 -0.4
v 0.5 2.4 -0.4
v 0.2 2.4 -0.5
v 0.3 2.4 -0.5
v 0.4 2.4 -0.5
v 0.5 2.4 -0.5
v 0.6 2.4 -0.5
v 0.7 2.4 -0.5
v 0.3 2.5 -0.1
v 0.4 2.5 -0.1
v 0.5 2.5 -0.1
v 0.6 2.5 -0.1
v 0.1 2.5 -0.3
v 0.3 2.5 -0.3
v 0.4 2.5 -0.3
v 0.5 2.5 -0.3
v 0.1 2.5 -0.4
v 0.3 2.5 -0.4
v 0.4 2.5 -0.4
v 0.5 2.5 -0.4
v 0.3 2.5 -0.6
v 0.4 2.5 -0.6
v 0.5 2.5 -0.6
v 0.6 2.5 -0.6

# faces
f 3/3/1 2/3/1 1/3/1
f 4/3/1 2/3/1 3/3/1
f 5/1/1 4/1/1 3/1/1
f 6/1/1 4/1/1 5/1/1
f 9/2/1 8/2/1 7/2/1
f 10/2/1 8/2/1 9/2/1
f 15/1/1 12/1/1 11/1/1
f 16/1/1 12/1/1 15/1/1
f 17/1/1 14/1/1 13/1/1
f 18/1/1 14/1/1 17/1/1
f 21/3/1 20/3/1 19/3/1
f 22/3/1 20/3/1 21/3/1
f 27/2/1 24/2/1 23/2/1
f 28/2/1 26/2/1 25/2/1
f 29/2/1 24/2/1 27/2/1
f 32/2/1 28/2/1 25/2/1
f 33/2/1 30/2/1 29/2/1
f 33/2/1 29/2/1 27/2/1
f 34/2/1 30/2/1 33/2/1
f 35/2/1 32/2/1 31/2/1
f 36/2/1 28/2/1 32/2/1
f 36/2/1 32/2/1 35/2/1
f 41/2/1 38/2/1 37/2/1
f 42/2/1 40/2/1 39/2/1
f 43/2/1 38/2/1 41/2/1
f 46/2/1 42/2/1 39/2/1
f 47/2/1 44/2/1 43/2/1
f 47/2/1 43/2/1 41/2/1
f 48/2/1 44/2/1 47/2/1
f 49/2/1 46/2/1 45/2/1
f 50/2/1 42/2/1 46/2/1
f 50/2/1 46/2/1 49/2/1
f 51/1/2 52/1/2 55/1/2
f 55/1/2 52/1/2 56/1/2
f 53/1/2 54/1/2 57/1/2
f 57/1/2 54/1/2 58/1/2
f 59/3/2 60/3/2 61/3/2
f 61/3/2 60/3/2 62/3/2
f 63/2/2 64/2/2 69/2/2
f 65/1/2 66/1/2 70/1/2
f 70/1/2 66/1/2 71/1/2
f 67/2/2 68/2/2 72/2/2
f 69/2/2 64/2/2 73/2/2
f 67/2/2 72/2/2 76/2/2
f 73/2/2 74/2/2 77/2/2
f 69/2/2 73/2/2 77/2/2
f 77/2/2 74/2/2 78/2/2
f 75/2/2 76/2/2 79/2/2
f 76/2/2 72/2/2 80/2/2
f 79/2/2 76/2/2 80/2/2
f 81/2/2 82/2/2 85/2/2
f 83/2/2 84/2/2 86/2/2
f 85/2/2 82/2/2 87/2/2
f 83/2/2 86/2/2 88/2/2
f 85/2/2 87/2/2 89/2/2
f 87/2/2 88/2/2 89/2/2
f 88/2/2 86/2/2 90/2/2
f 89/2/2 88/2/2 90/2/2
f 91/3/2 92/3/2 95/3/2
f 95/3/2 92/3/2 96/3/2
f 92/1/2 93/1/2 97/1/2
f 96/3/2 92/3/2 97/3/2
f 97/1/2 93/1/2 98/1/2
f 98/1/2 93/1/2 99/1/2
f 93/3/2 94/3/2 100/3/2
f 99/1/2 93/1/2 100/1/2
f 100/3/2 94/3/2 101/3/2
f 101/3/2 94/3/2 102/3/2
f 95/1/2 96/1/2 103/1/2
f 103/1/2 96/1/2 104/1/2
f 97/1/2 98/1/2 105/1/2
f 99/1/2 100/1/2 106/1/2
f 101/1/2 102/1/2 107/1/2
f 107/1/2 102/1/2 108/1/2
f 105/1/2 106/1/2 109/1/2
f 97/1/2 105/1/2 109/1/2
f 106/1/2 100/1/2 110/1/2
f 109/1/2 106/1/2 110/1/2
f 114/3/3 112/3/3 111/3/3
f 115/1/3 113/1/3 112/1/3
f 115/3/3 112/3/3 114/3/3
f 116/1/3 113/1/3 115/1/3
f 119/2/3 118/2/3 117/2/3
f 120/2/3 118/2/3 119/2/3
f 123/2/3 122/2/3 121/2/3
f 124/2/3 122/2/3 123/2/3
f 127/1/3 126/1/3 125/1/3
f 128/1/3 126/1/3 127/1/3
f 131/1/3 130/1/3 129/1/3
f 132/1/3 130/1/3 131/1/3
f 135/1/3 134/1/3 133/1/3
f 136/1/3 134/1/3 135/1/3
f 140/2/3 138/2/3 137/2/3
f 140/2/3 139/2/3 138/2/3
f 141/2/3 139/2/3 140/2/3
f 144/2/3 139/2/3 141/2/3
f 145/2/3 139/2/3 144/2/3
f 146/3/3 143/3/3 142/3/3
f 147/3/3 143/3/3 146/3/3
f 150/2/3 149/2/3 148/2/3
f 151/2/3 149/2/3 150/2/3
f 154/1/3 153/1/3 152/1/3
f 155/1/3 153/1/3 154/1/3
f 158/1/3 157/1/3 156/1/3
f 159/1/3 157/1/3 158/1/3
f 162/1/3 161/1/3 160/1/3
f 163/1/3 161/1/3 162/1/3
f 166/1/3 165/1/3 164/1/3
f 167/1/3 165/1/3 166/1/3
f 168/1/4 169/1/4 170/1/4
f 170/1/4 169/1/4 171/1/4
f 172/1/4 173/1/4 174/1/4
f 174/1/4 173/1/4 175/1/4
f 176/1/4 177/1/4 178/1/4
f 178/1/4 177/1/4 179/1/4
f 180/1/4 181/1/4 182/1/4
f 182/1/4 181/1/4 183/1/4
f 184/2/4 185/2/4 187/2/4
f 185/2/4 186/2/4 187/2/4
f 187/2/4 186/2/4 188/2/4
f 188/2/4 186/2/4 191/2/4
f 191/2/4 186/2/4 192/2/4
f 189/3/4 190/3/4 193/3/4
f 193/3/4 190/3/4 194/3/4
f 195/2/4 196/2/4 197/2/4
f 197/2/4 196/2/4 198/2/4
f 199/1/4 200/1/4 201/1/4
f 201/1/4 200/1/4 202/1/4
f 203/1/4 204/1/4 205/1/4
f 205/1/4 204/1/4 206/1/4
f 207/1/4 208/1/4 209/1/4
f 209/1/4 208/1/4 210/1/4
f 211/2/4 212/2/4 213/2/4
f 213/2/4 212/2/4 214/2/4
f 215/2/4 216/2/4 217/2/4
f 217/2/4 216/2/4 218/2/4
f 219/3/4 220/3/4 222/3/4
f 220/1/4 221/1/4 223/1/4
f 222/3/4 220/3/4 223/3/4
f 223/1/4 221/1/4 224/1/4
f 227/3/5 226/3/5 225/3/5
f 228/3/5 226/3/5 227/3/5
f 231/3/5 230/3/5 229/3/5
f 232/3/5 230/3/5 231/3/5
f 233/3/5 231/3/5 229/3/5
f 234/3/5 231/3/5 233/3/5
f 235/1/5 232/1/5 231/1/5
f 235/3/5 231/3/5 234/3/5
f 236/3/5 233/3/5 229/3/5
f 237/1/5 235/1/5 234/1/5
f 238/1/5 232/1/5 235/1/5
f 238/1/5 235/1/5 237/1/5
f 239/3/5 237/3/5 236/3/5
f 239/1/5 232/1/5 238/1/5
f 239/3/5 238/3/5 237/3/5
f 240/1/5 232/1/5 239/1/5
f 241/3/5 236/3/5 229/3/5
f 241/3/5 239/3/5 236/3/5
f 241/3/5 240/3/5 239/3/5
f 242/3/5 240/3/5 241/3/5
f 245/1/5 244/1/5 243/1/5
f 246/1/5 244/1/5 245/1/5
f 247/3/6 248/3/6 253/3/6
f 253/3/6 248/3/6 254/3/6
f 249/3/6 250/3/6 255/3/6
f 255/3/6 250/3/6 256/3/6
f 251/3/6 252/3/6 257/3/6
f 257/3/6 252/3/6 258/3/6
f 247/3/6 253/3/6 259/3/6
f 259/3/6 253/3/6 260/3/6
f 261/1/6 262/1/6 265/1/6
f 265/1/6 262/1/6 266/1/6
f 263/3/6 264/3/6 267/3/6
f 263/3/6 267/3/6 273/3/6
f 267/3/6 268/3/6 273/3/6
f 273/3/6 268/3/6 274/3/6
f 269/3/6 270/3/6 275/3/6
f 275/3/6 270/3/6 276/3/6
f 271/3/6 272/3/6 277/3/6
f 277/3/6 272/3/6 278/3/6
f 279/1/6 280/1/6 281/1/6
f 281/1/6 280/1/6 282/1/6
f 282/1/6 280/1/6 283/1/6
f 283/1/6 280/1/6 284/1/6
f 284/1/6 280/1/6 285/1/6
f 285/1/6 280/1/6 286/1/6
f 279/1/6 281/1/6 287/1/6
f 279/1/6 287/1/6 288/1/6
f 279/1/6 288/1/6 289/1/6
f 279/1/6 289/1/6 295/1/6
f 293/1/6 294/1/6 295/1/6
f 292/1/6 293/1/6 295/1/6
f 291/1/6 292/1/6 295/1/6
f 290/1/6 291/1/6 295/1/6
f 289/1/6 290/1/6 295/1/6
f 295/1/6 294/1/6 296/1/6
f 297/1/6 298/1/6 303/1/6
f 303/1/6 298/1/6 304/1/6
f 299/1/6 300/1/6 305/1/6
f 305/1/6 300/1/6 306/1/6
f 307/1/6 308/1/6 311/1/6
f 311/1/6 308/1/6 312/1/6
f 309/1/6 310/1/6 313/1/6
f 313/1/6 310/1/6 314/1/6
f 301/1/6 302/1/6 315/1/6
f 315/1/6 302/1/6 316/1/6
f 317/2/6 318/2/6 322/2/6
f 322/2/6 318/2/6 323/2/6
f 319/2/6 320/2/6 324/2/6
f 322/2/6 323/2/6 325/2/6
f 323/2/6 324/2/6 325/2/6
f 321/2/6 322/2/6 325/2/6
f 325/2/6 324/2/6 326/2/6
f 326/2/6 324/2/6 327/2/6
f 324/2/6 320/2/6 328/2/6
f 327/2/6 324/2/6 328/2/6
f 326/2/6 327/2/6 329/2/6
f 329/2/6 327/2/6 330/2/6
f 328/2/6 320/2/6 331/2/6
f 331/2/6 320/2/6 332/2/6
