# MagicaVoxel @ Ephtracy

# group
o 

# material
mtllib WeaponBattery#1.mtl
usemtl palette

# normals
vn -1 0 0
vn 1 0 0
vn 0 0 1
vn 0 0 -1
vn 0 -1 0
vn 0 1 0

# texcoords
vt 0.970703 0.5
vt 0.974609 0.5
vt 0.978516 0.5
vt 0.982422 0.5

# verts
v 0 2.2 0
v 0 2.2 -0.9
v 0 2.4 0
v 0 2.4 -0.9
v 0 2.9 0
v 0 2.9 -0.9
v 0 3.1 0
v 0 3.1 -0.9
v 0.2 2 -0.3
v 0.2 2 -0.6
v 0.2 2.2 -0.3
v 0.2 2.2 -0.6
v 0.2 2.4 -0.3
v 0.2 2.4 -0.6
v 0.2 2.9 -0.3
v 0.2 2.9 -0.6
v 0.2 3.1 -0.3
v 0.2 3.1 -0.6
v 0.2 3.3 -0.3
v 0.2 3.3 -0.6
v 0.3 2.1 -0.2
v 0.3 2.1 -0.3
v 0.3 2.1 -0.6
v 0.3 2.1 -0.7
v 0.3 2.2 -0.2
v 0.3 2.2 -0.7
v 0.3 2.4 -0.2
v 0.3 2.4 -0.7
v 0.3 2.9 -0.2
v 0.3 2.9 -0.7
v 0.3 3.1 -0.2
v 0.3 3.1 -0.7
v 0.3 3.2 -0.2
v 0.3 3.2 -0.3
v 0.3 3.2 -0.6
v 0.3 3.2 -0.7
v 0.7 2.2 -0.2
v 0.7 2.2 -0.3
v 0.7 2.2 -0.6
v 0.7 2.2 -0.7
v 0.7 2.4 0
v 0.7 2.4 -0.2
v 0.7 2.4 -0.7
v 0.7 2.4 -0.9
v 0.7 2.9 0
v 0.7 2.9 -0.2
v 0.7 2.9 -0.7
v 0.7 2.9 -0.9
v 0.7 3.1 -0.2
v 0.7 3.1 -0.3
v 0.7 3.1 -0.6
v 0.7 3.1 -0.7
v 0.2 2.2 -0.2
v 0.2 2.2 -0.3
v 0.2 2.2 -0.6
v 0.2 2.2 -0.7
v 0.2 2.4 -0.2
v 0.2 2.4 -0.3
v 0.2 2.4 -0.6
v 0.2 2.4 -0.7
v 0.2 2.9 -0.2
v 0.2 2.9 -0.3
v 0.2 2.9 -0.6
v 0.2 2.9 -0.7
v 0.2 3.1 -0.2
v 0.2 3.1 -0.3
v 0.2 3.1 -0.6
v 0.2 3.1 -0.7
v 0.6 2.1 -0.2
v 0.6 2.1 -0.3
v 0.6 2.1 -0.6
v 0.6 2.1 -0.7
v 0.6 2.2 -0.2
v 0.6 2.2 -0.7
v 0.6 2.4 -0.2
v 0.6 2.4 -0.7
v 0.6 2.9 -0.2
v 0.6 2.9 -0.7
v 0.6 3.1 -0.2
v 0.6 3.1 -0.7
v 0.6 3.2 -0.2
v 0.6 3.2 -0.3
v 0.6 3.2 -0.6
v 0.6 3.2 -0.7
v 0.7 2 -0.3
v 0.7 2 -0.6
v 0.7 2.2 -0.3
v 0.7 2.2 -0.6
v 0.7 3.1 -0.3
v 0.7 3.1 -0.6
v 0.7 3.3 -0.3
v 0.7 3.3 -0.6
v 0.8 2.2 0
v 0.8 2.2 -0.9
v 0.8 2.3 -0.1
v 0.8 2.3 -0.8
v 0.8 3 -0.1
v 0.8 3 -0.8
v 0.8 3.1 0
v 0.8 3.1 -0.9
v 0.9 2.3 -0.1
v 0.9 2.3 -0.8
v 0.9 2.6 -0.4
v 0.9 2.6 -0.5
v 0.9 2.7 -0.4
v 0.9 2.7 -0.5
v 0.9 3 -0.1
v 0.9 3 -0.8
v 1 2.6 -0.4
v 1 2.6 -0.5
v 1 2.7 -0.4
v 1 2.7 -0.5
v 0 2.2 0
v 0 2.4 0
v 0 2.9 0
v 0 3.1 0
v 0.7 2.4 0
v 0.7 2.9 0
v 0.8 2.2 0
v 0.8 3.1 0
v 0.8 2.3 -0.1
v 0.8 3 -0.1
v 0.9 2.3 -0.1
v 0.9 3 -0.1
v 0.3 2.1 -0.2
v 0.3 2.2 -0.2
v 0.3 2.4 -0.2
v 0.3 2.9 -0.2
v 0.3 3.1 -0.2
v 0.3 3.2 -0.2
v 0.6 2.1 -0.2
v 0.6 2.2 -0.2
v 0.6 2.4 -0.2
v 0.6 2.9 -0.2
v 0.6 3.1 -0.2
v 0.6 3.2 -0.2
v 0.2 2 -0.3
v 0.2 2.2 -0.3
v 0.2 2.4 -0.3
v 0.2 2.9 -0.3
v 0.2 3.1 -0.3
v 0.2 3.3 -0.3
v 0.3 2.1 -0.3
v 0.3 3.2 -0.3
v 0.6 2.1 -0.3
v 0.6 3.2 -0.3
v 0.7 2 -0.3
v 0.7 2.2 -0.3
v 0.7 3.1 -0.3
v 0.7 3.3 -0.3
v 0.9 2.6 -0.4
v 0.9 2.7 -0.4
v 1 2.6 -0.4
v 1 2.7 -0.4
v 0.2 2.2 -0.7
v 0.2 2.4 -0.7
v 0.2 2.9 -0.7
v 0.2 3.1 -0.7
v 0.3 2.2 -0.7
v 0.3 2.4 -0.7
v 0.3 2.9 -0.7
v 0.3 3.1 -0.7
v 0.6 2.2 -0.7
v 0.6 2.4 -0.7
v 0.6 2.9 -0.7
v 0.6 3.1 -0.7
v 0.7 2.2 -0.7
v 0.7 2.4 -0.7
v 0.7 2.9 -0.7
v 0.7 3.1 -0.7
v 0.2 2.2 -0.2
v 0.2 2.4 -0.2
v 0.2 2.9 -0.2
v 0.2 3.1 -0.2
v 0.3 2.2 -0.2
v 0.3 2.4 -0.2
v 0.3 2.9 -0.2
v 0.3 3.1 -0.2
v 0.6 2.2 -0.2
v 0.6 2.4 -0.2
v 0.6 2.9 -0.2
v 0.6 3.1 -0.2
v 0.7 2.2 -0.2
v 0.7 2.4 -0.2
v 0.7 2.9 -0.2
v 0.7 3.1 -0.2
v 0.9 2.6 -0.5
v 0.9 2.7 -0.5
v 1 2.6 -0.5
v 1 2.7 -0.5
v 0.2 2 -0.6
v 0.2 2.2 -0.6
v 0.2 2.4 -0.6
v 0.2 2.9 -0.6
v 0.2 3.1 -0.6
v 0.2 3.3 -0.6
v 0.3 2.1 -0.6
v 0.3 3.2 -0.6
v 0.6 2.1 -0.6
v 0.6 3.2 -0.6
v 0.7 2 -0.6
v 0.7 2.2 -0.6
v 0.7 3.1 -0.6
v 0.7 3.3 -0.6
v 0.3 2.1 -0.7
v 0.3 2.2 -0.7
v 0.3 2.4 -0.7
v 0.3 2.9 -0.7
v 0.3 3.1 -0.7
v 0.3 3.2 -0.7
v 0.6 2.1 -0.7
v 0.6 2.2 -0.7
v 0.6 2.4 -0.7
v 0.6 2.9 -0.7
v 0.6 3.1 -0.7
v 0.6 3.2 -0.7
v 0.8 2.3 -0.8
v 0.8 3 -0.8
v 0.9 2.3 -0.8
v 0.9 3 -0.8
v 0 2.2 -0.9
v 0 2.4 -0.9
v 0 2.9 -0.9
v 0 3.1 -0.9
v 0.7 2.4 -0.9
v 0.7 2.9 -0.9
v 0.8 2.2 -0.9
v 0.8 3.1 -0.9
v 0.2 2 -0.3
v 0.7 2 -0.3
v 0.2 2 -0.6
v 0.7 2 -0.6
v 0.3 2.1 -0.2
v 0.6 2.1 -0.2
v 0.3 2.1 -0.3
v 0.6 2.1 -0.3
v 0.3 2.1 -0.6
v 0.6 2.1 -0.6
v 0.3 2.1 -0.7
v 0.6 2.1 -0.7
v 0 2.2 0
v 0.8 2.2 0
v 0.2 2.2 -0.2
v 0.3 2.2 -0.2
v 0.6 2.2 -0.2
v 0.7 2.2 -0.2
v 0.2 2.2 -0.3
v 0.7 2.2 -0.3
v 0.2 2.2 -0.6
v 0.7 2.2 -0.6
v 0.2 2.2 -0.7
v 0.3 2.2 -0.7
v 0.6 2.2 -0.7
v 0.7 2.2 -0.7
v 0 2.2 -0.9
v 0.8 2.2 -0.9
v 0.8 2.3 -0.1
v 0.9 2.3 -0.1
v 0.8 2.3 -0.8
v 0.9 2.3 -0.8
v 0.9 2.6 -0.4
v 1 2.6 -0.4
v 0.9 2.6 -0.5
v 1 2.6 -0.5
v 0 2.9 0
v 0.7 2.9 0
v 0.2 2.9 -0.2
v 0.3 2.9 -0.2
v 0.6 2.9 -0.2
v 0.7 2.9 -0.2
v 0.2 2.9 -0.3
v 0.2 2.9 -0.6
v 0.2 2.9 -0.7
v 0.3 2.9 -0.7
v 0.6 2.9 -0.7
v 0.7 2.9 -0.7
v 0 2.9 -0.9
v 0.7 2.9 -0.9
v 0 2.4 0
v 0.7 2.4 0
v 0.2 2.4 -0.2
v 0.3 2.4 -0.2
v 0.6 2.4 -0.2
v 0.7 2.4 -0.2
v 0.2 2.4 -0.3
v 0.2 2.4 -0.6
v 0.2 2.4 -0.7
v 0.3 2.4 -0.7
v 0.6 2.4 -0.7
v 0.7 2.4 -0.7
v 0 2.4 -0.9
v 0.7 2.4 -0.9
v 0.9 2.7 -0.4
v 1 2.7 -0.4
v 0.9 2.7 -0.5
v 1 2.7 -0.5
v 0.8 3 -0.1
v 0.9 3 -0.1
v 0.8 3 -0.8
v 0.9 3 -0.8
v 0 3.1 0
v 0.8 3.1 0
v 0.2 3.1 -0.2
v 0.3 3.1 -0.2
v 0.6 3.1 -0.2
v 0.7 3.1 -0.2
v 0.2 3.1 -0.3
v 0.7 3.1 -0.3
v 0.2 3.1 -0.6
v 0.7 3.1 -0.6
v 0.2 3.1 -0.7
v 0.3 3.1 -0.7
v 0.6 3.1 -0.7
v 0.7 3.1 -0.7
v 0 3.1 -0.9
v 0.8 3.1 -0.9
v 0.3 3.2 -0.2
v 0.6 3.2 -0.2
v 0.3 3.2 -0.3
v 0.6 3.2 -0.3
v 0.3 3.2 -0.6
v 0.6 3.2 -0.6
v 0.3 3.2 -0.7
v 0.6 3.2 -0.7
v 0.2 3.3 -0.3
v 0.7 3.3 -0.3
v 0.2 3.3 -0.6
v 0.7 3.3 -0.6

# faces
f 3/2/1 2/2/1 1/2/1
f 4/2/1 2/2/1 3/2/1
f 7/2/1 6/2/1 5/2/1
f 8/2/1 6/2/1 7/2/1
f 11/1/1 10/1/1 9/1/1
f 12/1/1 10/1/1 11/1/1
f 15/1/1 14/1/1 13/1/1
f 16/1/1 14/1/1 15/1/1
f 19/1/1 18/1/1 17/1/1
f 20/1/1 18/1/1 19/1/1
f 25/4/1 22/4/1 21/4/1
f 26/4/1 24/4/1 23/4/1
f 27/4/1 22/4/1 25/4/1
f 28/4/1 26/4/1 23/4/1
f 29/4/1 22/4/1 27/4/1
f 30/4/1 28/4/1 23/4/1
f 31/4/1 22/4/1 29/4/1
f 32/4/1 30/4/1 23/4/1
f 33/4/1 22/4/1 31/4/1
f 34/4/1 22/4/1 33/4/1
f 35/4/1 32/4/1 23/4/1
f 36/4/1 32/4/1 35/4/1
f 42/2/1 38/2/1 37/2/1
f 43/2/1 40/2/1 39/2/1
f 45/2/1 42/2/1 41/2/1
f 46/2/1 38/2/1 42/2/1
f 46/2/1 42/2/1 45/2/1
f 47/2/1 44/2/1 43/2/1
f 47/2/1 43/2/1 39/2/1
f 48/2/1 44/2/1 47/2/1
f 49/2/1 38/2/1 46/2/1
f 50/2/1 38/2/1 49/2/1
f 51/2/1 47/2/1 39/2/1
f 52/2/1 47/2/1 51/2/1
f 53/2/2 54/2/2 57/2/2
f 57/2/2 54/2/2 58/2/2
f 55/2/2 56/2/2 59/2/2
f 59/2/2 56/2/2 60/2/2
f 61/2/2 62/2/2 65/2/2
f 65/2/2 62/2/2 66/2/2
f 63/2/2 64/2/2 67/2/2
f 67/2/2 64/2/2 68/2/2
f 69/4/2 70/4/2 73/4/2
f 71/4/2 72/4/2 74/4/2
f 73/4/2 70/4/2 75/4/2
f 71/4/2 74/4/2 76/4/2
f 75/4/2 70/4/2 77/4/2
f 71/4/2 76/4/2 78/4/2
f 77/4/2 70/4/2 79/4/2
f 71/4/2 78/4/2 80/4/2
f 79/4/2 70/4/2 81/4/2
f 81/4/2 70/4/2 82/4/2
f 71/4/2 80/4/2 83/4/2
f 83/4/2 80/4/2 84/4/2
f 85/1/2 86/1/2 87/1/2
f 87/1/2 86/1/2 88/1/2
f 89/1/2 90/1/2 91/1/2
f 91/1/2 90/1/2 92/1/2
f 93/2/2 94/2/2 95/2/2
f 95/2/2 94/2/2 96/2/2
f 93/2/2 95/2/2 97/2/2
f 96/2/2 94/2/2 98/2/2
f 93/2/2 97/2/2 99/2/2
f 97/2/2 98/2/2 99/2/2
f 98/2/2 94/2/2 100/2/2
f 99/2/2 98/2/2 100/2/2
f 101/3/2 102/3/2 103/3/2
f 103/3/2 102/3/2 104/3/2
f 101/3/2 103/3/2 105/3/2
f 104/3/2 102/3/2 106/3/2
f 101/3/2 105/3/2 107/3/2
f 105/3/2 106/3/2 107/3/2
f 106/3/2 102/3/2 108/3/2
f 107/3/2 106/3/2 108/3/2
f 109/3/2 110/3/2 111/3/2
f 111/3/2 110/3/2 112/3/2
f 117/2/3 114/2/3 113/2/3
f 118/2/3 116/2/3 115/2/3
f 119/2/3 117/2/3 113/2/3
f 119/2/3 118/2/3 117/2/3
f 120/2/3 116/2/3 118/2/3
f 120/2/3 118/2/3 119/2/3
f 123/3/3 122/3/3 121/3/3
f 124/3/3 122/3/3 123/3/3
f 131/4/3 126/4/3 125/4/3
f 132/4/3 126/4/3 131/4/3
f 133/4/3 128/4/3 127/4/3
f 134/4/3 128/4/3 133/4/3
f 135/4/3 130/4/3 129/4/3
f 136/4/3 130/4/3 135/4/3
f 143/1/3 138/1/3 137/1/3
f 143/1/3 142/1/3 141/1/3
f 143/1/3 141/1/3 140/1/3
f 143/1/3 140/1/3 139/1/3
f 143/1/3 139/1/3 138/1/3
f 144/1/3 142/1/3 143/1/3
f 145/1/3 143/1/3 137/1/3
f 146/1/3 142/1/3 144/1/3
f 147/1/3 145/1/3 137/1/3
f 147/1/3 146/1/3 145/1/3
f 148/1/3 146/1/3 147/1/3
f 149/1/3 146/1/3 148/1/3
f 150/1/3 142/1/3 146/1/3
f 150/1/3 146/1/3 149/1/3
f 153/3/3 152/3/3 151/3/3
f 154/3/3 152/3/3 153/3/3
f 159/2/3 156/2/3 155/2/3
f 160/2/3 156/2/3 159/2/3
f 161/2/3 158/2/3 157/2/3
f 162/2/3 158/2/3 161/2/3
f 167/2/3 164/2/3 163/2/3
f 168/2/3 164/2/3 167/2/3
f 169/2/3 166/2/3 165/2/3
f 170/2/3 166/2/3 169/2/3
f 171/2/4 172/2/4 175/2/4
f 175/2/4 172/2/4 176/2/4
f 173/2/4 174/2/4 177/2/4
f 177/2/4 174/2/4 178/2/4
f 179/2/4 180/2/4 183/2/4
f 183/2/4 180/2/4 184/2/4
f 181/2/4 182/2/4 185/2/4
f 185/2/4 182/2/4 186/2/4
f 187/3/4 188/3/4 189/3/4
f 189/3/4 188/3/4 190/3/4
f 191/1/4 192/1/4 197/1/4
f 195/1/4 196/1/4 197/1/4
f 194/1/4 195/1/4 197/1/4
f 193/1/4 194/1/4 197/1/4
f 192/1/4 193/1/4 197/1/4
f 197/1/4 196/1/4 198/1/4
f 191/1/4 197/1/4 199/1/4
f 198/1/4 196/1/4 200/1/4
f 191/1/4 199/1/4 201/1/4
f 199/1/4 200/1/4 201/1/4
f 201/1/4 200/1/4 202/1/4
f 202/1/4 200/1/4 203/1/4
f 200/1/4 196/1/4 204/1/4
f 203/1/4 200/1/4 204/1/4
f 205/4/4 206/4/4 211/4/4
f 211/4/4 206/4/4 212/4/4
f 207/4/4 208/4/4 213/4/4
f 213/4/4 208/4/4 214/4/4
f 209/4/4 210/4/4 215/4/4
f 215/4/4 210/4/4 216/4/4
f 217/3/4 218/3/4 219/3/4
f 219/3/4 218/3/4 220/3/4
f 221/2/4 222/2/4 225/2/4
f 223/2/4 224/2/4 226/2/4
f 221/2/4 225/2/4 227/2/4
f 225/2/4 226/2/4 227/2/4
f 226/2/4 224/2/4 228/2/4
f 227/2/4 226/2/4 228/2/4
f 231/1/5 230/1/5 229/1/5
f 232/1/5 230/1/5 231/1/5
f 235/4/5 234/4/5 233/4/5
f 236/4/5 234/4/5 235/4/5
f 239/4/5 238/4/5 237/4/5
f 240/4/5 238/4/5 239/4/5
f 243/2/5 242/2/5 241/2/5
f 244/2/5 242/2/5 243/2/5
f 245/2/5 242/2/5 244/2/5
f 246/2/5 242/2/5 245/2/5
f 247/2/5 243/2/5 241/2/5
f 248/2/5 242/2/5 246/2/5
f 249/2/5 247/2/5 241/2/5
f 250/2/5 242/2/5 248/2/5
f 251/2/5 249/2/5 241/2/5
f 254/2/5 242/2/5 250/2/5
f 255/2/5 253/2/5 252/2/5
f 255/2/5 254/2/5 253/2/5
f 255/2/5 251/2/5 241/2/5
f 255/2/5 252/2/5 251/2/5
f 256/2/5 242/2/5 254/2/5
f 256/2/5 254/2/5 255/2/5
f 259/3/5 258/3/5 257/3/5
f 260/3/5 258/3/5 259/3/5
f 263/3/5 262/3/5 261/3/5
f 264/3/5 262/3/5 263/3/5
f 267/2/5 266/2/5 265/2/5
f 268/2/5 266/2/5 267/2/5
f 269/2/5 266/2/5 268/2/5
f 270/2/5 266/2/5 269/2/5
f 271/2/5 267/2/5 265/2/5
f 272/2/5 271/2/5 265/2/5
f 273/2/5 272/2/5 265/2/5
f 277/2/5 273/2/5 265/2/5
f 277/2/5 276/2/5 275/2/5
f 277/2/5 275/2/5 274/2/5
f 277/2/5 274/2/5 273/2/5
f 278/2/5 276/2/5 277/2/5
f 279/2/6 280/2/6 281/2/6
f 281/2/6 280/2/6 282/2/6
f 282/2/6 280/2/6 283/2/6
f 283/2/6 280/2/6 284/2/6
f 279/2/6 281/2/6 285/2/6
f 279/2/6 285/2/6 286/2/6
f 279/2/6 286/2/6 287/2/6
f 279/2/6 287/2/6 291/2/6
f 289/2/6 290/2/6 291/2/6
f 288/2/6 289/2/6 291/2/6
f 287/2/6 288/2/6 291/2/6
f 291/2/6 290/2/6 292/2/6
f 293/3/6 294/3/6 295/3/6
f 295/3/6 294/3/6 296/3/6
f 297/3/6 298/3/6 299/3/6
f 299/3/6 298/3/6 300/3/6
f 301/2/6 302/2/6 303/2/6
f 303/2/6 302/2/6 304/2/6
f 304/2/6 302/2/6 305/2/6
f 305/2/6 302/2/6 306/2/6
f 301/2/6 303/2/6 307/2/6
f 306/2/6 302/2/6 308/2/6
f 301/2/6 307/2/6 309/2/6
f 308/2/6 302/2/6 310/2/6
f 301/2/6 309/2/6 311/2/6
f 310/2/6 302/2/6 314/2/6
f 312/2/6 313/2/6 315/2/6
f 313/2/6 314/2/6 315/2/6
f 301/2/6 311/2/6 315/2/6
f 311/2/6 312/2/6 315/2/6
f 314/2/6 302/2/6 316/2/6
f 315/2/6 314/2/6 316/2/6
f 317/4/6 318/4/6 319/4/6
f 319/4/6 318/4/6 320/4/6
f 321/4/6 322/4/6 323/4/6
f 323/4/6 322/4/6 324/4/6
f 325/1/6 326/1/6 327/1/6
f 327/1/6 326/1/6 328/1/6
