# MagicaVoxel @ Ephtracy

# group
o 

# material
mtllib WeaponTargetting#2.mtl
usemtl palette

# normals
vn -1 0 0
vn 1 0 0
vn 0 0 1
vn 0 0 -1
vn 0 -1 0
vn 0 1 0

# texcoords
vt 0.970703 0.5
vt 0.974609 0.5
vt 0.978516 0.5

# verts
v 0 2.1 0
v 0 2.1 -0.7
v 0 2.2 0
v 0 2.2 -0.7
v 0 2.4 0
v 0 2.4 -0.2
v 0 2.4 -0.5
v 0 2.4 -0.7
v 0 2.5 -0.2
v 0 2.5 -0.5
v 0.3 2 -0.3
v 0.3 2 -0.4
v 0.3 2.1 -0.3
v 0.3 2.1 -0.4
v 0.3 2.3 0
v 0.3 2.3 -0.1
v 0.3 2.3 -0.6
v 0.3 2.3 -0.7
v 0.3 2.4 -0.1
v 0.3 2.4 -0.2
v 0.3 2.4 -0.5
v 0.3 2.4 -0.6
v 0.3 2.5 0
v 0.3 2.5 -0.2
v 0.3 2.5 -0.5
v 0.3 2.5 -0.7
v 0.5 2.3 0
v 0.5 2.3 -0.1
v 0.5 2.3 -0.6
v 0.5 2.3 -0.7
v 0.5 2.4 0
v 0.5 2.4 -0.1
v 0.5 2.4 -0.6
v 0.5 2.4 -0.7
v 0.2 2.3 0
v 0.2 2.3 -0.1
v 0.2 2.3 -0.6
v 0.2 2.3 -0.7
v 0.2 2.4 0
v 0.2 2.4 -0.1
v 0.2 2.4 -0.6
v 0.2 2.4 -0.7
v 0.4 2 -0.3
v 0.4 2 -0.4
v 0.4 2.1 -0.3
v 0.4 2.1 -0.4
v 0.4 2.3 0
v 0.4 2.3 -0.1
v 0.4 2.3 -0.6
v 0.4 2.3 -0.7
v 0.4 2.4 -0.1
v 0.4 2.4 -0.2
v 0.4 2.4 -0.5
v 0.4 2.4 -0.6
v 0.4 2.5 0
v 0.4 2.5 -0.2
v 0.4 2.5 -0.5
v 0.4 2.5 -0.7
v 0.7 2.1 0
v 0.7 2.1 -0.7
v 0.7 2.2 0
v 0.7 2.2 -0.1
v 0.7 2.2 -0.6
v 0.7 2.2 -0.7
v 0.7 2.3 -0.1
v 0.7 2.3 -0.6
v 0.7 2.4 0
v 0.7 2.4 -0.1
v 0.7 2.4 -0.2
v 0.7 2.4 -0.5
v 0.7 2.4 -0.6
v 0.7 2.4 -0.7
v 0.7 2.5 -0.2
v 0.7 2.5 -0.5
v 0 2.1 0
v 0 2.2 0
v 0 2.4 0
v 0.2 2.3 0
v 0.2 2.4 0
v 0.3 2.3 0
v 0.3 2.5 0
v 0.4 2.3 0
v 0.4 2.5 0
v 0.5 2.3 0
v 0.5 2.4 0
v 0.7 2.1 0
v 0.7 2.2 0
v 0.7 2.4 0
v 0.2 2.3 -0.1
v 0.2 2.4 -0.1
v 0.3 2.3 -0.1
v 0.3 2.4 -0.1
v 0.4 2.3 -0.1
v 0.4 2.4 -0.1
v 0.5 2.3 -0.1
v 0.5 2.4 -0.1
v 0 2.4 -0.2
v 0 2.5 -0.2
v 0.1 2.4 -0.2
v 0.3 2.4 -0.2
v 0.3 2.5 -0.2
v 0.4 2.4 -0.2
v 0.4 2.5 -0.2
v 0.7 2.4 -0.2
v 0.7 2.5 -0.2
v 0.3 2 -0.3
v 0.3 2.1 -0.3
v 0.4 2 -0.3
v 0.4 2.1 -0.3
v 0.3 2 -0.4
v 0.3 2.1 -0.4
v 0.4 2 -0.4
v 0.4 2.1 -0.4
v 0 2.4 -0.5
v 0 2.5 -0.5
v 0.1 2.4 -0.5
v 0.3 2.4 -0.5
v 0.3 2.5 -0.5
v 0.4 2.4 -0.5
v 0.4 2.5 -0.5
v 0.7 2.4 -0.5
v 0.7 2.5 -0.5
v 0.2 2.3 -0.6
v 0.2 2.4 -0.6
v 0.3 2.3 -0.6
v 0.3 2.4 -0.6
v 0.4 2.3 -0.6
v 0.4 2.4 -0.6
v 0.5 2.3 -0.6
v 0.5 2.4 -0.6
v 0 2.1 -0.7
v 0 2.2 -0.7
v 0 2.4 -0.7
v 0.2 2.3 -0.7
v 0.2 2.4 -0.7
v 0.3 2.3 -0.7
v 0.3 2.5 -0.7
v 0.4 2.3 -0.7
v 0.4 2.5 -0.7
v 0.5 2.3 -0.7
v 0.5 2.4 -0.7
v 0.7 2.1 -0.7
v 0.7 2.2 -0.7
v 0.7 2.4 -0.7
v 0.3 2 -0.3
v 0.4 2 -0.3
v 0.3 2 -0.4
v 0.4 2 -0.4
v 0 2.1 0
v 0.7 2.1 0
v 0.3 2.1 -0.3
v 0.4 2.1 -0.3
v 0.3 2.1 -0.4
v 0.4 2.1 -0.4
v 0 2.1 -0.7
v 0.7 2.1 -0.7
v 0.2 2.3 0
v 0.3 2.3 0
v 0.4 2.3 0
v 0.5 2.3 0
v 0.2 2.3 -0.1
v 0.3 2.3 -0.1
v 0.4 2.3 -0.1
v 0.5 2.3 -0.1
v 0.2 2.3 -0.6
v 0.3 2.3 -0.6
v 0.4 2.3 -0.6
v 0.5 2.3 -0.6
v 0.2 2.3 -0.7
v 0.3 2.3 -0.7
v 0.4 2.3 -0.7
v 0.5 2.3 -0.7
v 0 2.4 0
v 0.2 2.4 0
v 0.5 2.4 0
v 0.7 2.4 0
v 0.1 2.4 -0.1
v 0.2 2.4 -0.1
v 0.3 2.4 -0.1
v 0.4 2.4 -0.1
v 0.5 2.4 -0.1
v 0.7 2.4 -0.1
v 0 2.4 -0.2
v 0.1 2.4 -0.2
v 0.3 2.4 -0.2
v 0.4 2.4 -0.2
v 0.7 2.4 -0.2
v 0 2.4 -0.5
v 0.1 2.4 -0.5
v 0.3 2.4 -0.5
v 0.4 2.4 -0.5
v 0.7 2.4 -0.5
v 0.1 2.4 -0.6
v 0.2 2.4 -0.6
v 0.3 2.4 -0.6
v 0.4 2.4 -0.6
v 0.5 2.4 -0.6
v 0.7 2.4 -0.6
v 0 2.4 -0.7
v 0.2 2.4 -0.7
v 0.5 2.4 -0.7
v 0.7 2.4 -0.7
v 0.3 2.5 0
v 0.4 2.5 0
v 0 2.5 -0.2
v 0.3 2.5 -0.2
v 0.4 2.5 -0.2
v 0.7 2.5 -0.2
v 0 2.5 -0.5
v 0.3 2.5 -0.5
v 0.4 2.5 -0.5
v 0.7 2.5 -0.5
v 0.3 2.5 -0.7
v 0.4 2.5 -0.7

# faces
f 3/3/1 2/3/1 1/3/1
f 4/3/1 2/3/1 3/3/1
f 5/2/1 4/2/1 3/2/1
f 6/2/1 4/2/1 5/2/1
f 7/2/1 4/2/1 6/2/1
f 8/2/1 4/2/1 7/2/1
f 9/2/1 7/2/1 6/2/1
f 10/2/1 7/2/1 9/2/1
f 13/3/1 12/3/1 11/3/1
f 14/3/1 12/3/1 13/3/1
f 19/2/1 16/2/1 15/2/1
f 22/2/1 18/2/1 17/2/1
f 23/2/1 20/2/1 19/2/1
f 23/2/1 19/2/1 15/2/1
f 24/2/1 20/2/1 23/2/1
f 25/2/1 22/2/1 21/2/1
f 26/2/1 18/2/1 22/2/1
f 26/2/1 22/2/1 25/2/1
f 31/2/1 28/2/1 27/2/1
f 32/2/1 28/2/1 31/2/1
f 33/2/1 30/2/1 29/2/1
f 34/2/1 30/2/1 33/2/1
f 35/2/2 36/2/2 39/2/2
f 39/2/2 36/2/2 40/2/2
f 37/2/2 38/2/2 41/2/2
f 41/2/2 38/2/2 42/2/2
f 43/3/2 44/3/2 45/3/2
f 45/3/2 44/3/2 46/3/2
f 47/2/2 48/2/2 51/2/2
f 49/2/2 50/2/2 54/2/2
f 51/2/2 52/2/2 55/2/2
f 47/2/2 51/2/2 55/2/2
f 55/2/2 52/2/2 56/2/2
f 53/2/2 54/2/2 57/2/2
f 54/2/2 50/2/2 58/2/2
f 57/2/2 54/2/2 58/2/2
f 59/3/2 60/3/2 61/3/2
f 61/3/2 60/3/2 62/3/2
f 62/3/2 60/3/2 63/3/2
f 63/3/2 60/3/2 64/3/2
f 61/2/2 62/2/2 65/2/2
f 62/3/2 63/3/2 65/3/2
f 63/2/2 64/2/2 66/2/2
f 65/3/2 63/3/2 66/3/2
f 61/2/2 65/2/2 67/2/2
f 65/1/2 66/1/2 68/1/2
f 67/2/2 65/2/2 68/2/2
f 68/1/2 66/1/2 69/1/2
f 69/1/2 66/1/2 70/1/2
f 66/2/2 64/2/2 71/2/2
f 70/1/2 66/1/2 71/1/2
f 71/2/2 64/2/2 72/2/2
f 69/2/2 70/2/2 73/2/2
f 73/2/2 70/2/2 74/2/2
f 78/2/3 77/2/3 76/2/3
f 79/2/3 77/2/3 78/2/3
f 80/2/3 78/2/3 76/2/3
f 82/2/3 80/2/3 76/2/3
f 82/2/3 81/2/3 80/2/3
f 83/2/3 81/2/3 82/2/3
f 84/2/3 82/2/3 76/2/3
f 86/3/3 76/3/3 75/3/3
f 87/2/3 85/2/3 84/2/3
f 87/3/3 76/3/3 86/3/3
f 87/2/3 84/2/3 76/2/3
f 88/2/3 85/2/3 87/2/3
f 91/1/3 90/1/3 89/1/3
f 92/1/3 90/1/3 91/1/3
f 95/1/3 94/1/3 93/1/3
f 96/1/3 94/1/3 95/1/3
f 99/2/3 98/2/3 97/2/3
f 100/2/3 98/2/3 99/2/3
f 101/2/3 98/2/3 100/2/3
f 104/2/3 103/2/3 102/2/3
f 105/2/3 103/2/3 104/2/3
f 108/3/3 107/3/3 106/3/3
f 109/3/3 107/3/3 108/3/3
f 110/3/4 111/3/4 112/3/4
f 112/3/4 111/3/4 113/3/4
f 114/2/4 115/2/4 116/2/4
f 116/2/4 115/2/4 117/2/4
f 117/2/4 115/2/4 118/2/4
f 119/2/4 120/2/4 121/2/4
f 121/2/4 120/2/4 122/2/4
f 123/1/4 124/1/4 125/1/4
f 125/1/4 124/1/4 126/1/4
f 127/1/4 128/1/4 129/1/4
f 129/1/4 128/1/4 130/1/4
f 132/2/4 133/2/4 134/2/4
f 134/2/4 133/2/4 135/2/4
f 132/2/4 134/2/4 136/2/4
f 132/2/4 136/2/4 138/2/4
f 136/2/4 137/2/4 138/2/4
f 138/2/4 137/2/4 139/2/4
f 132/2/4 138/2/4 140/2/4
f 131/3/4 132/3/4 142/3/4
f 140/2/4 141/2/4 143/2/4
f 142/3/4 132/3/4 143/3/4
f 132/2/4 140/2/4 143/2/4
f 143/2/4 141/2/4 144/2/4
f 147/3/5 146/3/5 145/3/5
f 148/3/5 146/3/5 147/3/5
f 151/3/5 150/3/5 149/3/5
f 152/3/5 150/3/5 151/3/5
f 153/3/5 151/3/5 149/3/5
f 154/3/5 150/3/5 152/3/5
f 155/3/5 153/3/5 149/3/5
f 155/3/5 154/3/5 153/3/5
f 156/3/5 150/3/5 154/3/5
f 156/3/5 154/3/5 155/3/5
f 157/2/6 158/2/6 161/2/6
f 161/2/6 158/2/6 162/2/6
f 159/2/6 160/2/6 163/2/6
f 163/2/6 160/2/6 164/2/6
f 165/2/6 166/2/6 169/2/6
f 169/2/6 166/2/6 170/2/6
f 167/2/6 168/2/6 171/2/6
f 171/2/6 168/2/6 172/2/6
f 173/2/6 174/2/6 177/2/6
f 177/2/6 174/2/6 178/2/6
f 175/2/6 176/2/6 181/2/6
f 181/2/6 176/2/6 182/2/6
f 173/2/6 177/2/6 183/2/6
f 178/1/6 179/1/6 184/1/6
f 183/2/6 177/2/6 184/2/6
f 177/1/6 178/1/6 184/1/6
f 184/1/6 179/1/6 185/1/6
f 181/1/6 182/1/6 186/1/6
f 180/1/6 181/1/6 186/1/6
f 186/1/6 182/1/6 187/1/6
f 188/2/6 189/2/6 193/2/6
f 189/1/6 190/1/6 193/1/6
f 193/1/6 190/1/6 194/1/6
f 194/1/6 190/1/6 195/1/6
f 191/1/6 192/1/6 196/1/6
f 196/1/6 192/1/6 197/1/6
f 197/1/6 192/1/6 198/1/6
f 188/2/6 193/2/6 199/2/6
f 193/2/6 194/2/6 199/2/6
f 199/2/6 194/2/6 200/2/6
f 197/2/6 198/2/6 201/2/6
f 201/2/6 198/2/6 202/2/6
f 203/2/6 204/2/6 206/2/6
f 206/2/6 204/2/6 207/2/6
f 205/2/6 206/2/6 209/2/6
f 207/2/6 208/2/6 209/2/6
f 206/2/6 207/2/6 209/2/6
f 209/2/6 208/2/6 210/2/6
f 210/2/6 208/2/6 211/2/6
f 211/2/6 208/2/6 212/2/6
f 210/2/6 211/2/6 213/2/6
f 213/2/6 211/2/6 214/2/6
