# MagicaVoxel @ Ephtracy

# group
o 

# material
mtllib WeaponMagazine#1.mtl
usemtl palette

# normals
vn -1 0 0
vn 1 0 0
vn 0 0 1
vn 0 0 -1
vn 0 -1 0
vn 0 1 0

# texcoords
vt 0.970703 0.5
vt 0.974609 0.5
vt 0.978516 0.5
vt 0.982422 0.5

# verts
v 0 3 -0.4
v 0 3 -0.5
v 0 3.1 -0.4
v 0 3.1 -0.5
v 0.1 2 -0.3
v 0.1 2 -0.6
v 0.1 2.4 -0.2
v 0.1 2.4 -0.3
v 0.1 2.4 -0.6
v 0.1 2.4 -0.7
v 0.1 2.6 0
v 0.1 2.6 -0.2
v 0.1 2.6 -0.7
v 0.1 2.6 -0.9
v 0.1 2.7 -0.1
v 0.1 2.7 -0.8
v 0.1 3 -0.4
v 0.1 3 -0.5
v 0.1 3.1 -0.4
v 0.1 3.1 -0.5
v 0.1 3.4 -0.1
v 0.1 3.4 -0.8
v 0.1 3.5 0
v 0.1 3.5 -0.9
v 0.2 2 -0.2
v 0.2 2 -0.3
v 0.2 2 -0.6
v 0.2 2 -0.7
v 0.2 2.4 -0.2
v 0.2 2.4 -0.3
v 0.2 2.4 -0.6
v 0.2 2.4 -0.7
v 0.3 2.1 -0.1
v 0.3 2.1 -0.2
v 0.3 2.1 -0.7
v 0.3 2.1 -0.8
v 0.3 2.6 -0.1
v 0.3 2.6 -0.2
v 0.3 2.6 -0.7
v 0.3 2.6 -0.8
v 0.9 2.2 -0.1
v 0.9 2.2 -0.2
v 0.9 2.2 -0.7
v 0.9 2.2 -0.8
v 0.9 2.3 -0.1
v 0.9 2.3 -0.2
v 0.9 2.3 -0.7
v 0.9 2.3 -0.8
v 0.9 2.4 -0.1
v 0.9 2.4 -0.2
v 0.9 2.4 -0.7
v 0.9 2.4 -0.8
v 0.9 2.5 -0.1
v 0.9 2.5 -0.2
v 0.9 2.5 -0.7
v 0.9 2.5 -0.8
v 0.9 2.6 -0.1
v 0.9 2.6 -0.2
v 0.9 2.6 -0.7
v 0.9 2.6 -0.8
v 0.9 2.7 -0.1
v 0.9 2.7 -0.2
v 0.9 2.7 -0.7
v 0.9 2.7 -0.8
v 0.9 2.8 -0.1
v 0.9 2.8 -0.2
v 0.9 2.8 -0.7
v 0.9 2.8 -0.8
v 0.9 2.9 -0.1
v 0.9 2.9 -0.2
v 0.9 2.9 -0.7
v 0.9 2.9 -0.8
v 0.9 3 -0.1
v 0.9 3 -0.2
v 0.9 3 -0.7
v 0.9 3 -0.8
v 0.9 3.1 -0.1
v 0.9 3.1 -0.2
v 0.9 3.1 -0.7
v 0.9 3.1 -0.8
v 0.9 3.2 -0.1
v 0.9 3.2 -0.2
v 0.9 3.2 -0.7
v 0.9 3.2 -0.8
v 0.9 3.3 -0.1
v 0.9 3.3 -0.2
v 0.9 3.3 -0.3
v 0.9 3.3 -0.4
v 0.9 3.3 -0.5
v 0.9 3.3 -0.6
v 0.9 3.3 -0.7
v 0.9 3.3 -0.8
v 0.9 3.4 -0.3
v 0.9 3.4 -0.4
v 0.9 3.4 -0.5
v 0.9 3.4 -0.6
v 1 2.6 0
v 1 2.6 -0.1
v 1 2.6 -0.8
v 1 2.6 -0.9
v 1 3.4 0
v 1 3.4 -0.1
v 1 3.4 -0.8
v 1 3.4 -0.9
v 1 3.5 -0.1
v 1 3.5 -0.8
v 0.3 2.6 0
v 0.3 2.6 -0.1
v 0.3 2.6 -0.8
v 0.3 2.6 -0.9
v 0.3 3.4 0
v 0.3 3.4 -0.1
v 0.3 3.4 -0.8
v 0.3 3.4 -0.9
v 0.3 3.5 -0.1
v 0.3 3.5 -0.8
v 0.4 2.2 -0.1
v 0.4 2.2 -0.2
v 0.4 2.2 -0.7
v 0.4 2.2 -0.8
v 0.4 2.3 -0.1
v 0.4 2.3 -0.2
v 0.4 2.3 -0.7
v 0.4 2.3 -0.8
v 0.4 2.4 -0.1
v 0.4 2.4 -0.2
v 0.4 2.4 -0.7
v 0.4 2.4 -0.8
v 0.4 2.5 -0.1
v 0.4 2.5 -0.2
v 0.4 2.5 -0.7
v 0.4 2.5 -0.8
v 0.4 2.6 -0.1
v 0.4 2.6 -0.2
v 0.4 2.6 -0.7
v 0.4 2.6 -0.8
v 0.4 2.7 -0.1
v 0.4 2.7 -0.2
v 0.4 2.7 -0.7
v 0.4 2.7 -0.8
v 0.4 2.8 -0.1
v 0.4 2.8 -0.2
v 0.4 2.8 -0.7
v 0.4 2.8 -0.8
v 0.4 2.9 -0.1
v 0.4 2.9 -0.2
v 0.4 2.9 -0.7
v 0.4 2.9 -0.8
v 0.4 3 -0.1
v 0.4 3 -0.2
v 0.4 3 -0.7
v 0.4 3 -0.8
v 0.4 3.1 -0.1
v 0.4 3.1 -0.2
v 0.4 3.1 -0.7
v 0.4 3.1 -0.8
v 0.4 3.2 -0.1
v 0.4 3.2 -0.2
v 0.4 3.2 -0.7
v 0.4 3.2 -0.8
v 0.4 3.3 -0.1
v 0.4 3.3 -0.2
v 0.4 3.3 -0.3
v 0.4 3.3 -0.4
v 0.4 3.3 -0.5
v 0.4 3.3 -0.6
v 0.4 3.3 -0.7
v 0.4 3.3 -0.8
v 0.4 3.4 -0.3
v 0.4 3.4 -0.4
v 0.4 3.4 -0.5
v 0.4 3.4 -0.6
v 0.9 2.8 -0.4
v 0.9 2.8 -0.5
v 0.9 3.3 -0.4
v 0.9 3.3 -0.5
v 1 2.1 -0.1
v 1 2.1 -0.2
v 1 2.1 -0.7
v 1 2.1 -0.8
v 1 2.6 -0.1
v 1 2.6 -0.2
v 1 2.6 -0.7
v 1 2.6 -0.8
v 1 2.7 -0.4
v 1 2.7 -0.5
v 1 2.8 -0.4
v 1 2.8 -0.5
v 1 3.3 -0.4
v 1 3.3 -0.5
v 1 3.4 -0.4
v 1 3.4 -0.5
v 1.1 2 -0.2
v 1.1 2 -0.3
v 1.1 2 -0.6
v 1.1 2 -0.7
v 1.1 2.4 -0.2
v 1.1 2.4 -0.3
v 1.1 2.4 -0.6
v 1.1 2.4 -0.7
v 1.1 2.6 0
v 1.1 2.6 -0.2
v 1.1 2.6 -0.3
v 1.1 2.6 -0.6
v 1.1 2.6 -0.7
v 1.1 2.6 -0.9
v 1.1 2.7 -0.4
v 1.1 2.7 -0.5
v 1.1 3 0
v 1.1 3 -0.2
v 1.1 3 -0.7
v 1.1 3 -0.9
v 1.1 3.4 -0.4
v 1.1 3.4 -0.5
v 1.1 3.5 -0.3
v 1.1 3.5 -0.6
v 1.2 2 -0.3
v 1.2 2 -0.6
v 1.2 2.4 -0.2
v 1.2 2.4 -0.3
v 1.2 2.4 -0.6
v 1.2 2.4 -0.7
v 1.2 2.6 -0.3
v 1.2 2.6 -0.6
v 1.2 3 0
v 1.2 3 -0.2
v 1.2 3 -0.7
v 1.2 3 -0.9
v 1.2 3.5 0
v 1.2 3.5 -0.3
v 1.2 3.5 -0.6
v 1.2 3.5 -0.9
v 0.1 2.6 0
v 0.1 3.5 0
v 0.3 2.6 0
v 0.3 3.4 0
v 1 2.6 0
v 1 3.4 0
v 1.1 2.6 0
v 1.1 3 0
v 1.2 3 0
v 1.2 3.5 0
v 0.3 2.1 -0.1
v 0.3 2.6 -0.1
v 0.3 3.4 -0.1
v 0.4 2.2 -0.1
v 0.4 2.3 -0.1
v 0.4 2.4 -0.1
v 0.4 2.5 -0.1
v 0.4 2.6 -0.1
v 0.4 2.7 -0.1
v 0.4 2.8 -0.1
v 0.4 2.9 -0.1
v 0.4 3 -0.1
v 0.4 3.1 -0.1
v 0.4 3.2 -0.1
v 0.4 3.3 -0.1
v 0.9 2.2 -0.1
v 0.9 2.3 -0.1
v 0.9 2.4 -0.1
v 0.9 2.5 -0.1
v 0.9 2.6 -0.1
v 0.9 2.7 -0.1
v 0.9 2.8 -0.1
v 0.9 2.9 -0.1
v 0.9 3 -0.1
v 0.9 3.1 -0.1
v 0.9 3.2 -0.1
v 0.9 3.3 -0.1
v 1 2.1 -0.1
v 1 2.6 -0.1
v 1 3.4 -0.1
v 0.1 2.4 -0.2
v 0.1 2.6 -0.2
v 0.2 2 -0.2
v 0.2 2.4 -0.2
v 0.3 2.1 -0.2
v 0.3 2.6 -0.2
v 0.4 2.2 -0.2
v 0.4 2.3 -0.2
v 0.4 2.4 -0.2
v 0.4 2.5 -0.2
v 0.4 2.6 -0.2
v 0.4 2.7 -0.2
v 0.4 2.8 -0.2
v 0.4 2.9 -0.2
v 0.4 3 -0.2
v 0.4 3.1 -0.2
v 0.4 3.2 -0.2
v 0.4 3.3 -0.2
v 0.9 2.2 -0.2
v 0.9 2.3 -0.2
v 0.9 2.4 -0.2
v 0.9 2.5 -0.2
v 0.9 2.6 -0.2
v 0.9 2.7 -0.2
v 0.9 2.8 -0.2
v 0.9 2.9 -0.2
v 0.9 3 -0.2
v 0.9 3.1 -0.2
v 0.9 3.2 -0.2
v 0.9 3.3 -0.2
v 1 2.1 -0.2
v 1 2.6 -0.2
v 1.1 2 -0.2
v 1.1 2.4 -0.2
v 1.1 2.6 -0.2
v 1.1 3 -0.2
v 1.2 2.4 -0.2
v 1.2 3 -0.2
v 0.1 2 -0.3
v 0.1 2.4 -0.3
v 0.2 2 -0.3
v 0.2 2.4 -0.3
v 1.1 2 -0.3
v 1.1 2.4 -0.3
v 1.2 2 -0.3
v 1.2 2.4 -0.3
v 0 3 -0.4
v 0 3.1 -0.4
v 0.1 3 -0.4
v 0.1 3.1 -0.4
v 0.4 3.3 -0.4
v 0.4 3.4 -0.4
v 0.9 3.3 -0.4
v 0.9 3.4 -0.4
v 0.9 2.8 -0.5
v 0.9 3.3 -0.5
v 1 2.7 -0.5
v 1 2.8 -0.5
v 1 3.3 -0.5
v 1 3.4 -0.5
v 1.1 2.7 -0.5
v 1.1 3.4 -0.5
v 0.4 3.3 -0.6
v 0.4 3.4 -0.6
v 0.9 3.3 -0.6
v 0.9 3.4 -0.6
v 1.1 2.6 -0.6
v 1.1 3.5 -0.6
v 1.2 2.6 -0.6
v 1.2 3.5 -0.6
v 0.3 3.4 -0.8
v 0.3 3.5 -0.8
v 1 3.4 -0.8
v 1 3.5 -0.8
v 0.3 3.4 -0.1
v 0.3 3.5 -0.1
v 1 3.4 -0.1
v 1 3.5 -0.1
v 0.4 3.3 -0.3
v 0.4 3.4 -0.3
v 0.9 3.3 -0.3
v 0.9 3.4 -0.3
v 1.1 2.6 -0.3
v 1.1 3.5 -0.3
v 1.2 2.6 -0.3
v 1.2 3.5 -0.3
v 0.9 2.8 -0.4
v 0.9 3.3 -0.4
v 1 2.7 -0.4
v 1 2.8 -0.4
v 1 3.3 -0.4
v 1 3.4 -0.4
v 1.1 2.7 -0.4
v 1.1 3.4 -0.4
v 0 3 -0.5
v 0 3.1 -0.5
v 0.1 3 -0.5
v 0.1 3.1 -0.5
v 0.4 3.3 -0.5
v 0.4 3.4 -0.5
v 0.9 3.3 -0.5
v 0.9 3.4 -0.5
v 0.1 2 -0.6
v 0.1 2.4 -0.6
v 0.2 2 -0.6
v 0.2 2.4 -0.6
v 1.1 2 -0.6
v 1.1 2.4 -0.6
v 1.2 2 -0.6
v 1.2 2.4 -0.6
v 0.1 2.4 -0.7
v 0.1 2.6 -0.7
v 0.2 2 -0.7
v 0.2 2.4 -0.7
v 0.3 2.1 -0.7
v 0.3 2.6 -0.7
v 0.4 2.2 -0.7
v 0.4 2.3 -0.7
v 0.4 2.4 -0.7
v 0.4 2.5 -0.7
v 0.4 2.6 -0.7
v 0.4 2.7 -0.7
v 0.4 2.8 -0.7
v 0.4 2.9 -0.7
v 0.4 3 -0.7
v 0.4 3.1 -0.7
v 0.4 3.2 -0.7
v 0.4 3.3 -0.7
v 0.9 2.2 -0.7
v 0.9 2.3 -0.7
v 0.9 2.4 -0.7
v 0.9 2.5 -0.7
v 0.9 2.6 -0.7
v 0.9 2.7 -0.7
v 0.9 2.8 -0.7
v 0.9 2.9 -0.7
v 0.9 3 -0.7
v 0.9 3.1 -0.7
v 0.9 3.2 -0.7
v 0.9 3.3 -0.7
v 1 2.1 -0.7
v 1 2.6 -0.7
v 1.1 2 -0.7
v 1.1 2.4 -0.7
v 1.1 2.6 -0.7
v 1.1 3 -0.7
v 1.2 2.4 -0.7
v 1.2 3 -0.7
v 0.3 2.1 -0.8
v 0.3 2.6 -0.8
v 0.3 3.4 -0.8
v 0.4 2.2 -0.8
v 0.4 2.3 -0.8
v 0.4 2.4 -0.8
v 0.4 2.5 -0.8
v 0.4 2.6 -0.8
v 0.4 2.7 -0.8
v 0.4 2.8 -0.8
v 0.4 2.9 -0.8
v 0.4 3 -0.8
v 0.4 3.1 -0.8
v 0.4 3.2 -0.8
v 0.4 3.3 -0.8
v 0.9 2.2 -0.8
v 0.9 2.3 -0.8
v 0.9 2.4 -0.8
v 0.9 2.5 -0.8
v 0.9 2.6 -0.8
v 0.9 2.7 -0.8
v 0.9 2.8 -0.8
v 0.9 2.9 -0.8
v 0.9 3 -0.8
v 0.9 3.1 -0.8
v 0.9 3.2 -0.8
v 0.9 3.3 -0.8
v 1 2.1 -0.8
v 1 2.6 -0.8
v 1 3.4 -0.8
v 0.1 2.6 -0.9
v 0.1 3.5 -0.9
v 0.3 2.6 -0.9
v 0.3 3.4 -0.9
v 1 2.6 -0.9
v 1 3.4 -0.9
v 1.1 2.6 -0.9
v 1.1 3 -0.9
v 1.2 3 -0.9
v 1.2 3.5 -0.9
v 0.2 2 -0.2
v 1.1 2 -0.2
v 0.1 2 -0.3
v 0.2 2 -0.3
v 1.1 2 -0.3
v 1.2 2 -0.3
v 0.1 2 -0.6
v 0.2 2 -0.6
v 1.1 2 -0.6
v 1.2 2 -0.6
v 0.2 2 -0.7
v 1.1 2 -0.7
v 0.3 2.1 -0.1
v 1 2.1 -0.1
v 0.3 2.1 -0.2
v 1 2.1 -0.2
v 0.3 2.1 -0.7
v 1 2.1 -0.7
v 0.3 2.1 -0.8
v 1 2.1 -0.8
v 0.4 2.3 -0.1
v 0.9 2.3 -0.1
v 0.4 2.3 -0.2
v 0.9 2.3 -0.2
v 0.4 2.3 -0.7
v 0.9 2.3 -0.7
v 0.4 2.3 -0.8
v 0.9 2.3 -0.8
v 0.1 2.4 -0.2
v 0.2 2.4 -0.2
v 1.1 2.4 -0.2
v 1.2 2.4 -0.2
v 0.1 2.4 -0.3
v 0.2 2.4 -0.3
v 1.1 2.4 -0.3
v 1.2 2.4 -0.3
v 0.1 2.4 -0.6
v 0.2 2.4 -0.6
v 1.1 2.4 -0.6
v 1.2 2.4 -0.6
v 0.1 2.4 -0.7
v 0.2 2.4 -0.7
v 1.1 2.4 -0.7
v 1.2 2.4 -0.7
v 0.4 2.5 -0.1
v 0.9 2.5 -0.1
v 0.4 2.5 -0.2
v 0.9 2.5 -0.2
v 0.4 2.5 -0.7
v 0.9 2.5 -0.7
v 0.4 2.5 -0.8
v 0.9 2.5 -0.8
v 0.1 2.6 0
v 0.3 2.6 0
v 1 2.6 0
v 1.1 2.6 0
v 0.3 2.6 -0.1
v 1 2.6 -0.1
v 0.1 2.6 -0.2
v 0.3 2.6 -0.2
v 1 2.6 -0.2
v 1.1 2.6 -0.2
v 0.1 2.6 -0.7
v 0.3 2.6 -0.7
v 1 2.6 -0.7
v 1.1 2.6 -0.7
v 0.3 2.6 -0.8
v 1 2.6 -0.8
v 0.1 2.6 -0.9
v 0.3 2.6 -0.9
v 1 2.6 -0.9
v 1.1 2.6 -0.9
v 0.4 2.7 -0.1
v 0.9 2.7 -0.1
v 0.4 2.7 -0.2
v 0.9 2.7 -0.2
v 0.4 2.7 -0.7
v 0.9 2.7 -0.7
v 0.4 2.7 -0.8
v 0.9 2.7 -0.8
v 0.4 2.9 -0.1
v 0.9 2.9 -0.1
v 0.4 2.9 -0.2
v 0.9 2.9 -0.2
v 0.4 2.9 -0.7
v 0.9 2.9 -0.7
v 0.4 2.9 -0.8
v 0.9 2.9 -0.8
v 1.1 3 0
v 1.2 3 0
v 1.1 3 -0.2
v 1.2 3 -0.2
v 0 3 -0.4
v 0.1 3 -0.4
v 0 3 -0.5
v 0.1 3 -0.5
v 1.1 3 -0.7
v 1.2 3 -0.7
v 1.1 3 -0.9
v 1.2 3 -0.9
v 0.4 3.1 -0.1
v 0.9 3.1 -0.1
v 0.4 3.1 -0.2
v 0.9 3.1 -0.2
v 0.4 3.1 -0.7
v 0.9 3.1 -0.7
v 0.4 3.1 -0.8
v 0.9 3.1 -0.8
v 0.4 3.3 -0.1
v 0.9 3.3 -0.1
v 0.4 3.3 -0.2
v 0.9 3.3 -0.2
v 0.9 3.3 -0.4
v 1 3.3 -0.4
v 0.9 3.3 -0.5
v 1 3.3 -0.5
v 0.4 3.3 -0.7
v 0.9 3.3 -0.7
v 0.4 3.3 -0.8
v 0.9 3.3 -0.8
v 0.3 3.4 0
v 1 3.4 0
v 0.3 3.4 -0.1
v 1 3.4 -0.1
v 1 3.4 -0.4
v 1.1 3.4 -0.4
v 1 3.4 -0.5
v 1.1 3.4 -0.5
v 0.3 3.4 -0.8
v 1 3.4 -0.8
v 0.3 3.4 -0.9
v 1 3.4 -0.9
v 0.4 2.2 -0.1
v 0.9 2.2 -0.1
v 0.4 2.2 -0.2
v 0.9 2.2 -0.2
v 0.4 2.2 -0.7
v 0.9 2.2 -0.7
v 0.4 2.2 -0.8
v 0.9 2.2 -0.8
v 0.4 2.4 -0.1
v 0.9 2.4 -0.1
v 0.4 2.4 -0.2
v 0.9 2.4 -0.2
v 0.4 2.4 -0.7
v 0.9 2.4 -0.7
v 0.4 2.4 -0.8
v 0.9 2.4 -0.8
v 0.4 2.6 -0.1
v 0.9 2.6 -0.1
v 0.4 2.6 -0.2
v 0.9 2.6 -0.2
v 1.1 2.6 -0.3
v 1.2 2.6 -0.3
v 1.1 2.6 -0.6
v 1.2 2.6 -0.6
v 0.4 2.6 -0.7
v 0.9 2.6 -0.7
v 0.4 2.6 -0.8
v 0.9 2.6 -0.8
v 1 2.7 -0.4
v 1.1 2.7 -0.4
v 1 2.7 -0.5
v 1.1 2.7 -0.5
v 0.4 2.8 -0.1
v 0.9 2.8 -0.1
v 0.4 2.8 -0.2
v 0.9 2.8 -0.2
v 0.9 2.8 -0.4
v 1 2.8 -0.4
v 0.9 2.8 -0.5
v 1 2.8 -0.5
v 0.4 2.8 -0.7
v 0.9 2.8 -0.7
v 0.4 2.8 -0.8
v 0.9 2.8 -0.8
v 0.4 3 -0.1
v 0.9 3 -0.1
v 0.4 3 -0.2
v 0.9 3 -0.2
v 0.4 3 -0.7
v 0.9 3 -0.7
v 0.4 3 -0.8
v 0.9 3 -0.8
v 0 3.1 -0.4
v 0.1 3.1 -0.4
v 0 3.1 -0.5
v 0.1 3.1 -0.5
v 0.4 3.2 -0.1
v 0.9 3.2 -0.1
v 0.4 3.2 -0.2
v 0.9 3.2 -0.2
v 0.4 3.2 -0.7
v 0.9 3.2 -0.7
v 0.4 3.2 -0.8
v 0.9 3.2 -0.8
v 0.4 3.3 -0.3
v 0.9 3.3 -0.3
v 0.4 3.3 -0.4
v 0.9 3.3 -0.4
v 0.4 3.3 -0.5
v 0.9 3.3 -0.5
v 0.4 3.3 -0.6
v 0.9 3.3 -0.6
v 0.3 3.4 -0.1
v 1 3.4 -0.1
v 0.4 3.4 -0.3
v 0.9 3.4 -0.3
v 0.4 3.4 -0.4
v 0.9 3.4 -0.4
v 0.4 3.4 -0.5
v 0.9 3.4 -0.5
v 0.4 3.4 -0.6
v 0.9 3.4 -0.6
v 0.3 3.4 -0.8
v 1 3.4 -0.8
v 0.1 3.5 0
v 1.2 3.5 0
v 0.3 3.5 -0.1
v 1 3.5 -0.1
v 1.1 3.5 -0.3
v 1.2 3.5 -0.3
v 1.1 3.5 -0.6
v 1.2 3.5 -0.6
v 0.3 3.5 -0.8
v 1 3.5 -0.8
v 0.1 3.5 -0.9
v 1.2 3.5 -0.9

# faces
f 3/3/1 2/3/1 1/3/1
f 4/3/1 2/3/1 3/3/1
f 8/1/1 6/1/1 5/1/1
f 9/1/1 6/1/1 8/1/1
f 12/1/1 8/1/1 7/1/1
f 12/1/1 10/1/1 9/1/1
f 12/1/1 9/1/1 8/1/1
f 13/1/1 10/1/1 12/1/1
f 15/1/1 12/1/1 11/1/1
f 15/1/1 14/1/1 13/1/1
f 15/1/1 13/1/1 12/1/1
f 16/1/1 14/1/1 15/1/1
f 17/3/1 16/3/1 15/3/1
f 18/3/1 16/3/1 17/3/1
f 19/3/1 17/3/1 15/3/1
f 20/3/1 16/3/1 18/3/1
f 21/1/1 15/1/1 11/1/1
f 21/3/1 20/3/1 19/3/1
f 21/3/1 19/3/1 15/3/1
f 22/3/1 16/3/1 20/3/1
f 22/3/1 20/3/1 21/3/1
f 22/1/1 14/1/1 16/1/1
f 23/1/1 21/1/1 11/1/1
f 23/1/1 22/1/1 21/1/1
f 24/1/1 14/1/1 22/1/1
f 24/1/1 22/1/1 23/1/1
f 29/1/1 26/1/1 25/1/1
f 30/1/1 26/1/1 29/1/1
f 31/1/1 28/1/1 27/1/1
f 32/1/1 28/1/1 31/1/1
f 37/2/1 34/2/1 33/2/1
f 38/2/1 34/2/1 37/2/1
f 39/2/1 36/2/1 35/2/1
f 40/2/1 36/2/1 39/2/1
f 45/2/1 42/2/1 41/2/1
f 46/2/1 42/2/1 45/2/1
f 47/2/1 44/2/1 43/2/1
f 48/2/1 44/2/1 47/2/1
f 53/2/1 50/2/1 49/2/1
f 54/2/1 50/2/1 53/2/1
f 55/2/1 52/2/1 51/2/1
f 56/2/1 52/2/1 55/2/1
f 61/2/1 58/2/1 57/2/1
f 62/2/1 58/2/1 61/2/1
f 63/2/1 60/2/1 59/2/1
f 64/2/1 60/2/1 63/2/1
f 69/2/1 66/2/1 65/2/1
f 70/2/1 66/2/1 69/2/1
f 71/2/1 68/2/1 67/2/1
f 72/2/1 68/2/1 71/2/1
f 77/2/1 74/2/1 73/2/1
f 78/2/1 74/2/1 77/2/1
f 79/2/1 76/2/1 75/2/1
f 80/2/1 76/2/1 79/2/1
f 85/2/1 82/2/1 81/2/1
f 86/2/1 82/2/1 85/2/1
f 91/2/1 84/2/1 83/2/1
f 92/2/1 84/2/1 91/2/1
f 93/2/1 88/2/1 87/2/1
f 94/2/1 88/2/1 93/2/1
f 95/2/1 90/2/1 89/2/1
f 96/2/1 90/2/1 95/2/1
f 101/1/1 98/1/1 97/1/1
f 102/1/1 98/1/1 101/1/1
f 103/1/1 100/1/1 99/1/1
f 104/1/1 100/1/1 103/1/1
f 105/1/1 103/1/1 102/1/1
f 106/1/1 103/1/1 105/1/1
f 107/1/2 108/1/2 111/1/2
f 111/1/2 108/1/2 112/1/2
f 109/1/2 110/1/2 113/1/2
f 113/1/2 110/1/2 114/1/2
f 112/1/2 113/1/2 115/1/2
f 115/1/2 113/1/2 116/1/2
f 117/2/2 118/2/2 121/2/2
f 121/2/2 118/2/2 122/2/2
f 119/2/2 120/2/2 123/2/2
f 123/2/2 120/2/2 124/2/2
f 125/2/2 126/2/2 129/2/2
f 129/2/2 126/2/2 130/2/2
f 127/2/2 128/2/2 131/2/2
f 131/2/2 128/2/2 132/2/2
f 133/2/2 134/2/2 137/2/2
f 137/2/2 134/2/2 138/2/2
f 135/2/2 136/2/2 139/2/2
f 139/2/2 136/2/2 140/2/2
f 141/2/2 142/2/2 145/2/2
f 145/2/2 142/2/2 146/2/2
f 143/2/2 144/2/2 147/2/2
f 147/2/2 144/2/2 148/2/2
f 149/2/2 150/2/2 153/2/2
f 153/2/2 150/2/2 154/2/2
f 151/2/2 152/2/2 155/2/2
f 155/2/2 152/2/2 156/2/2
f 157/2/2 158/2/2 161/2/2
f 161/2/2 158/2/2 162/2/2
f 159/2/2 160/2/2 167/2/2
f 167/2/2 160/2/2 168/2/2
f 163/2/2 164/2/2 169/2/2
f 169/2/2 164/2/2 170/2/2
f 165/2/2 166/2/2 171/2/2
f 171/2/2 166/2/2 172/2/2
f 173/4/2 174/4/2 175/4/2
f 175/4/2 174/4/2 176/4/2
f 177/2/2 178/2/2 181/2/2
f 181/2/2 178/2/2 182/2/2
f 179/2/2 180/2/2 183/2/2
f 183/2/2 180/2/2 184/2/2
f 185/2/2 186/2/2 187/2/2
f 187/2/2 186/2/2 188/2/2
f 189/2/2 190/2/2 191/2/2
f 191/2/2 190/2/2 192/2/2
f 193/1/2 194/1/2 197/1/2
f 197/1/2 194/1/2 198/1/2
f 195/1/2 196/1/2 199/1/2
f 199/1/2 196/1/2 200/1/2
f 203/1/2 204/1/2 207/1/2
f 207/1/2 204/1/2 208/1/2
f 201/1/2 202/1/2 209/1/2
f 209/1/2 202/1/2 210/1/2
f 205/1/2 206/1/2 211/1/2
f 211/1/2 206/1/2 212/1/2
f 203/1/2 207/1/2 213/1/2
f 208/1/2 204/1/2 214/1/2
f 203/1/2 213/1/2 215/1/2
f 213/1/2 214/1/2 215/1/2
f 214/1/2 204/1/2 216/1/2
f 215/1/2 214/1/2 216/1/2
f 217/1/2 218/1/2 220/1/2
f 220/1/2 218/1/2 221/1/2
f 219/1/2 220/1/2 223/1/2
f 221/1/2 222/1/2 223/1/2
f 220/1/2 221/1/2 223/1/2
f 223/1/2 222/1/2 224/1/2
f 219/1/2 223/1/2 226/1/2
f 224/1/2 222/1/2 227/1/2
f 225/1/2 226/1/2 229/1/2
f 226/1/2 223/1/2 230/1/2
f 229/1/2 226/1/2 230/1/2
f 227/1/2 228/1/2 231/1/2
f 224/1/2 227/1/2 231/1/2
f 231/1/2 228/1/2 232/1/2
f 235/1/3 234/1/3 233/1/3
f 236/1/3 234/1/3 235/1/3
f 238/1/3 234/1/3 236/1/3
f 239/1/3 238/1/3 237/1/3
f 240/1/3 238/1/3 239/1/3
f 241/1/3 238/1/3 240/1/3
f 242/1/3 234/1/3 238/1/3
f 242/1/3 238/1/3 241/1/3
f 246/2/3 244/2/3 243/2/3
f 246/2/3 245/2/3 244/2/3
f 247/2/3 245/2/3 246/2/3
f 248/2/3 245/2/3 247/2/3
f 249/2/3 245/2/3 248/2/3
f 250/2/3 245/2/3 249/2/3
f 251/2/3 245/2/3 250/2/3
f 252/2/3 245/2/3 251/2/3
f 253/2/3 245/2/3 252/2/3
f 254/2/3 245/2/3 253/2/3
f 255/2/3 245/2/3 254/2/3
f 256/2/3 245/2/3 255/2/3
f 257/2/3 245/2/3 256/2/3
f 258/2/3 246/2/3 243/2/3
f 259/2/3 248/2/3 247/2/3
f 260/2/3 248/2/3 259/2/3
f 261/2/3 250/2/3 249/2/3
f 262/2/3 250/2/3 261/2/3
f 263/2/3 252/2/3 251/2/3
f 264/2/3 252/2/3 263/2/3
f 265/2/3 254/2/3 253/2/3
f 266/2/3 254/2/3 265/2/3
f 267/2/3 256/2/3 255/2/3
f 268/2/3 256/2/3 267/2/3
f 269/2/3 245/2/3 257/2/3
f 270/2/3 268/2/3 267/2/3
f 270/2/3 269/2/3 268/2/3
f 270/2/3 266/2/3 265/2/3
f 270/2/3 258/2/3 243/2/3
f 270/2/3 267/2/3 266/2/3
f 270/2/3 264/2/3 263/2/3
f 270/2/3 265/2/3 264/2/3
f 270/2/3 260/2/3 259/2/3
f 270/2/3 263/2/3 262/2/3
f 270/2/3 262/2/3 261/2/3
f 270/2/3 261/2/3 260/2/3
f 270/2/3 259/2/3 258/2/3
f 271/2/3 269/2/3 270/2/3
f 272/2/3 245/2/3 269/2/3
f 272/2/3 269/2/3 271/2/3
f 276/1/3 274/1/3 273/1/3
f 277/1/3 276/1/3 275/1/3
f 278/1/3 274/1/3 276/1/3
f 278/1/3 276/1/3 277/1/3
f 291/4/3 280/4/3 279/4/3
f 292/4/3 280/4/3 291/4/3
f 293/4/3 282/4/3 281/4/3
f 294/4/3 282/4/3 293/4/3
f 295/4/3 284/4/3 283/4/3
f 296/4/3 284/4/3 295/4/3
f 297/4/3 286/4/3 285/4/3
f 298/4/3 286/4/3 297/4/3
f 299/4/3 288/4/3 287/4/3
f 300/4/3 288/4/3 299/4/3
f 301/4/3 290/4/3 289/4/3
f 302/4/3 290/4/3 301/4/3
f 303/1/3 277/1/3 275/1/3
f 305/1/3 303/1/3 275/1/3
f 305/1/3 304/1/3 303/1/3
f 306/1/3 304/1/3 305/1/3
f 307/1/3 304/1/3 306/1/3
f 309/1/3 308/1/3 307/1/3
f 309/1/3 307/1/3 306/1/3
f 310/1/3 308/1/3 309/1/3
f 313/1/3 312/1/3 311/1/3
f 314/1/3 312/1/3 313/1/3
f 317/1/3 316/1/3 315/1/3
f 318/1/3 316/1/3 317/1/3
f 321/3/3 320/3/3 319/3/3
f 322/3/3 320/3/3 321/3/3
f 325/2/3 324/2/3 323/2/3
f 326/2/3 324/2/3 325/2/3
f 330/2/3 328/2/3 327/2/3
f 331/2/3 328/2/3 330/2/3
f 333/1/3 330/1/3 329/1/3
f 333/1/3 332/1/3 331/1/3
f 333/1/3 331/1/3 330/1/3
f 334/1/3 332/1/3 333/1/3
f 337/2/3 336/2/3 335/2/3
f 338/2/3 336/2/3 337/2/3
f 341/1/3 340/1/3 339/1/3
f 342/1/3 340/1/3 341/1/3
f 345/1/3 344/1/3 343/1/3
f 346/1/3 344/1/3 345/1/3
f 347/1/4 348/1/4 349/1/4
f 349/1/4 348/1/4 350/1/4
f 351/2/4 352/2/4 353/2/4
f 353/2/4 352/2/4 354/2/4
f 355/1/4 356/1/4 357/1/4
f 357/1/4 356/1/4 358/1/4
f 359/2/4 360/2/4 362/2/4
f 362/2/4 360/2/4 363/2/4
f 361/1/4 362/1/4 365/1/4
f 363/1/4 364/1/4 365/1/4
f 362/1/4 363/1/4 365/1/4
f 365/1/4 364/1/4 366/1/4
f 367/3/4 368/3/4 369/3/4
f 369/3/4 368/3/4 370/3/4
f 371/2/4 372/2/4 373/2/4
f 373/2/4 372/2/4 374/2/4
f 375/1/4 376/1/4 377/1/4
f 377/1/4 376/1/4 378/1/4
f 379/1/4 380/1/4 381/1/4
f 381/1/4 380/1/4 382/1/4
f 383/1/4 384/1/4 386/1/4
f 385/1/4 386/1/4 387/1/4
f 386/1/4 384/1/4 388/1/4
f 387/1/4 386/1/4 388/1/4
f 389/4/4 390/4/4 401/4/4
f 401/4/4 390/4/4 402/4/4
f 391/4/4 392/4/4 403/4/4
f 403/4/4 392/4/4 404/4/4
f 393/4/4 394/4/4 405/4/4
f 405/4/4 394/4/4 406/4/4
f 395/4/4 396/4/4 407/4/4
f 407/4/4 396/4/4 408/4/4
f 397/4/4 398/4/4 409/4/4
f 409/4/4 398/4/4 410/4/4
f 399/4/4 400/4/4 411/4/4
f 411/4/4 400/4/4 412/4/4
f 385/1/4 387/1/4 413/1/4
f 385/1/4 413/1/4 415/1/4
f 413/1/4 414/1/4 415/1/4
f 415/1/4 414/1/4 416/1/4
f 416/1/4 414/1/4 417/1/4
f 417/1/4 418/1/4 419/1/4
f 416/1/4 417/1/4 419/1/4
f 419/1/4 418/1/4 420/1/4
f 421/2/4 422/2/4 424/2/4
f 422/2/4 423/2/4 424/2/4
f 424/2/4 423/2/4 425/2/4
f 425/2/4 423/2/4 426/2/4
f 426/2/4 423/2/4 427/2/4
f 427/2/4 423/2/4 428/2/4
f 428/2/4 423/2/4 429/2/4
f 429/2/4 423/2/4 430/2/4
f 430/2/4 423/2/4 431/2/4
f 431/2/4 423/2/4 432/2/4
f 432/2/4 423/2/4 433/2/4
f 433/2/4 423/2/4 434/2/4
f 434/2/4 423/2/4 435/2/4
f 421/2/4 424/2/4 436/2/4
f 425/2/4 426/2/4 437/2/4
f 437/2/4 426/2/4 438/2/4
f 427/2/4 428/2/4 439/2/4
f 439/2/4 428/2/4 440/2/4
f 429/2/4 430/2/4 441/2/4
f 441/2/4 430/2/4 442/2/4
f 431/2/4 432/2/4 443/2/4
f 443/2/4 432/2/4 444/2/4
f 433/2/4 434/2/4 445/2/4
f 445/2/4 434/2/4 446/2/4
f 435/2/4 423/2/4 447/2/4
f 445/2/4 446/2/4 448/2/4
f 446/2/4 447/2/4 448/2/4
f 443/2/4 444/2/4 448/2/4
f 421/2/4 436/2/4 448/2/4
f 444/2/4 445/2/4 448/2/4
f 441/2/4 442/2/4 448/2/4
f 442/2/4 443/2/4 448/2/4
f 437/2/4 438/2/4 448/2/4
f 440/2/4 441/2/4 448/2/4
f 439/2/4 440/2/4 448/2/4
f 438/2/4 439/2/4 448/2/4
f 436/2/4 437/2/4 448/2/4
f 448/2/4 447/2/4 449/2/4
f 447/2/4 423/2/4 450/2/4
f 449/2/4 447/2/4 450/2/4
f 451/1/4 452/1/4 453/1/4
f 453/1/4 452/1/4 454/1/4
f 454/1/4 452/1/4 456/1/4
f 455/1/4 456/1/4 457/1/4
f 457/1/4 456/1/4 458/1/4
f 458/1/4 456/1/4 459/1/4
f 456/1/4 452/1/4 460/1/4
f 459/1/4 456/1/4 460/1/4
f 464/1/5 462/1/5 461/1/5
f 465/1/5 462/1/5 464/1/5
f 467/1/5 464/1/5 463/1/5
f 467/1/5 466/1/5 465/1/5
f 467/1/5 465/1/5 464/1/5
f 468/1/5 466/1/5 467/1/5
f 469/1/5 466/1/5 468/1/5
f 470/1/5 466/1/5 469/1/5
f 471/1/5 469/1/5 468/1/5
f 472/1/5 469/1/5 471/1/5
f 475/2/5 474/2/5 473/2/5
f 476/2/5 474/2/5 475/2/5
f 479/2/5 478/2/5 477/2/5
f 480/2/5 478/2/5 479/2/5
f 483/2/5 482/2/5 481/2/5
f 484/2/5 482/2/5 483/2/5
f 487/2/5 486/2/5 485/2/5
f 488/2/5 486/2/5 487/2/5
f 493/1/5 490/1/5 489/1/5
f 494/1/5 490/1/5 493/1/5
f 495/1/5 492/1/5 491/1/5
f 496/1/5 492/1/5 495/1/5
f 501/1/5 498/1/5 497/1/5
f 502/1/5 498/1/5 501/1/5
f 503/1/5 500/1/5 499/1/5
f 504/1/5 500/1/5 503/1/5
f 507/2/5 506/2/5 505/2/5
f 508/2/5 506/2/5 507/2/5
f 511/2/5 510/2/5 509/2/5
f 512/2/5 510/2/5 511/2/5
f 517/1/5 514/1/5 513/1/5
f 518/1/5 516/1/5 515/1/5
f 519/1/5 517/1/5 513/1/5
f 520/1/5 517/1/5 519/1/5
f 521/1/5 516/1/5 518/1/5
f 522/1/5 516/1/5 521/1/5
f 527/1/5 524/1/5 523/1/5
f 528/1/5 526/1/5 525/1/5
f 529/1/5 527/1/5 523/1/5
f 530/1/5 527/1/5 529/1/5
f 531/1/5 526/1/5 528/1/5
f 532/1/5 526/1/5 531/1/5
f 535/2/5 534/2/5 533/2/5
f 536/2/5 534/2/5 535/2/5
f 539/2/5 538/2/5 537/2/5
f 540/2/5 538/2/5 539/2/5
f 543/2/5 542/2/5 541/2/5
f 544/2/5 542/2/5 543/2/5
f 547/2/5 546/2/5 545/2/5
f 548/2/5 546/2/5 547/2/5
f 551/1/5 550/1/5 549/1/5
f 552/1/5 550/1/5 551/1/5
f 555/3/5 554/3/5 553/3/5
f 556/3/5 554/3/5 555/3/5
f 559/1/5 558/1/5 557/1/5
f 560/1/5 558/1/5 559/1/5
f 563/2/5 562/2/5 561/2/5
f 564/2/5 562/2/5 563/2/5
f 567/2/5 566/2/5 565/2/5
f 568/2/5 566/2/5 567/2/5
f 571/2/5 570/2/5 569/2/5
f 572/2/5 570/2/5 571/2/5
f 575/2/5 574/2/5 573/2/5
f 576/2/5 574/2/5 575/2/5
f 579/2/5 578/2/5 577/2/5
f 580/2/5 578/2/5 579/2/5
f 583/1/5 582/1/5 581/1/5
f 584/1/5 582/1/5 583/1/5
f 587/1/5 586/1/5 585/1/5
f 588/1/5 586/1/5 587/1/5
f 591/1/5 590/1/5 589/1/5
f 592/1/5 590/1/5 591/1/5
f 593/2/6 594/2/6 595/2/6
f 595/2/6 594/2/6 596/2/6
f 597/2/6 598/2/6 599/2/6
f 599/2/6 598/2/6 600/2/6
f 601/2/6 602/2/6 603/2/6
f 603/2/6 602/2/6 604/2/6
f 605/2/6 606/2/6 607/2/6
f 607/2/6 606/2/6 608/2/6
f 609/2/6 610/2/6 611/2/6
f 611/2/6 610/2/6 612/2/6
f 613/1/6 614/1/6 615/1/6
f 615/1/6 614/1/6 616/1/6
f 617/2/6 618/2/6 619/2/6
f 619/2/6 618/2/6 620/2/6
f 621/1/6 622/1/6 623/1/6
f 623/1/6 622/1/6 624/1/6
f 625/2/6 626/2/6 627/2/6
f 627/2/6 626/2/6 628/2/6
f 629/2/6 630/2/6 631/2/6
f 631/2/6 630/2/6 632/2/6
f 633/2/6 634/2/6 635/2/6
f 635/2/6 634/2/6 636/2/6
f 637/2/6 638/2/6 639/2/6
f 639/2/6 638/2/6 640/2/6
f 641/2/6 642/2/6 643/2/6
f 643/2/6 642/2/6 644/2/6
f 645/3/6 646/3/6 647/3/6
f 647/3/6 646/3/6 648/3/6
f 649/2/6 650/2/6 651/2/6
f 651/2/6 650/2/6 652/2/6
f 653/2/6 654/2/6 655/2/6
f 655/2/6 654/2/6 656/2/6
f 657/4/6 658/4/6 659/4/6
f 659/4/6 658/4/6 660/4/6
f 661/4/6 662/4/6 663/4/6
f 663/4/6 662/4/6 664/4/6
f 665/2/6 666/2/6 667/2/6
f 667/2/6 666/2/6 668/2/6
f 665/2/6 667/2/6 669/2/6
f 668/2/6 666/2/6 670/2/6
f 665/2/6 669/2/6 671/2/6
f 669/2/6 670/2/6 671/2/6
f 670/2/6 666/2/6 672/2/6
f 671/2/6 670/2/6 672/2/6
f 665/2/6 671/2/6 673/2/6
f 672/2/6 666/2/6 674/2/6
f 665/2/6 673/2/6 675/2/6
f 673/2/6 674/2/6 675/2/6
f 674/2/6 666/2/6 676/2/6
f 675/2/6 674/2/6 676/2/6
f 677/1/6 678/1/6 679/1/6
f 679/1/6 678/1/6 680/1/6
f 680/1/6 678/1/6 681/1/6
f 681/1/6 678/1/6 682/1/6
f 680/1/6 681/1/6 683/1/6
f 677/1/6 679/1/6 685/1/6
f 683/1/6 684/1/6 686/1/6
f 680/1/6 683/1/6 686/1/6
f 677/1/6 685/1/6 687/1/6
f 685/1/6 686/1/6 687/1/6
f 686/1/6 684/1/6 688/1/6
f 687/1/6 686/1/6 688/1/6
