# MagicaVoxel @ Ephtracy

# group
o 

# material
mtllib WeaponTargetting#2.mtl
usemtl palette

# normals
vn -1 0 0
vn 1 0 0
vn 0 0 1
vn 0 0 -1
vn 0 -1 0
vn 0 1 0

# texcoords
vt 0.970703 0.5
vt 0.974609 0.5
vt 0.978516 0.5

# verts
v 0 2.1 0
v 0 2.1 -0.7
v 0 2.2 0
v 0 2.2 -0.1
v 0 2.2 -0.6
v 0 2.2 -0.7
v 0 2.3 -0.1
v 0 2.3 -0.6
v 0 2.4 0
v 0 2.4 -0.7
v 0.1 2.2 -0.1
v 0.1 2.2 -0.6
v 0.1 2.3 -0.1
v 0.1 2.3 -0.6
v 0.1 2.4 -0.1
v 0.1 2.4 -0.2
v 0.1 2.4 -0.5
v 0.1 2.4 -0.6
v 0.1 2.5 -0.2
v 0.1 2.5 -0.5
v 0.1 2.6 -0.1
v 0.1 2.6 -0.6
v 0.2 2.4 -0.2
v 0.2 2.4 -0.5
v 0.2 2.5 -0.2
v 0.2 2.5 -0.5
v 0.3 2 -0.3
v 0.3 2 -0.4
v 0.3 2.1 -0.3
v 0.3 2.1 -0.4
v 0.5 2.4 -0.1
v 0.5 2.4 -0.2
v 0.5 2.4 -0.5
v 0.5 2.4 -0.6
v 0.5 2.5 -0.1
v 0.5 2.5 -0.2
v 0.5 2.5 -0.5
v 0.5 2.5 -0.6
v 0.5 2.6 -0.2
v 0.5 2.6 -0.5
v 0.6 2.2 0
v 0.6 2.2 -0.1
v 0.6 2.2 -0.6
v 0.6 2.2 -0.7
v 0.6 2.3 0
v 0.6 2.3 -0.1
v 0.6 2.3 -0.6
v 0.6 2.3 -0.7
v 0.1 2.2 0
v 0.1 2.2 -0.1
v 0.1 2.2 -0.6
v 0.1 2.2 -0.7
v 0.1 2.3 0
v 0.1 2.3 -0.1
v 0.1 2.3 -0.6
v 0.1 2.3 -0.7
v 0.2 2.4 -0.1
v 0.2 2.4 -0.2
v 0.2 2.4 -0.5
v 0.2 2.4 -0.6
v 0.2 2.5 -0.1
v 0.2 2.5 -0.2
v 0.2 2.5 -0.5
v 0.2 2.5 -0.6
v 0.2 2.6 -0.2
v 0.2 2.6 -0.5
v 0.4 2 -0.3
v 0.4 2 -0.4
v 0.4 2.1 -0.3
v 0.4 2.1 -0.4
v 0.5 2.4 -0.2
v 0.5 2.4 -0.5
v 0.5 2.5 -0.2
v 0.5 2.5 -0.5
v 0.6 2.2 -0.1
v 0.6 2.2 -0.6
v 0.6 2.3 -0.1
v 0.6 2.3 -0.6
v 0.6 2.4 -0.1
v 0.6 2.4 -0.2
v 0.6 2.4 -0.5
v 0.6 2.4 -0.6
v 0.6 2.5 -0.2
v 0.6 2.5 -0.5
v 0.6 2.6 -0.1
v 0.6 2.6 -0.6
v 0.7 2.1 0
v 0.7 2.1 -0.7
v 0.7 2.2 0
v 0.7 2.2 -0.1
v 0.7 2.2 -0.6
v 0.7 2.2 -0.7
v 0.7 2.3 -0.1
v 0.7 2.3 -0.6
v 0.7 2.4 0
v 0.7 2.4 -0.7
v 0 2.1 0
v 0 2.2 0
v 0 2.4 0
v 0.1 2.2 0
v 0.1 2.3 0
v 0.6 2.2 0
v 0.6 2.3 0
v 0.7 2.1 0
v 0.7 2.2 0
v 0.7 2.4 0
v 0.1 2.2 -0.1
v 0.1 2.3 -0.1
v 0.1 2.4 -0.1
v 0.1 2.6 -0.1
v 0.2 2.4 -0.1
v 0.2 2.5 -0.1
v 0.5 2.4 -0.1
v 0.5 2.5 -0.1
v 0.6 2.2 -0.1
v 0.6 2.3 -0.1
v 0.6 2.4 -0.1
v 0.6 2.6 -0.1
v 0.2 2.4 -0.2
v 0.2 2.5 -0.2
v 0.5 2.4 -0.2
v 0.5 2.5 -0.2
v 0.3 2 -0.3
v 0.3 2.1 -0.3
v 0.4 2 -0.3
v 0.4 2.1 -0.3
v 0.1 2.4 -0.5
v 0.1 2.5 -0.5
v 0.2 2.4 -0.5
v 0.2 2.5 -0.5
v 0.2 2.6 -0.5
v 0.5 2.4 -0.5
v 0.5 2.5 -0.5
v 0.5 2.6 -0.5
v 0.6 2.4 -0.5
v 0.6 2.5 -0.5
v 0 2.2 -0.6
v 0 2.3 -0.6
v 0.1 2.2 -0.6
v 0.1 2.3 -0.6
v 0.6 2.2 -0.6
v 0.6 2.3 -0.6
v 0.7 2.2 -0.6
v 0.7 2.3 -0.6
v 0 2.2 -0.1
v 0 2.3 -0.1
v 0.1 2.2 -0.1
v 0.1 2.3 -0.1
v 0.6 2.2 -0.1
v 0.6 2.3 -0.1
v 0.7 2.2 -0.1
v 0.7 2.3 -0.1
v 0.1 2.4 -0.2
v 0.1 2.5 -0.2
v 0.2 2.4 -0.2
v 0.2 2.5 -0.2
v 0.2 2.6 -0.2
v 0.5 2.4 -0.2
v 0.5 2.5 -0.2
v 0.5 2.6 -0.2
v 0.6 2.4 -0.2
v 0.6 2.5 -0.2
v 0.3 2 -0.4
v 0.3 2.1 -0.4
v 0.4 2 -0.4
v 0.4 2.1 -0.4
v 0.2 2.4 -0.5
v 0.2 2.5 -0.5
v 0.5 2.4 -0.5
v 0.5 2.5 -0.5
v 0.1 2.2 -0.6
v 0.1 2.3 -0.6
v 0.1 2.4 -0.6
v 0.1 2.6 -0.6
v 0.2 2.4 -0.6
v 0.2 2.5 -0.6
v 0.5 2.4 -0.6
v 0.5 2.5 -0.6
v 0.6 2.2 -0.6
v 0.6 2.3 -0.6
v 0.6 2.4 -0.6
v 0.6 2.6 -0.6
v 0 2.1 -0.7
v 0 2.2 -0.7
v 0 2.4 -0.7
v 0.1 2.2 -0.7
v 0.1 2.3 -0.7
v 0.6 2.2 -0.7
v 0.6 2.3 -0.7
v 0.7 2.1 -0.7
v 0.7 2.2 -0.7
v 0.7 2.4 -0.7
v 0.3 2 -0.3
v 0.4 2 -0.3
v 0.3 2 -0.4
v 0.4 2 -0.4
v 0 2.1 0
v 0.7 2.1 0
v 0.3 2.1 -0.3
v 0.4 2.1 -0.3
v 0.3 2.1 -0.4
v 0.4 2.1 -0.4
v 0 2.1 -0.7
v 0.7 2.1 -0.7
v 0.1 2.3 0
v 0.6 2.3 0
v 0 2.3 -0.1
v 0.1 2.3 -0.1
v 0.6 2.3 -0.1
v 0.7 2.3 -0.1
v 0 2.3 -0.6
v 0.1 2.3 -0.6
v 0.6 2.3 -0.6
v 0.7 2.3 -0.6
v 0.1 2.3 -0.7
v 0.6 2.3 -0.7
v 0.2 2.5 -0.1
v 0.5 2.5 -0.1
v 0.1 2.5 -0.2
v 0.2 2.5 -0.2
v 0.5 2.5 -0.2
v 0.6 2.5 -0.2
v 0.1 2.5 -0.5
v 0.2 2.5 -0.5
v 0.5 2.5 -0.5
v 0.6 2.5 -0.5
v 0.2 2.5 -0.6
v 0.5 2.5 -0.6
v 0.1 2.2 0
v 0.6 2.2 0
v 0 2.2 -0.1
v 0.1 2.2 -0.1
v 0.6 2.2 -0.1
v 0.7 2.2 -0.1
v 0 2.2 -0.6
v 0.1 2.2 -0.6
v 0.6 2.2 -0.6
v 0.7 2.2 -0.6
v 0.1 2.2 -0.7
v 0.6 2.2 -0.7
v 0 2.4 0
v 0.7 2.4 0
v 0.1 2.4 -0.1
v 0.2 2.4 -0.1
v 0.5 2.4 -0.1
v 0.6 2.4 -0.1
v 0.1 2.4 -0.2
v 0.2 2.4 -0.2
v 0.5 2.4 -0.2
v 0.6 2.4 -0.2
v 0.1 2.4 -0.5
v 0.2 2.4 -0.5
v 0.5 2.4 -0.5
v 0.6 2.4 -0.5
v 0.1 2.4 -0.6
v 0.2 2.4 -0.6
v 0.5 2.4 -0.6
v 0.6 2.4 -0.6
v 0 2.4 -0.7
v 0.7 2.4 -0.7
v 0.2 2.5 -0.2
v 0.5 2.5 -0.2
v 0.2 2.5 -0.5
v 0.5 2.5 -0.5
v 0.1 2.6 -0.1
v 0.6 2.6 -0.1
v 0.2 2.6 -0.2
v 0.5 2.6 -0.2
v 0.2 2.6 -0.5
v 0.5 2.6 -0.5
v 0.1 2.6 -0.6
v 0.6 2.6 -0.6

# faces
f 3/3/1 2/3/1 1/3/1
f 4/3/1 2/3/1 3/3/1
f 5/3/1 2/3/1 4/3/1
f 6/3/1 2/3/1 5/3/1
f 7/2/1 4/2/1 3/2/1
f 8/2/1 6/2/1 5/2/1
f 9/2/1 7/2/1 3/2/1
f 9/2/1 8/2/1 7/2/1
f 10/2/1 6/2/1 8/2/1
f 10/2/1 8/2/1 9/2/1
f 13/1/1 12/1/1 11/1/1
f 14/1/1 12/1/1 13/1/1
f 19/2/1 16/2/1 15/2/1
f 20/2/1 18/2/1 17/2/1
f 21/2/1 19/2/1 15/2/1
f 21/2/1 20/2/1 19/2/1
f 22/2/1 18/2/1 20/2/1
f 22/2/1 20/2/1 21/2/1
f 25/1/1 24/1/1 23/1/1
f 26/1/1 24/1/1 25/1/1
f 29/3/1 28/3/1 27/3/1
f 30/3/1 28/3/1 29/3/1
f 35/2/1 32/2/1 31/2/1
f 36/2/1 32/2/1 35/2/1
f 37/2/1 34/2/1 33/2/1
f 38/2/1 34/2/1 37/2/1
f 39/2/1 37/2/1 36/2/1
f 40/2/1 37/2/1 39/2/1
f 45/2/1 42/2/1 41/2/1
f 46/2/1 42/2/1 45/2/1
f 47/2/1 44/2/1 43/2/1
f 48/2/1 44/2/1 47/2/1
f 49/2/2 50/2/2 53/2/2
f 53/2/2 50/2/2 54/2/2
f 51/2/2 52/2/2 55/2/2
f 55/2/2 52/2/2 56/2/2
f 57/2/2 58/2/2 61/2/2
f 61/2/2 58/2/2 62/2/2
f 59/2/2 60/2/2 63/2/2
f 63/2/2 60/2/2 64/2/2
f 62/2/2 63/2/2 65/2/2
f 65/2/2 63/2/2 66/2/2
f 67/3/2 68/3/2 69/3/2
f 69/3/2 68/3/2 70/3/2
f 71/1/2 72/1/2 73/1/2
f 73/1/2 72/1/2 74/1/2
f 75/1/2 76/1/2 77/1/2
f 77/1/2 76/1/2 78/1/2
f 79/2/2 80/2/2 83/2/2
f 81/2/2 82/2/2 84/2/2
f 79/2/2 83/2/2 85/2/2
f 83/2/2 84/2/2 85/2/2
f 84/2/2 82/2/2 86/2/2
f 85/2/2 84/2/2 86/2/2
f 87/3/2 88/3/2 89/3/2
f 89/3/2 88/3/2 90/3/2
f 90/3/2 88/3/2 91/3/2
f 91/3/2 88/3/2 92/3/2
f 89/2/2 90/2/2 93/2/2
f 91/2/2 92/2/2 94/2/2
f 89/2/2 93/2/2 95/2/2
f 93/2/2 94/2/2 95/2/2
f 94/2/2 92/2/2 96/2/2
f 95/2/2 94/2/2 96/2/2
f 100/3/3 98/3/3 97/3/3
f 100/2/3 99/2/3 98/2/3
f 101/2/3 99/2/3 100/2/3
f 102/3/3 100/3/3 97/3/3
f 103/2/3 99/2/3 101/2/3
f 104/3/3 102/3/3 97/3/3
f 105/2/3 103/2/3 102/2/3
f 105/3/3 102/3/3 104/3/3
f 106/2/3 99/2/3 103/2/3
f 106/2/3 103/2/3 105/2/3
f 111/2/3 110/2/3 109/2/3
f 112/2/3 110/2/3 111/2/3
f 114/2/3 110/2/3 112/2/3
f 115/1/3 108/1/3 107/1/3
f 116/1/3 108/1/3 115/1/3
f 117/2/3 114/2/3 113/2/3
f 118/2/3 110/2/3 114/2/3
f 118/2/3 114/2/3 117/2/3
f 121/1/3 120/1/3 119/1/3
f 122/1/3 120/1/3 121/1/3
f 125/3/3 124/3/3 123/3/3
f 126/3/3 124/3/3 125/3/3
f 129/2/3 128/2/3 127/2/3
f 130/2/3 128/2/3 129/2/3
f 133/2/3 131/2/3 130/2/3
f 134/2/3 131/2/3 133/2/3
f 135/2/3 133/2/3 132/2/3
f 136/2/3 133/2/3 135/2/3
f 139/2/3 138/2/3 137/2/3
f 140/2/3 138/2/3 139/2/3
f 143/2/3 142/2/3 141/2/3
f 144/2/3 142/2/3 143/2/3
f 145/2/4 146/2/4 147/2/4
f 147/2/4 146/2/4 148/2/4
f 149/2/4 150/2/4 151/2/4
f 151/2/4 150/2/4 152/2/4
f 153/2/4 154/2/4 155/2/4
f 155/2/4 154/2/4 156/2/4
f 156/2/4 157/2/4 159/2/4
f 159/2/4 157/2/4 160/2/4
f 158/2/4 159/2/4 161/2/4
f 161/2/4 159/2/4 162/2/4
f 163/3/4 164/3/4 165/3/4
f 165/3/4 164/3/4 166/3/4
f 167/1/4 168/1/4 169/1/4
f 169/1/4 168/1/4 170/1/4
f 173/2/4 174/2/4 175/2/4
f 175/2/4 174/2/4 176/2/4
f 176/2/4 174/2/4 178/2/4
f 171/1/4 172/1/4 179/1/4
f 179/1/4 172/1/4 180/1/4
f 177/2/4 178/2/4 181/2/4
f 178/2/4 174/2/4 182/2/4
f 181/2/4 178/2/4 182/2/4
f 183/3/4 184/3/4 186/3/4
f 184/2/4 185/2/4 186/2/4
f 186/2/4 185/2/4 187/2/4
f 183/3/4 186/3/4 188/3/4
f 187/2/4 185/2/4 189/2/4
f 183/3/4 188/3/4 190/3/4
f 188/2/4 189/2/4 191/2/4
f 190/3/4 188/3/4 191/3/4
f 189/2/4 185/2/4 192/2/4
f 191/2/4 189/2/4 192/2/4
f 195/3/5 194/3/5 193/3/5
f 196/3/5 194/3/5 195/3/5
f 199/3/5 198/3/5 197/3/5
f 200/3/5 198/3/5 199/3/5
f 201/3/5 199/3/5 197/3/5
f 202/3/5 198/3/5 200/3/5
f 203/3/5 201/3/5 197/3/5
f 203/3/5 202/3/5 201/3/5
f 204/3/5 198/3/5 202/3/5
f 204/3/5 202/3/5 203/3/5
f 208/2/5 206/2/5 205/2/5
f 209/2/5 206/2/5 208/2/5
f 211/2/5 208/2/5 207/2/5
f 212/2/5 208/2/5 211/2/5
f 213/2/5 210/2/5 209/2/5
f 214/2/5 210/2/5 213/2/5
f 215/2/5 213/2/5 212/2/5
f 216/2/5 213/2/5 215/2/5
f 220/2/5 218/2/5 217/2/5
f 221/2/5 218/2/5 220/2/5
f 223/2/5 220/2/5 219/2/5
f 224/2/5 220/2/5 223/2/5
f 225/2/5 222/2/5 221/2/5
f 226/2/5 222/2/5 225/2/5
f 227/2/5 225/2/5 224/2/5
f 228/2/5 225/2/5 227/2/5
f 229/3/6 230/3/6 232/3/6
f 232/3/6 230/3/6 233/3/6
f 231/3/6 232/3/6 235/3/6
f 235/3/6 232/3/6 236/3/6
f 233/3/6 234/3/6 237/3/6
f 237/3/6 234/3/6 238/3/6
f 236/3/6 237/3/6 239/3/6
f 239/3/6 237/3/6 240/3/6
f 241/2/6 242/2/6 243/2/6
f 243/2/6 242/2/6 244/2/6
f 244/2/6 242/2/6 245/2/6
f 245/2/6 242/2/6 246/2/6
f 241/2/6 243/2/6 247/2/6
f 244/1/6 245/1/6 248/1/6
f 248/1/6 245/1/6 249/1/6
f 246/2/6 242/2/6 250/2/6
f 241/2/6 247/2/6 251/2/6
f 247/1/6 248/1/6 251/1/6
f 251/1/6 248/1/6 252/1/6
f 249/1/6 250/1/6 253/1/6
f 250/2/6 242/2/6 254/2/6
f 253/1/6 250/1/6 254/1/6
f 241/2/6 251/2/6 255/2/6
f 252/1/6 253/1/6 256/1/6
f 256/1/6 253/1/6 257/1/6
f 254/2/6 242/2/6 258/2/6
f 256/2/6 257/2/6 259/2/6
f 257/2/6 258/2/6 259/2/6
f 241/2/6 255/2/6 259/2/6
f 255/2/6 256/2/6 259/2/6
f 258/2/6 242/2/6 260/2/6
f 259/2/6 258/2/6 260/2/6
f 261/1/6 262/1/6 263/1/6
f 263/1/6 262/1/6 264/1/6
f 265/2/6 266/2/6 267/2/6
f 267/2/6 266/2/6 268/2/6
f 265/2/6 267/2/6 269/2/6
f 268/2/6 266/2/6 270/2/6
f 265/2/6 269/2/6 271/2/6
f 269/2/6 270/2/6 271/2/6
f 270/2/6 266/2/6 272/2/6
f 271/2/6 270/2/6 272/2/6
