# MagicaVoxel @ Ephtracy

# group
o 

# material
mtllib WeaponTargetting#1.mtl
usemtl palette

# normals
vn -1 0 0
vn 1 0 0
vn 0 0 1
vn 0 0 -1
vn 0 -1 0
vn 0 1 0

# texcoords
vt 0.970703 0.5
vt 0.974609 0.5
vt 0.978516 0.5

# verts
v 0 2.1 0
v 0 2.1 -0.7
v 0 2.2 0
v 0 2.2 -0.7
v 0 2.4 0
v 0 2.4 -0.7
v 0.1 2.4 -0.1
v 0.1 2.4 -0.6
v 0.1 2.5 -0.1
v 0.1 2.5 -0.6
v 0.3 2 -0.3
v 0.3 2 -0.4
v 0.3 2.1 -0.3
v 0.3 2.1 -0.4
v 0.4 2 -0.3
v 0.4 2 -0.4
v 0.4 2.1 -0.3
v 0.4 2.1 -0.4
v 0.6 2.4 -0.1
v 0.6 2.4 -0.6
v 0.6 2.5 -0.1
v 0.6 2.5 -0.6
v 0.7 2.1 0
v 0.7 2.1 -0.7
v 0.7 2.2 0
v 0.7 2.2 -0.7
v 0.7 2.4 0
v 0.7 2.4 -0.7
v 0 2.1 0
v 0 2.2 0
v 0 2.4 0
v 0.7 2.1 0
v 0.7 2.2 0
v 0.7 2.4 0
v 0.1 2.4 -0.1
v 0.1 2.5 -0.1
v 0.6 2.4 -0.1
v 0.6 2.5 -0.1
v 0.3 2 -0.3
v 0.3 2.1 -0.3
v 0.4 2 -0.3
v 0.4 2.1 -0.3
v 0.3 2 -0.4
v 0.3 2.1 -0.4
v 0.4 2 -0.4
v 0.4 2.1 -0.4
v 0.1 2.4 -0.6
v 0.1 2.5 -0.6
v 0.6 2.4 -0.6
v 0.6 2.5 -0.6
v 0 2.1 -0.7
v 0 2.2 -0.7
v 0 2.4 -0.7
v 0.7 2.1 -0.7
v 0.7 2.2 -0.7
v 0.7 2.4 -0.7
v 0.3 2 -0.3
v 0.4 2 -0.3
v 0.3 2 -0.4
v 0.4 2 -0.4
v 0 2.1 0
v 0.7 2.1 0
v 0.3 2.1 -0.3
v 0.4 2.1 -0.3
v 0.3 2.1 -0.4
v 0.4 2.1 -0.4
v 0 2.1 -0.7
v 0.7 2.1 -0.7
v 0 2.4 0
v 0.7 2.4 0
v 0.1 2.4 -0.1
v 0.6 2.4 -0.1
v 0.1 2.4 -0.6
v 0.6 2.4 -0.6
v 0 2.4 -0.7
v 0.7 2.4 -0.7
v 0.1 2.5 -0.1
v 0.6 2.5 -0.1
v 0.1 2.5 -0.6
v 0.6 2.5 -0.6

# faces
f 3/3/1 2/3/1 1/3/1
f 4/3/1 2/3/1 3/3/1
f 5/2/1 4/2/1 3/2/1
f 6/2/1 4/2/1 5/2/1
f 9/1/1 8/1/1 7/1/1
f 10/1/1 8/1/1 9/1/1
f 13/3/1 12/3/1 11/3/1
f 14/3/1 12/3/1 13/3/1
f 15/3/2 16/3/2 17/3/2
f 17/3/2 16/3/2 18/3/2
f 19/1/2 20/1/2 21/1/2
f 21/1/2 20/1/2 22/1/2
f 23/3/2 24/3/2 25/3/2
f 25/3/2 24/3/2 26/3/2
f 25/2/2 26/2/2 27/2/2
f 27/2/2 26/2/2 28/2/2
f 32/3/3 30/3/3 29/3/3
f 33/2/3 31/2/3 30/2/3
f 33/3/3 30/3/3 32/3/3
f 34/2/3 31/2/3 33/2/3
f 37/1/3 36/1/3 35/1/3
f 38/1/3 36/1/3 37/1/3
f 41/3/3 40/3/3 39/3/3
f 42/3/3 40/3/3 41/3/3
f 43/3/4 44/3/4 45/3/4
f 45/3/4 44/3/4 46/3/4
f 47/1/4 48/1/4 49/1/4
f 49/1/4 48/1/4 50/1/4
f 51/3/4 52/3/4 54/3/4
f 52/2/4 53/2/4 55/2/4
f 54/3/4 52/3/4 55/3/4
f 55/2/4 53/2/4 56/2/4
f 59/3/5 58/3/5 57/3/5
f 60/3/5 58/3/5 59/3/5
f 63/3/5 62/3/5 61/3/5
f 64/3/5 62/3/5 63/3/5
f 65/3/5 63/3/5 61/3/5
f 66/3/5 62/3/5 64/3/5
f 67/3/5 65/3/5 61/3/5
f 67/3/5 66/3/5 65/3/5
f 68/3/5 62/3/5 66/3/5
f 68/3/5 66/3/5 67/3/5
f 69/2/6 70/2/6 71/2/6
f 71/2/6 70/2/6 72/2/6
f 69/2/6 71/2/6 73/2/6
f 72/2/6 70/2/6 74/2/6
f 69/2/6 73/2/6 75/2/6
f 73/2/6 74/2/6 75/2/6
f 74/2/6 70/2/6 76/2/6
f 75/2/6 74/2/6 76/2/6
f 77/1/6 78/1/6 79/1/6
f 79/1/6 78/1/6 80/1/6
