# MagicaVoxel @ Ephtracy

# group
o 

# material
mtllib WeaponBarrel#2.mtl
usemtl palette

# normals
vn -1 0 0
vn 1 0 0
vn 0 0 1
vn 0 0 -1
vn 0 -1 0
vn 0 1 0

# texcoords
vt 0.970703 0.5
vt 0.974609 0.5
vt 0.978516 0.5
vt 0.986328 0.5

# verts
v 0 2.2 -0.2
v 0 2.2 -0.3
v 0 2.3 -0.2
v 0 2.3 -0.3
v 0.1 2 0
v 0.1 2 -0.5
v 0.1 2.1 -0.1
v 0.1 2.1 -0.4
v 0.1 2.2 -0.2
v 0.1 2.2 -0.3
v 0.1 2.3 -0.2
v 0.1 2.3 -0.3
v 0.1 2.4 -0.1
v 0.1 2.4 -0.4
v 0.1 2.5 0
v 0.1 2.5 -0.5
v 0.9 2.1 0
v 0.9 2.1 -0.1
v 0.9 2.1 -0.4
v 0.9 2.1 -0.5
v 0.9 2.4 0
v 0.9 2.4 -0.1
v 0.9 2.4 -0.4
v 0.9 2.4 -0.5
v 0.9 2.5 -0.1
v 0.9 2.5 -0.4
v 2 2 -0.1
v 2 2 -0.2
v 2 2 -0.3
v 2 2 -0.4
v 2 2.1 0
v 2 2.1 -0.1
v 2 2.1 -0.2
v 2 2.1 -0.3
v 2 2.1 -0.4
v 2 2.1 -0.5
v 2 2.4 0
v 2 2.4 -0.1
v 2 2.4 -0.2
v 2 2.4 -0.3
v 2 2.4 -0.4
v 2 2.4 -0.5
v 2 2.5 -0.1
v 2 2.5 -0.2
v 2 2.5 -0.3
v 2 2.5 -0.4
v 2.4 2 -0.1
v 2.4 2 -0.2
v 2.4 2 -0.3
v 2.4 2 -0.4
v 2.4 2.1 0
v 2.4 2.1 -0.1
v 2.4 2.1 -0.2
v 2.4 2.1 -0.3
v 2.4 2.1 -0.4
v 2.4 2.1 -0.5
v 2.4 2.4 0
v 2.4 2.4 -0.1
v 2.4 2.4 -0.2
v 2.4 2.4 -0.3
v 2.4 2.4 -0.4
v 2.4 2.4 -0.5
v 2.4 2.5 -0.1
v 2.4 2.5 -0.2
v 2.4 2.5 -0.3
v 2.4 2.5 -0.4
v 0.2 2.1 0
v 0.2 2.1 -0.1
v 0.2 2.1 -0.4
v 0.2 2.1 -0.5
v 0.2 2.4 0
v 0.2 2.4 -0.1
v 0.2 2.4 -0.4
v 0.2 2.4 -0.5
v 0.2 2.5 -0.1
v 0.2 2.5 -0.4
v 1 2 0
v 1 2 -0.2
v 1 2 -0.3
v 1 2 -0.5
v 1 2.1 -0.1
v 1 2.1 -0.2
v 1 2.1 -0.3
v 1 2.1 -0.4
v 1 2.4 -0.1
v 1 2.4 -0.2
v 1 2.4 -0.3
v 1 2.4 -0.4
v 1 2.5 0
v 1 2.5 -0.2
v 1 2.5 -0.3
v 1 2.5 -0.5
v 2.1 2 -0.1
v 2.1 2 -0.2
v 2.1 2 -0.3
v 2.1 2 -0.4
v 2.1 2.1 0
v 2.1 2.1 -0.1
v 2.1 2.1 -0.2
v 2.1 2.1 -0.3
v 2.1 2.1 -0.4
v 2.1 2.1 -0.5
v 2.1 2.4 0
v 2.1 2.4 -0.1
v 2.1 2.4 -0.2
v 2.1 2.4 -0.3
v 2.1 2.4 -0.4
v 2.1 2.4 -0.5
v 2.1 2.5 -0.1
v 2.1 2.5 -0.2
v 2.1 2.5 -0.3
v 2.1 2.5 -0.4
v 2.3 2.2 -0.2
v 2.3 2.2 -0.3
v 2.3 2.3 -0.2
v 2.3 2.3 -0.3
v 2.4 2.1 -0.1
v 2.4 2.1 -0.4
v 2.4 2.2 -0.2
v 2.4 2.2 -0.3
v 2.4 2.3 -0.2
v 2.4 2.3 -0.3
v 2.4 2.4 -0.1
v 2.4 2.4 -0.4
v 2.5 2 -0.1
v 2.5 2 -0.4
v 2.5 2.1 0
v 2.5 2.1 -0.1
v 2.5 2.1 -0.4
v 2.5 2.1 -0.5
v 2.5 2.4 0
v 2.5 2.4 -0.1
v 2.5 2.4 -0.4
v 2.5 2.4 -0.5
v 2.5 2.5 -0.1
v 2.5 2.5 -0.4
v 0.1 2 0
v 0.1 2.5 0
v 0.2 2.1 0
v 0.2 2.4 0
v 0.9 2.1 0
v 0.9 2.4 0
v 1 2 0
v 1 2.5 0
v 2 2.1 0
v 2 2.4 0
v 2.1 2.1 0
v 2.1 2.4 0
v 2.4 2.1 0
v 2.4 2.4 0
v 2.5 2.1 0
v 2.5 2.4 0
v 0.2 2.1 -0.1
v 0.2 2.4 -0.1
v 0.9 2.1 -0.1
v 0.9 2.4 -0.1
v 1 2.1 -0.1
v 1 2.4 -0.1
v 2 2 -0.1
v 2 2.1 -0.1
v 2 2.4 -0.1
v 2 2.5 -0.1
v 2.1 2 -0.1
v 2.1 2.1 -0.1
v 2.1 2.4 -0.1
v 2.1 2.5 -0.1
v 2.4 2 -0.1
v 2.4 2.1 -0.1
v 2.4 2.4 -0.1
v 2.4 2.5 -0.1
v 2.5 2 -0.1
v 2.5 2.1 -0.1
v 2.5 2.4 -0.1
v 2.5 2.5 -0.1
v 0 2.2 -0.2
v 0 2.3 -0.2
v 0.1 2.2 -0.2
v 0.1 2.3 -0.2
v 1 2 -0.2
v 1 2.1 -0.2
v 1 2.4 -0.2
v 1 2.5 -0.2
v 2 2 -0.2
v 2 2.1 -0.2
v 2 2.4 -0.2
v 2 2.5 -0.2
v 2.1 2 -0.2
v 2.1 2.1 -0.2
v 2.1 2.4 -0.2
v 2.1 2.5 -0.2
v 2.4 2 -0.2
v 2.4 2.1 -0.2
v 2.4 2.4 -0.2
v 2.4 2.5 -0.2
v 2.3 2.2 -0.3
v 2.3 2.3 -0.3
v 2.4 2.2 -0.3
v 2.4 2.3 -0.3
v 0.2 2.4 -0.4
v 0.2 2.5 -0.4
v 0.9 2.4 -0.4
v 0.9 2.5 -0.4
v 2.4 2.1 -0.4
v 2.4 2.4 -0.4
v 2.5 2.1 -0.4
v 2.5 2.4 -0.4
v 0.2 2.4 -0.1
v 0.2 2.5 -0.1
v 0.9 2.4 -0.1
v 0.9 2.5 -0.1
v 2.4 2.1 -0.1
v 2.4 2.4 -0.1
v 2.5 2.1 -0.1
v 2.5 2.4 -0.1
v 2.3 2.2 -0.2
v 2.3 2.3 -0.2
v 2.4 2.2 -0.2
v 2.4 2.3 -0.2
v 0 2.2 -0.3
v 0 2.3 -0.3
v 0.1 2.2 -0.3
v 0.1 2.3 -0.3
v 1 2 -0.3
v 1 2.1 -0.3
v 1 2.4 -0.3
v 1 2.5 -0.3
v 2 2 -0.3
v 2 2.1 -0.3
v 2 2.4 -0.3
v 2 2.5 -0.3
v 2.1 2 -0.3
v 2.1 2.1 -0.3
v 2.1 2.4 -0.3
v 2.1 2.5 -0.3
v 2.4 2 -0.3
v 2.4 2.1 -0.3
v 2.4 2.4 -0.3
v 2.4 2.5 -0.3
v 0.2 2.1 -0.4
v 0.2 2.4 -0.4
v 0.9 2.1 -0.4
v 0.9 2.4 -0.4
v 1 2.1 -0.4
v 1 2.4 -0.4
v 2 2 -0.4
v 2 2.1 -0.4
v 2 2.4 -0.4
v 2 2.5 -0.4
v 2.1 2 -0.4
v 2.1 2.1 -0.4
v 2.1 2.4 -0.4
v 2.1 2.5 -0.4
v 2.4 2 -0.4
v 2.4 2.1 -0.4
v 2.4 2.4 -0.4
v 2.4 2.5 -0.4
v 2.5 2 -0.4
v 2.5 2.1 -0.4
v 2.5 2.4 -0.4
v 2.5 2.5 -0.4
v 0.1 2 -0.5
v 0.1 2.5 -0.5
v 0.2 2.1 -0.5
v 0.2 2.4 -0.5
v 0.9 2.1 -0.5
v 0.9 2.4 -0.5
v 1 2 -0.5
v 1 2.5 -0.5
v 2 2.1 -0.5
v 2 2.4 -0.5
v 2.1 2.1 -0.5
v 2.1 2.4 -0.5
v 2.4 2.1 -0.5
v 2.4 2.4 -0.5
v 2.5 2.1 -0.5
v 2.5 2.4 -0.5
v 0.1 2 0
v 1 2 0
v 0.2 2 -0.1
v 0.9 2 -0.1
v 2 2 -0.1
v 2.1 2 -0.1
v 2.4 2 -0.1
v 2.5 2 -0.1
v 1 2 -0.2
v 2 2 -0.2
v 2.1 2 -0.2
v 2.4 2 -0.2
v 1 2 -0.3
v 2 2 -0.3
v 2.1 2 -0.3
v 2.4 2 -0.3
v 0.2 2 -0.4
v 0.9 2 -0.4
v 2 2 -0.4
v 2.1 2 -0.4
v 2.4 2 -0.4
v 2.5 2 -0.4
v 0.1 2 -0.5
v 1 2 -0.5
v 2 2.1 0
v 2.1 2.1 0
v 2.4 2.1 0
v 2.5 2.1 0
v 1 2.1 -0.1
v 2 2.1 -0.1
v 2.1 2.1 -0.1
v 2.4 2.1 -0.1
v 2.5 2.1 -0.1
v 1 2.1 -0.2
v 2 2.1 -0.2
v 2.1 2.1 -0.2
v 2.4 2.1 -0.2
v 1 2.1 -0.3
v 2 2.1 -0.3
v 2.1 2.1 -0.3
v 2.4 2.1 -0.3
v 1 2.1 -0.4
v 2 2.1 -0.4
v 2.1 2.1 -0.4
v 2.4 2.1 -0.4
v 2.5 2.1 -0.4
v 2 2.1 -0.5
v 2.1 2.1 -0.5
v 2.4 2.1 -0.5
v 2.5 2.1 -0.5
v 0 2.2 -0.2
v 0.1 2.2 -0.2
v 0 2.2 -0.3
v 0.1 2.2 -0.3
v 2.3 2.3 -0.2
v 2.4 2.3 -0.2
v 2.3 2.3 -0.3
v 2.4 2.3 -0.3
v 0.2 2.4 0
v 0.9 2.4 0
v 0.2 2.4 -0.1
v 0.9 2.4 -0.1
v 2.4 2.4 -0.1
v 2.5 2.4 -0.1
v 0.2 2.4 -0.4
v 0.9 2.4 -0.4
v 2.4 2.4 -0.4
v 2.5 2.4 -0.4
v 0.2 2.4 -0.5
v 0.9 2.4 -0.5
v 0.2 2.1 0
v 0.9 2.1 0
v 0.2 2.1 -0.1
v 0.9 2.1 -0.1
v 2.4 2.1 -0.1
v 2.5 2.1 -0.1
v 0.2 2.1 -0.4
v 0.9 2.1 -0.4
v 2.4 2.1 -0.4
v 2.5 2.1 -0.4
v 0.2 2.1 -0.5
v 0.9 2.1 -0.5
v 2.3 2.2 -0.2
v 2.4 2.2 -0.2
v 2.3 2.2 -0.3
v 2.4 2.2 -0.3
v 0 2.3 -0.2
v 0.1 2.3 -0.2
v 0 2.3 -0.3
v 0.1 2.3 -0.3
v 2 2.4 0
v 2.1 2.4 0
v 2.4 2.4 0
v 2.5 2.4 0
v 0.2 2.4 -0.1
v 0.9 2.4 -0.1
v 1 2.4 -0.1
v 2 2.4 -0.1
v 2.1 2.4 -0.1
v 2.4 2.4 -0.1
v 2.5 2.4 -0.1
v 1 2.4 -0.2
v 2 2.4 -0.2
v 2.1 2.4 -0.2
v 2.4 2.4 -0.2
v 1 2.4 -0.3
v 2 2.4 -0.3
v 2.1 2.4 -0.3
v 2.4 2.4 -0.3
v 0.2 2.4 -0.4
v 0.9 2.4 -0.4
v 1 2.4 -0.4
v 2 2.4 -0.4
v 2.1 2.4 -0.4
v 2.4 2.4 -0.4
v 2.5 2.4 -0.4
v 2 2.4 -0.5
v 2.1 2.4 -0.5
v 2.4 2.4 -0.5
v 2.5 2.4 -0.5
v 0.1 2.5 0
v 1 2.5 0
v 0.2 2.5 -0.1
v 0.9 2.5 -0.1
v 2 2.5 -0.1
v 2.1 2.5 -0.1
v 2.4 2.5 -0.1
v 2.5 2.5 -0.1
v 1 2.5 -0.2
v 2 2.5 -0.2
v 2.1 2.5 -0.2
v 2.4 2.5 -0.2
v 1 2.5 -0.3
v 2 2.5 -0.3
v 2.1 2.5 -0.3
v 2.4 2.5 -0.3
v 0.2 2.5 -0.4
v 0.9 2.5 -0.4
v 2 2.5 -0.4
v 2.1 2.5 -0.4
v 2.4 2.5 -0.4
v 2.5 2.5 -0.4
v 0.1 2.5 -0.5
v 1 2.5 -0.5

# faces
f 3/3/1 2/3/1 1/3/1
f 4/3/1 2/3/1 3/3/1
f 7/2/1 6/2/1 5/2/1
f 8/2/1 6/2/1 7/2/1
f 9/3/1 8/3/1 7/3/1
f 10/3/1 8/3/1 9/3/1
f 11/3/1 9/3/1 7/3/1
f 12/3/1 8/3/1 10/3/1
f 13/2/1 7/2/1 5/2/1
f 13/3/1 12/3/1 11/3/1
f 13/3/1 11/3/1 7/3/1
f 14/3/1 8/3/1 12/3/1
f 14/3/1 12/3/1 13/3/1
f 14/2/1 6/2/1 8/2/1
f 15/2/1 13/2/1 5/2/1
f 15/2/1 14/2/1 13/2/1
f 16/2/1 6/2/1 14/2/1
f 16/2/1 14/2/1 15/2/1
f 21/2/1 18/2/1 17/2/1
f 22/2/1 18/2/1 21/2/1
f 23/2/1 20/2/1 19/2/1
f 24/2/1 20/2/1 23/2/1
f 25/2/1 23/2/1 22/2/1
f 26/2/1 23/2/1 25/2/1
f 32/2/1 28/2/1 27/2/1
f 33/2/1 28/2/1 32/2/1
f 34/2/1 30/2/1 29/2/1
f 35/2/1 30/2/1 34/2/1
f 37/2/1 32/2/1 31/2/1
f 38/2/1 32/2/1 37/2/1
f 41/2/1 36/2/1 35/2/1
f 42/2/1 36/2/1 41/2/1
f 43/2/1 39/2/1 38/2/1
f 44/2/1 39/2/1 43/2/1
f 45/2/1 41/2/1 40/2/1
f 46/2/1 41/2/1 45/2/1
f 52/2/1 48/2/1 47/2/1
f 53/2/1 48/2/1 52/2/1
f 54/2/1 50/2/1 49/2/1
f 55/2/1 50/2/1 54/2/1
f 57/2/1 52/2/1 51/2/1
f 58/2/1 52/2/1 57/2/1
f 61/2/1 56/2/1 55/2/1
f 62/2/1 56/2/1 61/2/1
f 63/2/1 59/2/1 58/2/1
f 64/2/1 59/2/1 63/2/1
f 65/2/1 61/2/1 60/2/1
f 66/2/1 61/2/1 65/2/1
f 67/2/2 68/2/2 71/2/2
f 71/2/2 68/2/2 72/2/2
f 69/2/2 70/2/2 73/2/2
f 73/2/2 70/2/2 74/2/2
f 72/2/2 73/2/2 75/2/2
f 75/2/2 73/2/2 76/2/2
f 77/2/2 78/2/2 81/2/2
f 81/2/2 78/2/2 82/2/2
f 79/2/2 80/2/2 83/2/2
f 83/2/2 80/2/2 84/2/2
f 77/2/2 81/2/2 85/2/2
f 84/2/2 80/2/2 88/2/2
f 85/2/2 86/2/2 89/2/2
f 77/2/2 85/2/2 89/2/2
f 89/2/2 86/2/2 90/2/2
f 87/2/2 88/2/2 91/2/2
f 88/2/2 80/2/2 92/2/2
f 91/2/2 88/2/2 92/2/2
f 93/2/2 94/2/2 98/2/2
f 98/2/2 94/2/2 99/2/2
f 95/2/2 96/2/2 100/2/2
f 100/2/2 96/2/2 101/2/2
f 97/2/2 98/2/2 103/2/2
f 103/2/2 98/2/2 104/2/2
f 101/2/2 102/2/2 107/2/2
f 107/2/2 102/2/2 108/2/2
f 104/2/2 105/2/2 109/2/2
f 109/2/2 105/2/2 110/2/2
f 106/2/2 107/2/2 111/2/2
f 111/2/2 107/2/2 112/2/2
f 113/4/2 114/4/2 115/4/2
f 115/4/2 114/4/2 116/4/2
f 117/4/2 118/4/2 119/4/2
f 119/4/2 118/4/2 120/4/2
f 117/4/2 119/4/2 121/4/2
f 120/4/2 118/4/2 122/4/2
f 117/4/2 121/4/2 123/4/2
f 121/4/2 122/4/2 123/4/2
f 122/4/2 118/4/2 124/4/2
f 123/4/2 122/4/2 124/4/2
f 125/2/2 126/2/2 128/2/2
f 128/2/2 126/2/2 129/2/2
f 127/2/2 128/2/2 131/2/2
f 131/2/2 128/2/2 132/2/2
f 129/2/2 130/2/2 133/2/2
f 133/2/2 130/2/2 134/2/2
f 132/2/2 133/2/2 135/2/2
f 135/2/2 133/2/2 136/2/2
f 139/2/3 138/2/3 137/2/3
f 140/2/3 138/2/3 139/2/3
f 141/2/3 139/2/3 137/2/3
f 142/2/3 138/2/3 140/2/3
f 143/2/3 141/2/3 137/2/3
f 143/2/3 142/2/3 141/2/3
f 144/2/3 138/2/3 142/2/3
f 144/2/3 142/2/3 143/2/3
f 147/2/3 146/2/3 145/2/3
f 148/2/3 146/2/3 147/2/3
f 151/2/3 150/2/3 149/2/3
f 152/2/3 150/2/3 151/2/3
f 155/4/3 154/4/3 153/4/3
f 156/4/3 154/4/3 155/4/3
f 160/1/3 158/1/3 157/1/3
f 161/1/3 158/1/3 160/1/3
f 163/2/3 160/2/3 159/2/3
f 164/2/3 160/2/3 163/2/3
f 165/2/3 162/2/3 161/2/3
f 166/2/3 162/2/3 165/2/3
f 168/4/3 165/4/3 164/4/3
f 169/4/3 165/4/3 168/4/3
f 171/2/3 168/2/3 167/2/3
f 172/2/3 168/2/3 171/2/3
f 173/2/3 170/2/3 169/2/3
f 174/2/3 170/2/3 173/2/3
f 177/3/3 176/3/3 175/3/3
f 178/3/3 176/3/3 177/3/3
f 183/2/3 180/2/3 179/2/3
f 184/2/3 180/2/3 183/2/3
f 185/2/3 182/2/3 181/2/3
f 186/2/3 182/2/3 185/2/3
f 191/2/3 188/2/3 187/2/3
f 192/2/3 188/2/3 191/2/3
f 193/2/3 190/2/3 189/2/3
f 194/2/3 190/2/3 193/2/3
f 197/4/3 196/4/3 195/4/3
f 198/4/3 196/4/3 197/4/3
f 201/2/3 200/2/3 199/2/3
f 202/2/3 200/2/3 201/2/3
f 205/2/3 204/2/3 203/2/3
f 206/2/3 204/2/3 205/2/3
f 207/2/4 208/2/4 209/2/4
f 209/2/4 208/2/4 210/2/4
f 211/2/4 212/2/4 213/2/4
f 213/2/4 212/2/4 214/2/4
f 215/4/4 216/4/4 217/4/4
f 217/4/4 216/4/4 218/4/4
f 219/3/4 220/3/4 221/3/4
f 221/3/4 220/3/4 222/3/4
f 223/2/4 224/2/4 227/2/4
f 227/2/4 224/2/4 228/2/4
f 225/2/4 226/2/4 229/2/4
f 229/2/4 226/2/4 230/2/4
f 231/2/4 232/2/4 235/2/4
f 235/2/4 232/2/4 236/2/4
f 233/2/4 234/2/4 237/2/4
f 237/2/4 234/2/4 238/2/4
f 239/4/4 240/4/4 241/4/4
f 241/4/4 240/4/4 242/4/4
f 243/1/4 244/1/4 246/1/4
f 246/1/4 244/1/4 247/1/4
f 245/2/4 246/2/4 249/2/4
f 249/2/4 246/2/4 250/2/4
f 247/2/4 248/2/4 251/2/4
f 251/2/4 248/2/4 252/2/4
f 250/4/4 251/4/4 254/4/4
f 254/4/4 251/4/4 255/4/4
f 253/2/4 254/2/4 257/2/4
f 257/2/4 254/2/4 258/2/4
f 255/2/4 256/2/4 259/2/4
f 259/2/4 256/2/4 260/2/4
f 261/2/4 262/2/4 263/2/4
f 263/2/4 262/2/4 264/2/4
f 261/2/4 263/2/4 265/2/4
f 264/2/4 262/2/4 266/2/4
f 261/2/4 265/2/4 267/2/4
f 265/2/4 266/2/4 267/2/4
f 266/2/4 262/2/4 268/2/4
f 267/2/4 266/2/4 268/2/4
f 269/2/4 270/2/4 271/2/4
f 271/2/4 270/2/4 272/2/4
f 273/2/4 274/2/4 275/2/4
f 275/2/4 274/2/4 276/2/4
f 279/2/5 278/2/5 277/2/5
f 280/2/5 278/2/5 279/2/5
f 285/2/5 278/2/5 280/2/5
f 286/2/5 282/2/5 281/2/5
f 287/2/5 282/2/5 286/2/5
f 288/2/5 284/2/5 283/2/5
f 289/2/5 287/2/5 286/2/5
f 289/2/5 288/2/5 287/2/5
f 289/2/5 285/2/5 280/2/5
f 289/2/5 286/2/5 285/2/5
f 290/2/5 288/2/5 289/2/5
f 291/2/5 288/2/5 290/2/5
f 292/2/5 284/2/5 288/2/5
f 292/2/5 288/2/5 291/2/5
f 293/2/5 279/2/5 277/2/5
f 293/4/5 280/4/5 279/4/5
f 294/2/5 289/2/5 280/2/5
f 294/4/5 280/4/5 293/4/5
f 295/2/5 291/2/5 290/2/5
f 296/2/5 291/2/5 295/2/5
f 297/2/5 284/2/5 292/2/5
f 298/2/5 284/2/5 297/2/5
f 299/2/5 293/2/5 277/2/5
f 299/2/5 294/2/5 293/2/5
f 300/2/5 289/2/5 294/2/5
f 300/2/5 294/2/5 299/2/5
f 306/2/5 302/2/5 301/2/5
f 307/2/5 302/2/5 306/2/5
f 308/2/5 304/2/5 303/2/5
f 309/2/5 304/2/5 308/2/5
f 310/1/5 306/1/5 305/1/5
f 311/1/5 306/1/5 310/1/5
f 312/4/5 308/4/5 307/4/5
f 313/4/5 308/4/5 312/4/5
f 318/1/5 315/1/5 314/1/5
f 319/1/5 315/1/5 318/1/5
f 320/4/5 317/4/5 316/4/5
f 321/4/5 317/4/5 320/4/5
f 323/2/5 320/2/5 319/2/5
f 324/2/5 320/2/5 323/2/5
f 325/2/5 322/2/5 321/2/5
f 326/2/5 322/2/5 325/2/5
f 329/3/5 328/3/5 327/3/5
f 330/3/5 328/3/5 329/3/5
f 333/4/5 332/4/5 331/4/5
f 334/4/5 332/4/5 333/4/5
f 337/2/5 336/2/5 335/2/5
f 338/2/5 336/2/5 337/2/5
f 343/2/5 340/2/5 339/2/5
f 344/2/5 340/2/5 343/2/5
f 345/2/5 342/2/5 341/2/5
f 346/2/5 342/2/5 345/2/5
f 347/2/6 348/2/6 349/2/6
f 349/2/6 348/2/6 350/2/6
f 351/2/6 352/2/6 355/2/6
f 355/2/6 352/2/6 356/2/6
f 353/2/6 354/2/6 357/2/6
f 357/2/6 354/2/6 358/2/6
f 359/4/6 360/4/6 361/4/6
f 361/4/6 360/4/6 362/4/6
f 363/3/6 364/3/6 365/3/6
f 365/3/6 364/3/6 366/3/6
f 367/2/6 368/2/6 374/2/6
f 374/2/6 368/2/6 375/2/6
f 369/2/6 370/2/6 376/2/6
f 376/2/6 370/2/6 377/2/6
f 373/1/6 374/1/6 378/1/6
f 378/1/6 374/1/6 379/1/6
f 375/4/6 376/4/6 380/4/6
f 380/4/6 376/4/6 381/4/6
f 371/4/6 372/4/6 386/4/6
f 386/4/6 372/4/6 387/4/6
f 382/1/6 383/1/6 388/1/6
f 388/1/6 383/1/6 389/1/6
f 384/4/6 385/4/6 390/4/6
f 390/4/6 385/4/6 391/4/6
f 389/2/6 390/2/6 393/2/6
f 393/2/6 390/2/6 394/2/6
f 391/2/6 392/2/6 395/2/6
f 395/2/6 392/2/6 396/2/6
f 397/2/6 398/2/6 399/2/6
f 399/2/6 398/2/6 400/2/6
f 400/2/6 398/2/6 405/2/6
f 401/2/6 402/2/6 406/2/6
f 406/2/6 402/2/6 407/2/6
f 403/2/6 404/2/6 408/2/6
f 406/2/6 407/2/6 409/2/6
f 407/2/6 408/2/6 409/2/6
f 400/2/6 405/2/6 409/2/6
f 405/2/6 406/2/6 409/2/6
f 409/2/6 408/2/6 410/2/6
f 410/2/6 408/2/6 411/2/6
f 408/2/6 404/2/6 412/2/6
f 411/2/6 408/2/6 412/2/6
f 397/2/6 399/2/6 413/2/6
f 400/2/6 409/2/6 414/2/6
f 410/2/6 411/2/6 415/2/6
f 415/2/6 411/2/6 416/2/6
f 412/2/6 404/2/6 417/2/6
f 417/2/6 404/2/6 418/2/6
f 413/2/6 414/2/6 419/2/6
f 397/2/6 413/2/6 419/2/6
f 414/2/6 409/2/6 420/2/6
f 419/2/6 414/2/6 420/2/6
