# MagicaVoxel @ Ephtracy

# group
o 

# material
mtllib WeaponBattery#1.mtl
usemtl palette

# normals
vn -1 0 0
vn 1 0 0
vn 0 0 1
vn 0 0 -1
vn 0 -1 0
vn 0 1 0

# texcoords
vt 0.970703 0.5
vt 0.974609 0.5
vt 0.978516 0.5
vt 0.982422 0.5
vt 0.994141 0.5

# verts
v 0.2 2.1 -0.3
v 0.2 2.1 -0.5
v 0.2 2.1 -1
v 0.2 2.1 -1.2
v 0.2 2.3 -0.3
v 0.2 2.3 -0.5
v 0.2 2.3 -1
v 0.2 2.3 -1.2
v 0.2 2.6 -0.3
v 0.2 2.6 -0.5
v 0.2 2.6 -1
v 0.2 2.6 -1.2
v 0.2 2.8 -0.3
v 0.2 2.8 -0.5
v 0.2 2.8 -1
v 0.2 2.8 -1.2
v 0.3 2 -0.4
v 0.3 2 -0.5
v 0.3 2 -1
v 0.3 2 -1.1
v 0.3 2.1 -0.4
v 0.3 2.1 -0.5
v 0.3 2.1 -1
v 0.3 2.1 -1.1
v 0.3 2.3 -0.4
v 0.3 2.3 -0.5
v 0.3 2.3 -1
v 0.3 2.3 -1.1
v 0.3 2.6 -0.4
v 0.3 2.6 -0.5
v 0.3 2.6 -1
v 0.3 2.6 -1.1
v 0.3 2.8 -0.4
v 0.3 2.8 -0.5
v 0.3 2.8 -1
v 0.3 2.8 -1.1
v 0.3 2.9 -0.4
v 0.3 2.9 -0.5
v 0.3 2.9 -1
v 0.3 2.9 -1.1
v 0.4 2.1 -0.5
v 0.4 2.1 -1
v 0.4 2.3 -0.5
v 0.4 2.3 -1
v 0.4 2.6 -0.5
v 0.4 2.6 -1
v 0.4 2.8 -0.5
v 0.4 2.8 -1
v 0.7 2 -0.3
v 0.7 2 -0.4
v 0.7 2 -0.5
v 0.7 2 -1
v 0.7 2 -1.1
v 0.7 2 -1.2
v 0.7 2.1 -0.3
v 0.7 2.1 -0.4
v 0.7 2.1 -0.5
v 0.7 2.1 -1
v 0.7 2.1 -1.1
v 0.7 2.1 -1.2
v 0.7 2.3 -0.3
v 0.7 2.3 -0.4
v 0.7 2.3 -1.1
v 0.7 2.3 -1.2
v 0.7 2.6 -0.3
v 0.7 2.6 -0.4
v 0.7 2.6 -1.1
v 0.7 2.6 -1.2
v 0.7 2.8 -0.3
v 0.7 2.8 -0.4
v 0.7 2.8 -0.5
v 0.7 2.8 -1
v 0.7 2.8 -1.1
v 0.7 2.8 -1.2
v 0.7 2.9 -0.3
v 0.7 2.9 -0.4
v 0.7 2.9 -0.5
v 0.7 2.9 -1
v 0.7 2.9 -1.1
v 0.7 2.9 -1.2
v 0.8 2 -0.3
v 0.8 2 -1.2
v 0.8 2.1 -0.4
v 0.8 2.1 -1.1
v 0.8 2.8 -0.4
v 0.8 2.8 -1.1
v 0.8 2.9 -0.3
v 0.8 2.9 -1.2
v 0.9 2.1 -0.4
v 0.9 2.1 -1.1
v 0.9 2.4 -0.7
v 0.9 2.4 -0.8
v 0.9 2.5 -0.7
v 0.9 2.5 -0.8
v 0.9 2.8 -0.4
v 0.9 2.8 -1.1
v 1 2.4 -0.7
v 1 2.4 -0.8
v 1 2.5 -0.7
v 1 2.5 -0.8
v 0.2 2.1 -0.3
v 0.2 2.3 -0.3
v 0.2 2.6 -0.3
v 0.2 2.8 -0.3
v 0.7 2 -0.3
v 0.7 2.1 -0.3
v 0.7 2.3 -0.3
v 0.7 2.6 -0.3
v 0.7 2.8 -0.3
v 0.7 2.9 -0.3
v 0.8 2 -0.3
v 0.8 2.9 -0.3
v 0.3 2 -0.4
v 0.3 2.1 -0.4
v 0.3 2.3 -0.4
v 0.3 2.6 -0.4
v 0.3 2.8 -0.4
v 0.3 2.9 -0.4
v 0.4 2.3 -0.4
v 0.4 2.6 -0.4
v 0.7 2 -0.4
v 0.7 2.1 -0.4
v 0.7 2.3 -0.4
v 0.7 2.6 -0.4
v 0.7 2.8 -0.4
v 0.7 2.9 -0.4
v 0.8 2.1 -0.4
v 0.8 2.8 -0.4
v 0.9 2.1 -0.4
v 0.9 2.8 -0.4
v 0.9 2.4 -0.7
v 0.9 2.5 -0.7
v 1 2.4 -0.7
v 1 2.5 -0.7
v 0.2 2.1 -1
v 0.2 2.3 -1
v 0.2 2.6 -1
v 0.2 2.8 -1
v 0.3 2 -1
v 0.3 2.1 -1
v 0.3 2.3 -1
v 0.3 2.6 -1
v 0.3 2.8 -1
v 0.3 2.9 -1
v 0.4 2.1 -1
v 0.4 2.3 -1
v 0.4 2.6 -1
v 0.4 2.8 -1
v 0.7 2 -1
v 0.7 2.1 -1
v 0.7 2.8 -1
v 0.7 2.9 -1
v 0.2 2.1 -0.5
v 0.2 2.3 -0.5
v 0.2 2.6 -0.5
v 0.2 2.8 -0.5
v 0.3 2 -0.5
v 0.3 2.1 -0.5
v 0.3 2.3 -0.5
v 0.3 2.6 -0.5
v 0.3 2.8 -0.5
v 0.3 2.9 -0.5
v 0.4 2.1 -0.5
v 0.4 2.3 -0.5
v 0.4 2.6 -0.5
v 0.4 2.8 -0.5
v 0.7 2 -0.5
v 0.7 2.1 -0.5
v 0.7 2.8 -0.5
v 0.7 2.9 -0.5
v 0.9 2.4 -0.8
v 0.9 2.5 -0.8
v 1 2.4 -0.8
v 1 2.5 -0.8
v 0.3 2 -1.1
v 0.3 2.1 -1.1
v 0.3 2.3 -1.1
v 0.3 2.6 -1.1
v 0.3 2.8 -1.1
v 0.3 2.9 -1.1
v 0.4 2.3 -1.1
v 0.4 2.6 -1.1
v 0.7 2 -1.1
v 0.7 2.1 -1.1
v 0.7 2.3 -1.1
v 0.7 2.6 -1.1
v 0.7 2.8 -1.1
v 0.7 2.9 -1.1
v 0.8 2.1 -1.1
v 0.8 2.8 -1.1
v 0.9 2.1 -1.1
v 0.9 2.8 -1.1
v 0.2 2.1 -1.2
v 0.2 2.3 -1.2
v 0.2 2.6 -1.2
v 0.2 2.8 -1.2
v 0.7 2 -1.2
v 0.7 2.1 -1.2
v 0.7 2.3 -1.2
v 0.7 2.6 -1.2
v 0.7 2.8 -1.2
v 0.7 2.9 -1.2
v 0.8 2 -1.2
v 0.8 2.9 -1.2
v 0.7 2 -0.3
v 0.8 2 -0.3
v 0.3 2 -0.4
v 0.7 2 -0.4
v 0.3 2 -0.5
v 0.7 2 -0.5
v 0.3 2 -1
v 0.7 2 -1
v 0.3 2 -1.1
v 0.7 2 -1.1
v 0.7 2 -1.2
v 0.8 2 -1.2
v 0.2 2.1 -0.3
v 0.7 2.1 -0.3
v 0.3 2.1 -0.4
v 0.7 2.1 -0.4
v 0.8 2.1 -0.4
v 0.9 2.1 -0.4
v 0.2 2.1 -0.5
v 0.3 2.1 -0.5
v 0.4 2.1 -0.5
v 0.7 2.1 -0.5
v 0.2 2.1 -1
v 0.3 2.1 -1
v 0.4 2.1 -1
v 0.7 2.1 -1
v 0.3 2.1 -1.1
v 0.7 2.1 -1.1
v 0.8 2.1 -1.1
v 0.9 2.1 -1.1
v 0.2 2.1 -1.2
v 0.7 2.1 -1.2
v 0.3 2.3 -0.5
v 0.4 2.3 -0.5
v 0.3 2.3 -1
v 0.4 2.3 -1
v 0.9 2.4 -0.7
v 1 2.4 -0.7
v 0.9 2.4 -0.8
v 1 2.4 -0.8
v 0.2 2.6 -0.3
v 0.7 2.6 -0.3
v 0.3 2.6 -0.4
v 0.4 2.6 -0.4
v 0.7 2.6 -0.4
v 0.2 2.6 -0.5
v 0.3 2.6 -0.5
v 0.2 2.6 -1
v 0.3 2.6 -1
v 0.3 2.6 -1.1
v 0.4 2.6 -1.1
v 0.7 2.6 -1.1
v 0.2 2.6 -1.2
v 0.7 2.6 -1.2
v 0.2 2.3 -0.3
v 0.7 2.3 -0.3
v 0.3 2.3 -0.4
v 0.4 2.3 -0.4
v 0.7 2.3 -0.4
v 0.2 2.3 -0.5
v 0.3 2.3 -0.5
v 0.2 2.3 -1
v 0.3 2.3 -1
v 0.3 2.3 -1.1
v 0.4 2.3 -1.1
v 0.7 2.3 -1.1
v 0.2 2.3 -1.2
v 0.7 2.3 -1.2
v 0.9 2.5 -0.7
v 1 2.5 -0.7
v 0.9 2.5 -0.8
v 1 2.5 -0.8
v 0.3 2.6 -0.5
v 0.4 2.6 -0.5
v 0.3 2.6 -1
v 0.4 2.6 -1
v 0.2 2.8 -0.3
v 0.7 2.8 -0.3
v 0.3 2.8 -0.4
v 0.7 2.8 -0.4
v 0.8 2.8 -0.4
v 0.9 2.8 -0.4
v 0.2 2.8 -0.5
v 0.3 2.8 -0.5
v 0.4 2.8 -0.5
v 0.7 2.8 -0.5
v 0.2 2.8 -1
v 0.3 2.8 -1
v 0.4 2.8 -1
v 0.7 2.8 -1
v 0.3 2.8 -1.1
v 0.7 2.8 -1.1
v 0.8 2.8 -1.1
v 0.9 2.8 -1.1
v 0.2 2.8 -1.2
v 0.7 2.8 -1.2
v 0.7 2.9 -0.3
v 0.8 2.9 -0.3
v 0.3 2.9 -0.4
v 0.7 2.9 -0.4
v 0.3 2.9 -0.5
v 0.7 2.9 -0.5
v 0.3 2.9 -1
v 0.7 2.9 -1
v 0.3 2.9 -1.1
v 0.7 2.9 -1.1
v 0.7 2.9 -1.2
v 0.8 2.9 -1.2

# faces
f 5/3/1 2/3/1 1/3/1
f 6/3/1 2/3/1 5/3/1
f 7/3/1 4/3/1 3/3/1
f 8/3/1 4/3/1 7/3/1
f 13/3/1 10/3/1 9/3/1
f 14/3/1 10/3/1 13/3/1
f 15/3/1 12/3/1 11/3/1
f 16/3/1 12/3/1 15/3/1
f 21/2/1 18/2/1 17/2/1
f 22/2/1 18/2/1 21/2/1
f 23/2/1 20/2/1 19/2/1
f 24/2/1 20/2/1 23/2/1
f 29/2/1 26/2/1 25/2/1
f 30/3/1 27/3/1 26/3/1
f 30/2/1 26/2/1 29/2/1
f 31/2/1 28/2/1 27/2/1
f 31/3/1 27/3/1 30/3/1
f 32/2/1 28/2/1 31/2/1
f 37/2/1 34/2/1 33/2/1
f 38/2/1 34/2/1 37/2/1
f 39/2/1 36/2/1 35/2/1
f 40/2/1 36/2/1 39/2/1
f 43/5/1 42/5/1 41/5/1
f 44/5/1 42/5/1 43/5/1
f 47/5/1 46/5/1 45/5/1
f 48/5/1 46/5/1 47/5/1
f 55/2/1 50/2/1 49/2/1
f 56/2/1 50/2/1 55/2/1
f 57/2/1 52/2/1 51/2/1
f 58/2/1 52/2/1 57/2/1
f 59/2/1 54/2/1 53/2/1
f 60/2/1 54/2/1 59/2/1
f 65/2/1 62/2/1 61/2/1
f 66/2/1 62/2/1 65/2/1
f 67/2/1 64/2/1 63/2/1
f 68/2/1 64/2/1 67/2/1
f 75/2/1 70/2/1 69/2/1
f 76/2/1 70/2/1 75/2/1
f 77/2/1 72/2/1 71/2/1
f 78/2/1 72/2/1 77/2/1
f 79/2/1 74/2/1 73/2/1
f 80/2/1 74/2/1 79/2/1
f 81/2/2 82/2/2 83/2/2
f 83/2/2 82/2/2 84/2/2
f 81/2/2 83/2/2 85/2/2
f 84/2/2 82/2/2 86/2/2
f 81/2/2 85/2/2 87/2/2
f 85/2/2 86/2/2 87/2/2
f 86/2/2 82/2/2 88/2/2
f 87/2/2 86/2/2 88/2/2
f 89/4/2 90/4/2 91/4/2
f 91/4/2 90/4/2 92/4/2
f 89/4/2 91/4/2 93/4/2
f 92/4/2 90/4/2 94/4/2
f 89/4/2 93/4/2 95/4/2
f 93/4/2 94/4/2 95/4/2
f 94/4/2 90/4/2 96/4/2
f 95/4/2 94/4/2 96/4/2
f 97/4/2 98/4/2 99/4/2
f 99/4/2 98/4/2 100/4/2
f 106/3/3 102/3/3 101/3/3
f 107/3/3 102/3/3 106/3/3
f 108/3/3 104/3/3 103/3/3
f 109/3/3 104/3/3 108/3/3
f 111/2/3 107/2/3 106/2/3
f 111/2/3 110/2/3 109/2/3
f 111/2/3 109/2/3 108/2/3
f 111/2/3 108/2/3 107/2/3
f 111/2/3 106/2/3 105/2/3
f 112/2/3 110/2/3 111/2/3
f 119/2/3 116/2/3 115/2/3
f 120/2/3 116/2/3 119/2/3
f 121/2/3 114/2/3 113/2/3
f 122/2/3 114/2/3 121/2/3
f 123/5/3 120/5/3 119/5/3
f 124/5/3 120/5/3 123/5/3
f 125/2/3 118/2/3 117/2/3
f 126/2/3 118/2/3 125/2/3
f 129/4/3 128/4/3 127/4/3
f 130/4/3 128/4/3 129/4/3
f 133/4/3 132/4/3 131/4/3
f 134/4/3 132/4/3 133/4/3
f 140/3/3 136/3/3 135/3/3
f 141/3/3 136/3/3 140/3/3
f 142/3/3 138/3/3 137/3/3
f 143/3/3 138/3/3 142/3/3
f 145/2/3 141/2/3 140/2/3
f 145/2/3 140/2/3 139/2/3
f 146/2/3 141/2/3 145/2/3
f 147/2/3 144/2/3 143/2/3
f 147/2/3 143/2/3 142/2/3
f 148/2/3 144/2/3 147/2/3
f 149/2/3 145/2/3 139/2/3
f 150/2/3 145/2/3 149/2/3
f 151/2/3 144/2/3 148/2/3
f 152/2/3 144/2/3 151/2/3
f 153/3/4 154/3/4 158/3/4
f 158/3/4 154/3/4 159/3/4
f 155/3/4 156/3/4 160/3/4
f 160/3/4 156/3/4 161/3/4
f 158/2/4 159/2/4 163/2/4
f 157/2/4 158/2/4 163/2/4
f 163/2/4 159/2/4 164/2/4
f 161/2/4 162/2/4 165/2/4
f 160/2/4 161/2/4 165/2/4
f 165/2/4 162/2/4 166/2/4
f 157/2/4 163/2/4 167/2/4
f 167/2/4 163/2/4 168/2/4
f 166/2/4 162/2/4 169/2/4
f 169/2/4 162/2/4 170/2/4
f 171/4/4 172/4/4 173/4/4
f 173/4/4 172/4/4 174/4/4
f 177/2/4 178/2/4 181/2/4
f 181/2/4 178/2/4 182/2/4
f 175/2/4 176/2/4 183/2/4
f 183/2/4 176/2/4 184/2/4
f 181/5/4 182/5/4 185/5/4
f 185/5/4 182/5/4 186/5/4
f 179/2/4 180/2/4 187/2/4
f 187/2/4 180/2/4 188/2/4
f 189/4/4 190/4/4 191/4/4
f 191/4/4 190/4/4 192/4/4
f 193/3/4 194/3/4 198/3/4
f 198/3/4 194/3/4 199/3/4
f 195/3/4 196/3/4 200/3/4
f 200/3/4 196/3/4 201/3/4
f 198/2/4 199/2/4 203/2/4
f 201/2/4 202/2/4 203/2/4
f 200/2/4 201/2/4 203/2/4
f 199/2/4 200/2/4 203/2/4
f 197/2/4 198/2/4 203/2/4
f 203/2/4 202/2/4 204/2/4
f 208/2/5 206/2/5 205/2/5
f 209/2/5 208/2/5 207/2/5
f 210/2/5 206/2/5 208/2/5
f 210/2/5 208/2/5 209/2/5
f 212/2/5 206/2/5 210/2/5
f 213/2/5 212/2/5 211/2/5
f 214/2/5 206/2/5 212/2/5
f 214/2/5 212/2/5 213/2/5
f 215/2/5 206/2/5 214/2/5
f 216/2/5 206/2/5 215/2/5
f 219/3/5 218/3/5 217/3/5
f 220/3/5 218/3/5 219/3/5
f 223/3/5 219/3/5 217/3/5
f 224/3/5 219/3/5 223/3/5
f 229/5/5 226/5/5 225/5/5
f 230/5/5 226/5/5 229/5/5
f 231/3/5 228/3/5 227/3/5
f 233/4/5 222/4/5 221/4/5
f 234/4/5 222/4/5 233/4/5
f 235/3/5 232/3/5 231/3/5
f 235/3/5 231/3/5 227/3/5
f 236/3/5 232/3/5 235/3/5
f 239/3/5 238/3/5 237/3/5
f 240/3/5 238/3/5 239/3/5
f 243/4/5 242/4/5 241/4/5
f 244/4/5 242/4/5 243/4/5
f 247/3/5 246/3/5 245/3/5
f 248/3/5 246/3/5 247/3/5
f 249/3/5 246/3/5 248/3/5
f 250/3/5 247/3/5 245/3/5
f 251/3/5 247/3/5 250/3/5
f 254/3/5 253/3/5 252/3/5
f 257/3/5 254/3/5 252/3/5
f 257/3/5 256/3/5 255/3/5
f 257/3/5 255/3/5 254/3/5
f 258/3/5 256/3/5 257/3/5
f 259/3/6 260/3/6 261/3/6
f 261/3/6 260/3/6 262/3/6
f 262/3/6 260/3/6 263/3/6
f 259/3/6 261/3/6 264/3/6
f 264/3/6 261/3/6 265/3/6
f 266/3/6 267/3/6 268/3/6
f 266/3/6 268/3/6 271/3/6
f 269/3/6 270/3/6 271/3/6
f 268/3/6 269/3/6 271/3/6
f 271/3/6 270/3/6 272/3/6
f 273/4/6 274/4/6 275/4/6
f 275/4/6 274/4/6 276/4/6
f 277/3/6 278/3/6 279/3/6
f 279/3/6 278/3/6 280/3/6
f 281/3/6 282/3/6 283/3/6
f 283/3/6 282/3/6 284/3/6
f 281/3/6 283/3/6 287/3/6
f 287/3/6 283/3/6 288/3/6
f 289/5/6 290/5/6 293/5/6
f 293/5/6 290/5/6 294/5/6
f 291/3/6 292/3/6 295/3/6
f 285/4/6 286/4/6 297/4/6
f 297/4/6 286/4/6 298/4/6
f 295/3/6 296/3/6 299/3/6
f 291/3/6 295/3/6 299/3/6
f 299/3/6 296/3/6 300/3/6
f 301/2/6 302/2/6 304/2/6
f 303/2/6 304/2/6 305/2/6
f 304/2/6 302/2/6 306/2/6
f 305/2/6 304/2/6 306/2/6
f 306/2/6 302/2/6 308/2/6
f 307/2/6 308/2/6 309/2/6
f 308/2/6 302/2/6 310/2/6
f 309/2/6 308/2/6 310/2/6
f 310/2/6 302/2/6 311/2/6
f 311/2/6 302/2/6 312/2/6
