# MagicaVoxel @ Ephtracy

# group
o 

# material
mtllib WeaponBattery#3.mtl
usemtl palette

# normals
vn -1 0 0
vn 1 0 0
vn 0 0 1
vn 0 0 -1
vn 0 -1 0
vn 0 1 0

# texcoords
vt 0.970703 0.5
vt 0.974609 0.5
vt 0.978516 0.5
vt 0.982422 0.5

# verts
v 0 2.1 0
v 0 2.1 -0.1
v 0 2.1 -0.6
v 0 2.1 -0.7
v 0 2.6 0
v 0 2.6 -0.1
v 0 2.6 -0.6
v 0 2.6 -0.7
v 0.2 2.1 -0.1
v 0.2 2.1 -0.2
v 0.2 2.1 -0.5
v 0.2 2.1 -0.6
v 0.2 2.2 0
v 0.2 2.2 -0.1
v 0.2 2.2 -0.2
v 0.2 2.2 -0.5
v 0.2 2.2 -0.6
v 0.2 2.2 -0.7
v 0.2 2.5 0
v 0.2 2.5 -0.1
v 0.2 2.5 -0.2
v 0.2 2.5 -0.5
v 0.2 2.5 -0.6
v 0.2 2.5 -0.7
v 0.2 2.6 -0.1
v 0.2 2.6 -0.2
v 0.2 2.6 -0.5
v 0.2 2.6 -0.6
v 0.6 2 0
v 0.6 2 -0.7
v 0.6 2.1 0
v 0.6 2.1 -0.2
v 0.6 2.1 -0.5
v 0.6 2.1 -0.7
v 0.6 2.2 -0.2
v 0.6 2.2 -0.5
v 0.6 2.3 0
v 0.6 2.3 -0.2
v 0.6 2.3 -0.5
v 0.6 2.3 -0.7
v 0.6 2.4 0
v 0.6 2.4 -0.2
v 0.6 2.4 -0.5
v 0.6 2.4 -0.7
v 0.6 2.5 -0.2
v 0.6 2.5 -0.5
v 0.6 2.6 0
v 0.6 2.6 -0.2
v 0.6 2.6 -0.5
v 0.6 2.6 -0.7
v 0.6 2.7 0
v 0.6 2.7 -0.7
v 0.1 2.2 0
v 0.1 2.2 -0.1
v 0.1 2.2 -0.6
v 0.1 2.2 -0.7
v 0.1 2.5 0
v 0.1 2.5 -0.1
v 0.1 2.5 -0.6
v 0.1 2.5 -0.7
v 0.4 2.3 0
v 0.4 2.3 -0.2
v 0.4 2.3 -0.5
v 0.4 2.3 -0.7
v 0.4 2.4 0
v 0.4 2.4 -0.2
v 0.4 2.4 -0.5
v 0.4 2.4 -0.7
v 0.7 2 0
v 0.7 2 -0.7
v 0.7 2.3 -0.3
v 0.7 2.3 -0.4
v 0.7 2.4 -0.3
v 0.7 2.4 -0.4
v 0.7 2.7 0
v 0.7 2.7 -0.7
v 0.8 2.3 -0.3
v 0.8 2.3 -0.4
v 0.8 2.4 -0.3
v 0.8 2.4 -0.4
v 0 2.1 0
v 0 2.6 0
v 0.1 2.2 0
v 0.1 2.5 0
v 0.2 2.1 0
v 0.2 2.2 0
v 0.2 2.5 0
v 0.2 2.6 0
v 0.4 2.3 0
v 0.4 2.4 0
v 0.6 2 0
v 0.6 2.1 0
v 0.6 2.3 0
v 0.6 2.4 0
v 0.6 2.6 0
v 0.6 2.7 0
v 0.7 2 0
v 0.7 2.7 0
v 0.4 2.3 -0.2
v 0.4 2.4 -0.2
v 0.6 2.3 -0.2
v 0.6 2.4 -0.2
v 0.7 2.3 -0.3
v 0.7 2.4 -0.3
v 0.8 2.3 -0.3
v 0.8 2.4 -0.3
v 0.2 2.1 -0.5
v 0.2 2.2 -0.5
v 0.2 2.5 -0.5
v 0.2 2.6 -0.5
v 0.6 2.1 -0.5
v 0.6 2.2 -0.5
v 0.6 2.5 -0.5
v 0.6 2.6 -0.5
v 0 2.1 -0.6
v 0 2.6 -0.6
v 0.1 2.2 -0.6
v 0.1 2.5 -0.6
v 0.2 2.1 -0.6
v 0.2 2.2 -0.6
v 0.2 2.5 -0.6
v 0.2 2.6 -0.6
v 0 2.1 -0.1
v 0 2.6 -0.1
v 0.1 2.2 -0.1
v 0.1 2.5 -0.1
v 0.2 2.1 -0.1
v 0.2 2.2 -0.1
v 0.2 2.5 -0.1
v 0.2 2.6 -0.1
v 0.2 2.1 -0.2
v 0.2 2.2 -0.2
v 0.2 2.5 -0.2
v 0.2 2.6 -0.2
v 0.6 2.1 -0.2
v 0.6 2.2 -0.2
v 0.6 2.5 -0.2
v 0.6 2.6 -0.2
v 0.7 2.3 -0.4
v 0.7 2.4 -0.4
v 0.8 2.3 -0.4
v 0.8 2.4 -0.4
v 0.4 2.3 -0.5
v 0.4 2.4 -0.5
v 0.6 2.3 -0.5
v 0.6 2.4 -0.5
v 0 2.1 -0.7
v 0 2.6 -0.7
v 0.1 2.2 -0.7
v 0.1 2.5 -0.7
v 0.2 2.1 -0.7
v 0.2 2.2 -0.7
v 0.2 2.5 -0.7
v 0.2 2.6 -0.7
v 0.4 2.3 -0.7
v 0.4 2.4 -0.7
v 0.6 2 -0.7
v 0.6 2.1 -0.7
v 0.6 2.3 -0.7
v 0.6 2.4 -0.7
v 0.6 2.6 -0.7
v 0.6 2.7 -0.7
v 0.7 2 -0.7
v 0.7 2.7 -0.7
v 0.6 2 0
v 0.7 2 0
v 0.6 2 -0.7
v 0.7 2 -0.7
v 0 2.1 0
v 0.2 2.1 0
v 0.6 2.1 0
v 0 2.1 -0.1
v 0.2 2.1 -0.1
v 0.2 2.1 -0.2
v 0.6 2.1 -0.2
v 0.2 2.1 -0.5
v 0.6 2.1 -0.5
v 0 2.1 -0.6
v 0.2 2.1 -0.6
v 0 2.1 -0.7
v 0.2 2.1 -0.7
v 0.6 2.1 -0.7
v 0.2 2.2 -0.2
v 0.6 2.2 -0.2
v 0.2 2.2 -0.5
v 0.6 2.2 -0.5
v 0.7 2.3 -0.3
v 0.8 2.3 -0.3
v 0.7 2.3 -0.4
v 0.8 2.3 -0.4
v 0.4 2.4 0
v 0.6 2.4 0
v 0.4 2.4 -0.2
v 0.6 2.4 -0.2
v 0.4 2.4 -0.5
v 0.6 2.4 -0.5
v 0.4 2.4 -0.7
v 0.6 2.4 -0.7
v 0.1 2.5 0
v 0.2 2.5 0
v 0.1 2.5 -0.1
v 0.2 2.5 -0.1
v 0.1 2.5 -0.6
v 0.2 2.5 -0.6
v 0.1 2.5 -0.7
v 0.2 2.5 -0.7
v 0.1 2.2 0
v 0.2 2.2 0
v 0.1 2.2 -0.1
v 0.2 2.2 -0.1
v 0.1 2.2 -0.6
v 0.2 2.2 -0.6
v 0.1 2.2 -0.7
v 0.2 2.2 -0.7
v 0.4 2.3 0
v 0.6 2.3 0
v 0.4 2.3 -0.2
v 0.6 2.3 -0.2
v 0.4 2.3 -0.5
v 0.6 2.3 -0.5
v 0.4 2.3 -0.7
v 0.6 2.3 -0.7
v 0.7 2.4 -0.3
v 0.8 2.4 -0.3
v 0.7 2.4 -0.4
v 0.8 2.4 -0.4
v 0.2 2.5 -0.2
v 0.6 2.5 -0.2
v 0.2 2.5 -0.5
v 0.6 2.5 -0.5
v 0 2.6 0
v 0.2 2.6 0
v 0.6 2.6 0
v 0 2.6 -0.1
v 0.2 2.6 -0.1
v 0.2 2.6 -0.2
v 0.6 2.6 -0.2
v 0.2 2.6 -0.5
v 0.6 2.6 -0.5
v 0 2.6 -0.6
v 0.2 2.6 -0.6
v 0 2.6 -0.7
v 0.2 2.6 -0.7
v 0.6 2.6 -0.7
v 0.6 2.7 0
v 0.7 2.7 0
v 0.6 2.7 -0.7
v 0.7 2.7 -0.7

# faces
f 5/1/1 2/1/1 1/1/1
f 6/1/1 2/1/1 5/1/1
f 7/1/1 4/1/1 3/1/1
f 8/1/1 4/1/1 7/1/1
f 14/2/1 10/2/1 9/2/1
f 15/2/1 10/2/1 14/2/1
f 16/2/1 12/2/1 11/2/1
f 17/2/1 12/2/1 16/2/1
f 19/2/1 15/2/1 14/2/1
f 19/2/1 14/2/1 13/2/1
f 20/2/1 15/2/1 19/2/1
f 21/4/1 16/4/1 15/4/1
f 21/2/1 15/2/1 20/2/1
f 22/2/1 18/2/1 17/2/1
f 22/4/1 16/4/1 21/4/1
f 22/2/1 17/2/1 16/2/1
f 23/2/1 18/2/1 22/2/1
f 24/2/1 18/2/1 23/2/1
f 25/2/1 21/2/1 20/2/1
f 26/2/1 21/2/1 25/2/1
f 27/2/1 23/2/1 22/2/1
f 28/2/1 23/2/1 27/2/1
f 31/3/1 30/3/1 29/3/1
f 32/3/1 30/3/1 31/3/1
f 33/3/1 30/3/1 32/3/1
f 34/3/1 30/3/1 33/3/1
f 35/3/1 33/3/1 32/3/1
f 36/3/1 33/3/1 35/3/1
f 41/3/1 38/3/1 37/3/1
f 42/3/1 38/3/1 41/3/1
f 43/3/1 40/3/1 39/3/1
f 44/3/1 40/3/1 43/3/1
f 48/3/1 46/3/1 45/3/1
f 49/3/1 46/3/1 48/3/1
f 51/3/1 48/3/1 47/3/1
f 51/3/1 50/3/1 49/3/1
f 51/3/1 49/3/1 48/3/1
f 52/3/1 50/3/1 51/3/1
f 53/1/2 54/1/2 57/1/2
f 57/1/2 54/1/2 58/1/2
f 55/1/2 56/1/2 59/1/2
f 59/1/2 56/1/2 60/1/2
f 61/2/2 62/2/2 65/2/2
f 65/2/2 62/2/2 66/2/2
f 63/2/2 64/2/2 67/2/2
f 67/2/2 64/2/2 68/2/2
f 69/3/2 70/3/2 71/3/2
f 71/3/2 70/3/2 72/3/2
f 69/3/2 71/3/2 73/3/2
f 72/3/2 70/3/2 74/3/2
f 69/3/2 73/3/2 75/3/2
f 73/3/2 74/3/2 75/3/2
f 74/3/2 70/3/2 76/3/2
f 75/3/2 74/3/2 76/3/2
f 77/3/2 78/3/2 79/3/2
f 79/3/2 78/3/2 80/3/2
f 83/1/3 82/1/3 81/1/3
f 84/1/3 82/1/3 83/1/3
f 85/1/3 83/1/3 81/1/3
f 86/1/3 83/1/3 85/1/3
f 87/1/3 82/1/3 84/1/3
f 88/1/3 82/1/3 87/1/3
f 89/2/3 86/2/3 85/2/3
f 89/2/3 87/2/3 86/2/3
f 89/2/3 88/2/3 87/2/3
f 90/2/3 88/2/3 89/2/3
f 92/2/3 89/2/3 85/2/3
f 93/2/3 89/2/3 92/2/3
f 94/2/3 88/2/3 90/2/3
f 95/2/3 88/2/3 94/2/3
f 97/3/3 95/3/3 94/3/3
f 97/3/3 96/3/3 95/3/3
f 97/3/3 94/3/3 93/3/3
f 97/3/3 93/3/3 92/3/3
f 97/3/3 92/3/3 91/3/3
f 98/3/3 96/3/3 97/3/3
f 101/4/3 100/4/3 99/4/3
f 102/4/3 100/4/3 101/4/3
f 105/3/3 104/3/3 103/3/3
f 106/3/3 104/3/3 105/3/3
f 111/2/3 108/2/3 107/2/3
f 112/2/3 108/2/3 111/2/3
f 113/2/3 110/2/3 109/2/3
f 114/2/3 110/2/3 113/2/3
f 117/1/3 116/1/3 115/1/3
f 118/1/3 116/1/3 117/1/3
f 119/1/3 117/1/3 115/1/3
f 120/1/3 117/1/3 119/1/3
f 121/1/3 116/1/3 118/1/3
f 122/1/3 116/1/3 121/1/3
f 123/1/4 124/1/4 125/1/4
f 125/1/4 124/1/4 126/1/4
f 123/1/4 125/1/4 127/1/4
f 127/1/4 125/1/4 128/1/4
f 126/1/4 124/1/4 129/1/4
f 129/1/4 124/1/4 130/1/4
f 131/2/4 132/2/4 135/2/4
f 135/2/4 132/2/4 136/2/4
f 133/2/4 134/2/4 137/2/4
f 137/2/4 134/2/4 138/2/4
f 139/3/4 140/3/4 141/3/4
f 141/3/4 140/3/4 142/3/4
f 143/4/4 144/4/4 145/4/4
f 145/4/4 144/4/4 146/4/4
f 147/1/4 148/1/4 149/1/4
f 149/1/4 148/1/4 150/1/4
f 147/1/4 149/1/4 151/1/4
f 151/1/4 149/1/4 152/1/4
f 150/1/4 148/1/4 153/1/4
f 153/1/4 148/1/4 154/1/4
f 151/2/4 152/2/4 155/2/4
f 152/2/4 153/2/4 155/2/4
f 153/2/4 154/2/4 155/2/4
f 155/2/4 154/2/4 156/2/4
f 151/2/4 155/2/4 158/2/4
f 158/2/4 155/2/4 159/2/4
f 156/2/4 154/2/4 160/2/4
f 160/2/4 154/2/4 161/2/4
f 160/3/4 161/3/4 163/3/4
f 161/3/4 162/3/4 163/3/4
f 159/3/4 160/3/4 163/3/4
f 158/3/4 159/3/4 163/3/4
f 157/3/4 158/3/4 163/3/4
f 163/3/4 162/3/4 164/3/4
f 167/3/5 166/3/5 165/3/5
f 168/3/5 166/3/5 167/3/5
f 172/1/5 170/1/5 169/1/5
f 173/2/5 171/2/5 170/2/5
f 173/1/5 170/1/5 172/1/5
f 174/2/5 171/2/5 173/2/5
f 175/2/5 171/2/5 174/2/5
f 179/2/5 177/2/5 176/2/5
f 180/1/5 179/1/5 178/1/5
f 181/2/5 177/2/5 179/2/5
f 181/1/5 179/1/5 180/1/5
f 182/2/5 177/2/5 181/2/5
f 185/4/5 184/4/5 183/4/5
f 186/4/5 184/4/5 185/4/5
f 189/3/5 188/3/5 187/3/5
f 190/3/5 188/3/5 189/3/5
f 193/2/5 192/2/5 191/2/5
f 194/2/5 192/2/5 193/2/5
f 197/2/5 196/2/5 195/2/5
f 198/2/5 196/2/5 197/2/5
f 201/1/5 200/1/5 199/1/5
f 202/1/5 200/1/5 201/1/5
f 205/1/5 204/1/5 203/1/5
f 206/1/5 204/1/5 205/1/5
f 207/1/6 208/1/6 209/1/6
f 209/1/6 208/1/6 210/1/6
f 211/1/6 212/1/6 213/1/6
f 213/1/6 212/1/6 214/1/6
f 215/2/6 216/2/6 217/2/6
f 217/2/6 216/2/6 218/2/6
f 219/2/6 220/2/6 221/2/6
f 221/2/6 220/2/6 222/2/6
f 223/3/6 224/3/6 225/3/6
f 225/3/6 224/3/6 226/3/6
f 227/4/6 228/4/6 229/4/6
f 229/4/6 228/4/6 230/4/6
f 231/1/6 232/1/6 234/1/6
f 232/2/6 233/2/6 235/2/6
f 234/1/6 232/1/6 235/1/6
f 235/2/6 233/2/6 236/2/6
f 236/2/6 233/2/6 237/2/6
f 238/2/6 239/2/6 241/2/6
f 240/1/6 241/1/6 242/1/6
f 241/2/6 239/2/6 243/2/6
f 242/1/6 241/1/6 243/1/6
f 243/2/6 239/2/6 244/2/6
f 245/3/6 246/3/6 247/3/6
f 247/3/6 246/3/6 248/3/6
