# MagicaVoxel @ Ephtracy

# group
o 

# material
mtllib WeaponMagazine#2.mtl
usemtl palette

# normals
vn -1 0 0
vn 1 0 0
vn 0 0 1
vn 0 0 -1
vn 0 -1 0
vn 0 1 0

# texcoords
vt 0.970703 0.5
vt 0.974609 0.5
vt 0.978516 0.5
vt 0.982422 0.5

# verts
v 0 2.4 -0.6
v 0 2.4 -0.7
v 0 2.5 -0.6
v 0 2.5 -0.7
v 0.1 2.1 -0.3
v 0.1 2.1 -1
v 0.1 2.3 -0.5
v 0.1 2.3 -0.8
v 0.1 2.4 -0.6
v 0.1 2.4 -0.7
v 0.1 2.5 -0.6
v 0.1 2.5 -0.7
v 0.1 2.6 -0.5
v 0.1 2.6 -0.8
v 0.1 2.8 -0.3
v 0.1 2.8 -1
v 0.2 2 0
v 0.2 2 -0.1
v 0.2 2 -0.3
v 0.2 2 -0.5
v 0.2 2 -0.8
v 0.2 2 -1
v 0.2 2 -1.2
v 0.2 2 -1.3
v 0.2 2.1 -0.3
v 0.2 2.1 -0.5
v 0.2 2.1 -0.8
v 0.2 2.1 -1
v 0.2 2.8 -0.3
v 0.2 2.8 -0.5
v 0.2 2.8 -0.8
v 0.2 2.8 -1
v 0.2 2.9 0
v 0.2 2.9 -0.1
v 0.2 2.9 -0.3
v 0.2 2.9 -0.5
v 0.2 2.9 -0.8
v 0.2 2.9 -1
v 0.2 2.9 -1.2
v 0.2 2.9 -1.3
v 0.3 2.1 -0.1
v 0.3 2.1 -0.3
v 0.3 2.1 -0.5
v 0.3 2.1 -0.8
v 0.3 2.1 -1
v 0.3 2.1 -1.2
v 0.3 2.4 -0.5
v 0.3 2.4 -0.8
v 0.3 2.5 -0.5
v 0.3 2.5 -0.8
v 0.3 2.8 -0.1
v 0.3 2.8 -0.3
v 0.3 2.8 -0.5
v 0.3 2.8 -0.8
v 0.3 2.8 -1
v 0.3 2.8 -1.2
v 0.6 2.1 0
v 0.6 2.1 -0.1
v 0.6 2.1 -1.2
v 0.6 2.1 -1.3
v 0.6 2.8 0
v 0.6 2.8 -0.1
v 0.6 2.8 -1.2
v 0.6 2.8 -1.3
v 0.2 2.1 -0.5
v 0.2 2.1 -0.8
v 0.2 2.3 -0.5
v 0.2 2.3 -0.8
v 0.2 2.6 -0.5
v 0.2 2.6 -0.8
v 0.2 2.8 -0.5
v 0.2 2.8 -0.8
v 0.3 2.1 0
v 0.3 2.1 -0.1
v 0.3 2.1 -1.2
v 0.3 2.1 -1.3
v 0.3 2.8 0
v 0.3 2.8 -0.1
v 0.3 2.8 -1.2
v 0.3 2.8 -1.3
v 0.6 2.1 -0.5
v 0.6 2.1 -0.8
v 0.6 2.4 -0.5
v 0.6 2.4 -0.8
v 0.6 2.5 -0.5
v 0.6 2.5 -0.8
v 0.6 2.8 -0.5
v 0.6 2.8 -0.8
v 0.7 2 0
v 0.7 2 -0.1
v 0.7 2 -0.3
v 0.7 2 -0.5
v 0.7 2 -0.8
v 0.7 2 -1
v 0.7 2 -1.2
v 0.7 2 -1.3
v 0.7 2.1 -0.1
v 0.7 2.1 -0.3
v 0.7 2.1 -1
v 0.7 2.1 -1.2
v 0.7 2.8 -0.1
v 0.7 2.8 -0.3
v 0.7 2.8 -1
v 0.7 2.8 -1.2
v 0.7 2.9 0
v 0.7 2.9 -0.1
v 0.7 2.9 -0.3
v 0.7 2.9 -0.5
v 0.7 2.9 -0.8
v 0.7 2.9 -1
v 0.7 2.9 -1.2
v 0.7 2.9 -1.3
v 0.2 2 0
v 0.2 2.9 0
v 0.3 2.1 0
v 0.3 2.8 0
v 0.6 2.1 0
v 0.6 2.8 0
v 0.7 2 0
v 0.7 2.9 0
v 0.3 2.1 -0.1
v 0.3 2.8 -0.1
v 0.6 2.1 -0.1
v 0.6 2.8 -0.1
v 0.1 2.1 -0.3
v 0.1 2.8 -0.3
v 0.2 2 -0.3
v 0.2 2.1 -0.3
v 0.2 2.8 -0.3
v 0.2 2.9 -0.3
v 0.3 2.1 -0.3
v 0.3 2.8 -0.3
v 0.7 2 -0.3
v 0.7 2.1 -0.3
v 0.7 2.8 -0.3
v 0.7 2.9 -0.3
v 0 2.4 -0.6
v 0 2.5 -0.6
v 0.1 2.4 -0.6
v 0.1 2.5 -0.6
v 0.2 2 -0.8
v 0.2 2.1 -0.8
v 0.2 2.3 -0.8
v 0.2 2.6 -0.8
v 0.2 2.8 -0.8
v 0.2 2.9 -0.8
v 0.3 2.1 -0.8
v 0.3 2.4 -0.8
v 0.3 2.5 -0.8
v 0.3 2.8 -0.8
v 0.6 2.1 -0.8
v 0.6 2.4 -0.8
v 0.6 2.5 -0.8
v 0.6 2.8 -0.8
v 0.7 2 -0.8
v 0.7 2.9 -0.8
v 0.2 2 -1.2
v 0.2 2.9 -1.2
v 0.3 2.1 -1.2
v 0.3 2.8 -1.2
v 0.7 2 -1.2
v 0.7 2.1 -1.2
v 0.7 2.8 -1.2
v 0.7 2.9 -1.2
v 0.2 2 -0.1
v 0.2 2.9 -0.1
v 0.3 2.1 -0.1
v 0.3 2.8 -0.1
v 0.7 2 -0.1
v 0.7 2.1 -0.1
v 0.7 2.8 -0.1
v 0.7 2.9 -0.1
v 0.2 2 -0.5
v 0.2 2.1 -0.5
v 0.2 2.3 -0.5
v 0.2 2.6 -0.5
v 0.2 2.8 -0.5
v 0.2 2.9 -0.5
v 0.3 2.1 -0.5
v 0.3 2.4 -0.5
v 0.3 2.5 -0.5
v 0.3 2.8 -0.5
v 0.6 2.1 -0.5
v 0.6 2.4 -0.5
v 0.6 2.5 -0.5
v 0.6 2.8 -0.5
v 0.7 2 -0.5
v 0.7 2.9 -0.5
v 0 2.4 -0.7
v 0 2.5 -0.7
v 0.1 2.4 -0.7
v 0.1 2.5 -0.7
v 0.1 2.1 -1
v 0.1 2.8 -1
v 0.2 2 -1
v 0.2 2.1 -1
v 0.2 2.8 -1
v 0.2 2.9 -1
v 0.3 2.1 -1
v 0.3 2.8 -1
v 0.7 2 -1
v 0.7 2.1 -1
v 0.7 2.8 -1
v 0.7 2.9 -1
v 0.3 2.1 -1.2
v 0.3 2.8 -1.2
v 0.6 2.1 -1.2
v 0.6 2.8 -1.2
v 0.2 2 -1.3
v 0.2 2.9 -1.3
v 0.3 2.1 -1.3
v 0.3 2.8 -1.3
v 0.6 2.1 -1.3
v 0.6 2.8 -1.3
v 0.7 2 -1.3
v 0.7 2.9 -1.3
v 0.2 2 0
v 0.7 2 0
v 0.2 2 -0.1
v 0.7 2 -0.1
v 0.2 2 -0.3
v 0.7 2 -0.3
v 0.2 2 -0.5
v 0.7 2 -0.5
v 0.2 2 -0.8
v 0.7 2 -0.8
v 0.2 2 -1
v 0.7 2 -1
v 0.2 2 -1.2
v 0.7 2 -1.2
v 0.2 2 -1.3
v 0.7 2 -1.3
v 0.3 2.1 -0.1
v 0.7 2.1 -0.1
v 0.1 2.1 -0.3
v 0.2 2.1 -0.3
v 0.3 2.1 -0.3
v 0.7 2.1 -0.3
v 0.2 2.1 -0.5
v 0.3 2.1 -0.5
v 0.6 2.1 -0.5
v 0.2 2.1 -0.8
v 0.3 2.1 -0.8
v 0.6 2.1 -0.8
v 0.1 2.1 -1
v 0.2 2.1 -1
v 0.3 2.1 -1
v 0.7 2.1 -1
v 0.3 2.1 -1.2
v 0.7 2.1 -1.2
v 0 2.4 -0.6
v 0.1 2.4 -0.6
v 0 2.4 -0.7
v 0.1 2.4 -0.7
v 0.3 2.5 -0.5
v 0.6 2.5 -0.5
v 0.3 2.5 -0.8
v 0.6 2.5 -0.8
v 0.3 2.8 0
v 0.6 2.8 0
v 0.3 2.8 -0.1
v 0.6 2.8 -0.1
v 0.3 2.8 -1.2
v 0.6 2.8 -1.2
v 0.3 2.8 -1.3
v 0.6 2.8 -1.3
v 0.3 2.1 0
v 0.6 2.1 0
v 0.3 2.1 -0.1
v 0.6 2.1 -0.1
v 0.3 2.1 -1.2
v 0.6 2.1 -1.2
v 0.3 2.1 -1.3
v 0.6 2.1 -1.3
v 0.3 2.4 -0.5
v 0.6 2.4 -0.5
v 0.3 2.4 -0.8
v 0.6 2.4 -0.8
v 0 2.5 -0.6
v 0.1 2.5 -0.6
v 0 2.5 -0.7
v 0.1 2.5 -0.7
v 0.3 2.8 -0.1
v 0.7 2.8 -0.1
v 0.1 2.8 -0.3
v 0.2 2.8 -0.3
v 0.3 2.8 -0.3
v 0.7 2.8 -0.3
v 0.2 2.8 -0.5
v 0.3 2.8 -0.5
v 0.6 2.8 -0.5
v 0.2 2.8 -0.8
v 0.3 2.8 -0.8
v 0.6 2.8 -0.8
v 0.1 2.8 -1
v 0.2 2.8 -1
v 0.3 2.8 -1
v 0.7 2.8 -1
v 0.3 2.8 -1.2
v 0.7 2.8 -1.2
v 0.2 2.9 0
v 0.7 2.9 0
v 0.2 2.9 -0.1
v 0.7 2.9 -0.1
v 0.2 2.9 -0.3
v 0.7 2.9 -0.3
v 0.2 2.9 -0.5
v 0.7 2.9 -0.5
v 0.2 2.9 -0.8
v 0.7 2.9 -0.8
v 0.2 2.9 -1
v 0.7 2.9 -1
v 0.2 2.9 -1.2
v 0.7 2.9 -1.2
v 0.2 2.9 -1.3
v 0.7 2.9 -1.3

# faces
f 3/2/1 2/2/1 1/2/1
f 4/2/1 2/2/1 3/2/1
f 7/3/1 6/3/1 5/3/1
f 8/3/1 6/3/1 7/3/1
f 9/2/1 8/2/1 7/2/1
f 10/2/1 8/2/1 9/2/1
f 11/2/1 9/2/1 7/2/1
f 12/2/1 8/2/1 10/2/1
f 13/3/1 7/3/1 5/3/1
f 13/2/1 12/2/1 11/2/1
f 13/2/1 11/2/1 7/2/1
f 14/2/1 8/2/1 12/2/1
f 14/2/1 12/2/1 13/2/1
f 14/3/1 6/3/1 8/3/1
f 15/3/1 13/3/1 5/3/1
f 15/3/1 14/3/1 13/3/1
f 16/3/1 6/3/1 14/3/1
f 16/3/1 14/3/1 15/3/1
f 25/2/1 20/2/1 19/2/1
f 26/2/1 20/2/1 25/2/1
f 27/2/1 22/2/1 21/2/1
f 28/2/1 22/2/1 27/2/1
f 33/2/1 18/2/1 17/2/1
f 34/2/1 18/2/1 33/2/1
f 35/2/1 30/2/1 29/2/1
f 36/2/1 30/2/1 35/2/1
f 37/2/1 32/2/1 31/2/1
f 38/2/1 32/2/1 37/2/1
f 39/2/1 24/2/1 23/2/1
f 40/2/1 24/2/1 39/2/1
f 47/4/1 44/4/1 43/4/1
f 48/4/1 44/4/1 47/4/1
f 51/1/1 42/1/1 41/1/1
f 52/1/1 42/1/1 51/1/1
f 53/4/1 50/4/1 49/4/1
f 54/4/1 50/4/1 53/4/1
f 55/1/1 46/1/1 45/1/1
f 56/1/1 46/1/1 55/1/1
f 61/2/1 58/2/1 57/2/1
f 62/2/1 58/2/1 61/2/1
f 63/2/1 60/2/1 59/2/1
f 64/2/1 60/2/1 63/2/1
f 65/3/2 66/3/2 67/3/2
f 67/3/2 66/3/2 68/3/2
f 67/2/2 68/2/2 69/2/2
f 69/2/2 68/2/2 70/2/2
f 69/3/2 70/3/2 71/3/2
f 71/3/2 70/3/2 72/3/2
f 73/2/2 74/2/2 77/2/2
f 77/2/2 74/2/2 78/2/2
f 75/2/2 76/2/2 79/2/2
f 79/2/2 76/2/2 80/2/2
f 81/4/2 82/4/2 83/4/2
f 83/4/2 82/4/2 84/4/2
f 85/4/2 86/4/2 87/4/2
f 87/4/2 86/4/2 88/4/2
f 89/2/2 90/2/2 97/2/2
f 91/2/2 92/2/2 98/2/2
f 93/2/2 94/2/2 99/2/2
f 95/2/2 96/2/2 100/2/2
f 89/2/2 97/2/2 101/2/2
f 97/1/2 98/1/2 101/1/2
f 98/2/2 92/2/2 102/2/2
f 101/1/2 98/1/2 102/1/2
f 93/2/2 99/2/2 103/2/2
f 99/1/2 100/1/2 103/1/2
f 100/2/2 96/2/2 104/2/2
f 103/1/2 100/1/2 104/1/2
f 89/2/2 101/2/2 105/2/2
f 105/2/2 101/2/2 106/2/2
f 102/2/2 92/2/2 107/2/2
f 107/2/2 92/2/2 108/2/2
f 93/2/2 103/2/2 109/2/2
f 109/2/2 103/2/2 110/2/2
f 104/2/2 96/2/2 111/2/2
f 111/2/2 96/2/2 112/2/2
f 115/2/3 114/2/3 113/2/3
f 116/2/3 114/2/3 115/2/3
f 117/2/3 115/2/3 113/2/3
f 118/2/3 114/2/3 116/2/3
f 119/2/3 117/2/3 113/2/3
f 119/2/3 118/2/3 117/2/3
f 120/2/3 114/2/3 118/2/3
f 120/2/3 118/2/3 119/2/3
f 123/1/3 122/1/3 121/1/3
f 124/1/3 122/1/3 123/1/3
f 128/3/3 126/3/3 125/3/3
f 129/3/3 126/3/3 128/3/3
f 131/2/3 128/2/3 127/2/3
f 131/2/3 130/2/3 129/2/3
f 131/2/3 129/2/3 128/2/3
f 132/2/3 130/2/3 131/2/3
f 133/2/3 131/2/3 127/2/3
f 134/2/3 131/2/3 133/2/3
f 135/2/3 130/2/3 132/2/3
f 136/2/3 130/2/3 135/2/3
f 139/2/3 138/2/3 137/2/3
f 140/2/3 138/2/3 139/2/3
f 147/2/3 142/2/3 141/2/3
f 147/2/3 146/2/3 145/2/3
f 147/2/3 145/2/3 144/2/3
f 147/2/3 144/2/3 143/2/3
f 147/2/3 143/2/3 142/2/3
f 148/2/3 146/2/3 147/2/3
f 149/2/3 146/2/3 148/2/3
f 150/2/3 146/2/3 149/2/3
f 151/2/3 147/2/3 141/2/3
f 152/2/3 149/2/3 148/2/3
f 153/2/3 149/2/3 152/2/3
f 154/2/3 146/2/3 150/2/3
f 155/2/3 153/2/3 152/2/3
f 155/2/3 154/2/3 153/2/3
f 155/2/3 151/2/3 141/2/3
f 155/2/3 152/2/3 151/2/3
f 156/2/3 146/2/3 154/2/3
f 156/2/3 154/2/3 155/2/3
f 159/2/3 158/2/3 157/2/3
f 160/2/3 158/2/3 159/2/3
f 161/2/3 159/2/3 157/2/3
f 162/2/3 159/2/3 161/2/3
f 163/2/3 158/2/3 160/2/3
f 164/2/3 158/2/3 163/2/3
f 165/2/4 166/2/4 167/2/4
f 167/2/4 166/2/4 168/2/4
f 165/2/4 167/2/4 169/2/4
f 169/2/4 167/2/4 170/2/4
f 168/2/4 166/2/4 171/2/4
f 171/2/4 166/2/4 172/2/4
f 173/2/4 174/2/4 179/2/4
f 177/2/4 178/2/4 179/2/4
f 176/2/4 177/2/4 179/2/4
f 175/2/4 176/2/4 179/2/4
f 174/2/4 175/2/4 179/2/4
f 179/2/4 178/2/4 180/2/4
f 180/2/4 178/2/4 181/2/4
f 181/2/4 178/2/4 182/2/4
f 173/2/4 179/2/4 183/2/4
f 180/2/4 181/2/4 184/2/4
f 184/2/4 181/2/4 185/2/4
f 182/2/4 178/2/4 186/2/4
f 184/2/4 185/2/4 187/2/4
f 185/2/4 186/2/4 187/2/4
f 173/2/4 183/2/4 187/2/4
f 183/2/4 184/2/4 187/2/4
f 186/2/4 178/2/4 188/2/4
f 187/2/4 186/2/4 188/2/4
f 189/2/4 190/2/4 191/2/4
f 191/2/4 190/2/4 192/2/4
f 193/3/4 194/3/4 196/3/4
f 196/3/4 194/3/4 197/3/4
f 195/2/4 196/2/4 199/2/4
f 197/2/4 198/2/4 199/2/4
f 196/2/4 197/2/4 199/2/4
f 199/2/4 198/2/4 200/2/4
f 195/2/4 199/2/4 201/2/4
f 201/2/4 199/2/4 202/2/4
f 200/2/4 198/2/4 203/2/4
f 203/2/4 198/2/4 204/2/4
f 205/1/4 206/1/4 207/1/4
f 207/1/4 206/1/4 208/1/4
f 209/2/4 210/2/4 211/2/4
f 211/2/4 210/2/4 212/2/4
f 209/2/4 211/2/4 213/2/4
f 212/2/4 210/2/4 214/2/4
f 209/2/4 213/2/4 215/2/4
f 213/2/4 214/2/4 215/2/4
f 214/2/4 210/2/4 216/2/4
f 215/2/4 214/2/4 216/2/4
f 219/2/5 218/2/5 217/2/5
f 220/2/5 218/2/5 219/2/5
f 223/2/5 222/2/5 221/2/5
f 224/2/5 222/2/5 223/2/5
f 227/2/5 226/2/5 225/2/5
f 228/2/5 226/2/5 227/2/5
f 231/2/5 230/2/5 229/2/5
f 232/2/5 230/2/5 231/2/5
f 237/1/5 234/1/5 233/1/5
f 238/1/5 234/1/5 237/1/5
f 239/3/5 236/3/5 235/3/5
f 242/3/5 239/3/5 235/3/5
f 243/4/5 241/4/5 240/4/5
f 244/4/5 241/4/5 243/4/5
f 245/3/5 242/3/5 235/3/5
f 246/3/5 242/3/5 245/3/5
f 249/1/5 248/1/5 247/1/5
f 250/1/5 248/1/5 249/1/5
f 253/2/5 252/2/5 251/2/5
f 254/2/5 252/2/5 253/2/5
f 257/4/5 256/4/5 255/4/5
f 258/4/5 256/4/5 257/4/5
f 261/2/5 260/2/5 259/2/5
f 262/2/5 260/2/5 261/2/5
f 265/2/5 264/2/5 263/2/5
f 266/2/5 264/2/5 265/2/5
f 267/2/6 268/2/6 269/2/6
f 269/2/6 268/2/6 270/2/6
f 271/2/6 272/2/6 273/2/6
f 273/2/6 272/2/6 274/2/6
f 275/4/6 276/4/6 277/4/6
f 277/4/6 276/4/6 278/4/6
f 279/2/6 280/2/6 281/2/6
f 281/2/6 280/2/6 282/2/6
f 283/1/6 284/1/6 287/1/6
f 287/1/6 284/1/6 288/1/6
f 285/3/6 286/3/6 289/3/6
f 285/3/6 289/3/6 292/3/6
f 290/4/6 291/4/6 293/4/6
f 293/4/6 291/4/6 294/4/6
f 285/3/6 292/3/6 295/3/6
f 295/3/6 292/3/6 296/3/6
f 297/1/6 298/1/6 299/1/6
f 299/1/6 298/1/6 300/1/6
f 301/2/6 302/2/6 303/2/6
f 303/2/6 302/2/6 304/2/6
f 305/2/6 306/2/6 307/2/6
f 307/2/6 306/2/6 308/2/6
f 309/2/6 310/2/6 311/2/6
f 311/2/6 310/2/6 312/2/6
f 313/2/6 314/2/6 315/2/6
f 315/2/6 314/2/6 316/2/6
