# MagicaVoxel @ Ephtracy

# group
o 

# material
mtllib WeaponMagazine#2.mtl
usemtl palette

# normals
vn -1 0 0
vn 1 0 0
vn 0 0 1
vn 0 0 -1
vn 0 -1 0
vn 0 1 0

# texcoords
vt 0.970703 0.5
vt 0.974609 0.5
vt 0.978516 0.5
vt 0.982422 0.5

# verts
v 0.2 3.7 -0.9
v 0.2 3.7 -1
v 0.2 3.8 -0.9
v 0.2 3.8 -1
v 0.3 3.4 -0.6
v 0.3 3.4 -1.3
v 0.3 3.6 -0.8
v 0.3 3.6 -1.1
v 0.3 3.7 -0.9
v 0.3 3.7 -1
v 0.3 3.8 -0.9
v 0.3 3.8 -1
v 0.3 3.9 -0.8
v 0.3 3.9 -1.1
v 0.3 4.1 -0.6
v 0.3 4.1 -1.3
v 0.4 3.3 -0.5
v 0.4 3.3 -1.4
v 0.4 3.4 -0.6
v 0.4 3.4 -1.3
v 0.4 4.1 -0.6
v 0.4 4.1 -1.3
v 0.4 4.2 -0.5
v 0.4 4.2 -1.4
v 0.8 3.3 -0.5
v 0.8 3.3 -1.4
v 0.8 3.4 -0.6
v 0.8 3.4 -1.3
v 0.8 4.1 -0.6
v 0.8 4.1 -1.3
v 0.8 4.2 -0.5
v 0.8 4.2 -1.4
v 1.4 3.3 -0.5
v 1.4 3.3 -1.4
v 1.4 3.4 -0.6
v 1.4 3.4 -0.9
v 1.4 3.4 -1
v 1.4 3.4 -1.3
v 1.4 3.7 -0.6
v 1.4 3.7 -0.9
v 1.4 3.7 -1
v 1.4 3.7 -1.3
v 1.4 3.8 -0.6
v 1.4 3.8 -0.9
v 1.4 3.8 -1
v 1.4 3.8 -1.3
v 1.4 4.1 -0.6
v 1.4 4.1 -0.9
v 1.4 4.1 -1
v 1.4 4.1 -1.3
v 1.4 4.2 -0.5
v 1.4 4.2 -1.4
v 1.8 3.3 -0.5
v 1.8 3.3 -1.4
v 1.8 3.4 -0.6
v 1.8 3.4 -1.3
v 1.8 4.1 -0.6
v 1.8 4.1 -1.3
v 1.8 4.2 -0.5
v 1.8 4.2 -1.4
v 0.6 3.3 -0.5
v 0.6 3.3 -1.4
v 0.6 3.4 -0.6
v 0.6 3.4 -1.3
v 0.6 4.1 -0.6
v 0.6 4.1 -1.3
v 0.6 4.2 -0.5
v 0.6 4.2 -1.4
v 1 3.3 -0.5
v 1 3.3 -1.4
v 1 3.4 -0.6
v 1 3.4 -0.9
v 1 3.4 -1
v 1 3.4 -1.3
v 1 3.7 -0.6
v 1 3.7 -0.9
v 1 3.7 -1
v 1 3.7 -1.3
v 1 3.8 -0.6
v 1 3.8 -0.9
v 1 3.8 -1
v 1 3.8 -1.3
v 1 4.1 -0.6
v 1 4.1 -0.9
v 1 4.1 -1
v 1 4.1 -1.3
v 1 4.2 -0.5
v 1 4.2 -1.4
v 1.6 3.3 -0.5
v 1.6 3.3 -1.4
v 1.6 3.4 -0.6
v 1.6 3.4 -1.3
v 1.6 4.1 -0.6
v 1.6 4.1 -1.3
v 1.6 4.2 -0.5
v 1.6 4.2 -1.4
v 2 3.3 -0.5
v 2 3.3 -1.4
v 2 4.2 -0.5
v 2 4.2 -1.4
v 0.4 3.3 -0.5
v 0.4 4.2 -0.5
v 0.6 3.3 -0.5
v 0.6 4.2 -0.5
v 0.8 3.3 -0.5
v 0.8 4.2 -0.5
v 1 3.3 -0.5
v 1 4.2 -0.5
v 1.4 3.3 -0.5
v 1.4 4.2 -0.5
v 1.6 3.3 -0.5
v 1.6 4.2 -0.5
v 1.8 3.3 -0.5
v 1.8 4.2 -0.5
v 2 3.3 -0.5
v 2 4.2 -0.5
v 0.3 3.4 -0.6
v 0.3 4.1 -0.6
v 0.4 3.4 -0.6
v 0.4 4.1 -0.6
v 0.6 3.4 -0.6
v 0.6 4.1 -0.6
v 0.8 3.4 -0.6
v 0.8 4.1 -0.6
v 1 3.4 -0.6
v 1 3.7 -0.6
v 1 3.8 -0.6
v 1 4.1 -0.6
v 1.4 3.4 -0.6
v 1.4 3.7 -0.6
v 1.4 3.8 -0.6
v 1.4 4.1 -0.6
v 1.6 3.4 -0.6
v 1.6 4.1 -0.6
v 1.8 3.4 -0.6
v 1.8 4.1 -0.6
v 0.2 3.7 -0.9
v 0.2 3.8 -0.9
v 0.3 3.7 -0.9
v 0.3 3.8 -0.9
v 1 3.4 -1
v 1 3.7 -1
v 1 3.8 -1
v 1 4.1 -1
v 1.4 3.4 -1
v 1.4 3.7 -1
v 1.4 3.8 -1
v 1.4 4.1 -1
v 1 3.4 -0.9
v 1 3.7 -0.9
v 1 3.8 -0.9
v 1 4.1 -0.9
v 1.4 3.4 -0.9
v 1.4 3.7 -0.9
v 1.4 3.8 -0.9
v 1.4 4.1 -0.9
v 0.2 3.7 -1
v 0.2 3.8 -1
v 0.3 3.7 -1
v 0.3 3.8 -1
v 0.3 3.4 -1.3
v 0.3 4.1 -1.3
v 0.4 3.4 -1.3
v 0.4 4.1 -1.3
v 0.6 3.4 -1.3
v 0.6 4.1 -1.3
v 0.8 3.4 -1.3
v 0.8 4.1 -1.3
v 1 3.4 -1.3
v 1 3.7 -1.3
v 1 3.8 -1.3
v 1 4.1 -1.3
v 1.4 3.4 -1.3
v 1.4 3.7 -1.3
v 1.4 3.8 -1.3
v 1.4 4.1 -1.3
v 1.6 3.4 -1.3
v 1.6 4.1 -1.3
v 1.8 3.4 -1.3
v 1.8 4.1 -1.3
v 0.4 3.3 -1.4
v 0.4 4.2 -1.4
v 0.6 3.3 -1.4
v 0.6 4.2 -1.4
v 0.8 3.3 -1.4
v 0.8 4.2 -1.4
v 1 3.3 -1.4
v 1 4.2 -1.4
v 1.4 3.3 -1.4
v 1.4 4.2 -1.4
v 1.6 3.3 -1.4
v 1.6 4.2 -1.4
v 1.8 3.3 -1.4
v 1.8 4.2 -1.4
v 2 3.3 -1.4
v 2 4.2 -1.4
v 0.4 3.3 -0.5
v 0.6 3.3 -0.5
v 0.8 3.3 -0.5
v 1 3.3 -0.5
v 1.4 3.3 -0.5
v 1.6 3.3 -0.5
v 1.8 3.3 -0.5
v 2 3.3 -0.5
v 0.4 3.3 -1.4
v 0.6 3.3 -1.4
v 0.8 3.3 -1.4
v 1 3.3 -1.4
v 1.4 3.3 -1.4
v 1.6 3.3 -1.4
v 1.8 3.3 -1.4
v 2 3.3 -1.4
v 0.3 3.4 -0.6
v 0.4 3.4 -0.6
v 0.6 3.4 -0.6
v 0.8 3.4 -0.6
v 1 3.4 -0.6
v 1.4 3.4 -0.6
v 1.6 3.4 -0.6
v 1.8 3.4 -0.6
v 1 3.4 -0.9
v 1.4 3.4 -0.9
v 1 3.4 -1
v 1.4 3.4 -1
v 0.3 3.4 -1.3
v 0.4 3.4 -1.3
v 0.6 3.4 -1.3
v 0.8 3.4 -1.3
v 1 3.4 -1.3
v 1.4 3.4 -1.3
v 1.6 3.4 -1.3
v 1.8 3.4 -1.3
v 0.2 3.7 -0.9
v 0.3 3.7 -0.9
v 0.2 3.7 -1
v 0.3 3.7 -1
v 1 3.8 -0.6
v 1.4 3.8 -0.6
v 1 3.8 -0.9
v 1.4 3.8 -0.9
v 1 3.8 -1
v 1.4 3.8 -1
v 1 3.8 -1.3
v 1.4 3.8 -1.3
v 1 3.7 -0.6
v 1.4 3.7 -0.6
v 1 3.7 -0.9
v 1.4 3.7 -0.9
v 1 3.7 -1
v 1.4 3.7 -1
v 1 3.7 -1.3
v 1.4 3.7 -1.3
v 0.2 3.8 -0.9
v 0.3 3.8 -0.9
v 0.2 3.8 -1
v 0.3 3.8 -1
v 0.3 4.1 -0.6
v 0.4 4.1 -0.6
v 0.6 4.1 -0.6
v 0.8 4.1 -0.6
v 1 4.1 -0.6
v 1.4 4.1 -0.6
v 1.6 4.1 -0.6
v 1.8 4.1 -0.6
v 1 4.1 -0.9
v 1.4 4.1 -0.9
v 1 4.1 -1
v 1.4 4.1 -1
v 0.3 4.1 -1.3
v 0.4 4.1 -1.3
v 0.6 4.1 -1.3
v 0.8 4.1 -1.3
v 1 4.1 -1.3
v 1.4 4.1 -1.3
v 1.6 4.1 -1.3
v 1.8 4.1 -1.3
v 0.4 4.2 -0.5
v 0.6 4.2 -0.5
v 0.8 4.2 -0.5
v 1 4.2 -0.5
v 1.4 4.2 -0.5
v 1.6 4.2 -0.5
v 1.8 4.2 -0.5
v 2 4.2 -0.5
v 0.4 4.2 -1.4
v 0.6 4.2 -1.4
v 0.8 4.2 -1.4
v 1 4.2 -1.4
v 1.4 4.2 -1.4
v 1.6 4.2 -1.4
v 1.8 4.2 -1.4
v 2 4.2 -1.4

# faces
f 3/2/1 2/2/1 1/2/1
f 4/2/1 2/2/1 3/2/1
f 7/3/1 6/3/1 5/3/1
f 8/3/1 6/3/1 7/3/1
f 9/2/1 8/2/1 7/2/1
f 10/2/1 8/2/1 9/2/1
f 11/2/1 9/2/1 7/2/1
f 12/2/1 8/2/1 10/2/1
f 13/3/1 7/3/1 5/3/1
f 13/2/1 12/2/1 11/2/1
f 13/2/1 11/2/1 7/2/1
f 14/2/1 8/2/1 12/2/1
f 14/2/1 12/2/1 13/2/1
f 14/3/1 6/3/1 8/3/1
f 15/3/1 13/3/1 5/3/1
f 15/3/1 14/3/1 13/3/1
f 16/3/1 6/3/1 14/3/1
f 16/3/1 14/3/1 15/3/1
f 19/2/1 18/2/1 17/2/1
f 20/2/1 18/2/1 19/2/1
f 21/2/1 19/2/1 17/2/1
f 22/2/1 18/2/1 20/2/1
f 23/2/1 21/2/1 17/2/1
f 23/2/1 22/2/1 21/2/1
f 24/2/1 18/2/1 22/2/1
f 24/2/1 22/2/1 23/2/1
f 27/2/1 26/2/1 25/2/1
f 28/2/1 26/2/1 27/2/1
f 29/2/1 27/2/1 25/2/1
f 30/2/1 26/2/1 28/2/1
f 31/2/1 29/2/1 25/2/1
f 31/2/1 30/2/1 29/2/1
f 32/2/1 26/2/1 30/2/1
f 32/2/1 30/2/1 31/2/1
f 35/2/1 34/2/1 33/2/1
f 36/2/1 34/2/1 35/2/1
f 37/2/1 34/2/1 36/2/1
f 38/2/1 34/2/1 37/2/1
f 39/2/1 35/2/1 33/2/1
f 40/2/1 37/2/1 36/2/1
f 41/2/1 37/2/1 40/2/1
f 42/2/1 34/2/1 38/2/1
f 43/2/1 41/2/1 40/2/1
f 43/2/1 42/2/1 41/2/1
f 43/2/1 39/2/1 33/2/1
f 43/2/1 40/2/1 39/2/1
f 44/2/1 42/2/1 43/2/1
f 45/2/1 42/2/1 44/2/1
f 46/2/1 34/2/1 42/2/1
f 46/2/1 42/2/1 45/2/1
f 47/2/1 43/2/1 33/2/1
f 48/2/1 45/2/1 44/2/1
f 49/2/1 45/2/1 48/2/1
f 50/2/1 34/2/1 46/2/1
f 51/2/1 47/2/1 33/2/1
f 51/2/1 50/2/1 49/2/1
f 51/2/1 49/2/1 48/2/1
f 51/2/1 48/2/1 47/2/1
f 52/2/1 34/2/1 50/2/1
f 52/2/1 50/2/1 51/2/1
f 55/2/1 54/2/1 53/2/1
f 56/2/1 54/2/1 55/2/1
f 57/2/1 55/2/1 53/2/1
f 58/2/1 54/2/1 56/2/1
f 59/2/1 57/2/1 53/2/1
f 59/2/1 58/2/1 57/2/1
f 60/2/1 54/2/1 58/2/1
f 60/2/1 58/2/1 59/2/1
f 61/2/2 62/2/2 63/2/2
f 63/2/2 62/2/2 64/2/2
f 61/2/2 63/2/2 65/2/2
f 64/2/2 62/2/2 66/2/2
f 61/2/2 65/2/2 67/2/2
f 65/2/2 66/2/2 67/2/2
f 66/2/2 62/2/2 68/2/2
f 67/2/2 66/2/2 68/2/2
f 69/2/2 70/2/2 71/2/2
f 71/2/2 70/2/2 72/2/2
f 72/2/2 70/2/2 73/2/2
f 73/2/2 70/2/2 74/2/2
f 69/2/2 71/2/2 75/2/2
f 72/2/2 73/2/2 76/2/2
f 76/2/2 73/2/2 77/2/2
f 74/2/2 70/2/2 78/2/2
f 76/2/2 77/2/2 79/2/2
f 77/2/2 78/2/2 79/2/2
f 69/2/2 75/2/2 79/2/2
f 75/2/2 76/2/2 79/2/2
f 79/2/2 78/2/2 80/2/2
f 80/2/2 78/2/2 81/2/2
f 78/2/2 70/2/2 82/2/2
f 81/2/2 78/2/2 82/2/2
f 69/2/2 79/2/2 83/2/2
f 80/2/2 81/2/2 84/2/2
f 84/2/2 81/2/2 85/2/2
f 82/2/2 70/2/2 86/2/2
f 69/2/2 83/2/2 87/2/2
f 85/2/2 86/2/2 87/2/2
f 84/2/2 85/2/2 87/2/2
f 83/2/2 84/2/2 87/2/2
f 86/2/2 70/2/2 88/2/2
f 87/2/2 86/2/2 88/2/2
f 89/2/2 90/2/2 91/2/2
f 91/2/2 90/2/2 92/2/2
f 89/2/2 91/2/2 93/2/2
f 92/2/2 90/2/2 94/2/2
f 89/2/2 93/2/2 95/2/2
f 93/2/2 94/2/2 95/2/2
f 94/2/2 90/2/2 96/2/2
f 95/2/2 94/2/2 96/2/2
f 97/2/2 98/2/2 99/2/2
f 99/2/2 98/2/2 100/2/2
f 103/2/3 102/2/3 101/2/3
f 104/2/3 102/2/3 103/2/3
f 107/2/3 106/2/3 105/2/3
f 108/2/3 106/2/3 107/2/3
f 111/2/3 110/2/3 109/2/3
f 112/2/3 110/2/3 111/2/3
f 115/2/3 114/2/3 113/2/3
f 116/2/3 114/2/3 115/2/3
f 119/3/3 118/3/3 117/3/3
f 120/3/3 118/3/3 119/3/3
f 123/1/3 122/1/3 121/1/3
f 124/1/3 122/1/3 123/1/3
f 129/4/3 126/4/3 125/4/3
f 130/4/3 126/4/3 129/4/3
f 131/4/3 128/4/3 127/4/3
f 132/4/3 128/4/3 131/4/3
f 135/1/3 134/1/3 133/1/3
f 136/1/3 134/1/3 135/1/3
f 139/2/3 138/2/3 137/2/3
f 140/2/3 138/2/3 139/2/3
f 145/4/3 142/4/3 141/4/3
f 146/4/3 142/4/3 145/4/3
f 147/4/3 144/4/3 143/4/3
f 148/4/3 144/4/3 147/4/3
f 149/4/4 150/4/4 153/4/4
f 153/4/4 150/4/4 154/4/4
f 151/4/4 152/4/4 155/4/4
f 155/4/4 152/4/4 156/4/4
f 157/2/4 158/2/4 159/2/4
f 159/2/4 158/2/4 160/2/4
f 161/3/4 162/3/4 163/3/4
f 163/3/4 162/3/4 164/3/4
f 165/1/4 166/1/4 167/1/4
f 167/1/4 166/1/4 168/1/4
f 169/4/4 170/4/4 173/4/4
f 173/4/4 170/4/4 174/4/4
f 171/4/4 172/4/4 175/4/4
f 175/4/4 172/4/4 176/4/4
f 177/1/4 178/1/4 179/1/4
f 179/1/4 178/1/4 180/1/4
f 181/2/4 182/2/4 183/2/4
f 183/2/4 182/2/4 184/2/4
f 185/2/4 186/2/4 187/2/4
f 187/2/4 186/2/4 188/2/4
f 189/2/4 190/2/4 191/2/4
f 191/2/4 190/2/4 192/2/4
f 193/2/4 194/2/4 195/2/4
f 195/2/4 194/2/4 196/2/4
f 205/2/5 198/2/5 197/2/5
f 206/2/5 198/2/5 205/2/5
f 207/2/5 200/2/5 199/2/5
f 208/2/5 200/2/5 207/2/5
f 209/2/5 202/2/5 201/2/5
f 210/2/5 202/2/5 209/2/5
f 211/2/5 204/2/5 203/2/5
f 212/2/5 204/2/5 211/2/5
f 221/4/5 218/4/5 217/4/5
f 222/4/5 218/4/5 221/4/5
f 225/3/5 214/3/5 213/3/5
f 226/3/5 214/3/5 225/3/5
f 227/1/5 216/1/5 215/1/5
f 228/1/5 216/1/5 227/1/5
f 229/4/5 224/4/5 223/4/5
f 230/4/5 224/4/5 229/4/5
f 231/1/5 220/1/5 219/1/5
f 232/1/5 220/1/5 231/1/5
f 235/2/5 234/2/5 233/2/5
f 236/2/5 234/2/5 235/2/5
f 239/4/5 238/4/5 237/4/5
f 240/4/5 238/4/5 239/4/5
f 243/4/5 242/4/5 241/4/5
f 244/4/5 242/4/5 243/4/5
f 245/4/6 246/4/6 247/4/6
f 247/4/6 246/4/6 248/4/6
f 249/4/6 250/4/6 251/4/6
f 251/4/6 250/4/6 252/4/6
f 253/2/6 254/2/6 255/2/6
f 255/2/6 254/2/6 256/2/6
f 261/4/6 262/4/6 265/4/6
f 265/4/6 262/4/6 266/4/6
f 257/3/6 258/3/6 269/3/6
f 269/3/6 258/3/6 270/3/6
f 259/1/6 260/1/6 271/1/6
f 271/1/6 260/1/6 272/1/6
f 267/4/6 268/4/6 273/4/6
f 273/4/6 268/4/6 274/4/6
f 263/1/6 264/1/6 275/1/6
f 275/1/6 264/1/6 276/1/6
f 277/2/6 278/2/6 285/2/6
f 285/2/6 278/2/6 286/2/6
f 279/2/6 280/2/6 287/2/6
f 287/2/6 280/2/6 288/2/6
f 281/2/6 282/2/6 289/2/6
f 289/2/6 282/2/6 290/2/6
f 283/2/6 284/2/6 291/2/6
f 291/2/6 284/2/6 292/2/6
